<svg class="dn" height="0" version="1.1" width="0"
  xmlns="http://www.w3.org/2000/svg">
  <defs>
    <g id="icon-user">
      <path fill-rule="evenodd" clip-rule="evenodd" d="M9.69366 1.19166C7.67014 1.19166 6.03079 2.8305 6.03079 4.85175C6.03079 6.873 7.67014 8.51184 9.69366 8.51184C11.7172 8.51184 13.3565 6.873 13.3565 4.85175C13.3565 2.8305 11.7172 1.19166 9.69366 1.19166ZM4.83913 4.85175C4.83913 2.17163 7.01274 0 9.69366 0C12.3746 0 14.5482 2.17163 14.5482 4.85175C14.5482 7.53187 12.3746 9.7035 9.69366 9.7035C7.01274 9.7035 4.83913 7.53187 4.83913 4.85175ZM6.85453 11.9068C4.83145 11.9068 3.19166 14.5461 3.19166 16.5689V18.8079L16.1957 18.8083V16.5689C16.1957 14.5461 14.5559 11.9068 12.5328 11.9068H6.85453ZM2 16.5689C2 13.8877 4.17358 10.7151 6.85453 10.7151H12.5328C15.2137 10.7151 17.3873 13.8877 17.3873 16.5689V20H2V16.5689Z" fill="currentColor"/>
    </g>
    <g id="abacaxi">
      <path d="M23.0818 10.4525C23.1279 10.3087 23.1273 10.154 23.0803 10.0105C23.0334 9.86703 22.9423 9.74223 22.8203 9.65403C21.5253 8.65544 19.9678 8.05959 18.3399 7.93997C18.3768 7.85998 18.4138 7.79713 18.4493 7.70857C18.8201 6.71867 19.3869 5.81468 20.1155 5.05135C20.8441 4.28803 21.7193 3.68124 22.6881 3.26773C22.8397 3.21997 22.971 3.12255 23.061 2.99102C23.151 2.8595 23.1946 2.70145 23.1848 2.54212C23.175 2.38279 23.1123 2.23135 23.0068 2.112C22.9013 1.99264 22.7591 1.91224 22.6028 1.88363C21.004 1.52026 19.3388 1.57926 17.7694 2.05487C16.2 2.53049 14.78 3.4065 13.6477 4.59755C12.8892 3.01391 11.9073 1.54853 10.7323 0.246703C10.6374 0.136546 10.5112 0.0581978 10.3707 0.0221725C10.2302 -0.0138527 10.0821 -0.00583106 9.94627 0.0451607C9.81043 0.0961525 9.69337 0.187675 9.61079 0.307445C9.5282 0.427215 9.48406 0.569502 9.48426 0.715212C9.30365 2.14228 8.91573 3.53501 8.33289 4.84895C7.2907 3.92761 6.07251 3.22949 4.75275 2.79724C3.43298 2.365 2.03937 2.20771 0.657071 2.335C0.494115 2.34739 0.340389 2.41585 0.221784 2.52882C0.103178 2.64179 0.0269404 2.79239 0.00591054 2.95524C-0.0151193 3.1181 0.0203431 3.28326 0.106326 3.42291C0.192309 3.56256 0.323558 3.66818 0.477968 3.72196C2.08227 4.39635 3.42204 5.58108 4.29171 7.09437C4.55906 7.56658 4.85529 8.02168 5.1787 8.45704C3.46106 8.63253 1.84549 9.35984 0.571783 10.5311C0.460461 10.6255 0.380726 10.7521 0.343376 10.8936C0.306026 11.0352 0.312868 11.1848 0.362975 11.3223C0.413081 11.4598 0.504031 11.5785 0.623505 11.6623C0.742979 11.7461 0.885202 11.791 1.03091 11.7909C2.46458 11.7981 3.88872 12.0255 5.25403 12.4651C3.92247 13.3157 2.94744 14.6273 2.51348 16.1517C2.32869 16.8202 2.18228 17.5101 2.02024 18.1929C1.9676 18.2948 1.94074 18.4081 1.94206 18.5229C1.67957 19.6598 1.45024 20.8087 1.25408 21.9695C1.20366 22.0783 1.18211 22.1984 1.19153 22.3181C1.12899 22.7037 1.04939 23.0837 0.988268 23.4722C0.574482 26.453 0.396244 29.462 0.455225 32.471C0.455225 32.5524 0.47939 32.6281 0.483655 32.7095C0.467056 32.8304 0.482247 32.9535 0.527718 33.0666C0.642811 34.224 1.01848 35.3399 1.62628 36.3298C2.23408 37.3197 3.05808 38.1576 4.03585 38.7802C4.10009 38.8319 4.17336 38.8711 4.25191 38.8959C5.43176 39.6107 6.78179 39.9922 8.15947 40H15.2966C16.6933 39.997 18.0628 39.6119 19.2581 38.8859C19.2807 38.8759 19.3025 38.8644 19.3235 38.8516C20.3268 38.235 21.1751 37.3942 21.8025 36.3946C22.4299 35.395 22.8196 34.2635 22.9411 33.0881C22.976 32.9932 22.9901 32.8918 22.9823 32.791C22.9823 32.7067 23.0122 32.6267 23.015 32.541C23.1421 29.0693 22.9082 25.5938 22.3171 22.1709C22.31 22.1252 22.3043 22.0781 22.2972 22.0281C21.9557 20.0335 21.4924 18.062 20.9099 16.1246C20.5269 14.869 19.7783 13.7575 18.7606 12.9336C19.69 11.8384 20.9938 11.1327 22.4152 10.9553C22.5648 10.9527 22.7098 10.9027 22.8296 10.8124C22.9493 10.7221 23.0376 10.5962 23.0818 10.4525ZM20.1579 3.11347C18.8329 4.18124 17.7965 5.56696 17.1444 7.14293C17.0023 7.47717 16.8602 7.77142 16.7095 8.06281C14.6625 8.5808 12.8554 9.79138 11.5923 11.4909C11.5198 11.4081 11.4615 11.3367 11.3791 11.2481C11.4857 10.9096 11.6335 10.5196 11.8055 10.0925C13.1289 6.86725 15.6207 3.26916 20.1579 3.11347ZM10.6527 2.39927C11.5401 3.39992 12.1852 4.59324 12.5375 5.88595C11.9903 6.62273 11.508 7.40607 11.0962 8.22707C10.6159 7.40953 10.0564 6.64162 9.42598 5.93452C9.92018 4.78874 10.3302 3.60812 10.6527 2.40213V2.39927ZM3.49854 3.93193C5.01657 4.33311 6.42374 5.07642 7.61331 6.10549C8.80288 7.13455 9.74361 8.42233 10.3641 9.87114C10.3201 9.98684 10.2703 10.1083 10.2305 10.2154C9.35831 9.50386 8.34864 8.98197 7.26538 8.68273C6.57573 8.00713 5.98942 7.23264 5.52553 6.38446C4.99267 5.4577 4.30729 4.62844 3.49854 3.93193ZM6.30448 9.91113C7.99251 10.2599 9.5089 11.1838 10.5973 12.5265C9.74439 12.8436 8.3997 13.1521 7.6705 12.3294C6.39317 11.239 4.79543 10.5993 3.12186 10.5082C4.0949 9.98078 5.20761 9.77203 6.30448 9.91113ZM21.6064 31.2726L18.8274 28.7529C18.6924 28.6308 18.516 28.5652 18.3344 28.5698C18.1528 28.5743 17.9798 28.6485 17.8509 28.7772L15.0265 31.6025L12.2163 28.7772C12.083 28.6433 11.9023 28.5681 11.7138 28.5681C11.5253 28.5681 11.3446 28.6433 11.2113 28.7772L8.3997 31.6025L5.5767 28.7772C5.44804 28.6483 5.27514 28.5738 5.09353 28.569C4.91191 28.5643 4.73537 28.6295 4.60017 28.7515L1.87667 31.2097C1.87976 28.7701 2.04167 26.3334 2.36139 23.915L4.53478 26.4104C4.59869 26.484 4.67695 26.5437 4.76473 26.5857C4.8525 26.6277 4.94792 26.6512 5.04508 26.6546C5.14225 26.6587 5.23919 26.6423 5.32974 26.6067C5.42028 26.571 5.50245 26.5168 5.57102 26.4475L8.39401 23.6222L11.2056 26.4461C11.3389 26.58 11.5197 26.6552 11.7081 26.6552C11.8966 26.6552 12.0773 26.58 12.2106 26.4461L15.0208 23.6222L17.8552 26.4475C17.9231 26.5173 18.005 26.5718 18.0954 26.6075C18.1858 26.6432 18.2827 26.6593 18.3797 26.6546C18.4767 26.6513 18.5721 26.6281 18.6599 26.5863C18.7476 26.5446 18.8259 26.4852 18.89 26.4118L21.1316 23.8407C21.4795 26.3021 21.6382 28.7867 21.6064 31.2726ZM20.1963 18.9699C20.4465 19.9898 20.664 21.0011 20.8402 22.0067L18.3171 24.8977L15.5268 22.1067C15.3936 21.9732 15.2132 21.8983 15.0251 21.8983C14.837 21.8983 14.6565 21.9732 14.5233 22.1067L11.7131 24.9291L8.90005 22.1081C8.76683 21.9746 8.58639 21.8997 8.39828 21.8997C8.21017 21.8997 8.02973 21.9746 7.89651 22.1081L5.11189 24.8977L2.67411 22.0995C2.86363 21.0178 3.07732 19.9479 3.31518 18.8899L5.0394 17.4001L7.90077 20.2569C8.03399 20.3904 8.21443 20.4653 8.40254 20.4653C8.59065 20.4653 8.77109 20.3904 8.90431 20.2569L11.7131 17.433L14.5233 20.2569C14.6565 20.3904 14.837 20.4653 15.0251 20.4653C15.2132 20.4653 15.3936 20.3904 15.5268 20.2569L18.3868 17.4001L20.1963 18.9699ZM5.75581 38.086L8.35279 35.9577L10.9498 38.5673H8.15947C7.3345 38.5677 6.51759 38.4042 5.75581 38.086ZM12.4764 38.5673L15.072 35.9591L17.6761 38.1017C16.9201 38.4093 16.1122 38.5674 15.2966 38.5673H12.4764ZM18.9966 37.3432L15.4771 34.4436C15.3407 34.331 15.1674 34.2735 14.9911 34.2822C14.8148 34.2909 14.6481 34.3653 14.5233 34.4907L11.7131 37.3146L8.90005 34.4907C8.77535 34.3657 8.60887 34.2916 8.4329 34.2829C8.25692 34.2741 8.084 34.3314 7.94768 34.4436L4.44097 37.3189C3.75784 36.8181 3.18415 36.1819 2.75533 35.4495C2.3265 34.7171 2.05165 33.9042 1.94775 33.0609L5.0465 30.2656L7.89651 33.1223C8.02973 33.2558 8.21017 33.3307 8.39828 33.3307C8.58639 33.3307 8.76683 33.2558 8.90005 33.1223L11.7088 30.2984L14.519 33.1223C14.6523 33.2558 14.8327 33.3307 15.0208 33.3307C15.2089 33.3307 15.3894 33.2558 15.5226 33.1223L18.3655 30.2656L21.4927 33.1052C21.3831 33.9449 21.105 34.7535 20.6752 35.482C20.2454 36.2105 19.6729 36.8437 18.9923 37.3432H18.9966ZM19.5396 16.5145L18.8146 15.8875C18.6791 15.7704 18.5047 15.7089 18.3261 15.7152C18.1475 15.7216 17.9778 15.7953 17.8509 15.9218L15.0265 18.7471L12.2163 15.9218C12.083 15.7879 11.9023 15.7127 11.7138 15.7127C11.5253 15.7127 11.3446 15.7879 11.2113 15.9218L8.3997 18.7471L5.5767 15.9218C5.44989 15.7947 5.28003 15.7205 5.10108 15.7139C4.92214 15.7072 4.74731 15.7687 4.61154 15.8861L3.90081 16.5045C4.10989 15.8066 4.46675 15.1623 4.94692 14.6159C5.42708 14.0696 6.01918 13.634 6.68259 13.3393C6.98163 13.6512 7.34252 13.8965 7.74188 14.0594C8.14125 14.2223 8.5702 14.2991 9.00097 14.2848C10.0502 14.2414 11.0763 13.9612 12.0031 13.4649C13.1127 13.9682 14.3101 14.2468 15.5268 14.2848C16.2356 14.2898 16.9357 14.1294 17.5723 13.8163C18.5108 14.4684 19.2037 15.4188 19.5396 16.5145ZM17.6093 12.0566C16.347 13.4221 14.0073 12.7393 12.8048 12.2565C13.8529 10.879 15.3311 9.89505 17.0023 9.46262C18.2055 9.23819 19.4486 9.41264 20.5445 9.9597C19.4252 10.4344 18.4232 11.1502 17.6093 12.0566Z" fill="white"/>
    </g>

    <g id="limao">
      <path fill-rule="evenodd" clip-rule="evenodd" d="M11.9375 2.0151C14.6956 1.34537 16.8994 2.8123 18.4582 4.00526C23.9895 8.23673 25.0186 19.645 18.2558 21.2261C13.2428 22.3981 9.3799 17.4208 8.03112 14.1159C5.95404 9.03394 7.2385 3.15859 11.9375 2.0151ZM1.25695 20.5677C2.01363 20.9483 2.28036 20.8931 3.36808 20.895C6.54992 20.895 8.0822 24.3445 14.7183 22.9879C15.3747 22.8528 15.8174 22.7691 16.3451 22.3372C10.3466 21.6827 6.28319 15.3602 6.12996 9.67323C6.05051 6.83449 6.72774 5.60158 7.73034 3.63044C5.48868 4.81008 3.19026 7.2036 2.26333 10.0671C1.52178 12.3502 1.88499 13.3016 2.06092 15.5847C2.25009 17.984 0.5154 18.2617 1.27208 20.5735L1.25695 20.5677ZM11.6689 1.02572C6.0297 2.17302 0.188136 7.14842 0.842664 14.0778C1.25884 18.53 0.778347 15.9805 0.112468 18.7583C-0.388832 20.8512 0.835098 21.9072 2.80057 21.8844C6.24725 21.8425 6.75044 24.4529 12.2591 24.2684C18.5622 24.0572 24.837 20.1549 23.9082 12.4035C23.509 9.03394 21.9294 5.96498 20.1002 4.25831C17.9342 2.2358 15.492 0.247545 11.6689 1.02572Z" fill="white"/>
      <path fill-rule="evenodd" clip-rule="evenodd" d="M15.6717 12.9286C16.5362 13.7106 17.2323 14.7038 18.0117 15.678C18.5546 16.3572 20.2988 18.2313 18.4884 18.9885C14.1678 20.798 15.1609 15.6722 15.6698 12.9267L15.6717 12.9286ZM13.8329 18.0486C14.1999 17.1449 14.6615 13.6383 14.6104 12.4378C13.9048 12.4378 13.0611 12.628 12.3309 12.7878C10.7079 13.1284 10.8289 12.9172 10.4014 13.5736C9.77336 14.5516 12.1493 17.7728 13.8329 18.0486ZM16.0784 11.8061L18.0514 14.1235C19.0616 15.2841 19.3756 16.0261 20.3934 16.2697C21.5662 14.9968 21.4887 12.531 20.4671 11.0051C19.6726 10.9252 16.7859 11.2125 16.0784 11.8061ZM14.1867 11.3875C12.8341 11.5778 10.0458 12.746 9.36475 11.4313C8.63266 10.0119 9.05262 7.51182 9.8547 6.69939C10.9595 7.01142 13.4735 10.2288 14.1867 11.3875ZM15.6319 10.6131C15.6565 9.25083 15.8779 5.94404 16.4738 4.96799C17.5653 5.07644 18.2784 6.07532 18.7911 6.72032C21.4868 10.1108 19.4002 9.98525 15.6338 10.6131H15.6319ZM14.6426 10.0176C14.7674 8.79039 15.1231 6.44063 15.0417 5.32378C14.9112 3.52769 13.0233 3.32601 11.6197 4.08706C10.059 4.93374 11.6405 6.49771 12.2042 7.26067C12.626 7.83146 14.0959 9.81211 14.6445 10.0252L14.6426 10.0176ZM10.0004 5.71002C7.49575 6.06391 7.94408 10.5903 8.40187 11.6482C8.87858 12.7422 9.39691 12.2475 9.34772 13.372C9.22476 15.775 11.9488 19.6887 14.5272 18.7907C15.8817 21.6446 21.0176 20.0141 20.2458 17.5254C20.2799 17.4931 20.3423 17.4075 20.3593 17.4436C20.3593 17.4436 21.3316 16.9622 21.6835 16.302C21.9843 15.7312 22.1299 14.8123 22.1772 14.0645C22.3305 11.6177 21.8916 11.3513 20.8133 10.069C21.553 7.54226 18.199 3.35835 15.859 4.17078C14.9755 3.20804 14.4345 2.42986 12.4312 2.81229C10.7306 3.12052 9.79416 3.76932 10.0004 5.71002Z" fill="white"/>
    </g>


    <g id="caju">
      <mask id="mask0_831_4749" style="mask-type:luminance" maskUnits="userSpaceOnUse" x="0" y="0" width="26" height="41">
      <path d="M25.8442 0.75H0V40.4559H25.8442V0.75Z" fill="white"/>
      </mask>
      <g mask="url(#mask0_831_4749)">
      <path d="M16.7869 8.08278C16.6609 4.85294 14.8712 1.2602 14.7926 1.1033L14.6138 0.75H14.2143C12.7896 0.75 11.6299 1.89955 11.6299 3.31167V3.43442L11.6762 3.54969C11.6805 3.56143 11.8625 4.01613 12.0865 4.67149C11.4274 5.44853 9.87248 6.63971 8.64919 7.48933C8.05585 6.43904 6.70764 4.5925 4.52273 4.5925C1.72941 4.5925 0 7.25237 0 9.71584C0 11.0266 0.625644 15.3857 0.652565 15.5703L0.721483 16.0453L1.20068 16.1136C1.32344 16.1307 3.28975 16.4082 4.989 16.5939C4.41935 18.5034 3.87663 21.2167 3.87663 23.805C3.87663 26.6773 5.8634 28.9284 8.39936 28.9284C8.69657 28.9284 9.96832 28.8953 10.8696 28.4715C10.9827 28.6807 11.1141 28.8793 11.2584 29.0671C10.7695 29.636 10.3377 30.3704 10.3377 31.49C10.3377 32.3727 10.5724 33.0334 10.8653 33.5159C9.55158 33.8681 9.04546 35.0977 9.04546 35.973C9.04546 38.6542 11.1227 40.4559 14.2143 40.4559C17.7776 40.4559 20.6753 37.5836 20.6753 34.0517C20.6753 32.1315 19.8354 30.2071 18.527 28.9796C18.6455 28.8174 18.7543 28.6487 18.8501 28.4715C19.7514 28.8953 21.0232 28.9284 21.3214 28.9284C23.8574 28.9284 25.8442 26.6773 25.8442 23.805C25.8442 16.3751 21.7274 9.53759 16.7869 8.08278ZM13.8309 2.08847C14.2703 3.05444 15.3116 5.55206 15.4807 7.82768C15.275 7.80847 15.0682 7.79566 14.8615 7.79566C14.6343 7.79566 14.4081 7.81167 14.1809 7.83515C14.0043 6.05693 13.1493 3.77277 12.9275 3.2028C12.9716 2.67659 13.3388 2.24004 13.8309 2.08847ZM12.5172 6.06867C12.7046 6.75391 12.8629 7.47545 12.9081 8.09239C12.1661 8.31546 11.4296 8.66343 10.7038 9.13733C10.3441 8.81819 9.9737 8.55989 9.64526 8.35923C10.4626 7.78285 11.6514 6.89908 12.5172 6.06867ZM3.89063 12.0053C3.03777 11.7641 2.12676 11.6777 1.44835 11.651C1.36005 10.8547 1.29436 10.1353 1.29221 9.73612C2.85901 9.80977 4.14584 10.1577 5.13545 10.7747L3.89063 12.0053ZM2.81379 13.0706L1.75525 14.1166C1.70787 13.7622 1.6551 13.3598 1.60234 12.9414C1.9717 12.9617 2.38951 12.9991 2.81379 13.0706ZM4.21906 13.4847C4.22337 13.4879 4.22875 13.489 4.23414 13.4911L4.25568 13.4484L4.8867 12.8229C5.01054 13.3716 5.12038 14.171 5.15591 15.3238C4.3149 15.232 3.3942 15.1156 2.67057 15.0196L4.21906 13.4847ZM6.45135 15.4476C6.41259 13.8647 6.23922 12.6372 5.93016 11.7865L7.07484 10.6519C7.92447 11.7577 8.3649 13.3129 8.3929 15.2779C7.94924 15.4113 7.50343 15.4785 7.10715 15.4785C6.94132 15.4796 6.71518 15.4679 6.45135 15.4476ZM9.66465 14.6727C9.54942 12.6201 8.99054 10.9679 7.99339 9.7436L8.53612 9.20565C9.30175 9.59737 10.9838 10.6434 10.9838 12.2775C10.9838 13.3545 10.4206 14.1454 9.66465 14.6727ZM7.38497 7.88959C6.21337 6.94177 4.92332 6.3163 3.56542 6.03878C3.85617 5.93631 4.17276 5.87227 4.52273 5.87227C5.9054 5.87334 6.87563 7.06131 7.38497 7.88959ZM2.11922 7.16378C3.82601 7.20647 5.40682 7.85757 6.82825 9.10104L6.06584 9.8546C4.87917 9.03807 3.3479 8.5695 1.48496 8.46276C1.6228 8.0102 1.83494 7.55977 2.11922 7.16378ZM12.9393 33.7336C13.0212 33.0452 13.3991 32.7709 14.2143 32.7709C14.504 32.7709 14.8604 33.1231 14.8604 33.4113C14.8604 33.851 14.6343 34.0165 13.3754 34.0464C13.2473 33.9279 13.103 33.8233 12.9393 33.7336ZM14.2143 39.175C12.3406 39.175 10.3377 38.334 10.3377 35.973C10.3377 35.7595 10.4001 34.6921 11.6299 34.6921C12.8101 34.6921 12.9167 35.6762 12.9221 35.973H14.2143C14.2143 35.7606 14.1766 35.5247 14.1131 35.2877C15.1533 35.1767 16.1526 34.7893 16.1526 33.4113C16.1526 32.424 15.2104 31.49 14.2143 31.49C13.0858 31.49 12.2986 31.9394 11.9099 32.7421C11.7537 32.4389 11.6299 32.0312 11.6299 31.49C11.6299 30.8101 11.8506 30.3704 12.1801 29.969C12.9318 30.5198 13.8568 30.8496 14.8604 30.8496C15.906 30.8496 16.8666 30.4931 17.6333 29.9007C18.6853 30.8848 19.3831 32.4912 19.3831 34.0517C19.3831 36.8759 17.0636 39.175 14.2143 39.175ZM21.3225 27.6475C20.6786 27.6465 19.6836 27.512 19.2916 27.2633C19.3519 26.974 19.3831 26.6741 19.3831 26.3667C19.3831 26.308 19.3745 24.9183 18.6692 23.519L17.5137 24.0921C18.078 25.2118 18.0909 26.3571 18.0909 26.3667C18.0909 28.1321 16.6415 29.5688 14.8604 29.5688C13.0793 29.5688 11.6299 28.1321 11.6299 26.3678C11.6299 26.356 11.6428 25.2107 12.2081 24.0911L11.0527 23.5179C10.3463 24.9183 10.3377 26.308 10.3377 26.3667C10.3377 26.6741 10.3689 26.974 10.4292 27.2633C10.0383 27.512 9.04223 27.6465 8.39936 27.6475C6.58811 27.6475 5.16884 25.959 5.16884 23.805C5.16884 21.2359 5.7331 18.5419 6.30275 16.7199C6.62365 16.7444 6.9047 16.7604 7.10715 16.7604C9.59357 16.7604 12.276 15.0473 12.276 12.2775C12.276 11.4279 11.9852 10.7074 11.5717 10.1076C12.6658 9.42552 13.7717 9.07543 14.8604 9.07543C20.3178 9.07543 24.552 16.9931 24.552 23.805C24.552 25.959 23.1327 27.6475 21.3225 27.6475Z" fill="white"/>
      </g>
      <path d="M14.8604 10.3562V11.637C18.0597 11.637 21.9675 17.2524 21.9675 23.805H23.2598C23.2598 16.231 18.7446 10.3562 14.8604 10.3562Z" fill="white"/>
    </g>

    <g id="goiaba">
      <path d="M4.1464 5.24723C3.64991 5.51107 3.16874 5.8024 2.70517 6.11983C2.65086 6.1571 2.60448 6.20463 2.56868 6.25969C2.53287 6.31476 2.50834 6.37629 2.49649 6.44077C2.47256 6.57098 2.50172 6.7053 2.57756 6.81418C2.65339 6.92305 2.76969 6.99757 2.90087 7.02132C3.03206 7.04508 3.16737 7.01613 3.27705 6.94086C3.70932 6.64477 4.15801 6.37302 4.621 6.1269C4.73679 6.06345 4.82274 5.95727 4.86021 5.83136C4.89768 5.70545 4.88365 5.56995 4.82118 5.45424C4.7587 5.33852 4.6528 5.2519 4.52643 5.21315C4.40006 5.1744 4.2634 5.18664 4.14606 5.24723H4.1464Z" fill="white"/>
      <path d="M9.16865 15.7901C9.17896 15.7906 9.18918 15.791 9.1994 15.791C9.32743 15.7909 9.45059 15.7423 9.54377 15.6551C9.63694 15.568 9.69311 15.4488 9.70081 15.3219C9.72419 14.9371 9.76014 14.5439 9.80765 14.1534C9.82364 14.022 9.78638 13.8897 9.70408 13.7855C9.62178 13.6814 9.50117 13.614 9.36879 13.5981C9.2364 13.5822 9.10309 13.6192 8.99818 13.7009C8.89326 13.7826 8.82534 13.9023 8.80935 14.0337C8.75907 14.4439 8.7217 14.8572 8.69707 15.2618C8.69308 15.3272 8.70212 15.3928 8.72367 15.4548C8.74521 15.5167 8.77884 15.5738 8.82263 15.6229C8.86642 15.672 8.91952 15.712 8.97889 15.7406C9.03826 15.7693 9.10274 15.7861 9.16865 15.7901Z" fill="white"/>
      <path d="M9.66804 16.7026C9.66609 16.5715 9.61225 16.4465 9.51818 16.3545C9.42411 16.2625 9.29735 16.2109 9.16529 16.2109H9.15767C9.02435 16.2129 8.89729 16.2674 8.80442 16.3623C8.71155 16.4573 8.66048 16.585 8.66245 16.7173C8.70385 19.4971 9.36371 21.5914 9.90995 22.8586C9.9624 22.9803 10.0614 23.0763 10.1852 23.1256C10.3089 23.1748 10.4473 23.1732 10.5699 23.1212C10.6925 23.0691 10.7893 22.9708 10.8389 22.848C10.8885 22.7251 10.8869 22.5877 10.8344 22.466C10.324 21.2813 9.70709 19.3196 9.66804 16.7026Z" fill="white"/>
      <path d="M34.4004 10.526C33.3621 10.1503 32.4816 10.3215 32.0435 10.5823C32.0326 10.5888 32.0221 10.5957 32.0117 10.6029C31.633 10.8691 30.9287 10.6651 30.4933 10.3242C30.131 10.0499 29.7163 9.85185 29.2743 9.74201C28.8324 9.63217 28.3725 9.61287 27.9228 9.6853C26.2395 9.93017 24.5196 11.2798 22.8115 13.6967C20.4432 17.0461 20.1287 22.5722 22.1238 25.763C23.2199 27.5157 24.9245 28.4437 26.9979 28.4437C27.3807 28.4427 27.7628 28.4129 28.141 28.3545C28.5422 28.2931 28.9526 28.3501 29.3214 28.5183C30.259 28.9455 31.1862 29.1572 32.0771 29.1572C33.4502 29.1572 34.7372 28.6539 35.8425 27.6601C38.6515 25.1338 39.8936 19.7408 38.5549 15.8836C37.2906 12.2403 35.5978 10.9591 34.4004 10.526ZM35.1674 26.92C33.6402 28.2935 31.7637 28.5326 29.7409 27.611C29.3384 27.4274 28.9006 27.3324 28.4576 27.3325C28.3005 27.3325 28.1437 27.3444 27.9884 27.368C25.7912 27.7021 24.0585 26.9655 22.9776 25.2367C21.2031 22.3992 21.5096 17.2745 23.6336 14.27C25.1553 12.1174 26.6888 10.8736 28.0681 10.6728C29.0168 10.5351 29.6443 10.9311 29.8696 11.1078C30.8403 11.8679 31.9566 11.8464 32.5706 11.4322C32.7357 11.3416 33.2887 11.1865 34.0552 11.4638C35.0472 11.8227 36.4684 12.9372 37.6034 16.2086C38.8047 19.6676 37.6664 24.6734 35.1674 26.9203V26.92Z" fill="white"/>
      <path d="M27.2625 14.978C27.3194 14.9859 27.3769 14.9899 27.4344 14.9899C27.7308 14.9896 28.0173 14.8834 28.2412 14.6906C28.4652 14.4978 28.6117 14.2315 28.654 13.9402C28.6764 13.7813 28.6671 13.6196 28.6265 13.4643C28.5859 13.309 28.5148 13.1632 28.4174 13.0352C28.3199 12.9072 28.198 12.7995 28.0586 12.7183C27.9191 12.6371 27.765 12.584 27.6048 12.5621C27.2818 12.5173 26.954 12.6013 26.6932 12.7958C26.4324 12.9903 26.2598 13.2795 26.2132 13.5999C26.1909 13.7588 26.2003 13.9205 26.2409 14.0758C26.2815 14.2311 26.3526 14.3769 26.4501 14.5049C26.5475 14.6329 26.6694 14.7405 26.8088 14.8217C26.9482 14.9029 27.1024 14.956 27.2625 14.978ZM27.2089 13.7396C27.217 13.6863 27.2441 13.6376 27.2853 13.6025C27.3265 13.5673 27.3791 13.5481 27.4334 13.5483C27.4441 13.5483 27.4549 13.549 27.4655 13.5505C27.4952 13.5545 27.5239 13.5642 27.5498 13.5793C27.5757 13.5943 27.5983 13.6143 27.6163 13.638C27.6338 13.661 27.6464 13.6872 27.6536 13.7151C27.6608 13.7429 27.6624 13.7719 27.6582 13.8004C27.6513 13.8442 27.6315 13.8851 27.6013 13.9178C27.5711 13.9506 27.5319 13.9738 27.4886 13.9846C27.4452 13.9954 27.3996 13.9934 27.3574 13.9787C27.3152 13.9639 27.2783 13.9372 27.2513 13.9019C27.2339 13.8789 27.2211 13.8528 27.2139 13.8249C27.2066 13.7971 27.205 13.7681 27.2091 13.7396H27.2089Z" fill="white"/>
      <path d="M25.5962 17.7143C25.9193 17.7596 26.2474 17.6757 26.5083 17.4811C26.7692 17.2866 26.9417 16.9972 26.9878 16.6765C27.0102 16.5176 27.0008 16.3559 26.9602 16.2006C26.9196 16.0453 26.8485 15.8995 26.7511 15.7715C26.6536 15.6436 26.5317 15.5359 26.3923 15.4547C26.2529 15.3736 26.0987 15.3205 25.9387 15.2985C25.6156 15.2535 25.2877 15.3375 25.0269 15.532C24.766 15.7265 24.5935 16.0157 24.5471 16.3363C24.5247 16.4952 24.534 16.6569 24.5746 16.8122C24.6152 16.9675 24.6863 17.1133 24.7837 17.2413C24.8812 17.3693 25.0031 17.477 25.1425 17.5581C25.2819 17.6393 25.4361 17.6924 25.5962 17.7143V17.7143ZM25.5427 16.4758C25.5508 16.4224 25.5779 16.3738 25.6191 16.3386C25.6603 16.3035 25.7129 16.2843 25.7672 16.2845C25.778 16.2845 25.7887 16.2852 25.7994 16.2867C25.829 16.2907 25.8576 16.3005 25.8834 16.3154C25.9092 16.3304 25.9317 16.3504 25.9497 16.374C25.9672 16.397 25.98 16.4232 25.9873 16.4511C25.9946 16.4791 25.9962 16.5081 25.9922 16.5367C25.9852 16.5805 25.9654 16.6213 25.9352 16.6541C25.905 16.6868 25.8658 16.71 25.8224 16.7208C25.7791 16.7316 25.7334 16.7296 25.6913 16.7149C25.6491 16.7002 25.6122 16.6735 25.5851 16.6381C25.5677 16.6152 25.5549 16.589 25.5476 16.5611C25.5404 16.5333 25.5387 16.5043 25.5427 16.4758Z" fill="white"/>
      <path d="M25.2505 21.3634C25.5469 21.3631 25.8333 21.2569 26.0573 21.0641C26.2813 20.8714 26.4279 20.605 26.4702 20.3137C26.4926 20.1548 26.4832 19.9931 26.4426 19.8379C26.4019 19.6826 26.3308 19.5368 26.2334 19.4088C26.1359 19.2808 26.014 19.1731 25.8746 19.0919C25.7352 19.0108 25.5811 18.9577 25.421 18.9357C25.0979 18.8907 24.77 18.9748 24.5092 19.1693C24.2483 19.3639 24.0758 19.6531 24.0294 19.9737C24.007 20.1326 24.0163 20.2943 24.0569 20.4496C24.0975 20.6049 24.1686 20.7507 24.266 20.8788C24.3635 21.0068 24.4854 21.1144 24.6248 21.1956C24.7642 21.2768 24.9184 21.3299 25.0785 21.3518C25.1355 21.3596 25.1929 21.3635 25.2505 21.3634ZM25.0251 20.113C25.0331 20.0597 25.0602 20.011 25.1014 19.9759C25.1426 19.9408 25.1952 19.9215 25.2495 19.9217C25.2603 19.9217 25.271 19.9225 25.2817 19.924C25.3113 19.9279 25.3399 19.9377 25.3657 19.9527C25.3915 19.9677 25.414 19.9876 25.432 20.0113C25.4496 20.0343 25.4623 20.0605 25.4696 20.0884C25.4769 20.1163 25.4786 20.1454 25.4745 20.1739C25.4675 20.2177 25.4477 20.2586 25.4175 20.2913C25.3873 20.3241 25.3481 20.3473 25.3047 20.3581C25.2614 20.3689 25.2158 20.3668 25.1736 20.3521C25.1314 20.3374 25.0945 20.3107 25.0675 20.2754C25.05 20.2524 25.0372 20.2263 25.03 20.1984C25.0227 20.1705 25.021 20.1415 25.0251 20.113Z" fill="white"/>
      <path d="M26.3764 22.7777C26.0533 22.7328 25.7255 22.8167 25.4646 23.0112C25.2038 23.2057 25.0313 23.4949 24.9848 23.8154C24.9624 23.9743 24.9718 24.1361 25.0124 24.2913C25.053 24.4466 25.1241 24.5925 25.2215 24.7205C25.319 24.8485 25.4409 24.9561 25.5803 25.0373C25.7197 25.1185 25.8739 25.1716 26.034 25.1936C26.3571 25.2386 26.685 25.1547 26.9459 24.9602C27.2067 24.7656 27.3792 24.4764 27.4256 24.1558C27.448 23.9969 27.4386 23.8352 27.3979 23.68C27.3573 23.5247 27.2862 23.3789 27.1888 23.2509C27.0913 23.1229 26.9694 23.0153 26.83 22.9341C26.6906 22.8529 26.5365 22.7998 26.3764 22.7778V22.7777ZM26.4298 24.0161C26.4228 24.06 26.403 24.1008 26.3728 24.1335C26.3427 24.1663 26.3034 24.1895 26.2601 24.2003C26.2167 24.2111 26.1711 24.209 26.1289 24.1943C26.0868 24.1796 26.0499 24.1529 26.0229 24.1175C26.0053 24.0946 25.9925 24.0684 25.9853 24.0405C25.978 24.0126 25.9764 23.9835 25.9805 23.955C25.9885 23.9017 26.0156 23.853 26.0568 23.8179C26.098 23.7828 26.1506 23.7635 26.2049 23.7637C26.2157 23.7637 26.2264 23.7644 26.237 23.766C26.2667 23.7699 26.2952 23.7797 26.321 23.7947C26.3468 23.8097 26.3693 23.8296 26.3873 23.8533C26.4049 23.8763 26.4177 23.9025 26.425 23.9305C26.4323 23.9585 26.4339 23.9876 26.4298 24.0161Z" fill="white"/>
      <path d="M33.5967 15.8576C33.6536 15.8655 33.7111 15.8695 33.7686 15.8695C34.065 15.8692 34.3515 15.763 34.5754 15.5702C34.7994 15.3775 34.946 15.1111 34.9883 14.8198C35.0107 14.661 35.0013 14.4992 34.9607 14.344C34.9201 14.1887 34.849 14.0429 34.7515 13.9149C34.6541 13.7869 34.5322 13.6792 34.3928 13.598C34.2534 13.5169 34.0992 13.4638 33.9391 13.4418C33.6161 13.3968 33.2882 13.4808 33.0274 13.6753C32.7666 13.8698 32.594 14.159 32.5475 14.4795C32.5251 14.6384 32.5345 14.8001 32.5751 14.9554C32.6157 15.1107 32.6868 15.2565 32.7842 15.3845C32.8817 15.5125 33.0036 15.6202 33.143 15.7014C33.2824 15.7825 33.4366 15.8356 33.5967 15.8576ZM33.5432 14.6192C33.5511 14.5659 33.5782 14.5171 33.6194 14.482C33.6606 14.4468 33.7133 14.4276 33.7676 14.4279C33.7784 14.4279 33.7891 14.4286 33.7998 14.4302C33.8295 14.4341 33.8581 14.4438 33.884 14.4588C33.9099 14.4738 33.9326 14.4938 33.9506 14.5176C33.9681 14.5405 33.9809 14.5667 33.9882 14.5945C33.9954 14.6224 33.9971 14.6514 33.993 14.6799C33.986 14.7238 33.9662 14.7646 33.9361 14.7974C33.9059 14.8301 33.8667 14.8534 33.8233 14.8642C33.78 14.875 33.7343 14.873 33.6922 14.8582C33.65 14.8435 33.6131 14.8169 33.586 14.7815C33.5685 14.7586 33.5556 14.7325 33.5483 14.7046C33.5409 14.6768 33.5392 14.6477 33.5432 14.6192Z" fill="white"/>
      <path d="M34.777 16.5254C34.454 16.4807 34.1263 16.5648 33.8655 16.7592C33.6047 16.9537 33.4322 17.2428 33.3855 17.5632C33.3631 17.7221 33.3725 17.8838 33.4131 18.0391C33.4537 18.1944 33.5248 18.3402 33.6222 18.4682C33.7197 18.5962 33.8416 18.7038 33.981 18.785C34.1204 18.8662 34.2746 18.9193 34.4347 18.9413C34.7578 18.9863 35.0857 18.9024 35.3465 18.7079C35.6074 18.5133 35.7799 18.2241 35.8263 17.9035C35.8487 17.7446 35.8393 17.5829 35.7986 17.4276C35.758 17.2723 35.6869 17.1265 35.5895 16.9985C35.492 16.8705 35.3701 16.7629 35.2307 16.6817C35.0913 16.6005 34.9371 16.5474 34.777 16.5254ZM34.8306 17.7638C34.8236 17.8077 34.8038 17.8485 34.7737 17.8813C34.7435 17.9141 34.7043 17.9373 34.6609 17.9482C34.6175 17.959 34.5719 17.9569 34.5297 17.9422C34.4875 17.9274 34.4506 17.9007 34.4236 17.8653C34.4061 17.8424 34.3933 17.8162 34.386 17.7883C34.3788 17.7605 34.3771 17.7314 34.3812 17.7029C34.3892 17.6496 34.4162 17.6009 34.4574 17.5657C34.4987 17.5306 34.5513 17.5114 34.6056 17.5116C34.6164 17.5116 34.6271 17.5124 34.6378 17.5139C34.6674 17.5179 34.696 17.5277 34.7218 17.5427C34.7476 17.5577 34.7701 17.5776 34.7881 17.6013C34.8057 17.6243 34.8184 17.6504 34.8257 17.6783C34.833 17.7062 34.8347 17.7353 34.8306 17.7638Z" fill="white"/>
      <path d="M34.2595 20.1629C33.9364 20.1181 33.6086 20.2021 33.3478 20.3966C33.087 20.5911 32.9144 20.8802 32.8678 21.2007C32.8454 21.3596 32.8548 21.5213 32.8954 21.6766C32.9361 21.8319 33.0071 21.9777 33.1046 22.1057C33.2021 22.2337 33.324 22.3414 33.4634 22.4225C33.6028 22.5037 33.757 22.5568 33.9171 22.5788C34.2402 22.6238 34.5681 22.5399 34.8289 22.3453C35.0898 22.1508 35.2623 21.8616 35.3086 21.541C35.331 21.3821 35.3216 21.2204 35.281 21.0651C35.2404 20.9098 35.1693 20.764 35.0718 20.636C34.9744 20.508 34.8525 20.4004 34.7131 20.3192C34.5737 20.238 34.4195 20.1849 34.2595 20.1629ZM34.3129 21.4013C34.3059 21.4452 34.2861 21.486 34.2559 21.5187C34.2258 21.5515 34.1866 21.5747 34.1432 21.5855C34.0998 21.5963 34.0542 21.5943 34.012 21.5796C33.9699 21.5648 33.933 21.5382 33.9059 21.5028C33.8884 21.4799 33.8756 21.4537 33.8684 21.4258C33.8611 21.398 33.8594 21.3689 33.8635 21.3404C33.8716 21.2871 33.8987 21.2384 33.9399 21.2033C33.9811 21.1682 34.0337 21.149 34.088 21.1491C34.0987 21.1492 34.1095 21.1499 34.1201 21.1513C34.1497 21.1553 34.1783 21.1651 34.2041 21.1801C34.2299 21.1951 34.2524 21.2151 34.2704 21.2388C34.288 21.2618 34.3008 21.2879 34.3081 21.3158C34.3154 21.3437 34.317 21.3728 34.3129 21.4013Z" fill="white"/>
      <path d="M32.2688 23.5959C31.9457 23.5508 31.6178 23.6347 31.3569 23.8292C31.096 24.0238 30.9235 24.313 30.8771 24.6336C30.8547 24.7925 30.8641 24.9542 30.9047 25.1095C30.9453 25.2648 31.0164 25.4106 31.1138 25.5386C31.2112 25.6665 31.3331 25.7742 31.4725 25.8554C31.6119 25.9366 31.7661 25.9897 31.9262 26.0117C31.9832 26.0196 32.0407 26.0235 32.0983 26.0236C32.3947 26.0233 32.6811 25.917 32.9051 25.7243C33.129 25.5315 33.2756 25.2651 33.3179 24.9739C33.3403 24.815 33.3309 24.6533 33.2903 24.498C33.2496 24.3428 33.1786 24.197 33.0812 24.069C32.9837 23.941 32.8618 23.8333 32.7224 23.7522C32.583 23.671 32.4289 23.6179 32.2688 23.5959ZM32.3222 24.8342C32.3152 24.8781 32.2954 24.9189 32.2652 24.9517C32.235 24.9844 32.1958 25.0077 32.1525 25.0185C32.1091 25.0293 32.0635 25.0272 32.0213 25.0125C31.9791 24.9978 31.9422 24.9712 31.9152 24.9358C31.8977 24.9128 31.8849 24.8866 31.8776 24.8587C31.8703 24.8308 31.8687 24.8018 31.8728 24.7733C31.8808 24.7199 31.9079 24.6713 31.9492 24.6361C31.9904 24.601 32.0429 24.5818 32.0973 24.582C32.108 24.582 32.1188 24.5827 32.1294 24.5842C32.1591 24.5882 32.1876 24.598 32.2134 24.613C32.2392 24.628 32.2618 24.6479 32.2798 24.6716C32.2973 24.6946 32.3101 24.7208 32.3174 24.7487C32.3246 24.7766 32.3263 24.8057 32.3222 24.8342Z" fill="white"/>
      <path d="M28.5156 15.3117C28.415 15.4166 26.0657 17.9244 27.6038 21.5567C27.9121 22.2848 28.1032 22.9201 28.1719 23.4448C28.1876 23.5649 28.2468 23.6752 28.3384 23.7552C28.43 23.8352 28.5478 23.8794 28.6698 23.8795C28.6917 23.8796 28.7135 23.8782 28.7352 23.8754C28.8007 23.867 28.8638 23.8458 28.9211 23.8131C28.9783 23.7805 29.0285 23.7369 29.0688 23.685C29.1091 23.6331 29.1387 23.5738 29.1559 23.5105C29.1731 23.4472 29.1776 23.3812 29.1691 23.3162C29.0888 22.7027 28.874 21.9806 28.5307 21.1698C27.2548 18.1568 29.1592 16.0891 29.2446 15.999C29.3364 15.9031 29.3861 15.7748 29.3827 15.6425C29.3792 15.5102 29.323 15.3847 29.2263 15.2935C29.1297 15.2023 29.0005 15.153 28.8672 15.1564C28.7339 15.1598 28.6074 15.2156 28.5156 15.3116V15.3117Z" fill="white"/>
      <path d="M32.3655 15.9953C32.3038 15.878 32.1976 15.7898 32.0704 15.7502C31.9431 15.7106 31.8052 15.7227 31.687 15.784C31.5688 15.8453 31.48 15.9507 31.4401 16.077C31.4002 16.2033 31.4125 16.3402 31.4742 16.4575C31.4877 16.4832 32.8 19.0517 30.7161 21.6208C30.1598 22.3065 29.7519 22.9421 29.5037 23.5099C29.4774 23.57 29.4633 23.6347 29.4622 23.7002C29.4611 23.7658 29.473 23.8309 29.4972 23.8918C29.5214 23.9528 29.5575 24.0084 29.6034 24.0555C29.6493 24.1026 29.7041 24.1403 29.7647 24.1664C29.8252 24.1925 29.8904 24.2065 29.9564 24.2076C30.0224 24.2087 30.088 24.1969 30.1494 24.1728C30.2108 24.1488 30.2669 24.113 30.3143 24.0674C30.3618 24.0218 30.3998 23.9674 30.4261 23.9073C30.6385 23.4215 30.9995 22.8628 31.4993 22.2468C33.9914 19.1744 32.433 16.1236 32.3655 15.9953Z" fill="white"/>
      <path d="M35.5681 8.42339C34.333 7.97649 33.2922 8.17628 32.7763 8.48328C32.7659 8.48952 32.7556 8.49617 32.7457 8.50307C32.2107 8.8767 31.3168 8.60447 30.7476 8.15873C30.3572 7.85297 29.2778 7.16693 27.6838 7.39866C27.4597 7.43187 27.2381 7.48017 27.0206 7.54322C25.5878 6.08656 23.8514 5.1045 22.2123 4.8346C20.7787 4.59838 19.8676 5.15283 19.111 5.78613L17.6211 1.13351C17.5896 1.03513 17.5282 0.948865 17.4452 0.886598C17.3623 0.82433 17.2619 0.789126 17.158 0.785835L15.3321 0.728277C15.25 0.725695 15.1685 0.743145 15.0947 0.779098C15.0209 0.815051 14.9571 0.868411 14.9089 0.934506C14.8608 1.0006 14.8296 1.07741 14.8183 1.15822C14.8069 1.23903 14.8157 1.32136 14.8439 1.39801L15.502 3.19029C15.3036 3.17224 15.0735 3.15452 14.8154 3.1398C14.7805 3.07551 14.7377 3.01579 14.6879 2.96205C13.9708 2.19559 12.1223 0.944535 7.80602 1.17784C5.36448 1.30993 3.27093 2.60232 1.75304 4.91536C1.0604 5.97475 0.536967 7.13408 0.201289 8.35228C0.199865 8.3576 0.198692 8.36267 0.197686 8.36758C0.171039 8.48897 0.19096 8.61585 0.253554 8.72343C0.316148 8.83101 0.416915 8.91155 0.536152 8.9493C0.655389 8.98705 0.784523 8.97929 0.898306 8.92755C1.01209 8.87581 1.10234 8.7838 1.15141 8.66951C1.23143 8.59008 1.89967 8.04569 5.07699 8.19408C8.8225 8.36924 13.2936 5.22893 14.5741 4.26243C14.6219 4.22621 14.6659 4.18524 14.7054 4.14016C15.2305 4.16719 15.6355 4.2072 15.8862 4.23639L16.6865 6.41561C13.8857 5.7067 12.8854 5.78347 11.4391 6.55809C9.3586 7.67264 7.89132 9.50426 7.0782 12.0024C6.39789 14.0923 6.21195 16.5926 6.54059 19.2332C7.16903 24.2851 11.0278 28.4584 16.1419 29.6181C16.755 29.757 17.1238 29.9063 17.3162 30.2959C17.6123 30.8954 18.0452 31.3038 18.5359 31.4458C18.6592 31.4817 18.7872 31.5 18.9158 31.5001C19.1689 31.4992 19.4169 31.4288 19.6323 31.2966C20.5307 30.7531 20.7241 30.8808 20.9484 31.0285C21.1354 31.1517 21.4176 31.338 21.8414 31.2649C23.1133 31.0454 23.2808 30.5021 23.358 29.8675C23.3696 29.7492 23.3892 29.6319 23.4167 29.5163C23.4183 29.5103 23.4194 29.5059 23.4209 29.5005C24.2577 29.9105 25.2666 30.1722 26.4815 30.1722C26.9644 30.1706 27.4464 30.1325 27.9233 30.0581C28.4407 29.982 28.9691 30.0576 29.4437 30.2758C30.5801 30.7915 31.6935 31.0504 32.7666 31.0504C33.111 31.0507 33.4548 31.0234 33.7948 30.9689C35.0679 30.7643 36.2465 30.1812 37.298 29.2355C40.7109 26.1663 42.2191 19.6107 40.5915 14.9209C39.0568 10.4976 37.0128 8.94599 35.5681 8.42339ZM4.9756 5.37981C5.00226 5.43974 5.04056 5.49387 5.08831 5.53909C5.13606 5.58432 5.19232 5.61976 5.25388 5.64339C5.31543 5.66702 5.38107 5.67837 5.44705 5.6768C5.51303 5.67524 5.57805 5.66078 5.6384 5.63425C8.27844 4.47577 11.0323 4.15613 13.0624 4.11504C12.1975 4.70994 11.2959 5.25034 10.3628 5.73306C8.33298 6.77185 6.57033 7.26408 5.12416 7.19696C3.6056 7.12618 2.41826 7.19696 1.58361 7.40773C2.31821 5.60955 4.14899 2.375 7.86065 2.17438C8.20101 2.15597 8.52403 2.14696 8.8297 2.14734C11.1544 2.14734 12.5109 2.64349 13.2693 3.10387C11.1278 3.125 8.14353 3.44389 5.23192 4.72164C5.10998 4.77515 5.01444 4.87456 4.96632 4.99799C4.91821 5.12142 4.92145 5.25876 4.97535 5.37981H4.9756ZM16.043 1.74935L16.7706 1.7723L18.2872 6.50951C18.1856 6.59668 18.0831 6.68094 17.9786 6.76112L17.8721 6.73142L16.7292 3.61806L16.7284 3.61565L16.043 1.74935ZM39.8727 22.3809C39.3006 24.9542 38.1466 27.1259 36.6233 28.4959C34.715 30.2122 32.3722 30.5117 29.8486 29.3619C29.1977 29.0649 28.4734 28.9644 27.7655 29.0727C25.0244 29.4901 22.8613 28.5686 21.5104 26.4084C20.7222 25.148 20.2435 23.5298 20.1072 21.7265C20.1022 21.6614 20.0842 21.5979 20.0545 21.5397C20.0247 21.4814 19.9837 21.4296 19.9338 21.3871C19.8838 21.3446 19.8259 21.3123 19.7634 21.292C19.7009 21.2717 19.6349 21.2638 19.5693 21.2689C19.5038 21.2739 19.4398 21.2916 19.3811 21.3212C19.3225 21.3507 19.2702 21.3914 19.2274 21.441C19.141 21.5412 19.0981 21.6713 19.1083 21.8028C19.2581 23.7146 19.7684 25.5152 20.6561 26.9347C21.1445 27.7315 21.7858 28.4254 22.5436 28.9769C22.5019 29.0703 22.4686 29.167 22.4439 29.2661C22.4049 29.4246 22.3769 29.5855 22.3601 29.7478C22.342 29.8965 22.3266 30.0249 22.2861 30.0704C22.2533 30.1076 22.1269 30.2026 21.6694 30.2816C21.6497 30.2849 21.6409 30.2865 21.5047 30.1969C21.0236 29.8799 20.4423 29.6379 19.1092 30.4445C19.0669 30.4727 19.0188 30.4912 18.9684 30.4987C18.918 30.5062 18.8665 30.5024 18.8177 30.4877C18.6082 30.427 18.3846 30.1911 18.2195 29.8568C17.8133 29.0343 17.0499 28.8004 16.3661 28.645C11.6633 27.5788 8.11588 23.7472 7.53889 19.1109C7.2281 16.6137 7.39979 14.2618 8.03527 12.3093C8.76619 10.0642 10.0722 8.42497 11.9169 7.43651C12.9078 6.90585 13.5126 6.69624 15.9366 7.26292C15.9041 7.26225 15.8718 7.26159 15.8408 7.26059C15.7083 7.25732 15.5798 7.3061 15.4832 7.39635C15.3867 7.4866 15.3299 7.61101 15.3253 7.74257C15.3206 7.87412 15.3685 8.00217 15.4584 8.09891C15.5483 8.19565 15.6731 8.25325 15.8056 8.2592C16.485 8.28357 17.6257 8.23358 18.3696 7.7164C18.705 7.47388 19.0247 7.21072 19.3269 6.92847C20.1463 6.19328 20.7932 5.61287 22.0482 5.81915C23.3702 6.03682 24.7813 6.80063 26.0012 7.94521C24.5103 8.69205 23.0014 10.1386 21.4952 12.2687C20.2589 14.0176 19.4835 16.2539 19.1922 18.5435C19.1836 18.6134 19.1901 18.6843 19.2113 18.7515C19.2324 18.8187 19.2676 18.8807 19.3147 18.9333C19.3618 18.986 19.4196 19.0281 19.4843 19.0569C19.549 19.0857 19.6192 19.1005 19.6901 19.1004H19.6976C19.8194 19.1003 19.9369 19.0562 20.0282 18.9764C20.1195 18.8965 20.1784 18.7863 20.1938 18.6664C20.4792 16.4597 21.2328 14.3776 22.3182 12.842C24.2019 10.1775 26.1078 8.63666 27.8301 8.38613C29.0367 8.21046 29.8372 8.71659 30.1254 8.94233C30.9687 9.60266 32.3199 10.0036 33.3057 9.33242C33.5186 9.21381 34.24 9.00496 35.2246 9.36112C36.4638 9.80935 38.236 11.1943 39.6421 15.2461C40.3453 17.275 40.4297 19.8755 39.8727 22.3809Z" fill="white"/>
    </g>

    <g id="graviola">
      <path d="M19.8411 10.9029C19.5608 11.1811 19.5608 11.6581 19.8411 11.9363C20.6019 12.6915 20.6019 13.9633 19.8411 14.7185C19.5608 14.9967 19.5608 15.4737 19.8411 15.7519C20.0013 15.9109 20.1614 15.9506 20.3616 15.9506C20.5618 15.9506 20.722 15.8711 20.8821 15.7519C22.2035 14.4403 22.2035 12.2543 20.8821 10.9427C20.6019 10.6247 20.1614 10.6247 19.8411 10.9029Z" fill="white"/>
      <path d="M16.8781 31.0141C16.5979 31.2923 16.5979 31.7693 16.8781 32.0475C17.2385 32.4052 17.4787 32.9219 17.4787 33.4386C17.4787 33.9553 17.2785 34.472 16.8781 34.8297C16.5979 35.1079 16.5979 35.5848 16.8781 35.8631C17.0383 36.022 17.1985 36.0618 17.3987 36.0618C17.5989 36.0618 17.759 35.9823 17.9192 35.8631C18.5598 35.2271 18.9202 34.3527 18.9202 33.4386C18.9202 32.5244 18.5598 31.6898 17.9192 31.0141C17.6389 30.7359 17.1584 30.7359 16.8781 31.0141Z" fill="white"/>
      <path d="M11.1124 22.588C11.3926 22.3098 11.3926 21.8328 11.1124 21.5546C10.8321 21.2764 10.3516 21.2764 10.0713 21.5546C8.75001 22.8662 8.75001 25.0522 10.0713 26.3638C10.2315 26.5228 10.3916 26.5626 10.5918 26.5626C10.792 26.5626 10.9522 26.4831 11.1124 26.3638C11.3926 26.0856 11.3926 25.6087 11.1124 25.3304C10.3116 24.615 10.3116 23.3432 11.1124 22.588Z" fill="white"/>
      <path d="M28.3296 15.1954C28.3296 14.4005 28.2095 13.6056 28.0093 12.8504L30.0913 10.7837C30.3716 10.426 30.3716 10.108 30.0913 9.75029C28.4497 8.12071 26.2075 7.20656 23.8851 7.28606C21.9632 5.89496 19.4807 4.98081 16.7981 4.74234L17.1184 1.52294C17.1584 1.32421 17.0783 1.12548 16.9182 0.966501C16.7981 0.807519 16.5979 0.728027 16.3977 0.728027H15.2365H14.9963H14.0753C13.8751 0.728027 13.6749 0.807519 13.5548 0.966501C13.3947 1.12548 13.3146 1.32421 13.3546 1.52294L13.6749 4.74234C10.9923 4.98081 8.54981 5.89496 6.58785 7.28606C4.26552 7.20656 2.02328 8.12071 0.38164 9.75029C0.1414 10.0683 0.10136 10.426 0.38164 10.7837L2.46372 12.8504C2.26352 13.6056 2.1434 14.4005 2.1434 15.1954C2.1434 16.9442 2.22348 18.6136 2.38364 20.2431C0.942201 21.7932 0.1414 23.86 0.22148 26.0062C0.26152 26.4832 0.50176 26.7217 0.942201 26.7217H3.5448C4.02528 28.5897 4.62588 30.2988 5.30657 31.8489C4.5458 33.6772 4.5458 35.7439 5.34661 37.5325C5.54681 37.9299 5.86713 38.0492 6.26753 37.9299L8.58985 37.0555C10.5118 39.2018 12.7941 40.4339 15.2365 40.4339C17.6789 40.4339 19.9612 39.2018 21.8831 37.0555L24.2055 37.9299C24.6059 38.0492 24.9262 37.9299 25.1264 37.5325C25.8871 35.7042 25.8871 33.6374 25.1664 31.8489C25.8471 30.2988 26.4477 28.5897 26.9282 26.7217H29.5308C29.9712 26.7217 30.2115 26.4832 30.2515 26.0062C30.3316 23.8997 29.5308 21.833 28.0893 20.2829C28.2495 18.6136 28.3296 16.9442 28.3296 15.1954ZM15.1564 2.15887H15.2365H15.5969L15.3566 4.54361H15.2365H15.1164L14.8761 2.15887H15.1564ZM1.66292 25.2908C1.743 24.2177 2.06332 23.2241 2.62388 22.3099C2.78404 23.3433 2.9442 24.3369 3.18444 25.2908H1.66292ZM3.02428 11.3799L1.9432 10.3067C2.744 9.63105 3.70496 9.19385 4.70597 8.95537C4.02528 9.67079 3.46472 10.5055 3.02428 11.3799ZM6.42769 36.3401C6.18745 35.5055 6.10737 34.631 6.26753 33.7566C6.70797 34.5118 7.14841 35.2272 7.62889 35.9029L6.42769 36.3401ZM24.0053 36.3401L22.8041 35.8632C23.2845 35.2272 23.725 34.5118 24.1654 33.7169C24.3256 34.6311 24.2855 35.5055 24.0053 36.3401ZM15.2365 39.0428C8.83009 39.0428 3.58484 28.3512 3.58484 15.1954C3.58484 10.1875 8.79005 6.09369 15.2365 6.09369C21.6829 6.09369 26.8881 10.1875 26.8881 15.1954C26.8881 28.3512 21.6429 39.0428 15.2365 39.0428ZM25.727 8.91563C26.728 9.1541 27.6889 9.63105 28.4897 10.267L27.4087 11.3799C27.0083 10.5055 26.4477 9.67079 25.727 8.91563ZM28.77 25.2908H27.2485C27.4487 24.3369 27.6489 23.3433 27.8091 22.3099C28.3696 23.1843 28.6899 24.2177 28.77 25.2908Z" fill="white"/>
    </g>


    <g id="groselha">
      <path d="M34.3481 18.3978C32.4447 16.6314 29.958 15.5929 27.2893 15.4368C27.4248 14.8785 27.5429 14.3171 27.6439 13.7528C28.0912 14.1452 28.6194 14.4339 29.191 14.5984C29.5992 14.7258 30.0239 14.7925 30.4515 14.7963C31.412 14.7963 32.1601 14.4129 32.3663 13.7355C32.4153 13.5628 32.4291 13.3821 32.4071 13.2039C32.385 13.0258 32.3275 12.8539 32.2379 12.6984C31.9069 12.0771 31.1486 11.5358 30.2094 11.2502C29.3672 10.9941 28.5728 10.9943 27.9821 11.2074C28.0495 10.4314 28.0844 9.65305 28.087 8.87246C28.7963 9.31853 29.6141 9.56142 30.4515 9.57473C31.412 9.57473 32.1601 9.19127 32.3663 8.51392C32.4153 8.34123 32.4291 8.16046 32.4071 7.98231C32.385 7.80416 32.3275 7.63225 32.2379 7.47676C31.9068 6.85551 31.1486 6.31413 30.2094 6.02857C29.3527 5.76805 28.5453 5.77233 27.9517 5.99643C27.7895 4.35011 27.4835 2.7212 27.0373 1.12836C27.0179 1.05903 26.9851 0.994197 26.9407 0.937574C26.8963 0.88095 26.8412 0.833644 26.7785 0.798358C26.7158 0.763072 26.6468 0.740497 26.5754 0.731925C26.504 0.723353 26.4316 0.728951 26.3624 0.7484C26.2932 0.767848 26.2284 0.800765 26.1719 0.84527C26.1154 0.889775 26.0682 0.944996 26.033 1.00778C25.9978 1.07056 25.9753 1.13967 25.9668 1.21115C25.9583 1.28264 25.9639 1.35511 25.9834 1.42441C26.3194 2.62428 26.5727 3.84582 26.7417 5.08041C26.171 4.93228 25.4476 4.96445 24.6882 5.20712C23.7531 5.50592 23.0025 6.058 22.6804 6.68386C22.593 6.84061 22.5379 7.01333 22.5183 7.19178C22.4988 7.37024 22.5152 7.5508 22.5666 7.7228C22.7787 8.38533 23.5092 8.75678 24.4456 8.7567C25.354 8.74126 26.2368 8.45331 26.98 7.93011C26.9824 8.00576 26.9852 8.0814 26.9869 8.15707C27.0034 8.89412 26.9896 9.63006 26.9454 10.3649C26.3486 10.1491 25.5411 10.1562 24.6882 10.4287C23.753 10.7276 23.0025 11.2796 22.6803 11.9055C22.5929 12.0623 22.5379 12.235 22.5183 12.4134C22.4988 12.5919 22.5152 12.7724 22.5666 12.9444C22.7787 13.6069 23.5093 13.9784 24.4456 13.9783C24.8901 13.9738 25.3313 13.901 25.7538 13.7622C26.0454 13.6696 26.327 13.5478 26.5943 13.3987C26.4767 14.0777 26.3334 14.7527 26.1642 15.4234C23.4271 15.5206 20.8107 16.5735 18.8646 18.3561C17.0385 16.6825 14.5827 15.5977 11.8598 15.4367C11.9878 14.9089 12.1006 14.3784 12.1983 13.8452C12.6038 14.2299 13.1736 14.5505 13.8299 14.75C14.2513 14.8815 14.6897 14.9504 15.1311 14.9544C16.1171 14.9544 16.8844 14.5622 17.0955 13.869C17.1455 13.6926 17.1596 13.5079 17.137 13.3259C17.1144 13.1439 17.0556 12.9683 16.964 12.8095C16.6234 12.1702 15.842 11.6128 14.8736 11.3184C13.9896 11.0496 13.1569 11.0539 12.546 11.2848C12.62 10.4581 12.6573 9.62866 12.6578 8.79665C13.3968 9.27116 14.2534 9.52979 15.1312 9.54347C16.1172 9.54347 16.8844 9.15133 17.0955 8.45815C17.1455 8.28169 17.1596 8.09699 17.137 7.91498C17.1144 7.73297 17.0556 7.55735 16.964 7.39852C16.6234 6.75928 15.8419 6.20185 14.8735 5.90743C13.9727 5.63352 13.1254 5.64358 12.5115 5.88778C12.3466 4.27836 12.0442 2.68605 11.6077 1.12832C11.5884 1.059 11.5555 0.994187 11.5111 0.937581C11.4667 0.880974 11.4116 0.833685 11.3489 0.798414C11.2862 0.763143 11.2172 0.740582 11.1458 0.73202C11.0744 0.723457 11.0021 0.729061 10.9328 0.748511C10.8636 0.767961 10.7989 0.800877 10.7424 0.845377C10.6859 0.889876 10.6387 0.945089 10.6035 1.00786C10.5683 1.07063 10.5458 1.13973 10.5373 1.21121C10.5287 1.28269 10.5344 1.35515 10.5538 1.42444C10.8759 2.57469 11.122 3.74491 11.2906 4.92751C10.7015 4.77212 9.95186 4.80432 9.16403 5.05612C8.19998 5.3642 7.42651 5.93262 7.09504 6.57661C7.00569 6.73672 6.94932 6.91316 6.92928 7.09548C6.90925 7.27779 6.92594 7.46228 6.97838 7.63802C7.19539 8.31601 7.9447 8.6958 8.90575 8.6958C9.36467 8.69114 9.82015 8.61586 10.2562 8.47259C10.7192 8.32846 11.1553 8.10914 11.5473 7.82341C11.5511 7.93461 11.5549 8.04581 11.5574 8.15706C11.5742 8.90893 11.5594 9.65964 11.5131 10.4092C10.8969 10.1785 10.0548 10.1824 9.16402 10.467C8.19991 10.7751 7.42643 11.3436 7.09496 11.9876C7.00564 12.1477 6.9493 12.3241 6.92927 12.5064C6.90924 12.6887 6.92594 12.8732 6.97837 13.0489C7.19538 13.7269 7.94477 14.1067 8.90575 14.1067C9.36467 14.1021 9.82014 14.0268 10.2562 13.8835C10.5662 13.7851 10.8651 13.6546 11.1481 13.4942C11.0338 14.141 10.896 14.784 10.7347 15.4232C4.88066 15.6281 0.186157 20.1013 0.186157 25.5716C0.186157 31.1719 5.1063 35.728 11.1539 35.728C14.1571 35.728 16.8819 34.6041 18.8646 32.787C20.8903 34.6425 23.6422 35.7079 26.5006 35.7273C26.5284 35.728 26.5555 35.728 26.5835 35.728C26.6114 35.728 26.6382 35.7279 26.6628 35.7273L26.6664 35.7273C29.5695 35.7074 32.2973 34.6485 34.3481 32.7453C36.4137 30.8283 37.5512 28.2807 37.5512 25.5716C37.5512 22.8624 36.4137 20.3148 34.3481 18.3978ZM28.0811 12.4327C28.1236 12.2932 28.4566 12.1518 28.9553 12.1518C29.2728 12.1547 29.5881 12.2043 29.8912 12.2989C30.6274 12.5227 31.1152 12.9199 31.272 13.2142C31.3101 13.2741 31.3268 13.3453 31.3192 13.4159C31.2538 13.6309 30.4979 13.8503 29.509 13.5497C28.7729 13.3258 28.2851 12.9287 28.1283 12.6343C28.0902 12.5744 28.0735 12.5033 28.0811 12.4327ZM28.0811 7.21103C28.1236 7.07157 28.4566 6.93025 28.9553 6.93025C29.2728 6.93314 29.5881 6.98268 29.8912 7.07728C30.6274 7.30112 31.1152 7.69829 31.272 7.99263C31.3101 8.05254 31.3268 8.12367 31.3192 8.19432C31.2538 8.40935 30.4979 8.62876 29.509 8.32807C28.7729 8.10423 28.2851 7.70707 28.1283 7.41276C28.0902 7.35283 28.0735 7.2817 28.0811 7.21103ZM26.7886 6.56173C26.636 6.85822 26.1539 7.26223 25.4209 7.49646C24.4365 7.81103 23.6776 7.60238 23.6091 7.38835C23.6005 7.31781 23.6161 7.24643 23.6534 7.18596C23.8061 6.88947 24.2881 6.48546 25.021 6.25127C25.3344 6.14827 25.6618 6.09412 25.9917 6.09072C26.4699 6.09072 26.7895 6.22397 26.8328 6.35937L26.8329 6.35944C26.8415 6.42996 26.8258 6.50128 26.7886 6.56173ZM12.655 12.5189C12.7017 12.3655 13.0475 12.2116 13.5741 12.2116C13.9071 12.2151 14.2377 12.2675 14.5555 12.3671C15.3239 12.6007 15.8337 13.0167 15.9981 13.3252C16.0402 13.3919 16.058 13.4711 16.0485 13.5494C15.9768 13.7849 15.2004 14.0213 14.1479 13.7013C13.3795 13.4676 12.8698 13.0517 12.7053 12.7431C12.6632 12.6764 12.6454 12.5972 12.655 12.5189ZM12.655 7.10803C12.7017 6.95458 13.0475 6.80071 13.5742 6.80071C13.9071 6.80417 14.2377 6.85654 14.5555 6.95615C15.3239 7.18977 15.8337 7.60574 15.9981 7.91432C16.0402 7.98098 16.058 8.06018 16.0485 8.13848C15.9767 8.37392 15.2005 8.61043 14.1479 8.29033C13.3795 8.05671 12.8698 7.64074 12.7053 7.33216C12.6632 7.26551 12.6454 7.18633 12.655 7.10803ZM11.3522 6.45003C11.1921 6.76092 10.6883 7.18403 9.92339 7.42846C8.87525 7.76351 8.09585 7.53802 8.02088 7.30358C8.01021 7.22542 8.02688 7.14596 8.06806 7.07871C8.22813 6.76781 8.73192 6.34471 9.49685 6.10028C9.82513 5.99187 10.1681 5.93465 10.5138 5.93063C11.0191 5.93063 11.3517 6.07609 11.3994 6.22515C11.41 6.30331 11.3934 6.38277 11.3522 6.45003ZM1.28084 25.5716C1.28084 21.6915 3.95257 18.3738 7.69619 17.085C7.2992 17.5174 6.94941 17.9909 6.65275 18.4975C5.52671 20.3957 4.90653 22.908 4.90653 25.5716C4.90653 28.2351 5.52671 30.7474 6.65275 32.6456C6.9494 33.1522 7.2992 33.6257 7.69618 34.0581C3.95257 32.7693 1.28084 29.4516 1.28084 25.5716ZM10.6066 34.5794C9.4863 34.3656 8.43249 33.4995 7.59399 32.0859C6.56687 30.3546 6.00121 28.041 6.00121 25.5716C6.00121 23.1021 6.56687 20.7885 7.59399 19.0572C8.43249 17.6436 9.4863 16.7775 10.6066 16.5637V34.5794ZM11.4042 11.7046C11.396 11.7594 11.3784 11.8123 11.3522 11.861C11.1921 12.1719 10.6883 12.595 9.92339 12.8394C8.87503 13.1744 8.09578 12.9488 8.02088 12.7144C8.01021 12.6363 8.02688 12.5569 8.06806 12.4896C8.22806 12.1787 8.73193 11.7556 9.49685 11.5112C9.82512 11.4028 10.1681 11.3456 10.5137 11.3416C11.0191 11.3416 11.3517 11.487 11.3994 11.6361C11.4049 11.6546 11.4069 11.674 11.4055 11.6934C11.4051 11.6971 11.4046 11.7009 11.4042 11.7046ZM23.1219 17.0896C22.2129 18.0643 21.4687 19.4243 20.9773 21.0583C20.6052 20.3682 20.1543 19.7237 19.6339 19.1376C20.646 18.2255 21.8327 17.5287 23.1219 17.0896ZM11.7012 34.5794V16.5637C12.8215 16.7775 13.8753 17.6436 14.7139 19.0572C15.3487 20.1274 15.8067 21.4203 16.0644 22.8346C16.0672 22.8625 16.0722 22.8901 16.0793 22.9173C16.2319 23.7937 16.308 24.6819 16.3067 25.5716C16.3067 28.041 15.741 30.3545 14.7139 32.0859C13.8753 33.4995 12.8215 34.3656 11.7012 34.5794ZM14.6116 34.0581C15.0086 33.6257 15.3584 33.1522 15.6551 32.6456C16.7812 30.7474 17.4013 28.2351 17.4013 25.5716C17.4013 22.908 16.7812 20.3957 15.6551 18.4975C15.3584 17.9909 15.0086 17.5174 14.6116 17.085C18.3552 18.3738 21.027 21.6915 21.027 25.5716C21.027 29.4516 18.3552 32.7693 14.6116 34.0581ZM19.6339 32.0055C20.1543 31.4194 20.6051 30.7749 20.9772 30.0848C21.4686 31.7187 22.2126 33.0785 23.1209 34.0532C21.8321 33.614 20.6458 32.9174 19.6339 32.0055ZM26.0361 34.5774C24.0631 34.1928 22.3264 31.7526 21.6912 28.3912C22.2651 26.5554 22.2651 24.5878 21.6912 22.7519C22.3261 19.3924 24.0613 16.953 26.0361 16.5663V34.5774ZM26.7885 11.7834C26.6359 12.0798 26.1539 12.4838 25.4209 12.718C24.4362 13.0328 23.6775 12.8239 23.6091 12.6099C23.6005 12.5394 23.6161 12.4681 23.6534 12.4076C23.806 12.1111 24.2881 11.7071 25.021 11.4729C25.3344 11.3699 25.6618 11.3157 25.9917 11.3123C26.4699 11.3123 26.7895 11.4456 26.8328 11.581L26.8329 11.581C26.8415 11.6516 26.8258 11.7229 26.7885 11.7834ZM27.1308 34.5796V16.5631C28.2618 16.779 29.3251 17.6609 30.166 19.0955C31.1786 20.8228 31.7363 23.1227 31.7363 25.5716C31.7363 28.0204 31.1786 30.3203 30.166 32.0476C29.3257 33.4811 28.2634 34.3628 27.1308 34.5796ZM30.045 34.0544C30.4517 33.6105 30.8088 33.1237 31.1101 32.6024C32.2198 30.7094 32.831 28.2125 32.831 25.5716C32.831 22.9306 32.2199 20.4337 31.1101 18.5407C30.8088 18.0195 30.4517 17.5326 30.0451 17.0888C33.784 18.382 36.4565 21.7042 36.4565 25.5716C36.4565 29.439 33.784 32.7612 30.045 34.0544Z" fill="white"/>
    </g>

    <g id="guarana">
      <path d="M21.435 19.7546C24.7149 16.5796 29.4338 15.3736 33.6983 19.5565C39.2561 25.0095 34.7644 31.5693 35.9587 34.2783C33.2497 33.084 26.6898 37.5757 21.2369 32.0179C17.054 27.7534 18.2599 23.0345 21.435 19.7546Z" stroke="white" stroke-linecap="round" stroke-linejoin="round"/>
      <path d="M35.947 34.558C35.8713 34.558 35.7955 34.5289 35.7431 34.4706C34.6537 33.3812 33.2205 33.1831 31.566 32.9617C29.3639 32.6646 26.8646 32.3209 24.3653 29.8216C21.8195 27.2758 20.6077 24.1298 20.7592 20.4654C20.765 20.3023 20.899 20.1799 21.0621 20.1858C21.2252 20.1916 21.3476 20.3256 21.3418 20.4887C21.1961 23.9842 22.3496 26.9845 24.779 29.408C27.2083 31.8315 29.5328 32.0937 31.6476 32.3791C32.7778 32.5306 33.8672 32.6821 34.8343 33.1365C34.4498 32.251 34.3566 31.2839 34.2575 30.2819C34.0536 28.1904 33.8264 25.8193 31.0941 23.087C28.6706 20.6635 25.6645 19.51 22.1748 19.6498C22.0175 19.6614 21.8777 19.5333 21.8719 19.3702C21.8661 19.207 21.9884 19.073 22.1515 19.0672C25.816 18.9099 28.9619 20.1275 31.5078 22.6734C34.3857 25.5513 34.6362 28.1438 34.8401 30.2236C34.9858 31.715 35.1081 33.0083 36.1567 34.057C36.215 34.1152 36.2441 34.191 36.2441 34.2609C36.2441 34.3308 36.215 34.4123 36.1567 34.4648C36.0985 34.523 36.0227 34.5522 35.9528 34.5522L35.947 34.558Z" fill="white"/>
      <path d="M15.6674 19.7722C12.3875 16.5971 7.66863 15.3912 3.40415 19.5741C-2.15366 25.0271 2.33803 31.5869 1.14374 34.2959C3.85273 33.1016 10.4126 37.5933 15.8655 32.0355C20.0484 27.771 18.8425 23.0521 15.6674 19.7722Z" stroke="white" stroke-linecap="round" stroke-linejoin="round"/>
      <path d="M1.16122 34.5755C1.08549 34.5755 1.00975 34.5463 0.957321 34.4881C0.899063 34.4298 0.869934 34.3541 0.869934 34.2842C0.869934 34.2143 0.899063 34.1327 0.957321 34.0803C2.00596 33.0316 2.13413 31.7441 2.27395 30.2469C2.47785 28.1671 2.72836 25.5746 5.6063 22.6967C8.15217 20.1508 11.2981 18.939 14.9625 19.0905C15.1256 19.0963 15.248 19.2303 15.2422 19.3934C15.2363 19.5566 15.1023 19.6906 14.9392 19.6731C11.4496 19.5274 8.44346 20.6809 6.01993 23.1103C3.28764 25.8426 3.06043 28.2137 2.85653 30.3052C2.75749 31.3072 2.66428 32.2743 2.27978 33.1598C3.24686 32.7054 4.33628 32.5597 5.46648 32.4024C7.58124 32.117 9.97564 31.7907 12.3351 29.4313C14.7586 27.0078 15.9179 24.0075 15.7723 20.512C15.7665 20.3489 15.8888 20.2149 16.0519 20.2091C16.1976 20.2091 16.3491 20.3256 16.3549 20.4887C16.5064 24.1531 15.2946 27.299 12.7487 29.8449C10.2495 32.3442 7.75019 32.6821 5.54804 32.985C3.89352 33.2122 2.46037 33.4045 1.37095 34.4939C1.31269 34.5522 1.23696 34.5813 1.16705 34.5813L1.16122 34.5755Z" fill="white"/>
      <path d="M25.1576 7.36325C25.1401 11.0102 22.169 13.9522 18.522 13.9289C14.8751 13.9114 11.9331 10.9403 11.9564 7.29334C11.9739 3.6464 14.945 0.704373 18.5919 0.727677C22.2389 0.745154 25.1809 3.71631 25.1576 7.36325Z" stroke="white" stroke-linecap="round" stroke-linejoin="round"/>
      <path d="M18.557 6.79813C20.9339 6.80978 22.938 5.21351 23.5555 3.02884C22.3496 1.63065 20.5785 0.739306 18.5919 0.727654C16.6054 0.716003 14.8227 1.58987 13.6051 2.97641C14.1935 5.16691 16.1859 6.78648 18.5628 6.79813H18.557Z" stroke="white" stroke-linecap="round"/>
      <path d="M18.5395 19.6324C16.7277 19.6324 14.8926 19.0906 13.3021 17.9603C9.23574 15.0708 8.28614 9.43139 11.1757 5.36499C15.9878 7.98077 17.8696 10.783 18.5337 16.6612C19.1978 10.783 21.0854 7.98077 25.8917 5.36499C28.7813 9.43139 27.8317 15.0708 23.7653 17.9603C22.1748 19.0906 20.3455 19.6324 18.5279 19.6324H18.5395Z" fill="#E56767" stroke="white" stroke-linecap="round" stroke-linejoin="round"/>
    </g>

    <g id="jabuticaba">
      <g clip-path="url(#clip0_831_4867)">
      <path fill-rule="evenodd" clip-rule="evenodd" d="M6.79015 1.89347C6.79015 1.89347 6.7849 1.90432 6.77965 1.90974C6.12319 3.17925 6.15995 4.98044 7.04748 6.57005C7.93501 8.15965 9.42647 9.0928 10.8234 9.14163H10.8444C11.2225 9.14163 11.5744 8.93004 11.7635 8.59368C11.7635 8.58825 11.7687 8.58283 11.774 8.5774C12.4304 7.30246 12.3937 5.5067 11.5061 3.91167C10.6186 2.32206 9.12713 1.38892 7.73019 1.34009H7.70919C7.33107 1.34009 6.97921 1.55167 6.79015 1.88804V1.89347ZM7.69868 2.43599C7.69868 2.43599 7.69868 2.43599 7.70394 2.43599C8.78052 2.47939 9.90437 3.23893 10.5871 4.46504C11.2698 5.69115 11.3486 7.0746 10.8497 8.05657C10.8497 8.05657 10.8444 8.062 10.8392 8.062C9.76258 8.0186 8.63873 7.25906 7.95602 6.03295C7.2733 4.80684 7.19453 3.42339 7.69343 2.44142L7.69868 2.43599Z" fill="white"/>
      <path fill-rule="evenodd" clip-rule="evenodd" d="M11.0965 7.34572V7.36742C11.0387 7.61155 10.96 7.83942 10.8497 8.051C10.8497 8.051 10.8497 8.051 10.8444 8.05643C10.1407 8.0293 9.42123 7.69293 8.81204 7.12328C8.66499 6.98765 8.45493 6.94425 8.27112 7.0202C3.75996 8.80511 0.551208 13.3189 0.551208 18.6032C0.551208 25.4444 5.92889 30.9999 12.5512 30.9999C19.1735 30.9999 24.5512 25.4444 24.5512 18.6032C24.5512 12.4726 20.2344 7.37827 14.5731 6.38544C14.4365 6.35832 14.2948 6.39629 14.1792 6.47767C14.0637 6.55905 13.9902 6.68926 13.9639 6.83032C13.7276 8.31684 13.36 9.52668 13.3495 9.56465C13.2077 10.0204 12.735 10.2699 12.2939 10.1235C11.8527 9.97697 11.6112 9.4887 11.753 9.03298C11.753 9.03298 12.0471 8.0944 12.2624 6.87914C12.2939 6.71639 12.2466 6.54278 12.1363 6.418C12.026 6.29321 11.8685 6.22811 11.7109 6.23896C11.6952 6.23896 11.6742 6.23896 11.6584 6.23896C11.3906 6.26066 11.1858 6.4831 11.17 6.75436C11.1648 6.9551 11.1385 7.15041 11.0965 7.34029V7.34572ZM10.6659 9.13063C10.5923 10.015 11.1175 10.8721 11.9683 11.1543C12.9608 11.4852 14.0269 10.921 14.3473 9.89559C14.3473 9.89559 14.6571 8.89192 14.9039 7.5573C19.8142 8.67491 23.4956 13.1996 23.4956 18.6032C23.4956 24.8476 18.5906 29.9148 12.546 29.9148C6.50132 29.9148 1.60154 24.8476 1.60154 18.6032C1.60154 13.894 4.39541 9.85219 8.3604 8.14866C9.06937 8.72916 9.87812 9.06553 10.6659 9.13063Z" fill="white"/>
      <path fill-rule="evenodd" clip-rule="evenodd" d="M15.2085 4.77421C15.2085 4.54093 15.0667 4.32934 14.8514 4.25339C14.7254 4.20998 14.6046 4.15573 14.4943 4.09605C14.4943 4.09605 14.4891 4.09063 14.4891 4.0852C14.5048 3.64576 14.6361 3.20631 14.8619 2.78314C14.9302 2.65293 14.946 2.50102 14.9039 2.35454C14.6834 1.64383 14.3473 1.03077 13.8956 0.564201C13.1604 -0.200762 11.9578 -0.200762 11.2225 0.564201C10.4821 1.32374 10.4821 2.56613 11.2225 3.32566C11.3223 3.42874 11.3381 3.60235 11.3696 3.77054C11.4536 4.19913 11.4536 4.68741 11.4221 5.17568C11.3118 6.92804 10.7604 8.69126 10.7604 8.69126C10.44 9.71663 10.9862 10.818 11.9788 11.1489C12.9713 11.4798 14.0374 10.9156 14.3578 9.89024C14.3578 9.89024 15.1875 7.19931 15.219 4.76879L15.2085 4.77421ZM14.1477 5.12685C14.0479 7.27526 13.3652 9.51047 13.3495 9.56473C13.2077 10.0204 12.735 10.27 12.2939 10.1235C11.8527 9.97705 11.6112 9.48877 11.753 9.03305C11.753 9.03305 12.3464 7.13963 12.4619 5.25706C12.4987 4.67113 12.4882 4.09063 12.3937 3.5698C12.3149 3.16833 12.1941 2.81026 11.9578 2.56613C11.6322 2.22976 11.6322 1.67638 11.9578 1.34001C12.2834 1.00365 12.819 1.00365 13.1446 1.34001C13.4387 1.64383 13.6646 2.03987 13.8274 2.48475C13.5858 3.00015 13.4545 3.53725 13.4387 4.0635C13.4387 4.06893 13.4387 4.07435 13.4387 4.0852C13.4387 4.47582 13.6435 4.83931 13.9691 5.04005L14.1477 5.13228V5.12685Z" fill="white"/>
      <path fill-rule="evenodd" clip-rule="evenodd" d="M14.6676 10.1669C14.6203 10.6389 14.3578 11.0512 13.9166 11.3171C13.7328 11.4256 13.5175 11.4961 13.2707 11.5449C13.0554 11.5883 12.8138 11.6046 12.5459 11.5938C12.3359 11.5938 12.1468 11.5775 11.9683 11.5504C11.6637 11.5015 11.4011 11.431 11.1858 11.3008C10.7446 11.035 10.4768 10.6335 10.4243 10.1615C10.4243 10.0204 10.314 9.90649 10.1775 9.90649C10.0409 9.90649 9.93063 10.0204 9.93063 10.1615C9.8571 10.8505 10.1092 11.5287 10.6711 12.0332C10.9494 12.2828 11.3171 12.4726 11.7634 12.5866C11.9998 12.6463 12.2571 12.668 12.5407 12.6734C12.819 12.6625 13.0816 12.6354 13.3127 12.5757C13.7591 12.4618 14.1214 12.2719 14.3998 12.0278C14.9617 11.5287 15.219 10.8559 15.1455 10.1669C15.1455 10.0258 15.0352 9.91192 14.8987 9.91192C14.7621 9.91192 14.6519 10.0258 14.6519 10.1669H14.6676Z" fill="white"/>
      </g>
      <defs>
        <clipPath id="clip0_831_4867">
          <rect width="24" height="31" fill="white" transform="translate(0.551208)"/>
        </clipPath>
      </defs>
    </g>

    <g id="laranja">
      <path d="M13.0902 7.98645C13.9839 6.13131 15.3123 5.0431 15.3332 5.0266L14.6981 4.22776C14.628 4.28387 13.8014 4.95827 12.9781 6.13925C12.7904 6.10088 12.6183 6.05317 12.4405 6.00865C12.3716 5.31418 12.0225 3.24447 10.2319 1.89289C8.56578 0.63641 6.17051 0.394828 3.11026 1.17374L2.355 1.36738L2.83506 1.98254C2.83941 1.98815 3.26032 2.53108 3.80699 3.59018L3.86614 3.70412C4.30759 4.56273 4.91278 5.73827 6.19354 6.68156C7.03535 7.30045 7.90454 7.51651 8.75569 7.51651C9.80303 7.51651 10.8203 7.18908 11.7278 6.88314C11.9451 6.9454 12.1815 6.99599 12.4134 7.04985C12.261 7.32622 12.1144 7.6173 11.9814 7.93025C11.9711 7.93025 11.9613 7.92869 11.9511 7.92869C5.66494 7.92869 0.551239 13.0424 0.551239 19.3279C0.551233 25.614 5.66493 30.7283 11.951 30.7283C18.2372 30.7283 23.3515 25.614 23.3515 19.3279C23.3515 13.4269 18.8434 8.55997 13.0902 7.98645ZM6.79875 5.85968C5.70976 5.05898 5.21227 4.0914 4.77332 3.23777L4.71355 3.12196C4.47197 2.65436 4.2528 2.27954 4.07659 1.99686C6.46689 1.50063 8.32608 1.73847 9.6087 2.70106C10.8006 3.5954 11.2166 4.93212 11.3623 5.69524C8.28467 4.60812 7.01449 2.69858 6.99986 2.67554L6.1344 3.21598C6.19487 3.31319 7.34394 5.08365 10.1097 6.30853C8.9803 6.59003 7.8538 6.63673 6.79875 5.85968ZM11.951 29.7072C6.22779 29.7072 1.57111 25.0511 1.57111 19.3279C1.57111 13.7167 6.05018 9.14276 11.619 8.96539C11.4882 9.41843 11.3906 9.89996 11.334 10.4091L10.7466 10.0684L10.7519 11.251L9.69672 12.0521L10.9202 12.2666L11.291 13.3551L12.0417 12.3051L13.326 12.1767L12.5666 11.3133L12.9896 10.1454L12.3607 10.4116C12.4261 9.90681 12.5358 9.42917 12.6824 8.98562C18.0643 9.36364 22.3304 13.8515 22.3304 19.3279C22.3304 25.0511 17.6743 29.7072 11.951 29.7072Z" fill="white"/>
      <path d="M4.11582 19.3279C4.11582 17.4027 4.82064 15.5516 6.10078 14.1158L5.33992 13.4371C3.89292 15.0603 3.09595 17.1524 3.09595 19.3279C3.09595 20.8857 3.50626 22.4186 4.28269 23.7585L5.16558 23.248C4.47881 22.0625 4.11582 20.7064 4.11582 19.3279Z" fill="white"/>
      <path d="M4.87729 24.6564C5.06346 24.903 5.26145 25.1383 5.4719 25.3637L6.21782 24.6689C6.03103 24.4684 5.85545 24.2579 5.69045 24.0413L4.87729 24.6564Z" fill="white"/>
      <path d="M13.6621 24.0984C13.9003 24.0984 14.0934 23.9053 14.0934 23.667C14.0934 23.4288 13.9003 23.2357 13.6621 23.2357C13.4239 23.2357 13.2308 23.4288 13.2308 23.667C13.2308 23.9053 13.4239 24.0984 13.6621 24.0984Z" fill="white"/>
      <path d="M14.8071 22.8043C14.5688 22.8043 14.3757 22.9975 14.3757 23.2357C14.3757 23.4739 14.5688 23.6671 14.8071 23.6671C15.0453 23.6671 15.2384 23.4739 15.2384 23.2357C15.2384 22.9975 15.0453 22.8043 14.8071 22.8043Z" fill="white"/>
      <path d="M14.6336 24.0082C14.3954 24.0082 14.2023 24.2014 14.2023 24.4395C14.2023 24.6777 14.3954 24.8709 14.6336 24.8709C14.8718 24.8709 15.0649 24.6777 15.0649 24.4395C15.0649 24.2014 14.8718 24.0082 14.6336 24.0082Z" fill="white"/>
    </g>
  </defs>
</svg>
