<svg width="492" height="23" viewBox="0 0 492 23" fill="none" xmlns="http://www.w3.org/2000/svg">
<path d="M18.4083 0.830078C16.5822 0.830078 14.8911 1.39836 13.4994 2.36008C14.3314 2.93444 15.0555 3.65086 15.636 4.47294H11.3628C11.9433 3.65086 12.6673 2.93444 13.4994 2.36008C12.1077 1.39836 10.4166 0.830078 8.59052 0.830078C3.8461 0.830078 0 4.63565 0 9.33008C0 14.0245 3.8461 17.8301 8.59052 17.8301C10.4166 17.8301 12.1077 17.2618 13.4994 16.3001C12.6673 15.7257 11.9433 15.0093 11.3628 14.1872H15.6372C15.0555 15.0093 14.3314 15.7257 13.5006 16.3001C14.8923 17.2618 16.5834 17.8301 18.4095 17.8301C23.1539 17.8301 27 14.0245 27 9.33008C26.9988 4.63565 23.1527 0.830078 18.4083 0.830078ZM16.8092 6.90151C16.9282 7.29615 17.0252 7.69929 17.0853 8.11579H9.91346C9.97359 7.69929 10.0705 7.29615 10.1896 6.90151H16.8092ZM10.1896 11.7586C10.0705 11.364 9.97359 10.9609 9.91346 10.5444H17.0865C17.0264 10.9609 16.9295 11.364 16.8104 11.7586H10.1896Z" fill="black"/>
<path d="M67.4651 21.8301L72.1214 21.8299L72.173 21.8301C72.1727 21.8301 72.1731 21.8301 72.173 21.8301C74.9041 21.8301 77.6496 20.7182 79.7048 18.7799C81.8298 16.7759 83 14.16 83 11.4144C83 8.46371 81.8228 5.74752 79.6851 3.76624C77.6717 1.90039 74.9193 0.830078 72.1245 0.830078H67.5054C61.5163 0.830078 57 5.38038 57 11.4144C57 17.1576 61.6947 21.8301 67.4651 21.8301ZM75.8776 11.3122C75.8776 15.945 72.1355 19.7141 67.5357 19.7141C62.934 19.7141 59.1902 15.945 59.1902 11.3122C59.1902 6.6795 62.934 2.91037 67.5357 2.91037C72.1353 2.91053 75.8776 6.6795 75.8776 11.3122Z" fill="black"/>
<path d="M73.2223 11.3123C73.2177 8.87515 71.7051 6.79217 69.5701 5.96504V16.655C71.7051 15.8292 73.2177 13.7508 73.2223 11.3123Z" fill="black"/>
<path d="M61.8496 11.3123C61.8538 13.7506 63.3624 15.8292 65.4981 16.655V5.96504C63.3624 6.79675 61.8538 8.87515 61.8496 11.3123Z" fill="black"/>
<path d="M137.876 1.18177C137.74 0.961912 137.512 0.830078 137.268 0.830078H132.203C131.899 0.830078 131.627 1.0332 131.519 1.34068L127.443 12.9132L125.443 3.56492C125.108 1.99675 123.835 0.901574 122.348 0.901574H113.732C113.346 0.901574 113.027 1.22599 113.002 1.64299C112.976 2.06019 113.254 2.42717 113.637 2.48193C113.657 2.48483 115.681 2.78424 118.155 3.96724C118.56 4.16086 118.993 4.3865 119.441 4.64707L123.649 22.2356C123.733 22.5856 124.024 22.8301 124.358 22.8301H129.522C129.819 22.8301 130.086 22.6358 130.199 22.3383L137.945 1.92525C138.038 1.68039 138.012 1.40164 137.876 1.18177ZM118.691 2.48875H122.348C123.15 2.48875 123.836 3.07849 124.016 3.92302L124.661 6.9364C124.132 6.3324 123.557 5.76333 122.94 5.23227C121.691 4.15817 120.266 3.23698 118.702 2.49412C118.698 2.49226 118.694 2.4904 118.691 2.48875Z" fill="black"/>
<path d="M199.739 2.69656L198.93 4.91627H200.557L199.739 2.69656Z" fill="black"/>
<path d="M171.77 2.69656L170.97 4.91627H172.577L171.77 2.69656Z" fill="black"/>
<path d="M190.339 3.0121C190.199 2.92283 189.985 2.91141 189.781 2.91141H188.329V4.14774H189.761C189.988 4.14774 190.179 4.14359 190.344 4.03356C190.495 3.94325 190.586 3.74705 190.586 3.50414C190.586 3.26539 190.492 3.09307 190.339 3.0121Z" fill="black"/>
<path d="M195.388 12.59C195.244 12.4935 195.033 12.4894 194.825 12.4894H193.374V13.7401H194.806C195.036 13.7401 195.231 13.7318 195.39 13.6269C195.543 13.5211 195.634 13.3311 195.634 13.0914C195.631 12.8516 195.54 12.6793 195.388 12.59Z" fill="black"/>
<path d="M189.651 12.489H188.115V13.9086H189.636C190.089 13.9086 190.371 13.6552 190.371 13.1744C190.37 12.6842 190.077 12.489 189.651 12.489Z" fill="black"/>
<path d="M211.412 13.3251C211.404 13.3158 211.395 13.3054 211.386 13.2981C211.61 13.1341 211.758 12.8497 211.758 12.5258V11.3394C211.758 10.8297 211.394 10.4187 210.944 10.4187H208.583C207.847 10.4187 207.292 10.6636 206.888 11.0332C206.775 10.6761 206.485 10.4187 206.13 10.4187H203.769C203.12 10.4187 202.608 10.6003 202.218 10.8993C202.077 10.6138 201.823 10.4187 201.518 10.4187H197.586C197.269 10.4187 197.002 10.6273 196.867 10.9252C196.811 10.8806 196.77 10.8287 196.711 10.7892C196.14 10.4446 195.534 10.4187 194.91 10.4187H192.188C191.871 10.4187 191.603 10.6294 191.469 10.9294C191.054 10.6252 190.475 10.4187 189.651 10.4187H185.887C185.66 10.4187 185.444 10.5225 185.289 10.7114L184.397 11.7982L183.541 10.7238C183.387 10.5256 183.168 10.4176 182.935 10.4176H178.198C177.748 10.4176 177.384 10.8297 177.384 11.3383V16.9094C177.384 17.419 177.748 17.8301 178.198 17.8301H182.865C183.092 17.8301 183.307 17.7232 183.462 17.5342L184.361 16.435L185.214 17.5197C185.369 17.7169 185.591 17.828 185.823 17.828H188.113C188.564 17.828 188.928 17.4159 188.928 16.9094V15.9585H189.583C190.379 15.9585 190.955 15.7738 191.374 15.4925V16.9094C191.374 17.4169 191.739 17.828 192.189 17.828H193.373C193.824 17.828 194.188 17.4159 194.188 16.9094V15.7925H194.631C194.74 15.7925 194.816 15.7966 194.871 15.8008C194.875 15.9004 194.875 16.0198 194.873 16.0987V16.9094C194.873 17.4169 195.239 17.828 195.688 17.828H196.87C197.002 17.828 197.121 17.7875 197.23 17.7242C197.34 17.7854 197.459 17.828 197.589 17.828H201.521C201.649 17.828 201.767 17.7875 201.875 17.7284C201.982 17.7875 202.098 17.828 202.229 17.828H204.523C205.253 17.828 205.849 17.6256 206.294 17.2685C206.416 17.5965 206.705 17.828 207.042 17.828H209.336C211.005 17.828 212 16.8263 212 15.1499C212 14.3735 211.814 13.7953 211.412 13.3251ZM189.584 15.0378H188.114V16.9073H185.824L184.373 15.0638L182.865 16.9073H178.198V11.3352H182.935L184.387 13.1621L185.886 11.3352H189.65C190.584 11.3352 191.636 11.6311 191.636 13.1735C191.636 14.7191 190.614 15.0409 189.584 15.0378ZM196.099 14.3206C196.36 14.4285 196.574 14.6247 196.673 14.7887C196.841 15.0607 196.863 15.3139 196.869 15.8049V16.9094H195.687V16.2118C195.687 15.8776 195.715 15.3804 195.495 15.1209C195.326 14.9226 195.064 14.8759 194.632 14.8759H193.374V16.9094H192.19V11.3383H194.911C195.507 11.3383 195.94 11.3664 196.329 11.5999C196.7 11.8532 196.934 12.202 196.934 12.8362C196.934 13.7268 196.408 14.1804 196.099 14.3206ZM201.519 12.4895H198.76V13.5036H201.451V14.6413H198.76V15.7478L201.519 15.754V16.9094H197.588V11.3383H201.519V12.4895ZM204.524 16.9031H202.229V15.7063H204.514C204.736 15.7063 204.895 15.6752 204.994 15.5682C205.075 15.4831 205.132 15.3555 205.132 15.2039C205.132 15.042 205.071 14.9143 204.989 14.8364C204.897 14.7513 204.776 14.7129 204.569 14.7129C203.469 14.6724 202.088 14.7513 202.088 12.9898C202.088 12.1791 202.536 11.3311 203.773 11.3311H206.133V12.5165H203.972C203.756 12.5165 203.617 12.5269 203.5 12.6182C203.37 12.7096 203.322 12.8435 203.322 13.0199C203.322 13.2306 203.431 13.3708 203.579 13.4351C203.705 13.4839 203.837 13.4984 204.038 13.4984L204.671 13.5192C205.309 13.5389 205.749 13.6635 206.015 13.9676C206.246 14.2365 206.368 14.5769 206.368 15.1489C206.368 16.3499 205.708 16.9094 204.524 16.9031ZM209.338 16.9031H207.044V15.7063H209.329C209.551 15.7063 209.71 15.6752 209.808 15.5682C209.889 15.4831 209.946 15.3555 209.946 15.2039C209.946 15.042 209.886 14.9143 209.803 14.8364C209.712 14.7513 209.591 14.7129 209.383 14.7129C208.282 14.6724 206.902 14.7513 206.902 12.9898C206.902 12.1791 207.35 11.3311 208.587 11.3311H210.947V12.5165H208.787C208.57 12.5165 208.431 12.5269 208.314 12.6182C208.184 12.7096 208.137 12.8435 208.137 13.0199C208.137 13.2306 208.247 13.3708 208.393 13.4351C208.52 13.4839 208.651 13.4984 208.852 13.4984L209.485 13.5192C210.124 13.5389 210.565 13.6635 210.831 13.9676C211.06 14.2365 211.184 14.5769 211.184 15.1489C211.184 16.3499 210.522 16.9094 209.338 16.9031Z" fill="black"/>
<path d="M207.714 0.830078H206.508C206.057 0.830078 205.693 1.24214 205.693 1.74969V2.32471L205.134 1.27535C204.985 1.0003 204.721 0.831115 204.438 0.831115H202.642C202.192 0.831115 201.828 1.24318 201.828 1.75073V2.5323L201.395 1.38849C201.268 1.05116 200.974 0.831115 200.649 0.831115H198.883C198.704 0.831115 198.533 0.897544 198.397 1.01379C198.262 0.898582 198.092 0.831115 197.91 0.831115H196.771C195.803 0.831115 195.087 1.09579 194.56 1.61269C194.499 1.17364 194.177 0.831115 193.771 0.831115H192.567C192.246 0.831115 191.977 1.04597 191.843 1.34905C191.792 1.30753 191.753 1.25771 191.696 1.22034C191.144 0.859141 190.562 0.831115 189.861 0.831115H187.152C186.999 0.831115 186.866 0.891316 186.743 0.973313C186.622 0.891316 186.487 0.831115 186.335 0.831115H182.4C182.234 0.831115 182.089 0.900658 181.961 0.996148C181.831 0.900658 181.687 0.831115 181.522 0.831115H179.558C179.233 0.831115 178.938 1.0522 178.81 1.39264L178.11 3.25678L177.34 1.36566C177.206 1.03974 176.916 0.831115 176.6 0.831115H174.677C174.227 0.831115 173.863 1.24318 173.863 1.75073V2.55098L173.421 1.38641C173.293 1.04908 172.999 0.830078 172.673 0.830078H170.924C170.598 0.830078 170.304 1.05012 170.175 1.38745L168.066 6.95808C167.958 7.24351 167.984 7.56735 168.134 7.82683C168.285 8.08424 168.54 8.23993 168.814 8.23993H170.094C170.421 8.23993 170.718 8.01574 170.844 7.67322L171.093 6.99648H172.458L172.703 7.66907C172.828 8.01366 173.125 8.2389 173.456 8.2389H175.853C176.303 8.2389 176.666 7.82683 176.666 7.31928V7.29748L176.821 7.69294C176.951 8.02508 177.243 8.23993 177.565 8.23993L178.6 8.24201C178.923 8.24201 179.213 8.02716 179.344 7.69398L179.5 7.29956V7.32239C179.5 7.82995 179.864 8.24097 180.314 8.24097H181.522C181.687 8.24097 181.831 8.17039 181.961 8.07594C182.089 8.17039 182.234 8.24097 182.4 8.24097H186.335C186.487 8.24097 186.622 8.18077 186.743 8.09877C186.865 8.18077 186.999 8.24097 187.152 8.24097H188.331C188.781 8.24097 189.145 7.82891 189.145 7.32136V6.21491H189.595C189.697 6.21491 189.769 6.21803 189.824 6.22218C189.829 6.31663 189.827 6.42873 189.827 6.50346L189.825 6.62594L189.83 7.32862C189.834 7.83306 190.198 8.24097 190.645 8.24097H191.833C191.967 8.24097 192.087 8.19426 192.198 8.12991C192.311 8.1953 192.432 8.24097 192.566 8.24097H193.77C194.165 8.24097 194.477 7.91921 194.553 7.49988C195.221 8.13406 196.162 8.24097 196.685 8.24097H198.066C198.394 8.24097 198.692 8.01262 198.816 7.66491L199.056 6.99752H200.413L200.662 7.67426C200.788 8.01574 201.084 8.23993 201.414 8.23993H203.811C204.261 8.23993 204.625 7.82787 204.625 7.32032V6.44118L205.348 7.79569C205.496 8.07075 205.759 8.23993 206.046 8.23993H207.714C208.164 8.23993 208.528 7.82787 208.528 7.32032V1.74969C208.528 1.24214 208.162 0.830078 207.714 0.830078ZM181.521 7.31928H180.313L180.308 2.95682L178.6 7.31928H177.565L175.853 2.95267V7.31928H173.455L173.002 6.07687H170.55L170.092 7.31928H168.812L170.922 1.74865H172.671L174.676 7.02347V1.74865H176.599L178.142 5.5278L179.557 1.74865H181.521V7.31928ZM186.334 2.90907H183.577V3.91276H186.269V5.0545H183.577V6.16717H186.334V7.31928H182.399V1.74865H186.334V2.90907ZM191.053 4.73481C191.311 4.84691 191.531 5.04204 191.636 5.20396C191.803 5.48109 191.832 5.72812 191.832 6.22529V7.31824H190.643L190.637 6.61556C190.637 6.28134 190.666 5.79974 190.452 5.53091C190.28 5.33578 190.017 5.29322 189.593 5.29322H188.33V7.31928H187.15V1.74969H189.859C190.462 1.74969 190.906 1.76734 191.286 2.01644C191.659 2.26555 191.882 2.62883 191.882 3.25055C191.882 4.13799 191.358 4.5978 191.053 4.73481ZM193.771 7.31928H192.567V1.74865H193.771V7.31928ZM207.714 7.31928H206.045L203.81 3.13846V7.31928H201.413L200.954 6.07687H198.505L198.062 7.31928H196.682C196.11 7.31928 195.387 7.17604 194.978 6.70378C194.561 6.23048 194.346 5.58903 194.346 4.57704C194.346 3.75084 194.475 2.99522 194.977 2.39737C195.356 1.95313 195.952 1.74865 196.766 1.74865H197.904V2.94229H196.788C196.359 2.94229 196.116 3.0139 195.882 3.27235C195.681 3.50693 195.544 3.95013 195.544 4.53449C195.544 5.13026 195.649 5.55997 195.869 5.84125C196.052 6.06234 196.383 6.12876 196.691 6.12876H197.219L198.883 1.74865H200.649L202.642 7.01724V1.74865H204.438L206.508 5.62848V1.74865H207.714V7.31928ZM197.199 3.86294L196.687 5.21122C196.574 5.21122 196.498 5.19669 196.455 5.18424C196.416 5.1012 196.362 4.91749 196.362 4.53553C196.362 4.14941 196.444 3.94909 196.455 3.93144C196.489 3.89408 196.518 3.8619 196.794 3.8619L197.199 3.86294Z" fill="black"/>
<path d="M185.132 14.1311L186.941 16.4017V11.9361L185.132 14.1311Z" fill="black"/>
<path d="M182.326 12.4894H179.374V13.5015H181.959V14.6392H179.374V15.7479H182.269L183.614 14.1108L182.326 12.4894Z" fill="black"/>
<path fill-rule="evenodd" clip-rule="evenodd" d="M247.81 0.830078H276C275.426 3.69714 274.863 6.50061 274.302 9.29286C274.18 9.89853 274.059 10.5037 273.937 11.1088C273.911 11.2422 273.884 11.3763 273.857 11.5105C273.709 12.2522 273.559 12.9987 273.404 13.6698C273.011 15.3758 271.555 15.8301 269.434 15.8301H242C242.328 14.2395 242.646 12.6141 242.965 10.9787C243.355 8.98373 243.747 6.97383 244.166 4.99387C244.218 4.74861 244.264 4.49831 244.311 4.2475C244.399 3.77365 244.487 3.29796 244.613 2.85099C244.98 1.54029 246.253 0.904691 247.81 0.830078ZM264.148 9.37412C264.039 10.2765 265.107 10.1693 265.487 9.79176C265.768 9.51286 265.847 9.01499 265.911 8.6113C265.913 8.59865 265.915 8.58609 265.917 8.57364C265.044 8.46539 264.239 8.62465 264.148 9.37412ZM264.199 7.25347C264.23 7.12783 264.262 7.00217 264.285 6.86828C264.442 6.86368 264.621 6.84901 264.81 6.83358C265.671 6.76303 266.73 6.67631 266.775 7.45991C266.792 7.75007 266.724 8.06481 266.654 8.38861C266.624 8.53018 266.593 8.67348 266.569 8.81722C266.565 8.84002 266.561 8.86273 266.557 8.88535C266.468 9.41331 266.387 9.89656 266.38 10.4879H265.745C265.735 10.2746 265.765 10.102 265.796 9.93102C265.492 10.4248 264.613 10.7842 263.891 10.4705C263.515 10.3075 263.32 9.72372 263.496 9.13047C263.759 8.24478 264.758 8.03823 265.985 8.156L265.987 8.15234C266.041 7.99965 266.114 7.79336 266.071 7.5991C265.94 7.00977 264.584 7.34923 264.148 7.45991C264.164 7.39021 264.181 7.32184 264.199 7.25347ZM269.9 9.26973C269.911 9.78663 270.158 10.0984 270.655 10.0876C271.557 10.068 271.706 9.0781 271.843 8.16043C271.883 7.8951 271.922 7.6358 271.977 7.40774C271.706 7.31382 271.438 7.22653 271.067 7.26849C270.272 7.35869 269.88 8.36445 269.9 9.26973ZM272.046 6.92044C272.156 6.40516 272.24 5.86441 272.304 5.30211H273.042C272.96 5.77335 272.871 6.23664 272.781 6.69994C272.546 7.91476 272.311 9.1296 272.218 10.4879H271.548C271.551 10.3421 271.572 10.2154 271.594 10.0887C271.602 10.0422 271.61 9.99574 271.617 9.94832C271.608 9.91796 271.571 9.97779 271.534 10.0393C271.515 10.0704 271.496 10.102 271.48 10.1224C271.416 10.2032 271.318 10.3195 271.222 10.3835C270.726 10.7137 269.745 10.6197 269.402 10.2268C269.203 9.99873 269.148 9.67906 269.144 9.35669C269.124 7.68991 270.235 6.33949 272.046 6.92044ZM251.958 9.51331C252.034 10.2267 253.005 10.2332 253.4 9.8092C253.727 9.45804 253.999 8.59013 253.898 7.89498C253.782 7.09429 252.639 7.1524 252.25 7.6339C252.217 7.80021 252.189 7.97552 252.16 8.15719C252.14 8.28728 252.119 8.42063 252.095 8.55627C252.079 8.6471 252.059 8.73827 252.038 8.82935C251.986 9.06032 251.934 9.29069 251.958 9.51331ZM252.267 7.1845C252.597 6.91436 253.359 6.63037 253.984 6.86828C255.27 7.35781 254.53 9.85812 253.572 10.3835C253.107 10.638 252.006 10.7639 251.838 10.105C251.736 10.533 251.671 10.998 251.606 11.463C251.575 11.6786 251.545 11.8942 251.511 12.1062H250.773C251.104 10.3885 251.418 8.65337 251.683 6.86828H252.318C252.316 6.92634 252.304 6.97559 252.293 7.02485C252.281 7.07412 252.27 7.1234 252.267 7.18152L252.267 7.1845ZM252.267 7.1845C252.265 7.18609 252.263 7.18768 252.261 7.18927C252.257 7.19248 252.253 7.19568 252.25 7.19889C252.259 7.19801 252.268 7.19639 252.267 7.1845ZM255.752 8.1212H257.486C257.644 7.44903 257.263 7.23051 256.731 7.25112C256.166 7.27301 255.807 7.71714 255.752 8.1212ZM255.478 7.33808C255.798 6.99591 256.249 6.8403 256.782 6.79868C257.391 6.75118 257.989 6.87902 258.156 7.37295C258.251 7.65386 258.193 7.95667 258.137 8.25046C258.118 8.34796 258.1 8.44446 258.087 8.53884C257.29 8.5181 256.463 8.51316 255.666 8.53884C255.543 9.07324 255.545 9.68818 255.924 9.93102C256.426 10.2526 257.273 9.99427 257.761 9.8092C257.749 9.88377 257.734 9.95577 257.72 10.0278C257.695 10.1481 257.671 10.2685 257.658 10.4008C256.473 10.6931 254.992 10.7363 254.859 9.53075C254.766 8.68573 255.084 7.75782 255.478 7.33808ZM250.275 6.92044C250.274 6.89578 250.272 6.87118 250.292 6.86828H251.031C250.776 8.03133 250.573 9.24648 250.395 10.4879H249.657C249.892 9.32838 250.112 8.1535 250.275 6.92044ZM268.149 7.44247C268.361 7.10983 268.904 6.55503 269.557 6.88564C269.528 6.98038 269.51 7.08685 269.493 7.19331C269.481 7.26604 269.469 7.33877 269.454 7.40774C268.298 7.07646 268.066 8.17816 267.908 9.1827C267.889 9.30718 267.868 9.42356 267.848 9.5363C267.791 9.84974 267.74 10.135 267.737 10.4879H266.981C267.228 9.3173 267.44 8.11113 267.616 6.86828H268.269C268.242 6.95247 268.227 7.04904 268.212 7.1456C268.196 7.24976 268.18 7.35391 268.149 7.44247ZM261.195 8.93905C261.178 9.1627 261.196 9.45696 261.264 9.63514C261.498 10.2483 262.505 10.1041 263.032 9.82656C263.016 9.90518 263.002 9.98664 262.989 10.0681C262.971 10.1754 262.953 10.2827 262.929 10.3835C261.965 10.721 260.774 10.6731 260.508 9.79176C260.281 9.03858 260.602 7.84153 261.092 7.32072C261.592 6.78868 262.536 6.68632 263.53 6.85091C263.519 6.93152 263.507 7.00967 263.494 7.08782C263.474 7.20337 263.455 7.31893 263.444 7.44247C262.838 7.22774 262.078 7.16443 261.693 7.54694C261.414 7.82403 261.233 8.4362 261.195 8.93905ZM259.444 7.47734C259.682 7.05314 260.197 6.6003 260.852 6.86828C260.843 6.95093 260.827 7.02653 260.811 7.10214C260.791 7.19905 260.771 7.29597 260.766 7.40774C260.073 7.15706 259.593 7.6166 259.409 8.156C259.245 8.63825 259.176 9.26145 259.112 9.83539C259.086 10.0648 259.061 10.2863 259.032 10.4879H258.293C258.323 10.3292 258.353 10.1707 258.383 10.0122C258.578 8.98346 258.773 7.95466 258.911 6.86828H259.564C259.546 6.94853 259.532 7.0323 259.518 7.11606C259.497 7.24034 259.476 7.3646 259.444 7.47734ZM248.61 7.45991C248.729 6.78017 248.848 6.10009 248.953 5.4065H249.812C249.474 7.0597 249.189 8.76641 248.919 10.4879H248.077C248.153 10.0025 248.241 9.53002 248.329 9.05759C248.396 8.70091 248.463 8.34424 248.524 7.98201C247.899 7.92165 247.133 7.9417 246.461 7.95932C246.392 7.96113 246.324 7.96291 246.257 7.96458C246.109 8.65652 245.997 9.38581 245.886 10.1151C245.867 10.2394 245.847 10.3637 245.828 10.4879H244.987C245.216 9.33199 245.416 8.14617 245.615 6.96031C245.703 6.44155 245.79 5.92278 245.88 5.4065H246.704C246.635 5.73544 246.577 6.07388 246.518 6.41231C246.457 6.75913 246.397 7.10593 246.326 7.44247C246.914 7.4869 247.53 7.47678 248.142 7.4667C248.298 7.46413 248.454 7.46157 248.61 7.45991ZM251.168 5.4065C251.385 5.60137 251.195 6.06948 251.048 6.17219C250.954 6.23753 250.639 6.31266 250.498 6.17219C250.354 6.02793 250.439 5.63968 250.533 5.51089C250.591 5.43083 250.676 5.37974 250.825 5.35434C250.985 5.3269 251.099 5.34481 251.168 5.4065Z" fill="black"/>
<path d="M309.806 17.8301H306.544C306.243 17.8301 306 17.5922 306 17.2988V1.3617C306 1.06831 306.243 0.830466 306.544 0.830466H309.806C310.106 0.830466 310.349 1.06831 310.349 1.3617V17.2988C310.349 17.5922 310.106 17.8301 309.806 17.8301Z" fill="black"/>
<path d="M322.131 17.8301H317.419C317.118 17.8301 316.875 17.5922 316.875 17.2988V1.3617C316.875 1.06831 317.118 0.830466 317.419 0.830466H322.131C322.431 0.830466 322.675 1.06831 322.675 1.3617V17.2988C322.675 17.5922 322.431 17.8301 322.131 17.8301Z" fill="black"/>
<path d="M327.206 17.8301H325.393C325.093 17.8301 324.85 17.5922 324.85 17.2988V1.3617C324.85 1.06831 325.093 0.830466 325.393 0.830466H327.206C327.506 0.830466 327.749 1.06831 327.749 1.3617V17.2988C327.749 17.5922 327.506 17.8301 327.206 17.8301Z" fill="black"/>
<path d="M334.455 17.8301H332.643C332.343 17.8301 332.1 17.5922 332.1 17.2988V1.3617C332.1 1.06831 332.343 0.830466 332.643 0.830466H334.455C334.756 0.830466 334.999 1.06831 334.999 1.3617V17.2988C334.999 17.5922 334.756 17.8301 334.455 17.8301Z" fill="black"/>
<path d="M309.806 0.830466H308.356C308.656 0.830466 308.9 1.06831 308.9 1.3617V17.2988C308.9 17.5922 308.656 17.8301 308.356 17.8301H309.806C310.106 17.8301 310.349 17.5922 310.349 17.2988V1.3617C310.349 1.06831 310.106 0.830466 309.806 0.830466Z" fill="black"/>
<path d="M322.131 0.830466L320.681 0.830078C320.981 0.830078 321.225 1.06792 321.225 1.36132V17.2985C321.225 17.5919 320.981 17.8297 320.681 17.8297L322.131 17.8301C322.431 17.8301 322.675 17.5922 322.675 17.2988V1.3617C322.675 1.06831 322.431 0.830466 322.131 0.830466Z" fill="black"/>
<path d="M327.206 0.830466L325.756 0.830078C326.056 0.830078 326.3 1.06792 326.3 1.36132V17.2985C326.3 17.5919 326.056 17.8297 325.756 17.8297L327.206 17.8301C327.506 17.8301 327.75 17.5919 327.75 17.2985V1.36132C327.75 1.06792 327.506 0.830466 327.206 0.830466Z" fill="black"/>
<path d="M334.455 0.830466L333.006 0.830078C333.306 0.830078 333.55 1.06792 333.55 1.36132V17.2985C333.55 17.5919 333.306 17.8297 333.006 17.8297L334.455 17.8301C334.756 17.8301 335 17.5919 335 17.2985V1.36132C335 1.06792 334.756 0.830466 334.455 0.830466Z" fill="black"/>
<path d="M312.525 17.8297C312.225 17.8297 311.981 17.5919 311.981 17.2985V1.36132C311.981 1.06792 312.225 0.830078 312.525 0.830078C312.825 0.830078 313.069 1.06792 313.069 1.36132V17.2985C313.069 17.5919 312.825 17.8297 312.525 17.8297Z" fill="black"/>
<path d="M329.925 17.8297C329.624 17.8297 329.381 17.5919 329.381 17.2985V1.36132C329.381 1.06792 329.624 0.830078 329.925 0.830078C330.225 0.830078 330.469 1.06792 330.469 1.36132V17.2985C330.469 17.5919 330.225 17.8297 329.925 17.8297Z" fill="black"/>
<path d="M314.7 17.8297C314.4 17.8297 314.156 17.5919 314.156 17.2985V1.36132C314.156 1.06792 314.4 0.830078 314.7 0.830078C315 0.830078 315.244 1.06792 315.244 1.36132V17.2985C315.244 17.5919 315 17.8297 314.7 17.8297Z" fill="black"/>
<path d="M366.373 18.4519C366.176 18.1342 365.914 17.6266 365.752 17.2508C364.807 15.0502 364.764 12.772 365.559 10.5869C366.435 8.18861 368.109 6.35602 370.273 5.41842C372.992 4.24448 375.997 4.47307 378.604 6.0267C380.259 6.9798 381.432 8.45206 382.323 10.5365C382.435 10.8038 382.535 11.0866 382.635 11.3307L366.373 18.4519ZM371.804 8.95574C369.871 9.78873 368.876 11.6097 369.085 13.7406L377.262 10.2033C375.854 8.54505 374.026 7.99489 371.804 8.95574ZM378.28 16.6503C378.277 16.6503 378.277 16.6542 378.277 16.6542L378.107 16.5379C377.617 17.3322 376.857 17.9792 375.897 18.3976C374.068 19.1958 372.375 18.9904 371.156 17.9172L371.044 18.0877C371.044 18.0877 371.044 18.0838 371.04 18.0838L368.965 21.2027C369.482 21.563 370.033 21.8652 370.612 22.1093C372.903 23.0663 375.249 23.0198 377.559 22.0124C379.229 21.284 380.541 20.176 381.436 18.7696L378.28 16.6503Z" fill="black"/>
<path d="M388.317 0.830078V18.1651L391.002 19.2577L389.478 22.8301L386.516 21.5902C385.852 21.2996 385.397 20.8579 385.058 20.3581C384.73 19.8505 384.487 19.1492 384.487 18.2115V0.830078H388.317Z" fill="black"/>
<path d="M395.268 13.7511C395.268 12.2749 395.92 10.9498 396.946 10.0509L394.192 6.96664C392.325 8.62499 391.148 11.0466 391.148 13.7434C391.144 16.444 392.321 18.8695 394.184 20.5279L396.934 17.4437C395.912 16.5409 395.268 15.2235 395.268 13.7511Z" fill="black"/>
<path d="M400.159 18.6682C399.619 18.6682 399.094 18.5752 398.608 18.4125L397.293 22.3371C398.192 22.6393 399.152 22.8059 400.155 22.8059C404.514 22.8098 408.151 19.7026 408.996 15.5766L404.954 14.7475C404.495 16.9907 402.524 18.6721 400.159 18.6682Z" fill="black"/>
<path d="M400.171 4.69658C399.172 4.69658 398.211 4.85931 397.312 5.15765L398.616 9.08646C399.106 8.92372 399.627 8.83461 400.167 8.83461C402.535 8.83848 404.51 10.5278 404.958 12.775L409 11.9536C408.171 7.81947 404.533 4.70045 400.171 4.69658Z" fill="black"/>
<path d="M460.803 17.9699C460.619 17.9699 460.478 17.8209 460.478 17.6583V7.30896C460.478 5.23638 462.243 3.54309 464.402 3.54309H467.579C469.738 3.54309 471.489 5.23638 471.489 7.29541V9.48991C471.489 11.5625 469.724 13.2558 467.565 13.2558H463.076C462.892 13.2558 462.751 13.1068 462.751 12.9442C462.751 12.7817 462.906 12.6326 463.076 12.6326H467.565C469.357 12.6326 470.825 11.2374 470.825 9.50345V7.30896C470.825 5.58858 469.371 4.19331 467.579 4.19331H464.402C462.61 4.19331 461.142 5.58858 461.142 7.3225V17.6583C461.142 17.8209 460.986 17.9699 460.803 17.9699ZM474.891 13.3235C474.707 13.3235 474.566 13.1745 474.566 13.0119V5.29056C474.566 4.68098 474.058 4.19331 473.423 4.19331H472.039C471.856 4.19331 471.715 4.0443 471.715 3.88175C471.715 3.71919 471.87 3.57018 472.039 3.57018H473.423C474.411 3.57018 475.23 4.34232 475.23 5.30411V13.0255C475.216 13.1745 475.074 13.3235 474.891 13.3235Z" fill="black"/>
<path d="M474.595 2.67576L473.973 2.07972C473.818 1.93071 473.818 1.68688 473.973 1.53787L474.595 0.941835C474.75 0.792826 475.004 0.792826 475.159 0.941835L475.781 1.53787C475.936 1.68688 475.936 1.93071 475.781 2.07972L475.159 2.67576C475.004 2.82477 474.75 2.82477 474.595 2.67576Z" fill="black"/>
<path d="M478.9 13.2547H477.531C477.347 13.2547 477.206 13.1057 477.206 12.9432C477.206 12.7806 477.361 12.6316 477.531 12.6316H478.9C479.521 12.6316 480.1 12.4013 480.537 11.9814L483.742 8.90636C484.01 8.64898 484.349 8.51352 484.73 8.51352C485.111 8.51352 485.45 8.64898 485.718 8.90636L488.909 11.9678C489.346 12.3878 489.925 12.618 490.546 12.618H491.661C491.845 12.618 491.986 12.7671 491.986 12.9296C491.986 13.0922 491.831 13.2412 491.661 13.2412H490.546C489.755 13.2412 488.993 12.9432 488.429 12.4013L485.238 9.33984C485.097 9.20438 484.914 9.13665 484.716 9.13665C484.518 9.13665 484.335 9.20438 484.194 9.33984L480.989 12.4149C480.453 12.9567 479.705 13.2547 478.9 13.2547ZM484.73 8.29678C484.363 8.29678 484.01 8.16132 483.742 7.90394L480.537 4.82893C480.1 4.40899 479.521 4.17871 478.9 4.17871H477.531C477.347 4.17871 477.206 4.0297 477.206 3.86714C477.206 3.70459 477.361 3.55558 477.531 3.55558H478.9C479.69 3.55558 480.453 3.8536 481.017 4.39545L484.208 7.45691C484.349 7.59237 484.532 7.6601 484.73 7.6601C484.928 7.6601 485.111 7.59237 485.252 7.45691L488.443 4.39545C489.007 3.8536 489.755 3.55558 490.56 3.55558H491.675C491.859 3.55558 492 3.70459 492 3.86714C492 4.0297 491.845 4.17871 491.675 4.17871H490.56C489.939 4.17871 489.36 4.40899 488.923 4.82893L485.732 7.89039C485.45 8.14777 485.097 8.29678 484.73 8.29678Z" fill="black"/>
<path d="M452.657 14.8949C451.965 14.8949 451.33 14.6375 450.836 14.1769L448.21 11.6573C448.027 11.4812 447.702 11.4812 447.519 11.6573L444.893 14.1769C444.413 14.6375 443.764 14.8949 443.072 14.8949H442.55L445.867 18.0783C446.912 19.0807 448.591 19.0807 449.622 18.0783L452.953 14.8813H452.657V14.8949Z" fill="black"/>
<path d="M443.072 5.98129C443.764 5.98129 444.399 6.23867 444.893 6.69924L447.533 9.2324C447.716 9.4085 448.027 9.4085 448.224 9.2324L450.85 6.71279C451.33 6.25221 451.979 5.99484 452.671 5.99484H452.982L449.636 2.79791C448.591 1.79549 446.912 1.79549 445.881 2.79791L442.55 5.98129H443.072Z" fill="black"/>
<path d="M455.721 8.63576L453.702 6.69865C453.66 6.71219 453.603 6.72574 453.561 6.72574H452.643C452.164 6.72574 451.712 6.91538 451.373 7.22695L448.761 9.7601C448.522 9.99039 448.197 10.1123 447.872 10.1123C447.547 10.1123 447.223 9.99039 446.983 9.7601L444.343 7.22695C444.004 6.90184 443.538 6.72574 443.073 6.72574H441.943C441.901 6.72574 441.844 6.71219 441.802 6.69865L439.783 8.63576C438.739 9.63819 438.739 11.2502 439.783 12.2391L441.802 14.1762C441.844 14.1626 441.887 14.1491 441.943 14.1491H443.073C443.553 14.1491 444.004 13.9594 444.343 13.6479L446.983 11.1147C447.463 10.6542 448.296 10.6542 448.761 11.1147L451.387 13.6343C451.726 13.9594 452.192 14.1356 452.658 14.1356H453.575C453.632 14.1356 453.674 14.1491 453.716 14.1626L455.735 12.2255C456.765 11.2502 456.765 9.63819 455.721 8.63576Z" fill="black"/>
<path d="M463.542 16.7643C463.386 16.7643 463.217 16.805 463.047 16.8321V17.4552C463.16 17.4958 463.302 17.5229 463.429 17.5229C463.754 17.5229 463.909 17.4146 463.909 17.1436C463.923 16.8863 463.796 16.7643 463.542 16.7643ZM462.934 16.6966H463.019L463.033 16.7508C463.189 16.7101 463.401 16.6695 463.542 16.6695C463.669 16.6695 463.782 16.6831 463.881 16.7643C463.994 16.8592 464.036 16.9946 464.036 17.1572C464.036 17.3197 463.98 17.4687 463.825 17.5636C463.711 17.6178 463.57 17.6448 463.443 17.6448C463.316 17.6448 463.175 17.6313 463.047 17.5907V17.9564H462.934V16.6966Z" fill="black"/>
<path d="M464.869 16.7644C464.544 16.7644 464.388 16.8593 464.388 17.1437C464.388 17.4147 464.53 17.5366 464.869 17.5366C465.194 17.5366 465.349 17.4418 465.349 17.1573C465.335 16.8864 465.194 16.7644 464.869 16.7644ZM465.293 17.5366C465.18 17.6179 465.038 17.6314 464.869 17.6314C464.699 17.6314 464.544 17.6043 464.445 17.5366C464.318 17.4553 464.275 17.3198 464.275 17.1573C464.275 16.9947 464.318 16.8593 464.445 16.778C464.558 16.7103 464.699 16.6832 464.869 16.6832C465.038 16.6832 465.18 16.7103 465.293 16.778C465.42 16.8593 465.462 16.9947 465.462 17.1573C465.462 17.3198 465.406 17.4553 465.293 17.5366Z" fill="black"/>
<path d="M466.845 17.6037L466.478 16.8451H466.464L466.111 17.6037H466.012L465.616 16.696H465.744L466.068 17.4546L466.421 16.696H466.534L466.887 17.4546H466.901L467.212 16.696H467.339L466.944 17.6037H466.845Z" fill="black"/>
<path d="M468.045 16.7643C467.734 16.7643 467.635 16.8998 467.621 17.0759H468.469C468.469 16.8727 468.356 16.7643 468.045 16.7643ZM468.045 17.6313C467.861 17.6313 467.748 17.6042 467.649 17.5365C467.536 17.4417 467.494 17.3062 467.494 17.1572C467.494 17.0082 467.55 16.8592 467.678 16.7643C467.777 16.6966 467.918 16.6695 468.045 16.6695C468.172 16.6695 468.313 16.6831 468.426 16.7643C468.568 16.8592 468.596 17.0082 468.596 17.1843H467.621C467.621 17.3739 467.692 17.5365 468.059 17.5365C468.229 17.5365 468.398 17.5094 468.554 17.4823V17.5771C468.384 17.6042 468.215 17.6313 468.045 17.6313Z" fill="black"/>
<path d="M468.906 17.6042V16.6966H468.99L469.004 16.7508C469.202 16.6966 469.301 16.6695 469.471 16.6695H469.485V16.7643H469.457C469.301 16.7643 469.216 16.7779 469.004 16.8321V17.5907H468.906V17.6042Z" fill="black"/>
<path d="M470.134 16.7643C469.823 16.7643 469.724 16.8998 469.71 17.0759H470.558C470.558 16.8727 470.445 16.7643 470.134 16.7643ZM470.134 17.6313C469.951 17.6313 469.838 17.6042 469.739 17.5365C469.626 17.4417 469.583 17.3062 469.583 17.1572C469.583 17.0082 469.64 16.8592 469.767 16.7643C469.866 16.6966 470.007 16.6695 470.134 16.6695C470.261 16.6695 470.403 16.6831 470.516 16.7643C470.657 16.8592 470.685 17.0082 470.685 17.1843H469.71C469.71 17.3739 469.781 17.5365 470.148 17.5365C470.318 17.5365 470.487 17.5094 470.643 17.4823V17.5771C470.473 17.6042 470.304 17.6313 470.134 17.6313Z" fill="black"/>
<path d="M471.899 16.8178C471.786 16.7772 471.645 16.7501 471.518 16.7501C471.193 16.7501 471.037 16.8585 471.037 17.1294C471.037 17.3868 471.164 17.5087 471.419 17.5087C471.574 17.5087 471.744 17.468 471.913 17.441V16.8178H471.899ZM471.913 17.6035L471.899 17.5493C471.744 17.59 471.532 17.6306 471.391 17.6306C471.263 17.6306 471.15 17.6171 471.051 17.5358C470.938 17.441 470.896 17.3055 470.896 17.1429C470.896 16.9804 470.953 16.8314 471.108 16.7501C471.221 16.6959 471.362 16.6688 471.489 16.6688C471.617 16.6688 471.744 16.6959 471.885 16.723V16.3031H471.998V17.6035H471.913Z" fill="black"/>
<path d="M473.635 16.7636C473.48 16.7636 473.31 16.8043 473.141 16.8314V17.4545C473.268 17.4951 473.395 17.5222 473.522 17.5222C473.847 17.5222 474.003 17.4139 474.003 17.1429C474.003 16.8856 473.875 16.7636 473.635 16.7636ZM473.918 17.5493C473.805 17.6035 473.663 17.6306 473.536 17.6306C473.395 17.6306 473.254 17.6035 473.112 17.5629V17.6035H473.028V16.3031H473.141V16.7365C473.296 16.7095 473.494 16.6553 473.649 16.6553C473.776 16.6553 473.889 16.6688 473.988 16.7501C474.101 16.8449 474.144 16.9804 474.144 17.1429C474.13 17.3055 474.073 17.468 473.918 17.5493Z" fill="black"/>
<path d="M474.27 17.9564V17.8615C474.326 17.8615 474.369 17.8751 474.411 17.8751C474.552 17.8751 474.637 17.8344 474.708 17.6854L474.75 17.6177L474.256 16.7101H474.383L474.807 17.4958H474.821L475.231 16.7101H475.358L474.821 17.7396C474.722 17.9293 474.623 17.9834 474.425 17.9834C474.369 17.9564 474.326 17.9564 474.27 17.9564Z" fill="black"/>
<path d="M476.868 17.0889H476.5V17.414H476.868C477.122 17.414 477.221 17.3869 477.221 17.2515C477.221 17.1025 477.094 17.0889 476.868 17.0889ZM476.811 16.5606H476.515V16.8857H476.811C477.066 16.8857 477.165 16.8586 477.165 16.7232C477.15 16.5742 477.037 16.5606 476.811 16.5606ZM477.377 17.5224C477.235 17.6037 477.08 17.6037 476.783 17.6037H476.218V16.371H476.769C477.023 16.371 477.179 16.371 477.32 16.4522C477.419 16.5064 477.447 16.5877 477.447 16.6961C477.447 16.8315 477.391 16.9128 477.249 16.967V16.9806C477.419 17.0212 477.518 17.1025 477.518 17.2786C477.518 17.3869 477.475 17.4682 477.377 17.5224Z" fill="black"/>
<path d="M478.633 17.2249C478.52 17.2114 478.407 17.2114 478.294 17.2114C478.096 17.2114 478.025 17.252 478.025 17.3333C478.025 17.4146 478.082 17.4552 478.237 17.4552C478.364 17.4552 478.505 17.4281 478.633 17.401V17.2249ZM478.689 17.6042L478.675 17.55C478.52 17.5907 478.322 17.6313 478.152 17.6313C478.053 17.6313 477.94 17.6178 477.87 17.5636C477.799 17.5094 477.771 17.4416 477.771 17.3468C477.771 17.2385 477.813 17.1436 477.926 17.103C478.025 17.0624 478.166 17.0488 478.279 17.0488C478.378 17.0488 478.52 17.0488 478.618 17.0624V17.0488C478.618 16.8998 478.52 16.8592 478.251 16.8592C478.152 16.8592 478.025 16.8592 477.898 16.8727V16.6831C478.025 16.6695 478.18 16.6695 478.308 16.6695C478.477 16.6695 478.647 16.6831 478.746 16.7508C478.859 16.8185 478.873 16.9269 478.873 17.0624V17.6042H478.689Z" fill="black"/>
<path d="M480.143 17.6042V17.103C480.143 16.9404 480.058 16.8727 479.903 16.8727C479.79 16.8727 479.634 16.8998 479.521 16.9269V17.6042H479.239V16.6966H479.451L479.465 16.7508C479.634 16.7101 479.818 16.6695 479.974 16.6695C480.087 16.6695 480.214 16.6831 480.299 16.7643C480.369 16.8321 480.397 16.9133 480.397 17.0488V17.6042H480.143Z" fill="black"/>
<path d="M481.159 17.6312C481.032 17.6312 480.905 17.6176 480.806 17.5364C480.693 17.4415 480.65 17.3061 480.65 17.1435C480.65 16.9945 480.693 16.8455 480.848 16.7507C480.961 16.6829 481.117 16.6559 481.272 16.6559C481.385 16.6559 481.484 16.6694 481.611 16.6694V16.859C481.512 16.8455 481.399 16.8455 481.315 16.8455C481.06 16.8455 480.947 16.9268 480.947 17.13C480.947 17.3332 481.032 17.4144 481.244 17.4144C481.371 17.4144 481.512 17.3874 481.64 17.3738V17.5635C481.47 17.6041 481.315 17.6312 481.159 17.6312Z" fill="black"/>
<path d="M482.401 16.8592C482.147 16.8592 482.034 16.9404 482.034 17.1436C482.034 17.3468 482.147 17.4417 482.401 17.4417C482.656 17.4417 482.755 17.3739 482.755 17.1572C482.769 16.954 482.656 16.8592 482.401 16.8592ZM482.854 17.5365C482.741 17.6178 482.585 17.6313 482.401 17.6313C482.218 17.6313 482.062 17.6042 481.949 17.5365C481.822 17.4552 481.766 17.3197 481.766 17.1572C481.766 16.9946 481.808 16.8592 481.949 16.7643C482.062 16.6966 482.218 16.6695 482.401 16.6695C482.585 16.6695 482.741 16.6966 482.854 16.7643C482.981 16.8456 483.037 16.9811 483.037 17.1436C483.037 17.3062 482.995 17.4552 482.854 17.5365Z" fill="black"/>
<path d="M484.561 17.6309C484.406 17.6309 484.222 17.6038 484.095 17.509C483.94 17.3871 483.897 17.1975 483.897 16.9943C483.897 16.8182 483.954 16.6014 484.166 16.466C484.321 16.3711 484.519 16.344 484.717 16.344C484.858 16.344 485.013 16.3576 485.169 16.3711V16.5879C485.028 16.5743 484.858 16.5743 484.731 16.5743C484.363 16.5743 484.208 16.7098 484.208 16.9943C484.208 17.2787 484.349 17.4142 484.618 17.4142C484.801 17.4142 484.999 17.3736 485.197 17.3465V17.5632C484.985 17.5903 484.773 17.6309 484.561 17.6309Z" fill="black"/>
<path d="M485.959 16.8322C485.733 16.8322 485.648 16.9135 485.634 17.0489H486.27C486.27 16.8999 486.185 16.8322 485.959 16.8322ZM485.931 17.6314C485.775 17.6314 485.634 17.6179 485.521 17.5366C485.408 17.4418 485.365 17.3063 485.365 17.1573C485.365 17.0218 485.408 16.8593 485.549 16.778C485.662 16.6967 485.817 16.6832 485.959 16.6832C486.1 16.6832 486.255 16.6967 486.369 16.778C486.524 16.8864 486.538 17.0354 486.538 17.225H485.634C485.634 17.3605 485.719 17.4553 485.987 17.4553C486.157 17.4553 486.34 17.4282 486.496 17.4147V17.5908C486.312 17.6043 486.114 17.6314 485.931 17.6314Z" fill="black"/>
<path d="M487.724 17.6042V17.103C487.724 16.9404 487.639 16.8727 487.483 16.8727C487.37 16.8727 487.215 16.8998 487.102 16.9269V17.6042H486.833V16.6966H487.045L487.059 16.7508C487.229 16.7101 487.413 16.6695 487.568 16.6695C487.681 16.6695 487.808 16.6831 487.893 16.7643C487.964 16.8321 487.992 16.9133 487.992 17.0488V17.6042H487.724Z" fill="black"/>
<path d="M488.74 17.6308C488.612 17.6308 488.499 17.5902 488.429 17.4954C488.386 17.4276 488.358 17.3464 488.358 17.2244V16.8858H488.16V16.6961H488.358L488.386 16.4252H488.627V16.6961H489.008V16.8858H488.627V17.1838C488.627 17.2515 488.627 17.3193 488.655 17.3599C488.683 17.4276 488.74 17.4412 488.824 17.4412C488.881 17.4412 488.966 17.4276 489.008 17.4276V17.6037C488.937 17.6173 488.824 17.6308 488.74 17.6308Z" fill="black"/>
<path d="M489.261 17.6042V16.6966H489.473L489.488 16.7508C489.657 16.7101 489.798 16.6695 489.954 16.6695C489.968 16.6695 489.968 16.6695 489.982 16.6695V16.8863C489.954 16.8863 489.911 16.8863 489.883 16.8863C489.756 16.8863 489.657 16.8998 489.516 16.9269V17.6042H489.261Z" fill="black"/>
<path d="M490.956 17.2249C490.843 17.2114 490.73 17.2114 490.617 17.2114C490.419 17.2114 490.349 17.252 490.349 17.3333C490.349 17.4146 490.405 17.4552 490.561 17.4552C490.688 17.4552 490.829 17.4281 490.956 17.401V17.2249ZM491.013 17.6042L490.999 17.55C490.843 17.5907 490.645 17.6313 490.476 17.6313C490.377 17.6313 490.264 17.6178 490.193 17.5636C490.123 17.5094 490.094 17.4416 490.094 17.3468C490.094 17.2385 490.137 17.1436 490.25 17.103C490.349 17.0624 490.49 17.0488 490.603 17.0488C490.702 17.0488 490.843 17.0488 490.942 17.0624V17.0488C490.942 16.8998 490.843 16.8592 490.575 16.8592C490.476 16.8592 490.349 16.8592 490.221 16.8727V16.6831C490.349 16.6695 490.504 16.6695 490.631 16.6695C490.801 16.6695 490.97 16.6831 491.069 16.7508C491.182 16.8185 491.196 16.9269 491.196 17.0624V17.6042H491.013Z" fill="black"/>
<path d="M491.562 16.3031H491.832V17.6035H491.562V16.3031Z" fill="black"/>
</svg>
