<svg xmlns="http://www.w3.org/2000/svg" width="31" height="31" viewBox="0 0 31 31" fill="none">
  <path d="M27.4624 8.13353H21.3596V0.613281L0 8.13353V27.6862C0 29.3406 1.37312 30.6943 3.05137 30.6943H27.4624C29.1406 30.6943 30.5137 29.3406 30.5137 27.6862V11.1416C30.5137 9.48718 29.1406 8.13353 27.4624 8.13353ZM28.988 27.6862C28.988 28.5157 28.3038 29.1902 27.4624 29.1902H3.05137C2.20996 29.1902 1.52569 28.5157 1.52569 27.6862V11.1416C1.52569 10.3121 2.20996 9.63758 3.05137 9.63758H27.4624C28.3038 9.63758 28.988 10.3121 28.988 11.1416V27.6862ZM19.8339 8.13353H4.53587L19.8339 2.74753V8.13353Z" fill="#EE6262"/>
  <path d="M22.8853 20.918C23.7279 20.918 24.411 20.2446 24.411 19.4139C24.411 18.5832 23.7279 17.9099 22.8853 17.9099C22.0427 17.9099 21.3596 18.5832 21.3596 19.4139C21.3596 20.2446 22.0427 20.918 22.8853 20.918Z" fill="#EE6262"/>
</svg>