<svg width="18" height="10" viewBox="0 0 18 10" fill="none" xmlns="http://www.w3.org/2000/svg">
<path d="M17.6438 1.98157L9.66491 9.74654C9.56992 9.83871 9.46702 9.90384 9.3562 9.94194C9.24538 9.98065 9.12665 10 9 10C8.87335 10 8.75462 9.98065 8.6438 9.94194C8.53298 9.90384 8.43008 9.83871 8.33509 9.74654L0.332454 1.98157C0.110818 1.76651 1.01389e-07 1.49769 1.05236e-07 1.17511C1.09082e-07 0.852534 0.118734 0.576036 0.356201 0.345622C0.593668 0.115208 0.870712 1.03831e-08 1.18734 1.41588e-08C1.50396 1.79345e-08 1.781 0.115208 2.01847 0.345622L9 7.11982L15.9815 0.345622C16.2032 0.130569 16.4761 0.023041 16.8003 0.023041C17.1252 0.023041 17.4063 0.138249 17.6438 0.368663C17.8813 0.599077 18 0.867895 18 1.17511C18 1.48233 17.8813 1.75115 17.6438 1.98157Z" fill="#8E8E93"/>
</svg>
