<svg width="30" height="32" viewBox="0 0 30 32" fill="none" xmlns="http://www.w3.org/2000/svg">
<path d="M28.7109 1.82281C28.5563 1.76278 28.4016 1.79279 28.2779 1.91284C26.6079 3.5334 24.3811 4.43372 21.9997 4.43372C19.4018 4.43372 16.9276 3.32333 15.2575 1.43267C15.1029 1.28262 14.8245 1.28262 14.6699 1.43267C12.9689 3.35334 10.5256 4.43372 7.92773 4.43372C5.57725 4.43372 3.35048 3.56342 1.6804 1.94285C1.55669 1.82281 1.40206 1.7928 1.24742 1.85282C1.09278 1.91284 1 2.03288 1 2.18293V14.1571C1 22.29 6.96898 29.6426 14.8864 31.2931C14.9173 31.2931 14.9482 31.2931 14.9792 31.2931C15.0101 31.2931 15.041 31.2931 15.0719 31.2931C22.9894 29.6426 28.9583 22.29 28.9583 14.1571V2.18293C28.9583 2.03288 28.8656 1.88283 28.7109 1.82281ZM28.1852 14.1571C28.1852 21.8998 22.5254 28.9523 14.9792 30.5429C7.46382 28.9523 1.77318 21.8998 1.77318 14.1571V3.02323C3.50512 4.40371 5.6391 5.15397 7.92773 5.15397C10.6184 5.15397 13.1545 4.07359 14.9792 2.18293C16.8039 4.07359 19.3399 5.15397 22.0306 5.15397C24.3192 5.15397 26.4532 4.40371 28.1852 2.99322V14.1571Z" fill="#EE6262" stroke="#EE6262"/>
<path d="M21.6904 9.74558L14.4224 20.4593L9.35036 14.8774C9.19572 14.7273 8.97923 14.6973 8.79367 14.8474C8.63903 14.9974 8.6081 15.2075 8.76274 15.3876L14.1441 21.3597C14.206 21.4497 14.3297 21.4797 14.4224 21.4797H14.4534C14.5771 21.4797 14.6699 21.4197 14.7626 21.2996L22.3089 10.1657C22.4326 9.98567 22.3708 9.77559 22.1852 9.65555C22.0615 9.53551 21.8141 9.56552 21.6904 9.74558Z" fill="#EE6262" stroke="#EE6262"/>
</svg>
