<svg width="105" height="38" viewBox="0 0 105 38" fill="none" xmlns="http://www.w3.org/2000/svg">
<path d="M77.0488 14.5808H73.3985V26.9334C73.3985 27.0465 73.3523 27.1538 73.273 27.2339C73.1937 27.3141 73.0827 27.3584 72.9703 27.3584H70.1562C70.0423 27.3584 69.9327 27.3141 69.852 27.2339C69.7712 27.1538 69.7265 27.0465 69.7265 26.9334V14.5808H66.0546C65.9998 14.5836 65.945 14.5751 65.8917 14.555C65.8398 14.535 65.7922 14.5064 65.7533 14.4692C65.7129 14.432 65.6812 14.3862 65.6596 14.3361C65.6365 14.286 65.625 14.2316 65.625 14.1772V11.992C65.625 11.9377 65.6365 11.8833 65.6596 11.8332C65.6812 11.7831 65.7129 11.7373 65.7533 11.7001C65.7937 11.6629 65.8412 11.6329 65.8917 11.6143C65.9436 11.5956 65.9984 11.5871 66.0546 11.5885H77.0488C77.1627 11.5828 77.2751 11.6228 77.3587 11.6987C77.4438 11.7745 77.4942 11.8804 77.5 11.992V14.1772C77.4942 14.2903 77.4438 14.3947 77.3587 14.4706C77.2751 14.5464 77.1627 14.5851 77.0488 14.5793" fill="black"/>
<path d="M88.3199 27.0888C87.5664 27.1922 86.3005 27.3584 83.9766 27.3584C81.2024 27.3584 78.75 26.6752 78.75 22.9041V16.0214C78.75 12.2516 81.224 11.588 83.9997 11.588C86.3207 11.588 87.5678 11.7542 88.3199 11.8576C88.6215 11.8995 88.75 12.0029 88.75 12.2726V14.2022C88.75 14.3125 88.7038 14.4173 88.6244 14.4942C88.5436 14.5724 88.4339 14.6157 88.3199 14.6157H83.7846C82.7742 14.6157 82.4076 14.9469 82.4076 16.0255V17.9104H88.1481C88.2621 17.9104 88.3718 17.9551 88.4527 18.032C88.532 18.1102 88.5782 18.215 88.5782 18.3254V20.2927C88.5782 20.4031 88.532 20.5078 88.4527 20.5861C88.3718 20.6643 88.2621 20.7076 88.1481 20.7076H82.4076V22.9041C82.4076 23.9813 82.7728 24.3139 83.7846 24.3139H88.3199C88.4339 24.3139 88.5436 24.3586 88.6244 24.4354C88.7053 24.5123 88.75 24.6185 88.75 24.7289V26.6556C88.75 26.9225 88.6215 27.0483 88.3199 27.0888Z" fill="black"/>
<path d="M104.724 27.3542H101.365C101.092 27.3542 100.964 27.2669 100.815 27.0365L97.9039 22.3927L95.2658 26.9334C95.117 27.1882 94.9696 27.3584 94.7385 27.3584H91.6129C91.4017 27.3584 91.2968 27.2311 91.2968 27.0823C91.301 27.0307 91.3152 26.9792 91.3393 26.9334L95.9151 19.2688L91.2925 11.9905C91.2684 11.9519 91.2542 11.9075 91.25 11.8632C91.2571 11.7859 91.2939 11.7129 91.3521 11.6628C91.4116 11.6113 91.4881 11.5841 91.5661 11.5884H94.9667C95.1992 11.5884 95.3679 11.8016 95.4926 11.992L98.1959 16.2779L100.811 11.992C100.916 11.8002 101.107 11.5884 101.339 11.5884H104.464C104.542 11.5855 104.619 11.6113 104.678 11.6628C104.738 11.7143 104.775 11.7859 104.782 11.8632C104.777 11.9089 104.763 11.9519 104.739 11.9905L100.138 19.3131L104.936 26.932C104.974 26.9978 104.996 27.0708 105 27.1452C105 27.2683 104.895 27.3527 104.725 27.3527" fill="black"/>
<path d="M60.3431 11.5908C60.2662 11.5908 60.1907 11.6177 60.1312 11.6646C60.0717 11.7128 60.0311 11.7795 60.0151 11.8533L56.8753 23.1548C56.8318 23.3874 56.7679 23.4712 56.5719 23.4712C56.376 23.4712 56.3136 23.3832 56.2686 23.1548L53.1259 11.8504C53.1099 11.7766 53.0707 11.71 53.0112 11.6631C52.9517 11.6149 52.8762 11.5894 52.7993 11.5894H49.7089C49.6581 11.5894 49.6087 11.6007 49.5637 11.622C49.5187 11.6433 49.4781 11.6745 49.4476 11.7128C49.4171 11.7511 49.3953 11.7965 49.3837 11.8433C49.3721 11.8916 49.3721 11.9398 49.3837 11.988C49.3837 11.988 53.2188 24.9495 53.2609 25.0771C53.7733 26.6207 55.0158 27.3584 56.5966 27.3584C58.1774 27.3584 59.4156 26.5852 59.9294 25.08C59.9904 24.9055 63.7413 11.9866 63.7413 11.9866C63.7529 11.9384 63.7529 11.8901 63.7413 11.8419C63.7297 11.7937 63.7079 11.7497 63.6774 11.7114C63.6455 11.6731 63.6063 11.6419 63.5613 11.6206C63.5148 11.5993 63.4655 11.588 63.4161 11.588L60.3431 11.5908Z" fill="black"/>
<path d="M41.0532 0.671325H7.91735C5.34729 0.671325 3.70217 3.33508 4.90487 5.54974L8.21946 11.6702H2.21025C1.82939 11.6702 1.45569 11.767 1.12495 11.9495C0.792776 12.1319 0.516441 12.3944 0.320286 12.713C0.121268 13.0302 0.012452 13.3922 0.000997706 13.7628C-0.0104566 14.1333 0.0768825 14.501 0.254424 14.8294L10.9155 34.5086C11.1031 34.8539 11.3837 35.1444 11.7288 35.3465C12.0724 35.5486 12.4661 35.6553 12.8685 35.6553C13.2708 35.6553 13.6645 35.5486 14.0082 35.3465C14.3518 35.1444 14.6339 34.8539 14.8214 34.5086L17.7165 29.1923L21.349 35.8981C22.6275 38.2573 26.091 38.2615 27.3739 35.9051L43.9827 5.42483C45.1567 3.26912 43.5546 0.669922 41.0518 0.669922M26.1669 13.6926L19.0051 26.8388C18.8806 27.0689 18.693 27.2612 18.4639 27.3959C18.2348 27.5307 17.9728 27.6008 17.7065 27.6008C17.4402 27.6008 17.1767 27.5293 16.9491 27.3959C16.72 27.2612 16.5324 27.0675 16.4079 26.8388L9.31478 13.7487C9.19594 13.5298 9.13724 13.2856 9.1444 13.0386C9.15012 12.7916 9.22314 12.5502 9.35344 12.3397C9.48373 12.1277 9.66843 11.9523 9.88892 11.8302C10.1094 11.7081 10.3571 11.6435 10.6105 11.6435H24.9041C25.1504 11.6435 25.3938 11.7053 25.6085 11.8246C25.8233 11.9425 26.0037 12.1137 26.1311 12.32C26.2586 12.5263 26.3287 12.7607 26.3344 13.0021C26.3402 13.2435 26.2829 13.4807 26.1669 13.694" fill="black"/>
</svg>
