<svg width="34" height="23" viewBox="0 0 34 23" fill="none" xmlns="http://www.w3.org/2000/svg">
<path d="M32.809 4.28676C32.6222 3.62062 32.2582 3.01752 31.7559 2.5416C31.2394 2.05103 30.6063 1.70012 29.9164 1.52198C27.3345 0.841775 16.9904 0.841775 16.9904 0.841775C12.678 0.792736 8.36676 1.00842 4.08087 1.48762C3.39097 1.67892 2.75907 2.03768 2.24136 2.53198C1.73268 3.02117 1.36423 3.62442 1.17176 4.28539C0.709398 6.77499 0.484752 9.30287 0.500849 11.835C0.484351 14.3648 0.708446 16.8918 1.17176 19.3845C1.36011 20.0427 1.72718 20.6432 2.23724 21.1283C2.7473 21.6134 3.38246 21.9638 4.08087 22.1493C6.69714 22.8281 16.9904 22.8281 16.9904 22.8281C21.3082 22.8772 25.625 22.6616 29.9164 22.1823C30.6063 22.0041 31.2394 21.6532 31.7559 21.1627C32.2581 20.6868 32.6216 20.0837 32.8076 19.4175C33.2821 16.9289 33.5127 14.3999 33.4964 11.8666C33.5321 9.32247 33.3017 6.78161 32.809 4.28539V4.28676ZM13.7018 16.54V7.13125L22.3082 11.8363L13.7018 16.54Z" fill="black"/>
</svg>
