<svg width="37" height="34" viewBox="0 0 37 34" fill="none" xmlns="http://www.w3.org/2000/svg">
<path d="M27.0775 9.09495L1.56396 9.7415L2.70785 20.9316L21.6565 22.5729L29.8129 2.23167L35.582 1.18726" stroke="#E60012" stroke-width="1.5" stroke-miterlimit="10" stroke-linecap="round" stroke-linejoin="round"/>
<path d="M24.3918 33.8127C25.5179 33.8127 26.4308 32.9221 26.4308 31.8234C26.4308 30.7247 25.5179 29.834 24.3918 29.834C23.2656 29.834 22.3527 30.7247 22.3527 31.8234C22.3527 32.9221 23.2656 33.8127 24.3918 33.8127Z" fill="#E60012"/>
<path d="M4.89603 33.8127C6.02219 33.8127 6.93512 32.9221 6.93512 31.8234C6.93512 30.7247 6.02219 29.834 4.89603 29.834C3.76987 29.834 2.85693 30.7247 2.85693 31.8234C2.85693 32.9221 3.76987 33.8127 4.89603 33.8127Z" fill="#E60012"/>
<path d="M21.6564 22.5729C21.6564 22.5231 30.6583 29.088 22.0046 29.1378H1.96179" stroke="#E60012" stroke-width="1.5" stroke-miterlimit="10" stroke-linecap="round" stroke-linejoin="round"/>
<path d="M21.955 9.1944V21.9263" stroke="#E60012" stroke-width="1.5" stroke-miterlimit="10" stroke-linecap="round" stroke-linejoin="round"/>
<path d="M17.7772 9.59231V21.9263" stroke="#E60012" stroke-width="1.5" stroke-miterlimit="10" stroke-linecap="round" stroke-linejoin="round"/>
<path d="M13.699 9.54256V21.5782" stroke="#E60012" stroke-width="1.5" stroke-miterlimit="10" stroke-linecap="round" stroke-linejoin="round"/>
<path d="M9.52136 9.59231V21.2798" stroke="#E60012" stroke-width="1.5" stroke-miterlimit="10" stroke-linecap="round" stroke-linejoin="round"/>
<path d="M5.34363 9.94042V21.0311" stroke="#E60012" stroke-width="1.5" stroke-miterlimit="10" stroke-linecap="round" stroke-linejoin="round"/>
<path d="M25.2372 13.6208H2.01147" stroke="#E60012" stroke-width="1.5" stroke-miterlimit="10" stroke-linecap="round" stroke-linejoin="round"/>
<path d="M23.7452 17.4503H2.35962" stroke="#E60012" stroke-width="1.5" stroke-miterlimit="10" stroke-linecap="round" stroke-linejoin="round"/>
</svg>
