<svg width="16" height="13" viewBox="0 0 16 13" fill="none" xmlns="http://www.w3.org/2000/svg">
<path d="M6.98431 12.7432L0.279373 7.0942C0.177783 7.00861 0.105653 6.91589 0.0629856 6.81603C0.0209951 6.71617 0 6.60918 0 6.49506C0 6.38094 0.0209951 6.27395 0.0629856 6.17409C0.105653 6.07424 0.177783 5.98151 0.279373 5.89592L6.98431 0.246898C7.17056 0.0899803 7.4032 0.00781295 7.68224 0.000395038C7.96195 -0.00645227 8.20339 0.0757151 8.40657 0.246898C8.60975 0.403815 8.71574 0.599819 8.72455 0.83491C8.73268 1.07057 8.63515 1.27399 8.43197 1.44518L3.45406 5.63915H14.8067C15.0946 5.63915 15.336 5.72103 15.5311 5.8848C15.7255 6.04913 15.8226 6.25255 15.8226 6.49506C15.8226 6.73757 15.7255 6.94071 15.5311 7.10447C15.336 7.26881 15.0946 7.35097 14.8067 7.35097H3.45406L8.43197 11.5449C8.61822 11.7019 8.71574 11.9016 8.72455 12.1441C8.73268 12.3866 8.63515 12.5863 8.43197 12.7432C8.24572 12.9144 8.00868 13 7.72084 13C7.433 13 7.18749 12.9144 6.98431 12.7432Z" fill="#EE6262"/>
</svg>
