<svg width="39" height="33" viewBox="0 0 39 33" fill="none" xmlns="http://www.w3.org/2000/svg">
<path d="M37.6531 6.87334C37.0691 5.565 36.2269 4.3794 35.1737 3.38289C34.1198 2.38342 32.8772 1.58915 31.5135 1.04328C30.0994 0.474999 28.5827 0.18412 27.0514 0.18753C24.9032 0.18753 22.8072 0.756625 20.9858 1.83158C20.5501 2.08873 20.1361 2.37117 19.7439 2.6789C19.3518 2.37117 18.9378 2.08873 18.5021 1.83158C16.6806 0.756625 14.5847 0.18753 12.4365 0.18753C10.8896 0.18753 9.3906 0.474185 7.97442 1.04328C6.60618 1.5913 5.37301 2.3796 4.31415 3.38289C3.25962 4.37827 2.41724 5.56416 1.83475 6.87334C1.22906 8.23496 0.919678 9.68088 0.919678 11.169C0.919678 12.5727 1.21599 14.0355 1.80424 15.5236C2.29664 16.7672 3.00255 18.0571 3.90454 19.3597C5.33379 21.4211 7.29901 23.571 9.7392 25.7504C13.7829 29.3631 17.7874 31.8587 17.9574 31.9599L18.9901 32.6007C19.4476 32.8831 20.0359 32.8831 20.4934 32.6007L21.5262 31.9599C21.6961 31.8545 25.6963 29.3631 29.7443 25.7504C32.1845 23.571 34.1497 21.4211 35.579 19.3597C36.481 18.0571 37.1913 16.7672 37.6793 15.5236C38.2676 14.0355 38.5639 12.5727 38.5639 11.169C38.5682 9.68088 38.2588 8.23496 37.6531 6.87334Z" fill="#EE6262"/>
</svg>
