<svg width="18" height="10" viewBox="0 0 18 10" fill="none" xmlns="http://www.w3.org/2000/svg">
<path d="M0.356201 8.01843L8.33509 0.253455C8.43008 0.16129 8.53298 0.0961591 8.6438 0.0580639C8.75462 0.0193542 8.87335 -3.98938e-07 9 -3.93402e-07C9.12665 -3.87866e-07 9.24538 0.0193542 9.3562 0.0580639C9.46702 0.0961591 9.56992 0.16129 9.66491 0.253456L17.6675 8.01843C17.8892 8.23349 18 8.50231 18 8.82489C18 9.14747 17.8813 9.42396 17.6438 9.65438C17.4063 9.88479 17.1293 10 16.8127 10C16.496 10 16.219 9.88479 15.9815 9.65438L9 2.88018L2.01847 9.65438C1.79683 9.86943 1.5239 9.97696 1.19968 9.97696C0.874828 9.97696 0.593668 9.86175 0.356201 9.63134C0.118734 9.40092 -3.99177e-07 9.1321 -3.85748e-07 8.82488C-3.72319e-07 8.51767 0.118734 8.24885 0.356201 8.01843Z" fill="#3C3C3C"/>
</svg>
