<svg width="21" height="20" viewBox="0 0 21 20" fill="none" xmlns="http://www.w3.org/2000/svg">
<path fill-rule="evenodd" clip-rule="evenodd" d="M0.644844 16.3565L7.16052 10.0221L0.644844 3.64345C-0.214948 2.80174 -0.214948 1.47285 0.644844 0.631284C1.50464 -0.210428 2.86207 -0.210428 3.72171 0.631284L10.2374 7.00995L16.7079 0.631284C17.5677 -0.210428 18.9251 -0.210428 19.7847 0.631284C20.6445 1.473 20.6445 2.80189 19.7847 3.64345L13.2691 10.0221L19.7847 16.3565C20.6445 17.1983 20.6445 18.5271 19.7847 19.3687C18.9702 20.2104 17.5675 20.2104 16.7079 19.3687L10.2374 12.9901L3.72171 19.3687C2.86192 20.2104 1.50449 20.2104 0.644844 19.3687C-0.214948 18.5713 -0.214948 17.1981 0.644844 16.3565Z" fill="#E60012"/>
</svg>
