<svg width="791" height="37" viewBox="0 0 791 37" fill="none" xmlns="http://www.w3.org/2000/svg">
<rect x="1.91968" y="1.5" width="788" height="34" rx="17" fill="#F8F8F8" stroke="#E60012" stroke-width="2"/>
<path d="M24.6757 8C20.4141 8 16.9494 11.6746 16.9494 16.1939C16.9494 20.7132 20.4143 24.3878 24.6757 24.3878C26.6344 24.3878 28.4206 23.6093 29.7835 22.3313L35.9253 28.8448C36.0157 28.9436 36.1398 28.9995 36.2695 29C36.3992 29.0005 36.5237 28.9457 36.615 28.848C36.7062 28.7501 36.7564 28.6176 36.7544 28.4801C36.7526 28.3423 36.6985 28.2114 36.6043 28.1168L30.4703 21.611C31.6718 20.1664 32.4019 18.2677 32.4019 16.194C32.4019 11.6745 28.9371 8.00005 24.6757 8.00005L24.6757 8ZM24.6757 9.02433C28.415 9.02433 31.4361 12.2281 31.4361 16.194C31.4361 20.1597 28.4152 23.3637 24.6757 23.3637C20.9361 23.3637 17.9152 20.1599 17.9152 16.194C17.9152 12.2281 20.9361 9.02433 24.6757 9.02433Z" fill="#EC1B24" stroke="#E60012"/>
<path d="M60.3677 19.2051C60.3677 20.5762 60.0201 21.6543 59.3248 22.4395C58.6334 23.2246 57.6705 23.6172 56.4361 23.6172C55.1744 23.6172 54.1998 23.2324 53.5123 22.4629C52.8287 21.6895 52.4869 20.5996 52.4869 19.1934C52.4869 17.7988 52.8306 16.7188 53.5181 15.9531C54.2056 15.1836 55.1822 14.7988 56.4478 14.7988C57.6783 14.7988 58.6392 15.1895 59.3306 15.9707C60.022 16.752 60.3677 17.8301 60.3677 19.2051ZM53.5416 19.2051C53.5416 20.3652 53.7877 21.2461 54.2799 21.8477C54.7759 22.4453 55.4947 22.7441 56.4361 22.7441C57.3853 22.7441 58.1021 22.4453 58.5865 21.8477C59.0709 21.25 59.3131 20.3691 59.3131 19.2051C59.3131 18.0527 59.0709 17.1797 58.5865 16.5859C58.106 15.9883 57.3931 15.6895 56.4478 15.6895C55.4986 15.6895 54.7759 15.9902 54.2799 16.5918C53.7877 17.1895 53.5416 18.0605 53.5416 19.2051ZM67.6802 22.8027C68.3287 22.8027 68.8013 22.6289 69.0982 22.2812C69.3951 21.9336 69.5533 21.3477 69.5728 20.5234V20.3066C69.5728 19.4082 69.4205 18.7617 69.1158 18.3672C68.8111 17.9727 68.3287 17.7754 67.6685 17.7754C67.0982 17.7754 66.6607 17.998 66.356 18.4434C66.0552 18.8848 65.9049 19.5098 65.9049 20.3184C65.9049 21.127 66.0533 21.7441 66.3502 22.1699C66.6509 22.5918 67.0943 22.8027 67.6802 22.8027ZM67.5338 23.6172C66.7056 23.6172 66.0592 23.3262 65.5943 22.7441C65.1295 22.1621 64.897 21.3496 64.897 20.3066C64.897 19.2559 65.1314 18.4355 65.6002 17.8457C66.0689 17.2559 66.7213 16.9609 67.5572 16.9609C68.4361 16.9609 69.1119 17.293 69.5845 17.957H69.6373L69.7779 17.0781H70.5455V26.3828H69.5728V23.6348C69.5728 23.2441 69.5943 22.9121 69.6373 22.6387H69.5611C69.1119 23.291 68.4361 23.6172 67.5338 23.6172ZM73.5279 17.0781V21.2441C73.5279 21.7676 73.647 22.1582 73.8853 22.416C74.1236 22.6738 74.4967 22.8027 75.0045 22.8027C75.6763 22.8027 76.1666 22.6191 76.4752 22.252C76.7877 21.8848 76.9439 21.2852 76.9439 20.4531V17.0781H77.9166V23.5H77.1138L76.9732 22.6387H76.9205C76.7213 22.9551 76.4439 23.1973 76.0884 23.3652C75.7369 23.5332 75.3345 23.6172 74.8814 23.6172C74.1002 23.6172 73.5142 23.4316 73.1236 23.0605C72.7369 22.6895 72.5435 22.0957 72.5435 21.2793V17.0781H73.5279ZM82.6978 23.6172C81.7486 23.6172 80.9986 23.3281 80.4478 22.75C79.9009 22.1719 79.6275 21.3691 79.6275 20.3418C79.6275 19.3066 79.8814 18.4844 80.3892 17.875C80.9009 17.2656 81.5865 16.9609 82.4459 16.9609C83.2506 16.9609 83.8873 17.2266 84.356 17.7578C84.8248 18.2852 85.0592 18.9824 85.0592 19.8496V20.4648H80.6353C80.6549 21.2188 80.8443 21.791 81.2037 22.1816C81.567 22.5723 82.0767 22.7676 82.733 22.7676C83.4244 22.7676 84.108 22.623 84.7838 22.334V23.2012C84.44 23.3496 84.1138 23.4551 83.8052 23.5176C83.5006 23.584 83.1314 23.6172 82.6978 23.6172ZM82.4342 17.7754C81.9185 17.7754 81.5064 17.9434 81.1978 18.2793C80.8931 18.6152 80.7134 19.0801 80.6588 19.6738H84.0162C84.0162 19.0605 83.8795 18.5918 83.606 18.2676C83.3326 17.9395 82.942 17.7754 82.4342 17.7754ZM91.2467 23.5L88.8092 17.0781H89.8521L91.2349 20.8867C91.5474 21.7773 91.731 22.3555 91.7857 22.6211H91.8326C91.8756 22.4141 92.0103 21.9863 92.2369 21.3379C92.4674 20.6855 92.981 19.2656 93.7779 17.0781H94.8209L92.3834 23.5H91.2467ZM101.395 20.2832C101.395 21.3301 101.131 22.1484 100.604 22.7383C100.077 23.3242 99.3482 23.6172 98.4185 23.6172C97.8443 23.6172 97.3345 23.4824 96.8892 23.2129C96.4439 22.9434 96.1002 22.5566 95.858 22.0527C95.6158 21.5488 95.4947 20.959 95.4947 20.2832C95.4947 19.2363 95.7564 18.4219 96.2799 17.8398C96.8033 17.2539 97.5299 16.9609 98.4595 16.9609C99.358 16.9609 100.071 17.2598 100.598 17.8574C101.129 18.4551 101.395 19.2637 101.395 20.2832ZM96.5025 20.2832C96.5025 21.1035 96.6666 21.7285 96.9947 22.1582C97.3228 22.5879 97.8052 22.8027 98.442 22.8027C99.0787 22.8027 99.5611 22.5898 99.8892 22.1641C100.221 21.7344 100.387 21.1074 100.387 20.2832C100.387 19.4668 100.221 18.8477 99.8892 18.4258C99.5611 18 99.0748 17.7871 98.4302 17.7871C97.7935 17.7871 97.3131 17.9961 96.9888 18.4141C96.6646 18.832 96.5025 19.4551 96.5025 20.2832ZM105.672 23.6172C104.743 23.6172 104.022 23.332 103.51 22.7617C103.003 22.1875 102.749 21.377 102.749 20.3301C102.749 19.2559 103.006 18.4258 103.522 17.8398C104.042 17.2539 104.78 16.9609 105.737 16.9609C106.045 16.9609 106.354 16.9941 106.663 17.0605C106.971 17.127 107.213 17.2051 107.389 17.2949L107.09 18.1211C106.876 18.0352 106.641 17.9648 106.387 17.9102C106.133 17.8516 105.909 17.8223 105.713 17.8223C104.409 17.8223 103.756 18.6543 103.756 20.3184C103.756 21.1074 103.915 21.7129 104.231 22.1348C104.551 22.5566 105.024 22.7676 105.649 22.7676C106.184 22.7676 106.733 22.6523 107.295 22.4219V23.2832C106.866 23.5059 106.325 23.6172 105.672 23.6172ZM111.538 23.6172C110.588 23.6172 109.838 23.3281 109.288 22.75C108.741 22.1719 108.467 21.3691 108.467 20.3418C108.467 19.3066 108.721 18.4844 109.229 17.875C109.741 17.2656 110.426 16.9609 111.286 16.9609C112.09 16.9609 112.727 17.2266 113.196 17.7578C113.665 18.2852 113.899 18.9824 113.899 19.8496V20.4648H109.475C109.495 21.2188 109.684 21.791 110.044 22.1816C110.407 22.5723 110.917 22.7676 111.573 22.7676C112.264 22.7676 112.948 22.623 113.624 22.334V23.2012C113.28 23.3496 112.954 23.4551 112.645 23.5176C112.34 23.584 111.971 23.6172 111.538 23.6172ZM111.274 17.7754C110.758 17.7754 110.346 17.9434 110.038 18.2793C109.733 18.6152 109.553 19.0801 109.499 19.6738H112.856C112.856 19.0605 112.719 18.5918 112.446 18.2676C112.172 17.9395 111.782 17.7754 111.274 17.7754ZM109.311 16.0938C109.807 15.5625 110.155 15.1719 110.354 14.9219C110.553 14.6719 110.698 14.4668 110.788 14.3066H111.76C111.846 14.4707 111.995 14.6836 112.206 14.9453C112.42 15.2031 112.772 15.5859 113.26 16.0938V16.2285H112.563C112.219 16.0137 111.788 15.6504 111.268 15.1387C110.737 15.6621 110.309 16.0254 109.985 16.2285H109.311V16.0938ZM121.669 23.6172C121.251 23.6172 120.868 23.541 120.52 23.3887C120.176 23.2324 119.887 22.9941 119.653 22.6738H119.583C119.629 23.0488 119.653 23.4043 119.653 23.7402V26.3828H118.68V17.0781H119.471L119.606 17.957H119.653C119.903 17.6055 120.194 17.3516 120.526 17.1953C120.858 17.0391 121.239 16.9609 121.669 16.9609C122.52 16.9609 123.176 17.252 123.637 17.834C124.102 18.416 124.335 19.2324 124.335 20.2832C124.335 21.3379 124.098 22.1582 123.626 22.7441C123.157 23.3262 122.504 23.6172 121.669 23.6172ZM121.528 17.7871C120.872 17.7871 120.397 17.9688 120.104 18.332C119.811 18.6953 119.661 19.2734 119.653 20.0664V20.2832C119.653 21.1855 119.803 21.832 120.104 22.2227C120.405 22.6094 120.887 22.8027 121.551 22.8027C122.106 22.8027 122.54 22.5781 122.852 22.1289C123.169 21.6797 123.327 21.0605 123.327 20.2715C123.327 19.4707 123.169 18.8574 122.852 18.4316C122.54 18.002 122.098 17.7871 121.528 17.7871ZM128.969 16.9609C129.254 16.9609 129.51 16.9844 129.737 17.0312L129.602 17.9336C129.336 17.875 129.102 17.8457 128.899 17.8457C128.379 17.8457 127.934 18.0566 127.563 18.4785C127.196 18.9004 127.012 19.4258 127.012 20.0547V23.5H126.04V17.0781H126.842L126.954 18.2676H127.001C127.239 17.8496 127.526 17.5273 127.862 17.3008C128.198 17.0742 128.567 16.9609 128.969 16.9609ZM136.481 20.2832C136.481 21.3301 136.217 22.1484 135.69 22.7383C135.163 23.3242 134.434 23.6172 133.504 23.6172C132.93 23.6172 132.42 23.4824 131.975 23.2129C131.53 22.9434 131.186 22.5566 130.944 22.0527C130.702 21.5488 130.581 20.959 130.581 20.2832C130.581 19.2363 130.842 18.4219 131.366 17.8398C131.889 17.2539 132.616 16.9609 133.545 16.9609C134.444 16.9609 135.157 17.2598 135.684 17.8574C136.215 18.4551 136.481 19.2637 136.481 20.2832ZM131.588 20.2832C131.588 21.1035 131.753 21.7285 132.081 22.1582C132.409 22.5879 132.891 22.8027 133.528 22.8027C134.165 22.8027 134.647 22.5898 134.975 22.1641C135.307 21.7344 135.473 21.1074 135.473 20.2832C135.473 19.4668 135.307 18.8477 134.975 18.4258C134.647 18 134.161 17.7871 133.516 17.7871C132.879 17.7871 132.399 17.9961 132.075 18.4141C131.751 18.832 131.588 19.4551 131.588 20.2832ZM140.758 23.6172C139.829 23.6172 139.108 23.332 138.596 22.7617C138.088 22.1875 137.835 21.377 137.835 20.3301C137.835 19.2559 138.092 18.4258 138.608 17.8398C139.128 17.2539 139.866 16.9609 140.823 16.9609C141.131 16.9609 141.44 16.9941 141.749 17.0605C142.057 17.127 142.299 17.2051 142.475 17.2949L142.176 18.1211C141.961 18.0352 141.727 17.9648 141.473 17.9102C141.219 17.8516 140.995 17.8223 140.799 17.8223C139.495 17.8223 138.842 18.6543 138.842 20.3184C138.842 21.1074 139.001 21.7129 139.317 22.1348C139.637 22.5566 140.11 22.7676 140.735 22.7676C141.27 22.7676 141.819 22.6523 142.381 22.4219V23.2832C141.952 23.5059 141.411 23.6172 140.758 23.6172ZM144.825 17.0781V21.2441C144.825 21.7676 144.944 22.1582 145.182 22.416C145.42 22.6738 145.794 22.8027 146.301 22.8027C146.973 22.8027 147.463 22.6191 147.772 22.252C148.085 21.8848 148.241 21.2852 148.241 20.4531V17.0781H149.213V23.5H148.411L148.27 22.6387H148.217C148.018 22.9551 147.741 23.1973 147.385 23.3652C147.034 23.5332 146.631 23.6172 146.178 23.6172C145.397 23.6172 144.811 23.4316 144.42 23.0605C144.034 22.6895 143.84 22.0957 143.84 21.2793V17.0781H144.825ZM154.211 16.9609C154.497 16.9609 154.753 16.9844 154.979 17.0312L154.844 17.9336C154.579 17.875 154.344 17.8457 154.141 17.8457C153.622 17.8457 153.176 18.0566 152.805 18.4785C152.438 18.9004 152.254 19.4258 152.254 20.0547V23.5H151.282V17.0781H152.085L152.196 18.2676H152.243C152.481 17.8496 152.768 17.5273 153.104 17.3008C153.44 17.0742 153.809 16.9609 154.211 16.9609ZM160.129 23.5L159.936 22.5859H159.889C159.569 22.9883 159.249 23.2617 158.928 23.4062C158.612 23.5469 158.215 23.6172 157.739 23.6172C157.102 23.6172 156.602 23.4531 156.239 23.125C155.879 22.7969 155.7 22.3301 155.7 21.7246C155.7 20.4277 156.737 19.748 158.811 19.6855L159.901 19.6504V19.252C159.901 18.748 159.792 18.377 159.573 18.1387C159.358 17.8965 159.012 17.7754 158.536 17.7754C158.001 17.7754 157.395 17.9395 156.719 18.2676L156.42 17.5234C156.737 17.3516 157.083 17.2168 157.458 17.1191C157.836 17.0215 158.215 16.9727 158.594 16.9727C159.36 16.9727 159.926 17.1426 160.294 17.4824C160.665 17.8223 160.85 18.3672 160.85 19.1172V23.5H160.129ZM157.932 22.8145C158.538 22.8145 159.012 22.6484 159.356 22.3164C159.704 21.9844 159.878 21.5195 159.878 20.9219V20.3418L158.905 20.3828C158.131 20.4102 157.573 20.5312 157.229 20.7461C156.889 20.957 156.719 21.2871 156.719 21.7363C156.719 22.0879 156.825 22.3555 157.036 22.5391C157.251 22.7227 157.549 22.8145 157.932 22.8145ZM163.522 21.1387V20.8223C163.522 20.3652 163.592 19.9902 163.733 19.6973C163.874 19.4004 164.135 19.0879 164.518 18.7598C165.049 18.3105 165.383 17.9727 165.52 17.7461C165.661 17.5195 165.731 17.2461 165.731 16.9258C165.731 16.5273 165.602 16.2207 165.344 16.0059C165.09 15.7871 164.723 15.6777 164.243 15.6777C163.934 15.6777 163.633 15.7148 163.34 15.7891C163.047 15.8594 162.711 15.9902 162.333 16.1816L161.987 15.3906C162.725 15.0039 163.497 14.8105 164.301 14.8105C165.047 14.8105 165.628 14.9941 166.042 15.3613C166.456 15.7285 166.663 16.2461 166.663 16.9141C166.663 17.1992 166.624 17.4512 166.545 17.6699C166.471 17.8848 166.36 18.0898 166.211 18.2852C166.063 18.4766 165.743 18.7871 165.251 19.2168C164.856 19.5527 164.594 19.832 164.465 20.0547C164.34 20.2773 164.278 20.5742 164.278 20.9453V21.1387H163.522ZM163.235 22.8789C163.235 22.3477 163.469 22.082 163.938 22.082C164.165 22.082 164.338 22.1504 164.46 22.2871C164.585 22.4238 164.647 22.6211 164.647 22.8789C164.647 23.1289 164.585 23.3242 164.46 23.4648C164.335 23.6016 164.161 23.6699 163.938 23.6699C163.735 23.6699 163.567 23.6094 163.434 23.4883C163.301 23.3633 163.235 23.1602 163.235 22.8789Z" fill="#3C3C3C"/>
</svg>
