<svg xmlns="http://www.w3.org/2000/svg" width="24" height="22" viewBox="0 0 24 22" fill="none">
  <path d="M22.4822 5.34484C22.1563 4.5829 21.6865 3.89243 21.099 3.31209C20.5111 2.73002 19.8179 2.26746 19.0571 1.94956C18.2683 1.6186 17.4222 1.4492 16.5679 1.45119C15.3695 1.45119 14.2003 1.78262 13.1842 2.40865C12.9411 2.5584 12.7102 2.72289 12.4914 2.9021C12.2727 2.72289 12.0417 2.5584 11.7986 2.40865C10.7826 1.78262 9.61333 1.45119 8.41493 1.45119C7.55198 1.45119 6.71578 1.61813 5.92575 1.94956C5.16247 2.26871 4.47455 2.7278 3.88385 3.31209C3.29558 3.89178 2.82566 4.58241 2.50071 5.34484C2.16282 6.13781 1.99023 6.97989 1.99023 7.84651C1.99023 8.66403 2.15553 9.51592 2.48369 10.3825C2.75838 11.1068 3.15217 11.858 3.65536 12.6166C4.45267 13.8171 5.54898 15.0692 6.91024 16.3384C9.16606 18.4424 11.4 19.8957 11.4948 19.9546L12.0709 20.3278C12.3261 20.4923 12.6543 20.4923 12.9095 20.3278L13.4856 19.9546C13.5805 19.8933 15.812 18.4424 18.0702 16.3384C19.4315 15.0692 20.5278 13.8171 21.3251 12.6166C21.8283 11.858 22.2245 11.1068 22.4967 10.3825C22.8249 9.51592 22.9902 8.66403 22.9902 7.84651C22.9926 6.97989 22.8201 6.13781 22.4822 5.34484Z" stroke="#EE6262" stroke-width="2"/>
</svg>