<svg width="37" height="34" viewBox="0 0 37 34" fill="none" xmlns="http://www.w3.org/2000/svg">
<path d="M35.1532 7.55776C34.6102 6.27449 33.8271 5.11159 32.848 4.13418C31.8681 3.15385 30.7127 2.3748 29.4448 1.83939C28.13 1.28199 26.7199 0.996685 25.2962 1.00003C23.2988 1.00003 21.3501 1.55822 19.6566 2.61259C19.2515 2.86481 18.8666 3.14184 18.502 3.44367C18.1374 3.14184 17.7525 2.86481 17.3474 2.61259C15.6539 1.55822 13.7052 1.00003 11.7078 1.00003C10.2696 1.00003 8.8759 1.28119 7.5592 1.83939C6.28706 2.37691 5.14052 3.15011 4.15603 4.13418C3.17558 5.11049 2.39237 6.27366 1.85079 7.55776C1.28765 8.89329 1 10.3115 1 11.7711C1 13.148 1.27549 14.5827 1.82243 16.0423C2.28024 17.2621 2.93656 18.5273 3.7752 19.8049C5.10406 21.8268 6.93123 23.9356 9.20001 26.0732C12.9597 29.6167 16.6829 32.0645 16.8409 32.1637L17.8011 32.7922C18.2265 33.0693 18.7734 33.0693 19.1988 32.7922L20.159 32.1637C20.317 32.0604 24.0362 29.6167 27.7999 26.0732C30.0687 23.9356 31.8959 21.8268 33.2248 19.8049C34.0634 18.5273 34.7238 17.2621 35.1775 16.0423C35.7245 14.5827 36 13.148 36 11.7711C36.004 10.3115 35.7164 8.89329 35.1532 7.55776Z" fill="white" stroke="#EE6262" stroke-width="2"/>
</svg>
