<svg width="25" height="24" viewBox="0 0 25 24" fill="none" xmlns="http://www.w3.org/2000/svg">
<path d="M5.11538 19C4.65513 19 4.27083 18.8458 3.9625 18.5375C3.65417 18.2292 3.5 17.8449 3.5 17.3846V6.61537C3.5 6.15512 3.65417 5.77083 3.9625 5.4625C4.27083 5.15417 4.65513 5 5.11538 5H19.8846C20.3449 5 20.7292 5.15417 21.0375 5.4625C21.3458 5.77083 21.5 6.15512 21.5 6.61537V17.3846C21.5 17.8449 21.3458 18.2292 21.0375 18.5375C20.7292 18.8458 20.3449 19 19.8846 19H5.11538ZM12.5 12.1154L4.5 6.88463V17.3846C4.5 17.5641 4.55769 17.7115 4.67308 17.8269C4.78846 17.9423 4.93589 18 5.11538 18H19.8846C20.0641 18 20.2115 17.9423 20.3269 17.8269C20.4423 17.7115 20.5 17.5641 20.5 17.3846V6.88463L12.5 12.1154ZM12.5 11L20.1923 6H4.8077L12.5 11ZM4.5 6.88463V6V17.3846C4.5 17.5641 4.55769 17.7115 4.67308 17.8269C4.78846 17.9423 4.93589 18 5.11538 18H4.5V6.88463Z" fill="#333333"/>
</svg>
