<svg width="6" height="12" viewBox="0 0 6 12" fill="none" xmlns="http://www.w3.org/2000/svg">
<path d="M1.18894 0.237468L5.84793 5.55673C5.90323 5.62005 5.9423 5.68865 5.96516 5.76253C5.98839 5.83641 6 5.91557 6 6C6 6.08443 5.98839 6.16359 5.96516 6.23747C5.9423 6.31135 5.90323 6.37995 5.84793 6.44327L1.18894 11.7784C1.05991 11.9261 0.898617 12 0.705068 12C0.51152 12 0.345621 11.9208 0.207372 11.7625C0.0691238 11.6042 -9.06837e-07 11.4195 -8.89805e-07 11.2084C-8.72773e-07 10.9974 0.0691238 10.8127 0.207372 10.6544L4.27189 6L0.207373 1.34565C0.0783409 1.19789 0.0138249 1.01594 0.0138249 0.79979C0.0138249 0.58322 0.0829491 0.395779 0.221198 0.237468C0.359447 0.0791564 0.520737 4.74662e-07 0.705069 4.90777e-07C0.889401 5.06891e-07 1.05069 0.0791564 1.18894 0.237468Z" fill="#8E8E93"/>
</svg>
