<svg xmlns="http://www.w3.org/2000/svg" width="21" height="22" viewBox="0 0 21 22" fill="none">
  <path d="M18.5 6.85114H7.5M5.5 6.85114H2.5M18.5 16.8511H7.5M5.5 16.8511H2.5M13.5 11.8511H2.5M18.5 11.8511H15.5M6.5 4.85114C6.76522 4.85114 7.01957 4.95649 7.20711 5.14403C7.39464 5.33157 7.5 5.58592 7.5 5.85114V7.85114C7.5 8.11635 7.39464 8.37071 7.20711 8.55824C7.01957 8.74578 6.76522 8.85114 6.5 8.85114C6.23478 8.85114 5.98043 8.74578 5.79289 8.55824C5.60536 8.37071 5.5 8.11635 5.5 7.85114V5.85114C5.5 5.58592 5.60536 5.33157 5.79289 5.14403C5.98043 4.95649 6.23478 4.85114 6.5 4.85114V4.85114ZM6.5 14.8511C6.76522 14.8511 7.01957 14.9565 7.20711 15.144C7.39464 15.3316 7.5 15.5859 7.5 15.8511V17.8511C7.5 18.1164 7.39464 18.3707 7.20711 18.5582C7.01957 18.7458 6.76522 18.8511 6.5 18.8511C6.23478 18.8511 5.98043 18.7458 5.79289 18.5582C5.60536 18.3707 5.5 18.1164 5.5 17.8511V15.8511C5.5 15.5859 5.60536 15.3316 5.79289 15.144C5.98043 14.9565 6.23478 14.8511 6.5 14.8511ZM14.5 9.85114C14.7652 9.85114 15.0196 9.95649 15.2071 10.144C15.3946 10.3316 15.5 10.5859 15.5 10.8511V12.8511C15.5 13.1164 15.3946 13.3707 15.2071 13.5582C15.0196 13.7458 14.7652 13.8511 14.5 13.8511C14.2348 13.8511 13.9804 13.7458 13.7929 13.5582C13.6054 13.3707 13.5 13.1164 13.5 12.8511V10.8511C13.5 10.5859 13.6054 10.3316 13.7929 10.144C13.9804 9.95649 14.2348 9.85114 14.5 9.85114V9.85114Z" stroke="white" stroke-linecap="round" stroke-linejoin="round"/>
</svg>