<svg xmlns="http://www.w3.org/2000/svg" width="20" height="37" viewBox="0 0 20 37" fill="none">
<path d="M0.00186536 18.9547C0.0163351 19.5735 0.259873 20.1649 0.685336 20.6145L15.6827 36.2367C16.1441 36.7135 16.7758 36.9878 17.4392 36.9996C18.1026 37.0114 18.7436 36.7597 19.2217 36.2997C19.6998 35.8396 19.9761 35.2088 19.9899 34.5455C20.0037 33.8821 19.7539 33.2403 19.2953 32.7608L5.95783 18.8766L19.2953 4.99232C19.7539 4.51282 20.0037 3.87106 19.9899 3.20771C19.9761 2.54435 19.6998 1.91352 19.2217 1.45349C18.7436 0.993458 18.1026 0.741756 17.4392 0.753559C16.7758 0.765362 16.1441 1.0397 15.6827 1.51645L0.685336 17.1386C0.456122 17.3805 0.277559 17.6658 0.160185 17.9776C0.0428114 18.2895 -0.0110032 18.6217 0.00186536 18.9547Z" fill="#EE6262"/>
</svg>