<svg width="9" height="28" viewBox="0 0 9 28" fill="none" xmlns="http://www.w3.org/2000/svg">
<path d="M3.69414 7.78711C3.79895 6.8584 3.17647 0.174704 3.16575 0.119589C3.11219 0.0223263 3.01433 -0.0873148 2.93761 0.118705C2.86088 0.324724 2.86812 4.57539 2.86928 4.68679C2.87044 4.79791 2.52793 4.79909 2.52793 4.70212C2.5259 3.96116 2.39677 0.208304 2.34697 0.116347C2.29746 0.0240948 2.19613 -0.0908517 2.11912 0.115462C2.0421 0.321777 2.05079 4.68355 2.05079 4.68355C2.0146 4.76814 1.80411 4.83652 1.71117 4.7145C1.65327 4.63846 1.68222 0.321482 1.6055 0.115462C1.52848 -0.090557 1.42686 0.0243895 1.37735 0.116347C1.32784 0.208304 1.18916 3.95173 1.18713 4.69239C1.18713 4.78966 0.835357 4.7982 0.836804 4.68679C0.837962 4.57539 0.84549 0.325019 0.768476 0.118705C0.691751 -0.0873148 0.593603 0.0223263 0.54033 0.119589C0.529617 0.174704 -0.0931542 6.8581 0.0119438 7.78711C0.117042 8.71582 0.702754 9.46179 1.05916 9.82195C1.41528 10.1818 1.29223 11.0598 1.29223 11.0598C1.29223 11.0598 0.412358 26.1617 0.415253 26.9101C0.415543 26.913 0.416991 26.916 0.41728 26.9186L0.415544 26.9357C0.423072 26.9764 0.438126 27.0106 0.448839 27.0489C0.460999 27.096 0.47229 27.1429 0.489372 27.1865C0.49661 27.2042 0.505875 27.2195 0.513692 27.2366C0.53975 27.2944 0.567834 27.3501 0.602287 27.4017C0.624871 27.4356 0.650928 27.4654 0.676406 27.4963C0.696963 27.5205 0.716072 27.5467 0.738365 27.5697C1.00039 27.8438 1.37648 27.9823 1.76242 27.9965C1.79253 27.9985 1.82177 28 1.85159 28C1.85159 28 1.85246 28 1.85304 28C1.85362 28 1.85391 28 1.85449 28C1.88431 28 1.91384 27.9985 1.94366 27.9965C2.3296 27.9823 2.7057 27.8435 2.96772 27.5697C2.9903 27.5467 3.00912 27.5205 3.02997 27.4963C3.05544 27.4654 3.08179 27.4356 3.10409 27.4017C3.13854 27.3501 3.16662 27.2947 3.19268 27.2366C3.20079 27.2195 3.21034 27.2042 3.21729 27.1865C3.23437 27.1432 3.24566 27.096 3.25753 27.0489C3.26854 27.0106 3.28359 26.9764 3.29112 26.9357L3.28909 26.9186C3.28938 26.9157 3.29112 26.9127 3.29141 26.9101C3.29401 26.1617 2.41414 11.0598 2.41414 11.0598C2.41414 11.0598 2.2911 10.1818 2.6475 9.82195C3.00304 9.46179 3.58904 8.71582 3.69414 7.78711ZM1.70799 27.9885C1.70133 27.9882 1.69786 27.9879 1.70075 27.9876C1.70307 27.9879 1.70567 27.9882 1.70799 27.9885ZM8.12534 12.2061C8.12534 12.2061 9 26.279 9 26.9767C8.83468 28.2756 6.5894 28.3958 6.3297 27.0008C6.15656 26.0716 7.15688 13.0723 6.66063 12.2061C6.16467 11.3398 5.57375 11.1474 5.40814 10.45C5.24253 9.7521 6.5425 0.081568 8.03124 0.00935806C8.21857 -0.0148102 8.64359 -0.0151049 8.62188 0.34624C8.59987 0.7067 7.91283 11.9172 8.12534 12.2061Z" fill="#3C3C3C"/>
</svg>
