<svg width="22" height="23" viewBox="0 0 22 23" fill="none" xmlns="http://www.w3.org/2000/svg">
<path d="M8.67565 1C4.41414 1 0.949402 4.6746 0.949402 9.19392C0.949402 13.7132 4.41427 17.3878 8.67565 17.3878C10.6344 17.3878 12.4206 16.6093 13.7835 15.3313L19.9253 21.8448C20.0157 21.9436 20.1398 21.9995 20.2695 22C20.3992 22.0005 20.5237 21.9457 20.615 21.848C20.7062 21.7501 20.7564 21.6176 20.7544 21.4801C20.7526 21.3423 20.6985 21.2114 20.6043 21.1168L14.4703 14.611C15.6718 13.1664 16.4019 11.2677 16.4019 9.19397C16.4019 4.67451 12.9371 1.00005 8.67569 1.00005L8.67565 1ZM8.67565 2.02433C12.415 2.02433 15.4361 5.2281 15.4361 9.19401C15.4361 13.1597 12.4152 16.3637 8.67565 16.3637C4.9361 16.3637 1.91518 13.1599 1.91518 9.19401C1.91518 5.2281 4.9361 2.02433 8.67565 2.02433Z" fill="#EC1B24" stroke="#E60012"/>
</svg>
