<svg xmlns="http://www.w3.org/2000/svg" width="22" height="22" viewBox="0 0 22 22" fill="none">
  <path fill-rule="evenodd" clip-rule="evenodd" d="M0.694413 17.6139L7.71094 10.7925L0.694413 3.92352C-0.231471 3.01711 -0.231471 1.58607 0.694413 0.679811C1.6203 -0.226604 3.08207 -0.226604 4.0078 0.679811L11.0243 7.5488L17.9922 0.679811C18.9181 -0.226604 20.3799 -0.226604 21.3056 0.679811C22.2315 1.58622 22.2315 3.01726 21.3056 3.92352L14.2891 10.7925L21.3056 17.6139C22.2315 18.5203 22.2315 19.9513 21.3056 20.8576C20.4284 21.764 18.9179 21.764 17.9922 20.8576L11.0243 13.9886L4.0078 20.8576C3.08192 21.764 1.62014 21.764 0.694413 20.8576C-0.231471 19.9989 -0.231471 18.5201 0.694413 17.6139Z" fill="#E60012"/>
</svg>