<svg width="28" height="29" viewBox="0 0 28 29" fill="none" xmlns="http://www.w3.org/2000/svg">
<g clip-path="url(#clip0_1050_7343)">
<path d="M26.0637 0.315783C25.8719 0.342814 25.6931 0.43742 25.558 0.581581L0.269972 26.7109C-0.0788284 27.0532 -0.0919084 27.6254 0.239452 27.9858C0.570812 28.3462 1.12453 28.3597 1.47333 28.0173C1.48205 28.0083 1.49077 27.9993 1.49949 27.9903L26.7831 1.86552C27.1363 1.52314 27.1494 0.9555 26.8224 0.590591C26.6262 0.374349 26.3428 0.275238 26.0637 0.315783ZM4.37273 0.329298C1.97473 0.329298 0.0127316 2.35657 0.0127316 4.83435C0.0127316 7.31212 1.97473 9.3394 4.37273 9.3394C6.77073 9.3394 8.73273 7.31212 8.73273 4.83435C8.73273 2.35657 6.77073 0.329298 4.37273 0.329298ZM4.37273 2.13132C5.82897 2.13132 6.98873 3.32966 6.98873 4.83435C6.98873 6.33903 5.82897 7.53738 4.37273 7.53738C2.91649 7.53738 1.75673 6.33903 1.75673 4.83435C1.75673 3.32966 2.91649 2.13132 4.37273 2.13132ZM22.6847 19.2505C20.2867 19.2505 18.3247 21.2778 18.3247 23.7556C18.3247 26.2333 20.2867 28.2606 22.6847 28.2606C25.0827 28.2606 27.0447 26.2333 27.0447 23.7556C27.0447 21.2778 25.0827 19.2505 22.6847 19.2505ZM22.6847 21.0525C24.141 21.0525 25.3007 22.2509 25.3007 23.7556C25.3007 25.2602 24.141 26.4586 22.6847 26.4586C21.2285 26.4586 20.0687 25.2602 20.0687 23.7556C20.0687 22.2509 21.2285 21.0525 22.6847 21.0525Z" fill="#EE6262"/>
</g>
<defs>
<clipPath id="clip0_1050_7343">
<rect width="27.0625" height="27.9583" fill="white" transform="translate(0 0.306641)"/>
</clipPath>
</defs>
</svg>
