<svg xmlns="http://www.w3.org/2000/svg" width="35" height="26" viewBox="0 0 35 26" fill="none">
<path d="M10.1782 12.9997V13.0001C10.1782 13.3996 10.4976 13.7302 10.8998 13.7302H28.3426C28.7456 13.7302 29.0641 13.3994 29.0641 13.0001C29.0641 12.6007 28.7456 12.2699 28.3426 12.2699H10.8998C10.4973 12.2699 10.1787 12.6007 10.1782 12.9997ZM10.1782 22.5997V22.6001C10.1782 22.9996 10.4976 23.3302 10.8998 23.3302H23.1569C23.56 23.3302 23.8784 22.9994 23.8784 22.6001C23.8784 22.2007 23.56 21.8699 23.1569 21.8699H10.8998C10.4973 21.8699 10.1787 22.2007 10.1782 22.5997ZM10.9 4.13H33.5284C33.9316 4.13 34.25 3.79873 34.25 3.39986C34.25 3.00054 33.9315 2.66972 33.5284 2.66972H10.9C10.4973 2.66972 10.1784 3.00043 10.1784 3.39986C10.1784 3.79897 10.4977 4.13 10.9 4.13ZM0.75 22.6C0.75 24.0598 1.91332 25.25 3.35713 25.25C4.80133 25.25 5.96427 24.0594 5.96427 22.6C5.96427 21.1403 4.80167 19.95 3.35713 19.95C1.91332 19.95 0.75 21.1402 0.75 22.6ZM2.19277 22.6C2.19277 21.9383 2.7184 21.4099 3.35713 21.4099C3.99589 21.4099 4.5215 21.9383 4.5215 22.6C4.5215 23.2611 3.99579 23.7901 3.35713 23.7901C2.71816 23.7901 2.19277 23.2611 2.19277 22.6ZM0.75 13C0.75 14.4598 1.91332 15.65 3.35713 15.65C4.80133 15.65 5.96427 14.4594 5.96427 13C5.96427 11.5403 4.80166 10.35 3.35713 10.35C1.91332 10.35 0.75 11.5402 0.75 13ZM2.19277 13C2.19277 12.3383 2.7184 11.8099 3.35713 11.8099C3.99589 11.8099 4.5215 12.3383 4.5215 13C4.5215 13.6611 3.99579 14.1901 3.35713 14.1901C2.71816 14.1901 2.19277 13.6611 2.19277 13ZM0.75 3.4C0.75 4.85903 1.91328 6.05 3.35713 6.05C4.80135 6.05 5.96427 4.85901 5.96427 3.4C5.96427 1.94028 4.80167 0.75 3.35713 0.75C1.91332 0.75 0.75 1.94023 0.75 3.4ZM2.19277 3.4C2.19277 2.73829 2.7184 2.20991 3.35713 2.20991C3.99589 2.20991 4.5215 2.73829 4.5215 3.4C4.5215 4.06171 3.99587 4.59009 3.35713 4.59009C2.71813 4.59009 2.19277 4.06143 2.19277 3.4Z" fill="#EC1B24" stroke="#E60012" stroke-width="0.5"/>
</svg>