<svg xmlns="http://www.w3.org/2000/svg" width="21" height="37" viewBox="0 0 21 37" fill="none">
  <path d="M20.9791 18.0453C20.9646 17.4265 20.7211 16.8351 20.2956 16.3855L5.29828 0.763286C4.83682 0.28654 4.20517 0.0121996 3.54177 0.000397105C2.87838 -0.0114054 2.23738 0.240293 1.75925 0.700323C1.28113 1.16035 1.00486 1.79118 0.991074 2.45454C0.977285 3.1179 1.22709 3.75966 1.68568 4.23916L15.0231 18.1234L1.68568 32.0077C1.22709 32.4872 0.977285 33.1289 0.991074 33.7923C1.00486 34.4557 1.28113 35.0865 1.75925 35.5465C2.23738 36.0065 2.87838 36.2582 3.54177 36.2464C4.20517 36.2346 4.83682 35.9603 5.29828 35.4836L20.2956 19.8614C20.5248 19.6195 20.7034 19.3342 20.8208 19.0224C20.9381 18.7105 20.992 18.3783 20.9791 18.0453Z" fill="#EE6262"/>
</svg>