<svg width="25" height="24" viewBox="0 0 25 24" fill="none" xmlns="http://www.w3.org/2000/svg">
<path d="M13.5 11.2558C12.4393 11.2558 11.5313 10.9006 10.7759 10.1901C10.0205 9.47967 9.64286 8.6256 9.64286 7.62793C9.64286 6.63024 10.0205 5.77616 10.7759 5.0657C11.5313 4.35523 12.4393 4 13.5 4C14.5607 4 15.4688 4.35523 16.2241 5.0657C16.9795 5.77616 17.3571 6.63024 17.3571 7.62793C17.3571 8.6256 16.9795 9.47967 16.2241 10.1901C15.4688 10.9006 14.5607 11.2558 13.5 11.2558ZM4.5 20V18.0093C4.5 17.5101 4.65453 17.043 4.9636 16.6081C5.27266 16.1732 5.68846 15.8356 6.211 15.5953C7.42418 15.048 8.63818 14.6376 9.85301 14.3639C11.0679 14.0903 12.2835 13.9535 13.5 13.9535C14.7165 13.9535 15.9321 14.0903 17.147 14.3639C18.3618 14.6376 19.5758 15.048 20.789 15.5953C21.3115 15.8356 21.7273 16.1732 22.0364 16.6081C22.3455 17.043 22.5 17.5101 22.5 18.0093V20H4.5ZM5.78571 18.7907H21.2143V18.0093C21.2143 17.7411 21.1224 17.4891 20.9386 17.2535C20.7548 17.0178 20.5005 16.8186 20.1758 16.6558C19.1176 16.1736 18.0265 15.8043 16.9025 15.5477C15.7786 15.2911 14.6444 15.1628 13.5 15.1628C12.3556 15.1628 11.2214 15.2911 10.0975 15.5477C8.97352 15.8043 7.88242 16.1736 6.82419 16.6558C6.49946 16.8186 6.2452 17.0178 6.0614 17.2535C5.87761 17.4891 5.78571 17.7411 5.78571 18.0093V18.7907ZM13.5 10.0465C14.2071 10.0465 14.8125 9.80971 15.3161 9.33606C15.8196 8.86242 16.0714 8.29304 16.0714 7.62793C16.0714 6.96282 15.8196 6.39344 15.3161 5.91979C14.8125 5.44615 14.2071 5.20933 13.5 5.20933C12.7929 5.20933 12.1875 5.44615 11.6839 5.91979C11.1804 6.39344 10.9286 6.96282 10.9286 7.62793C10.9286 8.29304 11.1804 8.86242 11.6839 9.33606C12.1875 9.80971 12.7929 10.0465 13.5 10.0465Z" fill="#333333"/>
</svg>
