<svg width="60" height="33" viewBox="0 0 60 33" fill="none" xmlns="http://www.w3.org/2000/svg">
<path d="M6.52567 19.2862H13.6358C14.0979 19.2862 14.4727 18.9506 14.4727 18.5369V13.4432C14.4972 13.2324 14.4206 13.0216 14.2624 12.8642C14.1035 12.7062 13.8775 12.6163 13.6402 12.6163C13.4035 12.6163 13.1775 12.7062 13.0186 12.8642C12.8598 13.0216 12.7832 13.2324 12.8077 13.4432V17.787H6.50745C6.04536 17.787 5.67055 18.1225 5.67055 18.5368C5.67055 18.9506 6.04536 19.2862 6.50745 19.2862L6.52567 19.2862Z" fill="#EE6262"/>
<path d="M2.52037 29.0532H5.3104C5.76306 30.3843 6.83415 31.4766 8.2499 32.0499C9.66503 32.6239 11.2886 32.6239 12.7044 32.0499C14.1195 31.4765 15.1906 30.3843 15.6432 29.0532H32.9147C33.3668 30.3843 34.4379 31.4766 35.8536 32.0499C37.2694 32.6239 38.8923 32.6239 40.3081 32.0499C41.7238 31.4765 42.795 30.3843 43.2469 29.0532H50.7898C51.2487 29.0487 51.6179 28.7147 51.6179 28.3038V17.3033H52.608C53.0342 17.2639 53.3582 16.9418 53.3582 16.5578C53.3582 16.1739 53.0343 15.8524 52.608 15.8124H51.6179V12.2102H56.6399C57.1026 12.2102 57.4774 11.8746 57.4774 11.4609C57.4774 11.0466 57.1026 10.711 56.6399 10.711H51.6179V7.10882H54.4262C54.8525 7.06891 55.1765 6.74736 55.1765 6.36341C55.1765 5.97946 54.8525 5.65792 54.4262 5.618H51.6179V1.5481C51.6179 1.35191 51.5306 1.16303 51.3755 1.02419C51.2198 0.884775 51.0095 0.806641 50.7898 0.806641H17.2722C16.8145 0.806641 16.4441 1.13887 16.4441 1.5481V9.43779H10.1438C8.20131 9.44004 6.33915 10.132 4.96543 11.3614C3.59236 12.5914 2.81943 14.2588 2.81702 15.998V24.2987H0.836895C0.374811 24.2987 0 24.6343 0 25.0481V26.7969C0 27.3955 0.265565 27.9695 0.738337 28.3922C1.21047 28.8155 1.85149 29.0533 2.52013 29.0533L2.52037 29.0532ZM10.4769 30.9549C9.48179 30.9549 8.52682 30.6013 7.82301 29.9706C7.11921 29.3404 6.72368 28.486 6.72368 27.5944C6.72368 26.7034 7.11921 25.8483 7.82301 25.2182C8.52681 24.588 9.48169 24.2338 10.4769 24.2338C11.4726 24.2338 12.427 24.588 13.1308 25.2182C13.8346 25.8483 14.2301 26.7033 14.2301 27.5944C14.2301 28.4859 13.8346 29.3404 13.1308 29.9706C12.427 30.6013 11.4728 30.9549 10.4769 30.9549ZM38.0814 30.9549C37.0857 30.9549 36.1313 30.6013 35.4269 29.9706C34.7231 29.3404 34.3282 28.486 34.3282 27.5944C34.3282 26.7034 34.7231 25.8483 35.4269 25.2182C36.1313 24.588 37.0855 24.2338 38.0814 24.2338C39.0765 24.2338 40.0315 24.588 40.7353 25.2182C41.4391 25.8483 41.8346 26.7033 41.8346 27.5944C41.8346 28.4859 41.4391 29.3404 40.7353 29.9706C40.0315 30.6013 39.0766 30.9549 38.0814 30.9549ZM49.953 27.5545H43.4996C43.4939 26.9524 43.3627 26.3566 43.1122 25.7972H49.9525L49.953 27.5545ZM18.1086 2.2984H49.953V10.7115H46.3525C45.8904 10.7115 45.5156 11.0471 45.5156 11.4614C45.5156 11.8751 45.8904 12.2107 46.3525 12.2107H49.9524L49.953 15.8208H47.9459C47.7098 15.7989 47.475 15.8675 47.2986 16.0097C47.1228 16.1519 47.0223 16.3543 47.0223 16.5662C47.0223 16.7787 47.1228 16.9811 47.2986 17.1233C47.475 17.2655 47.7098 17.3341 47.9459 17.3122H49.953V20.0606L18.1086 20.06L18.1086 2.2984ZM18.1086 21.552L49.953 21.5515V24.2999H42.0505C41.0278 23.3048 39.5869 22.7387 38.0763 22.7387C36.5663 22.7387 35.1255 23.3048 34.1027 24.2999H18.1086V21.552ZM17.2717 25.7991L33.0497 25.7985C32.7999 26.3579 32.668 26.9537 32.6624 27.5558H15.8939C15.8883 26.9537 15.7571 26.3579 15.5072 25.7985L17.2717 25.7991ZM4.4997 15.9992C4.50221 14.6573 5.09866 13.3711 6.15774 12.4227C7.21753 11.4738 8.65331 10.9403 10.1521 10.9381H16.4523V24.2998H15.0573C14.8871 24.3043 14.7214 24.3516 14.5801 24.437C13.5775 23.3785 12.1146 22.7567 10.5646 22.731C9.01447 22.7045 7.5272 23.2762 6.47991 24.2999H4.49978L4.4997 15.9992ZM1.66435 25.7985H5.4446C5.19472 26.3578 5.06351 26.9537 5.05787 27.5558H2.51954C2.06059 27.5356 1.69144 27.2089 1.66444 26.798L1.66435 25.7985Z" fill="#EE6262"/>
<path d="M55.9195 9.37365H58.449C58.6844 9.39558 58.9198 9.327 59.0956 9.18477C59.272 9.04255 59.3725 8.84018 59.3725 8.62825C59.3725 8.41575 59.272 8.21338 59.0956 8.07116C58.9198 7.92894 58.6844 7.86036 58.449 7.88228H55.9195C55.4932 7.92219 55.1692 8.2443 55.1692 8.62825C55.1692 9.01164 55.4932 9.33373 55.9195 9.37365Z" fill="#EE6262"/>
<path d="M55.9195 17.303C56.1556 17.3249 56.3904 17.2563 56.5668 17.1147C56.7432 16.9724 56.8437 16.7701 56.8437 16.5576C56.8437 16.3456 56.7432 16.1433 56.5668 16.0011C56.3903 15.8588 56.1555 15.7903 55.9195 15.8122H52.9223C52.6869 15.7903 52.4514 15.8588 52.2756 16.0011C52.0992 16.1433 51.9988 16.3456 51.9988 16.5576C51.9988 16.7701 52.0992 16.9724 52.2756 17.1147C52.4514 17.2563 52.6869 17.3249 52.9223 17.303H55.9195Z" fill="#EE6262"/>
</svg>
