<svg width="122" height="41" viewBox="0 0 122 41" fill="none" xmlns="http://www.w3.org/2000/svg">
<path d="M90.8091 25.2133C94.754 25.2133 97.952 22.0153 97.952 18.0704C97.952 14.1255 94.754 10.9276 90.8091 10.9276C86.8642 10.9276 83.6663 14.1255 83.6663 18.0704C83.6663 22.0153 86.8642 25.2133 90.8091 25.2133Z" stroke="white" stroke-width="3" stroke-linecap="round" stroke-linejoin="round"/>
<path d="M90.8091 25.2133C94.754 25.2133 97.952 22.0153 97.952 18.0704C97.952 14.1255 94.754 10.9276 90.8091 10.9276C86.8642 10.9276 83.6663 14.1255 83.6663 18.0704C83.6663 22.0153 86.8642 25.2133 90.8091 25.2133Z" stroke="#E60012" stroke-width="3" stroke-linecap="round" stroke-linejoin="round"/>
<path d="M100.571 27.8324L96.2852 23.5466" stroke="white" stroke-width="3" stroke-linecap="round" stroke-linejoin="round"/>
<path d="M100.571 27.8324L96.2852 23.5466" stroke="#E60012" stroke-width="3" stroke-linecap="round" stroke-linejoin="round"/>
<rect x="0.5" y="0.760864" width="121" height="39" rx="19.5" stroke="white"/>
<rect x="0.5" y="0.760864" width="121" height="39" rx="19.5" stroke="#E60012"/>
<path d="M24.3735 15.2667H27.1968C28.5229 15.2667 29.4823 15.465 30.0747 15.8615C30.6672 16.2579 30.9634 16.8846 30.9634 17.7413C30.9634 18.3338 30.797 18.8237 30.4644 19.2111C30.1362 19.5939 29.6554 19.8422 29.022 19.9562V20.0245C30.5396 20.2843 31.2983 21.0818 31.2983 22.4171C31.2983 23.3103 30.9953 24.0076 30.3892 24.5089C29.7876 25.0102 28.9445 25.2609 27.8599 25.2609H24.3735V15.2667ZM25.5356 19.546H27.4497C28.27 19.546 28.8602 19.4184 29.2202 19.1632C29.5802 18.9034 29.7603 18.4682 29.7603 17.8575C29.7603 17.297 29.5597 16.8937 29.1587 16.6476C28.7576 16.3969 28.1196 16.2716 27.2446 16.2716H25.5356V19.546ZM25.5356 20.5304V24.2697H27.6206C28.4272 24.2697 29.0334 24.1147 29.439 23.8048C29.8491 23.4904 30.0542 23.0004 30.0542 22.3351C30.0542 21.7153 29.8446 21.2596 29.4253 20.9679C29.0106 20.6762 28.3771 20.5304 27.5249 20.5304H25.5356ZM34.3472 17.7687V22.629C34.3472 23.2397 34.4862 23.6954 34.7642 23.9962C35.0422 24.297 35.4774 24.4474 36.0698 24.4474C36.8537 24.4474 37.4256 24.2332 37.7856 23.8048C38.1502 23.3764 38.3325 22.6769 38.3325 21.7062V17.7687H39.4673V25.2609H38.5308L38.3667 24.256H38.3052C38.0728 24.6251 37.7492 24.9077 37.3345 25.1036C36.9243 25.2996 36.4549 25.3976 35.9263 25.3976C35.0148 25.3976 34.3312 25.1811 33.8755 24.7482C33.4243 24.3152 33.1987 23.6225 33.1987 22.67V17.7687H34.3472ZM46.7134 23.2169C46.7134 23.9142 46.4536 24.4519 45.9341 24.8302C45.4146 25.2085 44.6854 25.3976 43.7466 25.3976C42.7531 25.3976 41.9784 25.2404 41.4224 24.9259V23.8732C41.7824 24.0555 42.1675 24.199 42.5776 24.3038C42.9924 24.4087 43.3911 24.4611 43.7739 24.4611C44.3664 24.4611 44.8221 24.3676 45.1411 24.1808C45.4601 23.9894 45.6196 23.7 45.6196 23.3126C45.6196 23.021 45.492 22.7726 45.2368 22.5675C44.9862 22.3579 44.494 22.1118 43.7603 21.8292C43.063 21.5695 42.5662 21.3439 42.27 21.1525C41.9784 20.9565 41.7596 20.7355 41.6138 20.4894C41.4725 20.2433 41.4019 19.9493 41.4019 19.6075C41.4019 18.9969 41.6502 18.5161 42.147 18.1652C42.6437 17.8097 43.325 17.632 44.1909 17.632C44.9976 17.632 45.786 17.796 46.5562 18.1241L46.1528 19.047C45.4009 18.7371 44.7196 18.5822 44.1089 18.5822C43.5711 18.5822 43.1655 18.6665 42.8921 18.8351C42.6187 19.0037 42.4819 19.2361 42.4819 19.5323C42.4819 19.7329 42.5321 19.9038 42.6323 20.045C42.7371 20.1863 42.9035 20.3208 43.1313 20.4484C43.3592 20.576 43.7967 20.7605 44.4438 21.0021C45.3325 21.3256 45.9318 21.6515 46.2417 21.9796C46.5562 22.3077 46.7134 22.7202 46.7134 23.2169ZM51.5601 25.3976C50.4754 25.3976 49.6346 25.0649 49.0376 24.3995C48.4451 23.7296 48.1489 22.784 48.1489 21.5626C48.1489 20.3094 48.4497 19.3409 49.0513 18.6573C49.6574 17.9738 50.5187 17.632 51.6353 17.632C51.9953 17.632 52.3553 17.6707 52.7153 17.7482C53.0754 17.8256 53.3579 17.9168 53.563 18.0216L53.2144 18.9855C52.9637 18.8852 52.6903 18.8032 52.394 18.7394C52.0978 18.671 51.8358 18.6368 51.6079 18.6368C50.0858 18.6368 49.3247 19.6075 49.3247 21.549C49.3247 22.4695 49.5093 23.1759 49.8784 23.6681C50.2521 24.1603 50.8035 24.4064 51.5327 24.4064C52.1571 24.4064 52.7974 24.2719 53.4536 24.0031V25.0079C52.9523 25.2677 52.3211 25.3976 51.5601 25.3976ZM59.8452 25.2609L59.6196 24.1945H59.5649C59.1912 24.6639 58.8175 24.9829 58.4438 25.1515C58.0747 25.3156 57.6121 25.3976 57.0562 25.3976C56.3133 25.3976 55.73 25.2062 55.3062 24.8234C54.8869 24.4406 54.6772 23.896 54.6772 23.1896C54.6772 21.6766 55.8872 20.8836 58.3071 20.8107L59.5786 20.7697V20.3048C59.5786 19.7169 59.451 19.284 59.1958 19.006C58.9451 18.7234 58.5418 18.5822 57.9858 18.5822C57.3615 18.5822 56.6551 18.7736 55.8667 19.1564L55.5181 18.2882C55.8872 18.0877 56.2905 17.9305 56.728 17.8165C57.1701 17.7026 57.6121 17.6456 58.0542 17.6456C58.9474 17.6456 59.6082 17.8439 60.0366 18.2404C60.4696 18.6368 60.686 19.2726 60.686 20.1476V25.2609H59.8452ZM57.2817 24.4611C57.9881 24.4611 58.5418 24.2674 58.9429 23.88C59.3485 23.4926 59.5513 22.9503 59.5513 22.2531V21.5763L58.4165 21.6241C57.5142 21.656 56.8625 21.7973 56.4614 22.048C56.0649 22.2941 55.8667 22.6792 55.8667 23.2032C55.8667 23.6134 55.9897 23.9256 56.2358 24.1398C56.4865 24.354 56.8351 24.4611 57.2817 24.4611ZM66.4487 17.632C66.7814 17.632 67.0799 17.6593 67.3442 17.714L67.187 18.7667C66.8771 18.6984 66.6037 18.6642 66.3667 18.6642C65.7606 18.6642 65.241 18.9103 64.8081 19.4025C64.3797 19.8947 64.1655 20.5076 64.1655 21.2413V25.2609H63.0308V17.7687H63.9673L64.0972 19.1564H64.1519C64.4299 18.6687 64.7648 18.2928 65.1567 18.0284C65.5487 17.7641 65.9793 17.632 66.4487 17.632Z" fill="#3C3C3C"/>
</svg>
