<svg width="18" height="19" viewBox="0 0 18 19" fill="none" xmlns="http://www.w3.org/2000/svg">
<path d="M18 9.49608C18 8.80442 17.4393 8.24372 16.7476 8.24372H10.3034V1.7783C10.3034 1.05843 9.71987 0.474854 9 0.474854C8.28013 0.474854 7.69655 1.05843 7.69655 1.7783V8.24372H1.25236C0.5607 8.24372 0 8.80442 0 9.49608C0 10.1877 0.5607 10.7484 1.25236 10.7484H7.69655V17.1714C7.69655 17.8913 8.28013 18.4749 9 18.4749C9.71987 18.4749 10.3034 17.8913 10.3034 17.1714V10.7484H16.7476C17.4393 10.7484 18 10.1877 18 9.49608Z" fill="#EE6262"/>
</svg>
