<svg xmlns="http://www.w3.org/2000/svg" width="23" height="21" viewBox="0 0 23 21" fill="none">
  <path d="M21.4919 4.89367C21.1661 4.13173 20.6963 3.44126 20.1088 2.86092C19.5208 2.27885 18.8276 1.81629 18.0669 1.49839C17.278 1.16743 16.4319 0.998032 15.5777 1.00002C14.3793 1.00002 13.2101 1.33144 12.194 1.95747C11.9509 2.10723 11.72 2.27172 11.5012 2.45093C11.2824 2.27172 11.0515 2.10723 10.8084 1.95747C9.79233 1.33144 8.62309 1.00002 7.42469 1.00002C6.56175 1.00002 5.72554 1.16696 4.93552 1.49839C4.17224 1.81754 3.48431 2.27663 2.89362 2.86092C2.30535 3.4406 1.83542 4.13123 1.51048 4.89367C1.17259 5.68664 1 6.52871 1 7.39533C1 8.21285 1.1653 9.06474 1.49346 9.93136C1.76814 10.6556 2.16194 11.4068 2.66512 12.1654C3.46243 13.3659 4.55874 14.618 5.92001 15.8872C8.17582 17.9912 10.4098 19.4446 10.5046 19.5035L11.0807 19.8766C11.3359 20.0411 11.6641 20.0411 11.9193 19.8766L12.4954 19.5035C12.5902 19.4421 14.8217 17.9912 17.08 15.8872C18.4412 14.618 19.5375 13.3659 20.3349 12.1654C20.838 11.4068 21.2343 10.6556 21.5065 9.93136C21.8347 9.06474 22 8.21285 22 7.39533C22.0024 6.52871 21.8298 5.68664 21.4919 4.89367Z" fill="#EE6262" stroke="#EE6262" stroke-width="2"/>
</svg>