<svg xmlns="http://www.w3.org/2000/svg" width="24" height="21" viewBox="0 0 24 21" fill="none">
  <path d="M22.3513 4.89367C22.0218 4.13173 21.5467 3.44126 20.9526 2.86092C20.3581 2.27885 19.6571 1.81629 18.8878 1.49839C18.0901 1.16743 17.2345 0.998032 16.3707 1.00002C15.1588 1.00002 13.9764 1.33144 12.9489 1.95747C12.7031 2.10723 12.4696 2.27172 12.2483 2.45093C12.0271 2.27172 11.7936 2.10723 11.5478 1.95747C10.5203 1.33144 9.3379 1.00002 8.12603 1.00002C7.25339 1.00002 6.40779 1.16696 5.60889 1.49839C4.83703 1.81754 4.14138 2.27663 3.54405 2.86092C2.94917 3.4406 2.47396 4.13123 2.14536 4.89367C1.80368 5.68664 1.62915 6.52871 1.62915 7.39533C1.62915 8.21285 1.7963 9.06474 2.12815 9.93136C2.40592 10.6556 2.80414 11.4068 3.31298 12.1654C4.11925 13.3659 5.22788 14.618 6.60444 15.8872C8.8856 17.9912 11.1446 19.4446 11.2405 19.5035L11.8231 19.8766C12.0812 20.0411 12.413 20.0411 12.6711 19.8766L13.2537 19.5035C13.3496 19.4421 15.6062 17.9912 17.8898 15.8872C19.2664 14.618 20.375 13.3659 21.1812 12.1654C21.6901 11.4068 22.0908 10.6556 22.3661 9.93136C22.6979 9.06474 22.8651 8.21285 22.8651 7.39533C22.8675 6.52871 22.693 5.68664 22.3513 4.89367Z" fill="white" stroke="#EE6262" stroke-width="2"/>
</svg>