<svg xmlns="http://www.w3.org/2000/svg" width="26" height="26" viewBox="0 0 26 26" fill="none">
  <path fill-rule="evenodd" clip-rule="evenodd" d="M0.810801 20.5661L9.00335 12.6014L0.810801 4.58113C-0.270267 3.5228 -0.270267 1.85191 0.810801 0.793752C1.89187 -0.264584 3.59865 -0.264584 4.67953 0.793752L12.8721 8.81403L21.0078 0.793752C22.0889 -0.264584 23.7957 -0.264584 24.8766 0.793752C25.9576 1.85209 25.9576 3.52298 24.8766 4.58113L16.684 12.6014L24.8766 20.5661C25.9576 21.6244 25.9576 23.2953 24.8766 24.3534C23.8524 25.4118 22.0887 25.4118 21.0078 24.3534L12.8721 16.3332L4.67953 24.3534C3.59847 25.4118 1.89169 25.4118 0.810801 24.3534C-0.270267 23.3508 -0.270267 21.6242 0.810801 20.5661Z" fill="#E60012"/>
</svg>