<svg width="131" height="32" viewBox="0 0 131 32" fill="none" xmlns="http://www.w3.org/2000/svg">
<g clip-path="url(#clip0_1652_1241)">
<path d="M48.1362 26.4974V23.8386H48.6411V26.4974H48.1362ZM49.7292 28.0524C49.4159 28.0524 49.1402 27.9863 48.8993 27.8541C48.6585 27.7219 48.4728 27.5408 48.3364 27.3051C48.2029 27.0723 48.1333 26.8021 48.1333 26.4945H48.6382C48.6382 26.7101 48.6846 26.9027 48.7775 27.0694C48.8703 27.2361 49.0009 27.3655 49.1663 27.4574C49.3317 27.5494 49.5232 27.5954 49.7379 27.5954C49.9527 27.5954 50.15 27.5494 50.3183 27.4574C50.4866 27.3655 50.6172 27.2361 50.71 27.0694C50.8029 26.9027 50.8493 26.7101 50.8493 26.4945H51.3484C51.3484 26.8021 51.2816 27.0723 51.1453 27.3051C51.0118 27.5379 50.8203 27.7219 50.5736 27.8541C50.327 27.9863 50.0426 28.0524 49.7234 28.0524H49.7292ZM50.8551 26.4974V23.8386H51.3542V26.4974H50.8551Z" fill="#291D56"/>
<path d="M52.6222 27.966V25.0198H53.0691L53.0981 25.5631V27.9689H52.6222V27.966ZM54.7114 26.457C54.7114 26.1667 54.6766 25.9453 54.6099 25.7901C54.5431 25.6378 54.4503 25.5314 54.3313 25.474C54.2123 25.4165 54.0788 25.3877 53.928 25.3877C53.6668 25.3877 53.4637 25.4797 53.3186 25.6608C53.1735 25.8447 53.101 26.1034 53.101 26.4369H52.8688C52.8688 26.1264 52.9153 25.8591 53.0052 25.6349C53.0952 25.4107 53.2286 25.2411 53.3998 25.1233C53.5739 25.0054 53.7829 24.9451 54.0266 24.9451C54.3864 24.9451 54.6708 25.0543 54.8797 25.2756C55.0886 25.4969 55.1902 25.8304 55.1873 26.2788L54.7114 26.4541V26.457ZM54.7114 27.966V26.457L55.1873 26.2816V27.966H54.7114Z" fill="#291D56"/>
<path d="M56.2987 27.966L56.3103 23.8413H56.7862L56.7746 27.966H56.2987Z" fill="#291D56"/>
<path d="M58.2515 24.3358C58.1732 24.3358 58.1035 24.307 58.0426 24.2467C57.9846 24.1863 57.9526 24.1202 57.9526 24.0397C57.9526 23.9592 57.9817 23.8874 58.0426 23.8299C58.1035 23.7724 58.1703 23.7437 58.2515 23.7437C58.3328 23.7437 58.4053 23.7724 58.4633 23.8299C58.5214 23.8874 58.5504 23.9564 58.5504 24.0397C58.5504 24.1231 58.5214 24.1863 58.4633 24.2467C58.4053 24.3042 58.3357 24.3358 58.2515 24.3358ZM58.0078 27.9661L58.0194 25.0199H58.4953L58.4836 27.9661H58.0078Z" fill="#291D56"/>
<path d="M59.714 27.966V25.0198H60.1609L60.1899 25.5631V27.9689H59.714V27.966ZM61.8032 26.457C61.8032 26.1667 61.7684 25.9453 61.7017 25.7901C61.6349 25.6378 61.5421 25.5314 61.4231 25.474C61.3041 25.4165 61.1706 25.3877 61.0198 25.3877C60.7586 25.3877 60.5555 25.4797 60.4104 25.6608C60.2653 25.8447 60.1928 26.1034 60.1928 26.4369H59.9606C59.9606 26.1264 60.0071 25.8591 60.097 25.6349C60.187 25.4107 60.3204 25.2411 60.4916 25.1233C60.6657 25.0054 60.8747 24.9451 61.1184 24.9451C61.4782 24.9451 61.7626 25.0543 61.9715 25.2756C62.1804 25.4969 62.282 25.8304 62.2791 26.2788L61.8032 26.4541V26.457ZM61.8032 27.966V26.457L62.2791 26.2816V27.966H61.8032ZM63.8982 26.457C63.8982 26.1667 63.8634 25.9453 63.7938 25.7901C63.7241 25.6378 63.6313 25.5314 63.5123 25.474C63.3933 25.4165 63.2599 25.3877 63.109 25.3877C62.8478 25.3877 62.6447 25.4797 62.4996 25.6608C62.3545 25.8447 62.282 26.1034 62.282 26.4369H62.0499C62.0499 26.1264 62.0963 25.8591 62.1862 25.6349C62.2762 25.4107 62.4097 25.2411 62.5838 25.1233C62.7579 25.0054 62.9697 24.9451 63.2134 24.9451C63.5703 24.9451 63.8518 25.0543 64.0607 25.2756C64.2697 25.4969 64.3741 25.8304 64.3741 26.2788L63.8982 26.4541V26.457ZM63.8982 27.966V26.457L64.3741 26.2816V27.966H63.8982Z" fill="#291D56"/>
<path d="M65.7553 24.3358C65.6769 24.3358 65.6073 24.307 65.5464 24.2467C65.4854 24.1863 65.4564 24.1202 65.4564 24.0397C65.4564 23.9592 65.4854 23.8874 65.5464 23.8299C65.6073 23.7724 65.674 23.7437 65.7553 23.7437C65.8394 23.7437 65.9091 23.7724 65.9671 23.8299C66.0252 23.8874 66.0542 23.9564 66.0542 24.0397C66.0542 24.1231 66.0252 24.1863 65.9671 24.2467C65.9091 24.3042 65.8394 24.3358 65.7553 24.3358ZM65.5116 27.9661L65.5232 25.0199H65.999L65.9874 27.9661H65.5116Z" fill="#291D56"/>
<path d="M66.9683 25.4367V25.017H68.8544V25.4367H66.9683ZM68.3959 28.0351C68.1057 28.0351 67.8823 27.9604 67.7227 27.8109C67.5631 27.6614 67.4848 27.4516 67.4848 27.1814V24.1001H67.9606V27.1354C67.9606 27.2849 68.0013 27.3999 68.0825 27.4803C68.1638 27.5608 68.2769 27.6011 68.4249 27.6011C68.4713 27.6011 68.5178 27.5953 68.5642 27.581C68.6106 27.5666 68.6716 27.5321 68.747 27.4775L68.9327 27.8598C68.8283 27.9259 68.7354 27.9719 68.6542 27.9977C68.57 28.0236 68.4859 28.0351 68.3988 28.0351H68.3959Z" fill="#291D56"/>
<path d="M71.1815 28.0379C70.8913 28.0379 70.6359 27.9718 70.4183 27.8396C70.2007 27.7073 70.0237 27.5262 69.8989 27.2934C69.7712 27.0606 69.7074 26.7933 69.7074 26.4915C69.7074 26.1897 69.7683 25.9224 69.896 25.6895C70.0208 25.4567 70.1949 25.2756 70.4154 25.1434C70.6359 25.0112 70.8884 24.9451 71.1699 24.9451C71.4513 24.9451 71.6864 25.0141 71.8895 25.1491C72.0926 25.2842 72.2493 25.474 72.3595 25.7183C72.4698 25.9626 72.5249 26.25 72.5249 26.5777H72.0491C72.0491 26.3276 72.0142 26.1121 71.9475 25.931C71.8808 25.7528 71.7821 25.6148 71.6515 25.5171C71.521 25.4193 71.3585 25.3705 71.1641 25.3705C70.9696 25.3705 70.8013 25.4165 70.6563 25.5084C70.5112 25.6004 70.398 25.7326 70.3197 25.8994C70.2413 26.0689 70.2007 26.2673 70.2007 26.4943C70.2007 26.7214 70.2442 26.9111 70.3313 27.075C70.4183 27.2388 70.5373 27.3653 70.6882 27.4573C70.8391 27.5492 71.0103 27.5952 71.2047 27.5952C71.4136 27.5952 71.5906 27.5464 71.7357 27.4486C71.8779 27.3509 71.9881 27.2216 72.0694 27.0663L72.493 27.2733C72.4147 27.4256 72.3102 27.5607 72.1854 27.6728C72.0607 27.7849 71.9156 27.874 71.7473 27.9373C71.5819 28.0005 71.3933 28.0321 71.1815 28.0321V28.0379ZM70.0266 26.5806V26.1724H72.2348V26.5806H70.0266Z" fill="#291D56"/>
<path d="M74.6722 28.0381C74.4053 28.0381 74.1731 27.972 73.97 27.8426C73.7669 27.7133 73.6102 27.5322 73.497 27.2965C73.3839 27.0608 73.3287 26.7935 73.3287 26.4917C73.3287 26.1899 73.3868 25.9168 73.497 25.684C73.6102 25.4511 73.7669 25.2729 73.97 25.1407C74.1731 25.0114 74.4053 24.9453 74.6722 24.9453C74.9218 24.9453 75.1423 25.0114 75.3309 25.1407C75.5195 25.2701 75.6646 25.4511 75.7691 25.684C75.8735 25.9168 75.9228 26.1841 75.9228 26.4917C75.9228 26.7992 75.8706 27.0637 75.7691 27.2965C75.6675 27.5293 75.5195 27.7104 75.3309 27.8426C75.1423 27.972 74.9247 28.0381 74.6722 28.0381ZM74.7796 27.6069C74.9537 27.6069 75.1075 27.5609 75.2439 27.4661C75.3802 27.3712 75.4847 27.239 75.563 27.0723C75.6414 26.9027 75.6791 26.7101 75.6791 26.4945C75.6791 26.279 75.6414 26.0864 75.563 25.9168C75.4847 25.7472 75.3802 25.615 75.2439 25.523C75.1104 25.4281 74.9537 25.3822 74.7738 25.3822C74.5939 25.3822 74.4227 25.4281 74.2776 25.523C74.1325 25.6179 74.0193 25.7501 73.9352 25.9168C73.851 26.0864 73.8104 26.279 73.8104 26.4945C73.8104 26.7101 73.851 26.9027 73.9352 27.0723C74.0193 27.2419 74.1325 27.3741 74.2805 27.4661C74.4285 27.558 74.5939 27.6069 74.7796 27.6069ZM75.7023 27.9662L75.6791 27.4172V23.8386H76.155V27.9633H75.7023V27.9662Z" fill="#291D56"/>
<path d="M80.3421 28.0381C80.0752 28.0381 79.843 27.972 79.6399 27.8426C79.4368 27.7133 79.2801 27.5322 79.167 27.2965C79.0538 27.0637 78.9987 26.7935 78.9987 26.4917C78.9987 26.1899 79.0538 25.9168 79.167 25.684C79.2801 25.4511 79.4368 25.2729 79.6399 25.1407C79.843 25.0114 80.0752 24.9453 80.3421 24.9453C80.5917 24.9453 80.8122 25.0114 81.0008 25.1407C81.1894 25.2701 81.3345 25.4511 81.439 25.684C81.5434 25.9168 81.5928 26.1841 81.5928 26.4917C81.5928 26.7992 81.5405 27.0637 81.439 27.2965C81.3345 27.5293 81.1894 27.7104 81.0008 27.8426C80.8122 27.9748 80.5946 28.0381 80.3421 28.0381ZM80.4495 27.6069C80.6236 27.6069 80.7803 27.5609 80.9138 27.4661C81.0473 27.3712 81.1546 27.239 81.233 27.0723C81.3113 26.9027 81.349 26.7101 81.349 26.4945C81.349 26.279 81.3113 26.0864 81.233 25.9168C81.1546 25.7472 81.0502 25.615 80.9138 25.523C80.7803 25.4281 80.6207 25.3822 80.4437 25.3822C80.2667 25.3822 80.0926 25.4281 79.9475 25.523C79.8024 25.6179 79.6893 25.7501 79.6051 25.9168C79.521 26.0864 79.4803 26.279 79.4803 26.4945C79.4803 26.7101 79.521 26.9027 79.6051 27.0723C79.6893 27.2419 79.8024 27.3741 79.9504 27.4661C80.0984 27.558 80.2638 27.6069 80.4495 27.6069ZM81.3722 27.9662L81.349 27.4172V23.8386H81.8249V27.9633H81.3722V27.9662Z" fill="#291D56"/>
<path d="M83.2874 24.3358C83.2091 24.3358 83.1394 24.307 83.0785 24.2467C83.0175 24.1863 82.9885 24.1202 82.9885 24.0397C82.9885 23.9592 83.0175 23.8874 83.0785 23.8299C83.1394 23.7724 83.2062 23.7437 83.2874 23.7437C83.3715 23.7437 83.4412 23.7724 83.4992 23.8299C83.5573 23.8874 83.5863 23.9564 83.5863 24.0397C83.5863 24.1231 83.5573 24.1863 83.4992 24.2467C83.4412 24.3042 83.3715 24.3358 83.2874 24.3358ZM83.0437 27.9661L83.0553 25.0199H83.5311L83.5195 27.9661H83.0437Z" fill="#291D56"/>
<path d="M85.925 27.943C85.6581 27.943 85.4259 27.8798 85.2228 27.7533C85.0197 27.6269 84.863 27.4515 84.7498 27.2244C84.6367 26.9974 84.5815 26.7415 84.5815 26.4484C84.5815 26.1552 84.6367 25.8879 84.7498 25.6608C84.863 25.4337 85.0197 25.2584 85.2228 25.1348C85.4259 25.0083 85.6581 24.9451 85.925 24.9451C86.1746 24.9451 86.3922 25.0083 86.5808 25.1348C86.7694 25.2612 86.9116 25.4366 87.019 25.6608C87.1234 25.8879 87.1757 26.1494 87.1757 26.4484C87.1757 26.7473 87.1234 27.0031 87.019 27.2273C86.9145 27.4515 86.7694 27.6269 86.5808 27.7533C86.3922 27.8798 86.1775 27.943 85.925 27.943ZM85.9424 29.2164C85.7509 29.2164 85.5797 29.1963 85.423 29.1618C85.2664 29.1244 85.1329 29.0842 85.0255 29.0382C84.9152 28.9922 84.8369 28.9548 84.7905 28.9232L84.9704 28.5409C85.0226 28.5668 85.0951 28.6013 85.1909 28.6444C85.2867 28.6875 85.3969 28.722 85.5275 28.7507C85.6581 28.7795 85.7945 28.7938 85.9424 28.7938C86.134 28.7938 86.3052 28.7565 86.456 28.6789C86.6098 28.6013 86.7288 28.4834 86.8129 28.3196C86.8971 28.1557 86.9406 27.9488 86.9406 27.693V25.0227H87.4165V27.6872C87.4165 28.0264 87.3527 28.3081 87.225 28.5351C87.0973 28.7622 86.9232 28.9347 86.7027 29.0468C86.4793 29.1618 86.2297 29.2164 85.9482 29.2164H85.9424ZM86.0382 27.5377C86.2123 27.5377 86.369 27.4918 86.5025 27.3969C86.6359 27.302 86.7433 27.1727 86.8188 27.0117C86.8942 26.8479 86.9319 26.6582 86.9319 26.4426C86.9319 26.227 86.8942 26.0488 86.8159 25.885C86.7375 25.7211 86.633 25.5947 86.4996 25.5027C86.3661 25.4107 86.2123 25.3647 86.0324 25.3647C85.8525 25.3647 85.6813 25.4107 85.5362 25.5027C85.3911 25.5947 85.2779 25.724 85.1967 25.885C85.1155 26.046 85.0748 26.2328 85.0748 26.4426C85.0748 26.6524 85.1155 26.8479 85.1996 27.0117C85.2838 27.1756 85.3969 27.3049 85.542 27.3969C85.6871 27.4889 85.8525 27.5377 86.0382 27.5377Z" fill="#291D56"/>
<path d="M88.7977 24.3358C88.7193 24.3358 88.6497 24.307 88.5887 24.2467C88.5307 24.1863 88.4988 24.1202 88.4988 24.0397C88.4988 23.9592 88.5278 23.8874 88.5887 23.8299C88.6497 23.7724 88.7164 23.7437 88.7977 23.7437C88.8789 23.7437 88.9514 23.7724 89.0095 23.8299C89.0675 23.8874 89.0965 23.9564 89.0965 24.0397C89.0965 24.1231 89.0675 24.1863 89.0095 24.2467C88.9514 24.3042 88.8818 24.3358 88.7977 24.3358ZM88.5539 27.9661L88.5655 25.0199H89.0414L89.0298 27.9661H88.5539Z" fill="#291D56"/>
<path d="M90.0106 25.4367V25.017H91.8967V25.4367H90.0106ZM91.4382 28.0351C91.1481 28.0351 90.9246 27.9604 90.7651 27.8109C90.6055 27.6614 90.5271 27.4516 90.5271 27.1814V24.1001H91.003V27.1354C91.003 27.2849 91.0436 27.3999 91.1249 27.4803C91.2061 27.5608 91.3193 27.6011 91.4673 27.6011C91.5137 27.6011 91.5601 27.5953 91.6066 27.581C91.653 27.5666 91.7139 27.5321 91.7894 27.4775L91.9751 27.8598C91.8706 27.9259 91.7778 27.9719 91.6965 27.9977C91.6124 28.0236 91.5282 28.0351 91.4412 28.0351H91.4382Z" fill="#291D56"/>
<path d="M93.8669 28.038C93.5129 28.038 93.2401 27.9575 93.0428 27.7994C92.8455 27.6413 92.7498 27.42 92.7498 27.1354C92.7498 26.8365 92.8484 26.6066 93.0486 26.4485C93.2488 26.2904 93.5303 26.2099 93.8901 26.2099H94.9376V26.6037H93.9975C93.7189 26.6037 93.5216 26.6497 93.4055 26.7388C93.2895 26.8279 93.2285 26.9601 93.2285 27.1268C93.2285 27.2792 93.2866 27.3999 93.4026 27.489C93.5187 27.5781 93.6783 27.6212 93.8843 27.6212C94.0584 27.6212 94.2093 27.581 94.337 27.5034C94.4647 27.4258 94.5604 27.3165 94.63 27.1814C94.6968 27.0463 94.7316 26.8911 94.7316 26.7187H95.0247C95.0247 27.1182 94.926 27.4373 94.7258 27.6758C94.5285 27.9144 94.2412 28.0322 93.8698 28.0322L93.8669 28.038ZM94.7722 27.9661L94.7258 26.4111C94.7171 26.1783 94.6881 25.9886 94.6359 25.8362C94.5836 25.6839 94.5053 25.5718 94.3979 25.4942C94.2906 25.4166 94.1484 25.3792 93.9685 25.3792C93.7886 25.3792 93.6493 25.4137 93.5245 25.4798C93.3997 25.5459 93.2982 25.6523 93.2169 25.7931L92.7933 25.6235C92.8687 25.4856 92.9616 25.3677 93.0718 25.2671C93.1821 25.1665 93.3127 25.0889 93.4636 25.0343C93.6145 24.9797 93.7828 24.9509 93.9685 24.9509C94.2412 24.9509 94.4705 25.0055 94.6533 25.109C94.8361 25.2154 94.9725 25.3735 95.0595 25.5833C95.1495 25.7931 95.193 26.0547 95.193 26.3709V27.969H94.7635L94.7722 27.9661Z" fill="#291D56"/>
<path d="M96.3131 27.966L96.3247 23.8413H96.8006L96.789 27.966H96.3131Z" fill="#291D56"/>
<path d="M101.144 28.0379C100.851 28.0379 100.59 27.9718 100.364 27.8396C100.138 27.7073 99.9605 27.5262 99.8329 27.2934C99.7052 27.0606 99.6414 26.7933 99.6414 26.4915C99.6414 26.1897 99.7052 25.9224 99.83 25.6895C99.9547 25.4567 100.132 25.2756 100.355 25.1434C100.579 25.0112 100.84 24.9451 101.13 24.9451C101.42 24.9451 101.673 25.0112 101.899 25.1405C102.125 25.2699 102.296 25.4538 102.415 25.6895L101.98 25.885C101.902 25.7269 101.786 25.6062 101.635 25.5171C101.484 25.428 101.313 25.3848 101.118 25.3848C100.924 25.3848 100.753 25.4308 100.605 25.5257C100.457 25.6205 100.338 25.7499 100.254 25.9166C100.169 26.0833 100.126 26.2759 100.126 26.4915C100.126 26.7071 100.169 26.8996 100.254 27.0663C100.338 27.2331 100.457 27.3653 100.611 27.4573C100.764 27.5521 100.936 27.5981 101.13 27.5981C101.324 27.5981 101.498 27.5492 101.649 27.4515C101.803 27.3538 101.919 27.2158 101.998 27.0405L102.433 27.2359C102.314 27.486 102.143 27.6843 101.916 27.8252C101.69 27.966 101.432 28.0379 101.142 28.0379H101.144Z" fill="#291D56"/>
<path d="M104.725 28.0379C104.435 28.0379 104.177 27.9718 103.95 27.8396C103.724 27.7073 103.547 27.5262 103.419 27.2934C103.292 27.0606 103.228 26.7933 103.228 26.4915C103.228 26.1897 103.289 25.9224 103.416 25.6895C103.541 25.4567 103.718 25.2756 103.942 25.1434C104.165 25.0112 104.423 24.9451 104.711 24.9451C104.998 24.9451 105.262 25.0112 105.488 25.1434C105.715 25.2756 105.886 25.4567 106.011 25.6895C106.135 25.9224 106.199 26.1897 106.199 26.4915C106.199 26.7933 106.138 27.0606 106.011 27.2934C105.886 27.5262 105.712 27.7073 105.491 27.8396C105.271 27.9718 105.012 28.0379 104.722 28.0379H104.725ZM104.725 27.5895C104.919 27.5895 105.091 27.5435 105.236 27.4486C105.384 27.3538 105.497 27.2244 105.581 27.0635C105.665 26.8996 105.706 26.7099 105.706 26.4943C105.706 26.2788 105.662 26.0862 105.578 25.9224C105.494 25.7585 105.375 25.6292 105.227 25.5372C105.079 25.4452 104.908 25.3992 104.713 25.3992C104.519 25.3992 104.348 25.4452 104.2 25.5401C104.052 25.6349 103.936 25.7643 103.852 25.9252C103.767 26.0891 103.727 26.2788 103.727 26.4943C103.727 26.7099 103.77 26.9025 103.855 27.0663C103.939 27.2302 104.058 27.3595 104.209 27.4515C104.359 27.5435 104.531 27.5895 104.725 27.5895Z" fill="#291D56"/>
<path d="M107.229 27.966V25.0198H107.676L107.705 25.5631V27.9689H107.229V27.966ZM109.318 26.457C109.318 26.1667 109.284 25.9453 109.217 25.7901C109.15 25.6378 109.057 25.5314 108.938 25.474C108.819 25.4165 108.686 25.3877 108.535 25.3877C108.274 25.3877 108.071 25.4797 107.926 25.6608C107.781 25.8447 107.708 26.1034 107.708 26.4369H107.476C107.476 26.1264 107.522 25.8591 107.612 25.6349C107.702 25.4107 107.836 25.2411 108.007 25.1233C108.181 25.0054 108.39 24.9451 108.634 24.9451C108.993 24.9451 109.278 25.0543 109.487 25.2756C109.696 25.4969 109.797 25.8304 109.794 26.2788L109.318 26.4541V26.457ZM109.318 27.966V26.457L109.794 26.2816V27.966H109.318ZM111.413 26.457C111.413 26.1667 111.379 25.9453 111.309 25.7901C111.239 25.6378 111.147 25.5314 111.028 25.474C110.909 25.4165 110.775 25.3877 110.624 25.3877C110.363 25.3877 110.16 25.4797 110.015 25.6608C109.87 25.8447 109.797 26.1034 109.797 26.4369H109.565C109.565 26.1264 109.612 25.8591 109.701 25.6349C109.791 25.4107 109.925 25.2411 110.099 25.1233C110.273 25.0054 110.485 24.9451 110.729 24.9451C111.086 24.9451 111.367 25.0543 111.576 25.2756C111.785 25.4969 111.889 25.8304 111.889 26.2788L111.413 26.4541V26.457ZM111.413 27.966V26.457L111.889 26.2816V27.966H111.413Z" fill="#291D56"/>
<path d="M112.995 27.966V25.0198H113.442L113.471 25.5631V27.9689H112.995V27.966ZM115.084 26.457C115.084 26.1667 115.049 25.9453 114.983 25.7901C114.916 25.6378 114.823 25.5314 114.704 25.474C114.585 25.4165 114.452 25.3877 114.301 25.3877C114.039 25.3877 113.836 25.4797 113.691 25.6608C113.546 25.8447 113.474 26.1034 113.474 26.4369H113.242C113.242 26.1264 113.288 25.8591 113.378 25.6349C113.468 25.4107 113.601 25.2411 113.773 25.1233C113.944 25.0054 114.156 24.9451 114.399 24.9451C114.759 24.9451 115.043 25.0543 115.252 25.2756C115.461 25.4969 115.563 25.8304 115.56 26.2788L115.084 26.4541V26.457ZM115.084 27.966V26.457L115.56 26.2816V27.966H115.084ZM117.179 26.457C117.179 26.1667 117.144 25.9453 117.075 25.7901C117.005 25.6378 116.912 25.5314 116.793 25.474C116.674 25.4165 116.541 25.3877 116.39 25.3877C116.129 25.3877 115.926 25.4797 115.781 25.6608C115.635 25.8447 115.563 26.1034 115.563 26.4369H115.331C115.331 26.1264 115.377 25.8591 115.467 25.6349C115.557 25.4107 115.691 25.2411 115.865 25.1233C116.039 25.0054 116.248 24.9451 116.494 24.9451C116.851 24.9451 117.133 25.0543 117.342 25.2756C117.551 25.4969 117.655 25.8304 117.655 26.2788L117.179 26.4541V26.457ZM117.179 27.966V26.457L117.655 26.2816V27.966H117.179Z" fill="#291D56"/>
<path d="M120.078 28.0379C119.788 28.0379 119.532 27.9718 119.315 27.8396C119.094 27.7073 118.92 27.5262 118.795 27.2934C118.668 27.0606 118.604 26.7933 118.604 26.4915C118.604 26.1897 118.668 25.9224 118.792 25.6895C118.917 25.4567 119.091 25.2756 119.312 25.1434C119.535 25.0112 119.785 24.9451 120.066 24.9451C120.348 24.9451 120.583 25.0141 120.786 25.1491C120.989 25.2842 121.146 25.474 121.256 25.7183C121.366 25.9626 121.421 26.25 121.421 26.5777H120.946C120.946 26.3276 120.911 26.1121 120.844 25.931C120.777 25.7528 120.679 25.6148 120.545 25.5171C120.412 25.4193 120.252 25.3705 120.058 25.3705C119.863 25.3705 119.695 25.4165 119.55 25.5084C119.405 25.6004 119.292 25.7326 119.213 25.8994C119.135 26.0689 119.094 26.2673 119.094 26.4943C119.094 26.7214 119.138 26.9111 119.225 27.075C119.312 27.2388 119.431 27.3653 119.582 27.4573C119.733 27.5492 119.904 27.5952 120.098 27.5952C120.307 27.5952 120.484 27.5464 120.626 27.4486C120.769 27.3509 120.879 27.2216 120.96 27.0663L121.384 27.2733C121.305 27.4256 121.204 27.5607 121.076 27.6728C120.948 27.7849 120.806 27.874 120.638 27.9373C120.473 28.0005 120.284 28.0321 120.072 28.0321L120.078 28.0379ZM118.923 26.5806V26.1724H121.131V26.5806H118.923Z" fill="#291D56"/>
<path d="M122.396 27.9662V25.02H122.872V27.9662H122.396ZM122.658 26.3681C122.658 26.049 122.719 25.7903 122.843 25.592C122.965 25.3937 123.125 25.2471 123.316 25.1493C123.508 25.0516 123.711 25.0056 123.926 25.0056V25.4483C123.752 25.4483 123.583 25.477 123.424 25.5345C123.264 25.592 123.131 25.684 123.029 25.8133C122.927 25.9427 122.875 26.1209 122.875 26.3451L122.661 26.3681H122.658Z" fill="#291D56"/>
<path d="M126.093 28.0379C125.8 28.0379 125.539 27.9718 125.313 27.8396C125.086 27.7073 124.909 27.5262 124.782 27.2934C124.654 27.0606 124.59 26.7933 124.59 26.4915C124.59 26.1897 124.651 25.9224 124.779 25.6895C124.903 25.4567 125.08 25.2756 125.304 25.1434C125.527 25.0112 125.788 24.9451 126.079 24.9451C126.369 24.9451 126.621 25.0112 126.848 25.1405C127.074 25.2699 127.245 25.4538 127.364 25.6895L126.929 25.885C126.851 25.7269 126.734 25.6062 126.584 25.5171C126.433 25.428 126.261 25.3848 126.067 25.3848C125.873 25.3848 125.701 25.4308 125.553 25.5257C125.405 25.6205 125.286 25.7499 125.202 25.9166C125.118 26.0833 125.075 26.2759 125.075 26.4915C125.075 26.7071 125.118 26.8996 125.202 27.0663C125.286 27.2331 125.405 27.3653 125.559 27.4573C125.713 27.5521 125.887 27.5981 126.079 27.5981C126.27 27.5981 126.447 27.5492 126.598 27.4515C126.752 27.3538 126.868 27.2158 126.946 27.0405L127.382 27.2359C127.263 27.486 127.088 27.6843 126.865 27.8252C126.642 27.966 126.38 28.0379 126.09 28.0379H126.093Z" fill="#291D56"/>
<path d="M129.656 28.0379C129.366 28.0379 129.111 27.9718 128.893 27.8396C128.676 27.7073 128.499 27.5262 128.374 27.2934C128.246 27.0606 128.182 26.7933 128.182 26.4915C128.182 26.1897 128.243 25.9224 128.371 25.6895C128.496 25.4567 128.67 25.2756 128.89 25.1434C129.111 25.0112 129.363 24.9451 129.645 24.9451C129.926 24.9451 130.161 25.0141 130.364 25.1491C130.568 25.2842 130.724 25.474 130.835 25.7183C130.945 25.9626 131 26.25 131 26.5777H130.524C130.524 26.3276 130.489 26.1121 130.422 25.931C130.356 25.7528 130.257 25.6148 130.127 25.5171C129.996 25.4193 129.833 25.3705 129.639 25.3705C129.445 25.3705 129.276 25.4165 129.131 25.5084C128.986 25.6004 128.873 25.7326 128.795 25.8994C128.716 26.0689 128.676 26.2673 128.676 26.4943C128.676 26.7214 128.719 26.9111 128.806 27.075C128.893 27.2388 129.012 27.3653 129.163 27.4573C129.314 27.5492 129.485 27.5952 129.68 27.5952C129.889 27.5952 130.066 27.5464 130.211 27.4486C130.353 27.3509 130.463 27.2216 130.544 27.0663L130.968 27.2733C130.89 27.4256 130.785 27.5607 130.66 27.6728C130.536 27.7849 130.391 27.874 130.222 27.9373C130.057 28.0005 129.868 28.0321 129.656 28.0321V28.0379ZM128.502 26.5806V26.1724H130.71V26.5806H128.502Z" fill="#291D56"/>
<path d="M29.3652 22.9187C29.3652 22.3496 29.107 21.8121 28.6601 21.4528L19.1425 13.8099C18.3243 13.1545 17.1549 13.1545 16.3395 13.8099L6.82193 21.4499C6.37507 21.8092 6.11682 22.3467 6.11682 22.9159V29.6994C6.11682 31.4901 8.21185 32.4789 9.61627 31.3521L17.741 24.8273L25.8658 31.3521C27.2702 32.4789 29.3652 31.4901 29.3652 29.6994V22.9159" fill="#FF5B6B"/>
<path d="M17.741 0.834961C16.9836 0.834961 16.2263 1.08503 15.6024 1.58517L1.07653 13.2465C0.394631 13.7926 0 14.6147 0 15.4856V25.839C0 27.7706 1.59884 29.0928 3.29343 29.0928C3.99564 29.0928 4.71236 28.8657 5.34202 28.3627L6.11678 27.739V22.9216C6.11678 22.3524 6.37503 21.8149 6.82189 21.4556L16.3395 13.8156C16.7486 13.4879 17.2448 13.3241 17.741 13.3241C18.2372 13.3241 18.7334 13.4879 19.1425 13.8156L28.6601 21.4585C29.1069 21.8178 29.3652 22.3553 29.3652 22.9244V27.7447L30.1399 28.3685C30.7667 28.8715 31.4863 29.0986 32.1885 29.0986C33.8831 29.0986 35.4819 27.7792 35.4819 25.8448V15.4913C35.4819 14.6233 35.0873 13.8012 34.4054 13.2522L19.8795 1.58517C19.2557 1.08503 18.4983 0.834961 17.741 0.834961Z" fill="#675FED"/>
<path d="M17.741 13.3182C17.2448 13.3182 16.7486 13.4821 16.3395 13.8098L6.82193 21.4498C6.37507 21.8091 6.11682 22.3466 6.11682 22.9157V27.7332L17.741 18.4001L29.3681 27.7332V22.9129C29.3681 22.3437 29.1099 21.8062 28.663 21.4469L19.1454 13.804C18.7363 13.4763 18.2401 13.3125 17.7439 13.3125" fill="#672263"/>
<path d="M56.5192 18.5985C53.2519 18.5985 49.9614 18.0983 48.2755 17.6787L48.9516 15.1291C50.829 15.5258 53.9918 15.9656 57.2388 15.9656C59.7285 15.9656 60.4655 15.8391 60.4655 15.2556C60.4655 14.629 59.8765 14.5456 58.2515 14.4421L53.0023 14.149C49.3752 13.9621 48.0695 12.9791 48.0695 10.6595C48.0695 7.94322 50.8957 7.3396 56.081 7.3396C58.5707 7.3396 61.838 7.75638 63.5036 8.02945L62.9145 10.5991C60.7005 10.2025 57.8337 9.90928 55.1554 9.90928C52.4771 9.90928 51.7807 10.0358 51.7807 10.6192C51.7807 11.2027 52.3291 11.289 53.426 11.3493L58.6752 11.6626C62.282 11.8725 64.1797 12.729 64.1797 15.2757C64.1797 17.8224 61.7974 18.5956 56.525 18.5956L56.5192 18.5985Z" fill="#675FED"/>
<path d="M73.9584 7.3396C80.3044 7.3396 83.3831 9.07284 83.3831 12.959C83.3831 16.8451 80.3044 18.5784 73.9584 18.5784C67.6124 18.5784 64.5337 16.8451 64.5337 12.959C64.5337 9.07284 67.5921 7.3396 73.9584 7.3396ZM73.9584 15.2556C78.2587 15.2556 79.3991 14.6089 79.3991 12.959C79.3991 11.3091 78.2616 10.6624 73.9584 10.6624C69.6552 10.6624 68.5177 11.3091 68.5177 12.959C68.5177 14.6089 69.6552 15.2556 73.9584 15.2556Z" fill="#675FED"/>
<path d="M93.1067 7.38281C95.8053 7.38281 98.4836 7.73923 100.445 8.19626L99.6443 11.3494C98.0831 11.0361 95.8692 10.7027 92.5177 10.7027C89.1662 10.7027 87.962 11.2028 87.962 12.9591C87.962 14.7153 89.1633 15.2154 92.5177 15.2154C95.8721 15.2154 98.0831 14.882 99.6443 14.5687L100.445 17.7219C98.4836 18.1818 95.8692 18.5353 93.1067 18.5353C86.6969 18.5353 83.9751 16.8222 83.9751 12.9591C83.9751 9.09593 86.694 7.38281 93.1067 7.38281Z" fill="#675FED"/>
<path d="M105.445 6.29639H101.461V3.03687H105.445V6.29639ZM101.461 7.65309H105.445V18.3055H101.461V7.65309Z" fill="#675FED"/>
<path d="M123.769 8.15607H123.789V18.3083H120.29L119.994 16.8884C117.884 17.7852 115.398 18.5181 112.824 18.5181C109.008 18.5181 106.454 17.0551 106.454 13.0885C106.454 8.80567 109.765 7.44897 114.594 7.44897C118.305 7.44897 121.404 7.82552 123.786 8.13882L123.766 8.15894L123.769 8.15607ZM113.604 15.2586C115.438 15.2586 117.548 14.862 119.802 14.2152V10.8953C118.032 10.7286 115.963 10.6251 114.193 10.6251C111.707 10.6251 110.441 11.2719 110.441 12.9448C110.441 14.6176 111.306 15.2644 113.604 15.2644V15.2586Z" fill="#675FED"/>
<path d="M129.064 18.3054H125.08V2.64014H129.064V18.3054Z" fill="#675FED"/>
</g>
<defs>
<clipPath id="clip0_1652_1241">
<rect width="131" height="31" fill="white" transform="translate(0 0.834961)"/>
</clipPath>
</defs>
</svg>
