<svg width="21" height="23" viewBox="0 0 21 23" fill="none" xmlns="http://www.w3.org/2000/svg">
<path d="M8.42645 1C4.22405 1 0.807373 4.6746 0.807373 9.19392C0.807373 13.7132 4.22418 17.3878 8.42645 17.3878C10.358 17.3878 12.1194 16.6093 13.4635 15.3313L19.52 21.8448C19.6092 21.9436 19.7316 21.9995 19.8595 22C19.9874 22.0005 20.1101 21.9457 20.2001 21.848C20.2902 21.7501 20.3396 21.6176 20.3377 21.4801C20.3358 21.3423 20.2825 21.2114 20.1897 21.1168L14.1408 14.611C15.3256 13.1664 16.0456 11.2677 16.0456 9.19397C16.0456 4.67451 12.6288 1.00005 8.42649 1.00005L8.42645 1ZM8.42645 2.02433C12.114 2.02433 15.0931 5.2281 15.0931 9.19401C15.0931 13.1597 12.1141 16.3637 8.42645 16.3637C4.73877 16.3637 1.75976 13.1599 1.75976 9.19401C1.75976 5.2281 4.73877 2.02433 8.42645 2.02433Z" fill="#EC1B24" stroke="#E60012"/>
</svg>
