<svg width="64" height="68" viewBox="0 0 64 69" fill="none" xmlns="http://www.w3.org/2000/svg"><title id="64e9ff629cc9a-whatsapp">Whatsapp</title> <g clip-path="url(#clip0_6116_17712)"> <path d="M6.21987 52.3975C0.657016 44.6728 -1.18574 35.8791 0.736061 26.2182C3.30258 13.3179 14.5913 2.79234 27.5771 1.19008L27.6215 1.1851C28.202 1.11284 29.9732 0.893555 31.9962 0.893555C32.2062 0.893555 32.4162 0.893555 32.6286 0.90103C35.084 0.958343 37.6307 1.34707 38.4805 1.52648C55.542 5.13717 66.5294 21.5908 63.496 38.9864C62.2461 46.148 58.5458 52.7489 53.0743 57.5731C47.4522 62.5294 40.1923 65.3626 32.6286 65.5545C32.3618 65.562 32.1 65.5644 31.8381 65.5644C27.3597 65.5644 23.0295 64.6126 18.9487 62.7312C17.1084 63.5286 3.10744 68.896 3.10744 68.896C3.10744 68.896 5.82464 54.0272 6.21987 52.4V52.3975Z" fill="white"></path> <path d="M37.4603 6.40399C51.4613 9.3668 61.2853 22.8626 58.6224 38.1227C56.4832 50.3901 45.9849 60.2279 32.4953 60.5693C28.086 60.6814 23.8644 59.7021 19.9196 57.6737C19.302 57.3573 18.7956 57.3623 18.1805 57.6314C15.4955 58.8075 12.7955 59.9488 10.0981 61.0975C9.80415 61.2221 9.49784 61.3118 9.08532 61.4564C9.12732 61.1449 9.13473 60.9954 9.17178 60.8533C9.91037 57.9379 10.6761 55.0299 11.3678 52.102C11.4715 51.6634 11.3925 51.013 11.1282 50.6766C5.61224 43.7219 3.84853 35.8701 5.57519 27.1935C7.71931 16.4212 17.3506 7.473 28.1724 6.13986C28.6368 6.08255 30.5339 5.83835 32.5051 5.88569C34.6493 5.93553 36.8848 6.28439 37.4628 6.40649L37.4603 6.40399ZM40.9606 49.1641C43.5098 49.1591 45.528 48.3517 47.2596 46.8118C48.1636 46.0094 48.7738 45.0201 49.0356 43.8216C49.4358 41.9975 48.9294 40.637 47.3188 39.7873C45.6292 38.8977 43.8556 38.175 42.1339 37.3453C41.1755 36.8843 40.3924 37.0936 39.7428 37.876C38.9721 38.8055 38.2286 39.7598 37.4875 40.7167C36.9737 41.3796 36.3957 41.4992 35.62 41.1528C31.0255 39.092 27.4561 35.8526 24.7364 31.614C24.398 31.0857 24.4054 30.6447 24.7932 30.1737C25.4034 29.4311 26.0184 28.6911 26.6113 27.936C27.1844 27.2059 27.4067 26.4011 27.0287 25.499C26.1172 23.3261 25.2379 21.1383 24.2671 18.9928C24.0793 18.5767 23.5557 18.1157 23.1308 18.0484C22.2934 17.9188 21.3868 17.9163 20.5618 18.1007C18.3954 18.5841 17.3827 20.3259 16.5848 22.1923C15.2633 25.2897 15.8314 28.3048 17.232 31.1904C20.5396 38.0031 25.8085 42.8946 32.3223 46.4953C35.0741 48.0178 38.0038 49.0395 40.9606 49.1641Z" fill="#00A859"></path> </g> <defs> <clipPath id="clip0_6116_17712"> <rect width="64" height="68" fill="white" transform="translate(0 0.893555)"></rect> </clipPath> </defs> </svg>