<svg width="23" height="23" viewBox="0 0 23 23" fill="none" xmlns="http://www.w3.org/2000/svg">
<path d="M4.51706 0.834961C2.29179 0.834961 0.5 2.62675 0.5 4.85202V18.8179C0.5 21.0432 2.29179 22.8349 4.51706 22.8349H12.0864V14.2343H9.81218V11.1378H12.0864V8.49233C12.0864 6.41389 13.4302 4.50552 16.5256 4.50552C17.7789 4.50552 18.7057 4.62584 18.7057 4.62584L18.6328 7.51747C18.6328 7.51747 17.6876 7.50854 16.6562 7.50854C15.54 7.50854 15.361 8.02285 15.361 8.87667V11.1378H18.7215L18.575 14.2343H15.361V22.835H18.4829C20.7082 22.835 22.5 21.0432 22.5 18.8179V4.85204C22.5 2.62677 20.7082 0.834983 18.4829 0.834983H4.51704L4.51706 0.834961Z" fill="black"/>
</svg>
