<svg width="34" height="34" viewBox="0 0 34 34" fill="none" xmlns="http://www.w3.org/2000/svg">
<circle cx="17" cy="17" r="17" fill="#FFF0DE"/>
<path fill-rule="evenodd" clip-rule="evenodd" d="M8.16468 23.0033L14.3184 17.0208L8.16468 10.9965C7.35266 10.2015 7.35266 8.94645 8.16468 8.15163C8.97671 7.35668 10.2587 7.35668 11.0706 8.15163L17.2243 14.1759L23.3353 8.15163C24.1474 7.35668 25.4294 7.35668 26.2413 8.15163C27.0533 8.94658 27.0533 10.2016 26.2413 10.9965L20.0876 17.0208L26.2413 23.0033C27.0533 23.7982 27.0533 25.0533 26.2413 25.8481C25.472 26.643 24.1472 26.643 23.3353 25.8481L17.2243 19.8238L11.0706 25.8481C10.2586 26.643 8.97657 26.643 8.16468 25.8481C7.35266 25.095 7.35266 23.7981 8.16468 23.0033Z" fill="#E60012"/>
</svg>
