<svg width="1000" height="1000" viewBox="0 0 1000 1000" fill="none" xmlns="http://www.w3.org/2000/svg">
<path d="M972.3 228.1L886.3 142.1C874.5 130.3 860.2 124.4 843.3 124.4C826.4 124.4 812.1 130.3 800.3 142.1L385.6 557.5L199.7 371C187.9 359.2 173.6 353.3 156.7 353.3C139.8 353.3 125.5 359.2 113.7 371L27.7 457C15.9 468.8 10 483.1 10 500C10 516.9 15.9 531.2 27.7 543L256.6 771.9L342.6 857.9C354.4 869.7 368.7 875.6 385.6 875.6C402.5 875.6 416.8 869.7 428.6 857.9L514.6 771.9L972.4 314.1C984.2 302.3 990.1 288 990.1 271.1C990 254.3 984.1 239.9 972.3 228.1Z" fill="white"/>
</svg>
