<svg width="33" height="33" viewBox="0 0 33 33" fill="none" xmlns="http://www.w3.org/2000/svg">
<path d="M16.5 1C7.95329 1 1 7.95329 1 16.5C1 25.0467 7.95329 32 16.5 32C25.0467 32 32 25.0467 32 16.5C32 7.95329 25.0467 1 16.5 1ZM17.0295 30.9276V29.5167C17.0295 29.224 16.7926 28.9872 16.5 28.9872C16.2074 28.9872 15.9705 29.224 15.9705 29.5167V30.9276C8.42842 30.654 2.34597 24.5716 2.0724 17.0295H3.49497C3.7876 17.0295 4.02446 16.7926 4.02446 16.5C4.02446 16.2074 3.7876 15.9705 3.49497 15.9705H2.0724C2.34597 8.42842 8.42842 2.34597 15.9705 2.0724V3.49144C15.9705 3.78407 16.2074 4.02093 16.5 4.02093C16.7926 4.02093 17.0295 3.78407 17.0295 3.49144V2.0724C24.5716 2.34597 30.654 8.42842 30.9276 15.9705H29.5167C29.224 15.9705 28.9872 16.2074 28.9872 16.5C28.9872 16.7926 29.224 17.0295 29.5167 17.0295H30.9276C30.654 24.5716 24.5716 30.654 17.0295 30.9276Z" fill="#3C3C3C" stroke="#3C3C3C" stroke-width="0.2"/>
<path d="M23.9802 15.9703H18.2669C18.0883 15.3763 17.6234 14.9117 17.0297 14.7331V7.15254C17.0297 6.85991 16.7928 6.62305 16.5002 6.62305C16.2076 6.62305 15.9707 6.85991 15.9707 7.15254V14.7331C15.2079 14.9625 14.647 15.6632 14.647 16.4998C14.647 17.5218 15.4783 18.3531 16.5002 18.3531C17.3368 18.3531 18.0375 17.7922 18.2669 17.0293H23.9802C24.2728 17.0293 24.5096 16.7925 24.5096 16.4998C24.5096 16.2072 24.2728 15.9703 23.9802 15.9703ZM16.5002 17.2941C16.0621 17.2941 15.706 16.9379 15.706 16.4998C15.706 16.0618 16.0621 15.7056 16.5002 15.7056C16.9383 15.7056 17.2944 16.0618 17.2944 16.4998C17.2944 16.9379 16.9383 17.2941 16.5002 17.2941Z" fill="#3C3C3C" stroke="#3C3C3C" stroke-width="0.2"/>
</svg>
