<svg width="23" height="22" viewBox="0 0 23 22" fill="none" xmlns="http://www.w3.org/2000/svg">
<path d="M21.4919 5.44226C21.1661 4.68031 20.6963 3.98984 20.1088 3.4095C19.5208 2.82743 18.8276 2.36487 18.0669 2.04697C17.278 1.71602 16.4319 1.54662 15.5777 1.5486C14.3793 1.5486 13.2101 1.88003 12.194 2.50606C11.9509 2.65581 11.72 2.8203 11.5012 2.99952C11.2824 2.8203 11.0515 2.65581 10.8084 2.50606C9.79233 1.88003 8.62309 1.5486 7.42469 1.5486C6.56175 1.5486 5.72554 1.71554 4.93552 2.04697C4.17224 2.36612 3.48431 2.82521 2.89362 3.4095C2.30535 3.98919 1.83542 4.67982 1.51048 5.44226C1.17259 6.23523 1 7.0773 1 7.94392C1 8.76144 1.1653 9.61333 1.49346 10.4799C1.76814 11.2042 2.16194 11.9554 2.66512 12.714C3.46243 13.9145 4.55874 15.1666 5.92001 16.4358C8.17582 18.5398 10.4098 19.9931 10.5046 20.0521L11.0807 20.4252C11.3359 20.5897 11.6641 20.5897 11.9193 20.4252L12.4954 20.0521C12.5902 19.9907 14.8217 18.5398 17.08 16.4358C18.4412 15.1666 19.5375 13.9145 20.3349 12.714C20.838 11.9554 21.2343 11.2042 21.5065 10.4799C21.8347 9.61333 22 8.76144 22 7.94392C22.0024 7.0773 21.8298 6.23523 21.4919 5.44226Z" stroke="#EE6262" stroke-width="2"/>
</svg>
