<svg xmlns="http://www.w3.org/2000/svg" width="18" height="14" viewBox="0 0 18 14" fill="none">
  <path d="M4.40546 13.3617C4.27842 13.3617 4.17573 13.2688 4.17573 13.1548V2.06898L0.892206 5.0259C0.802382 5.10679 0.657193 5.10679 0.567368 5.0259C0.477544 4.94501 0.477544 4.81427 0.567368 4.73338L4.24304 1.42332C4.26602 1.40263 4.29244 1.38732 4.32069 1.37718C4.32069 1.37718 4.321 1.37704 4.32161 1.37677C4.3455 1.36829 4.35446 1.35815 4.39788 1.3627C4.39834 1.36353 4.40271 1.3627 4.40546 1.3627C4.40822 1.3627 4.4135 1.3627 4.41304 1.3627C4.44888 1.37201 4.46519 1.3687 4.48931 1.37677C4.48931 1.37677 4.48977 1.37718 4.49023 1.37718C4.51849 1.38732 4.54491 1.40263 4.56788 1.42332L8.24356 4.73338C8.33338 4.81427 8.33338 4.94501 8.24356 5.0259C8.15373 5.10679 8.00854 5.10679 7.91872 5.0259L4.63519 2.06898V13.1548C4.63519 13.2688 4.5325 13.3617 4.40546 13.3617Z" fill="white"/>
  <path d="M13.5867 13.3619C13.5598 13.3611 13.5346 13.3563 13.5114 13.3474C13.4827 13.3377 13.4549 13.3224 13.4323 13.3013L9.75667 9.99124C9.66684 9.91035 9.66684 9.7796 9.75667 9.69871C9.84695 9.61782 9.9926 9.61782 10.0815 9.69871L13.365 12.6556V1.56982C13.365 1.45542 13.4682 1.36295 13.5948 1.36295C13.7213 1.36295 13.8245 1.45542 13.8245 1.56982V12.6556L17.108 9.69871C17.1978 9.61782 17.343 9.61782 17.4329 9.69871C17.5227 9.7796 17.5227 9.91035 17.4329 9.99124L13.7572 13.3013C13.7347 13.3224 13.7078 13.3377 13.6791 13.3474C13.6556 13.3563 13.6297 13.3611 13.6028 13.3619H13.5867Z" fill="white"/>
  <path d="M4.40546 13.3617C4.27842 13.3617 4.17573 13.2688 4.17573 13.1548V2.06898L0.892206 5.0259C0.802382 5.10679 0.657193 5.10679 0.567368 5.0259C0.477544 4.94501 0.477544 4.81427 0.567368 4.73338L4.24304 1.42332C4.26602 1.40263 4.29244 1.38732 4.32069 1.37718C4.32069 1.37718 4.321 1.37704 4.32161 1.37677C4.3455 1.36829 4.35446 1.35815 4.39788 1.3627C4.39834 1.36353 4.40271 1.3627 4.40546 1.3627C4.40822 1.3627 4.4135 1.3627 4.41304 1.3627C4.44888 1.37201 4.46519 1.3687 4.48931 1.37677C4.48931 1.37677 4.48977 1.37718 4.49023 1.37718C4.51849 1.38732 4.54491 1.40263 4.56788 1.42332L8.24356 4.73338C8.33338 4.81427 8.33338 4.94501 8.24356 5.0259C8.15373 5.10679 8.00854 5.10679 7.91872 5.0259L4.63519 2.06898V13.1548C4.63519 13.2688 4.5325 13.3617 4.40546 13.3617Z" stroke="white"/>
  <path d="M13.5867 13.3619C13.5598 13.3611 13.5346 13.3563 13.5114 13.3474C13.4827 13.3377 13.4549 13.3224 13.4323 13.3013L9.75667 9.99124C9.66684 9.91035 9.66684 9.7796 9.75667 9.69871C9.84695 9.61782 9.9926 9.61782 10.0815 9.69871L13.365 12.6556V1.56982C13.365 1.45542 13.4682 1.36295 13.5948 1.36295C13.7213 1.36295 13.8245 1.45542 13.8245 1.56982V12.6556L17.108 9.69871C17.1978 9.61782 17.343 9.61782 17.4329 9.69871C17.5227 9.7796 17.5227 9.91035 17.4329 9.99124L13.7572 13.3013C13.7347 13.3224 13.7078 13.3377 13.6791 13.3474C13.6556 13.3563 13.6297 13.3611 13.6028 13.3619H13.5867Z" stroke="white"/>
</svg>