<svg width="94" height="67" viewBox="0 0 94 67" fill="none" xmlns="http://www.w3.org/2000/svg">
<g clip-path="url(#clip0_1379_5928)">
<path d="M28.7883 65.2335H36.5876V63.8006L37.8878 65.2335H41.9042V64.5559C42.6848 65.0028 43.8167 65.2356 44.8624 65.2356H62.9288C64.6204 65.2356 65.9542 64.8244 66.962 63.9097V65.2314H72.914V63.9202C73.7325 64.6734 75.06 65.3615 76.9346 65.3615C78.0161 65.3615 79.0028 65.1244 79.7918 64.7216C80.1179 64.9755 80.7175 65.2734 81.4476 65.2734C83.1307 65.2734 84.2142 63.8594 84.2142 62.5209C84.2142 61.6775 83.7745 60.5929 82.7394 60.0789C82.8488 57.7229 82.0535 56.2124 81.153 55.2977C80.1474 54.2864 78.7272 53.7725 76.9346 53.7725H62.9288C61.799 53.7725 60.3788 53.9403 59.148 54.9053L59.0092 53.7725H54.8813L53.9071 55.7319L52.9835 53.7725H48.9377L48.7715 55.0165C47.6711 54.0515 46.0595 53.6718 44.8645 53.6718C43.8504 53.6718 42.9225 53.8438 41.9063 54.3641V53.7725H36.4845V54.9263L35.4452 53.7725H21.5235L19.0366 56.6844C17.0842 56.3445 15.4663 56.8942 14.2081 57.6641C12.485 58.7236 11.048 61.046 11.6266 63.102C11.7886 63.6748 12.5355 65.5461 15.3653 65.5566C17.6017 65.5566 19.0934 64.623 20.3432 63.5279L21.1616 65.2314H23.2129L24.2417 66.9979L25.746 66.8007C27.1073 66.6056 28.1508 66.0056 28.7862 65.2314L28.7883 65.2335Z" fill="white"/>
<path d="M55.8491 17.5262C55.8491 15.4828 54.6856 13.9555 52.2619 13.9555H48.0898C46.8506 13.9555 45.725 14.5346 44.9549 15.4703L35.7881 26.1383C34.6099 25.8089 32.0347 25.2656 29.9097 25.2509C26.2047 25.2236 22.8279 26.6565 20.1917 29.3775C18.2519 31.379 16.6676 35.3 18.3844 39.07C19.7414 42.0533 22.5944 44.0317 26.5939 44.1471C32.5838 44.317 36.3688 40.1589 39.6656 36.3826C41.7149 36.8945 43.6757 37.1672 46.0111 37.2616V40.4757C46.0111 42.3617 47.5491 43.8953 49.4405 43.8953H54.2648C52.5017 45.0618 51.7422 46.5073 51.6454 47.8521C51.5234 49.5829 53.2444 52.9689 58.5716 52.9689C60.8291 52.9689 62.8993 52.0102 64.3973 50.271C65.6513 48.8171 66.4066 46.9457 66.6149 44.8121C69.1817 43.2303 71.7695 41.4869 73.8608 39.4645C76.8105 36.6113 78.3148 33.5525 78.0497 30.2776C77.8246 27.4894 75.4556 25.2467 72.6489 25.2467C69.8423 25.2467 67.934 26.7257 67.0588 28.981C67.0588 27.5334 66.5539 26.3754 65.2557 25.8949C66.9368 24.8061 68.0519 22.9159 68.0519 20.7718C68.0519 17.4046 65.3041 14.6667 61.9273 14.6667C58.8114 14.6667 56.2257 17.0039 55.8491 20.0123V17.5346V17.5262Z" fill="white"/>
<path d="M92.144 5.38543C92.0956 5.38543 92.0493 5.38962 92.003 5.39172V5.15465C92.003 2.75251 90.6754 1.90074 89.5393 1.90074C89.1059 1.90074 88.7061 2.00773 88.3485 2.21963C88.0118 2.01403 87.6247 1.90074 87.2145 1.90074C86.9557 1.90074 86.7074 1.9385 86.476 2.01193H83.8755L83.8818 2.12522C83.5536 1.98046 83.1896 1.90074 82.792 1.90074C82.2492 1.90074 81.7527 2.05179 81.3256 2.32033C81.1972 1.70353 80.8816 1.16856 80.4104 0.801415C79.6908 0.190913 78.8576 0.106995 78.1339 0.106995C77.5322 0.106995 76.8673 0.176227 76.4402 0.281125L75.5482 0.501409V3.20776C75.0243 2.27417 74.1007 1.90074 73.217 1.90074C72.9077 1.90074 72.6006 1.9406 72.3102 2.01193H68.3064C68.3128 1.9427 68.317 1.87347 68.317 1.80214C68.3022 1.05527 67.9067 0.444765 67.3218 0.165738V0.157346H67.305C67.0904 0.0566445 66.8505 0 66.5938 0C66.3372 0 66.1036 0.0566445 65.889 0.157346H63.8356L63.4611 1.6322L63.1097 0.157346H59.6067L60.9343 5.32459L59.8297 5.42948V5.15465C59.8297 2.75251 58.5042 1.90074 57.366 1.90074C56.9305 1.90074 56.5329 2.00773 56.1752 2.21753C55.8386 2.01193 55.4514 1.90074 55.0412 1.90074C54.8434 1.90074 54.5867 1.92382 54.309 2.01193H51.7254L51.7317 2.13361C51.3993 1.98256 51.0269 1.90074 50.6229 1.90074C50.0801 1.90074 49.5836 2.05179 49.1544 2.32033C49.026 1.69934 48.7062 1.16646 48.235 0.799317C47.5154 0.190913 46.6844 0.106995 45.9648 0.106995C45.3631 0.106995 44.6982 0.17413 44.269 0.281125L43.377 0.499311V3.32105C42.891 2.42942 42.0641 1.90074 41.0269 1.90074C40.381 1.90074 39.8003 2.11263 39.3227 2.48607L39.1775 2.38956C38.7105 2.07906 38.0982 1.90074 37.5007 1.90074C36.2741 1.90074 35.2958 2.67069 34.9802 3.7784H33.2087C32.7753 2.61404 31.8559 1.90074 30.6545 1.90074C30.2506 1.90074 29.8719 1.98675 29.5268 2.142V2.01403H28.6011V0.255949L25.3 1.47905V2.01193H24.8435C24.6099 1.9364 24.368 1.90074 24.1281 1.90074C23.863 1.90074 23.619 1.9406 23.3939 2.01193H20.7408L20.7471 2.13151C20.4147 1.98256 20.0465 1.90074 19.6447 1.90074C18.8599 1.90074 18.1698 2.21333 17.6459 2.75041C17.1599 2.15039 16.4951 1.90074 15.8849 1.90074C15.4515 1.90074 15.0539 2.00773 14.6983 2.21753C14.3617 2.01193 13.9767 1.90074 13.5664 1.90074C13.3118 1.90074 13.0657 1.9385 12.8342 2.01193H11.8412C11.8475 1.9448 11.8517 1.87766 11.8517 1.80843C11.837 0.778338 11.0943 0 10.1265 0C9.874 0 9.63415 0.0566445 9.41955 0.157346H6.58556V1.3322L6.28259 0.157346H3.21086L0.919678 9.16383H4.3596L4.73621 7.59876L5.13175 9.16383H6.58766H9.92029H10.3369H18.3507V8.96033C18.761 9.16173 19.2281 9.27292 19.7435 9.27292C20.1601 9.27292 20.5262 9.21628 20.8376 9.13236V9.16383H26.6676V9.06942C26.9558 9.19949 27.2735 9.27292 27.6101 9.27292C28.0688 9.27292 28.5022 9.18481 28.8325 9.02536L29.1691 8.86172C29.6215 9.12816 30.1538 9.27292 30.7492 9.27292C31.4224 9.27292 32.0768 9.11977 32.6385 8.83235L33.398 8.44213L33.1666 7.08896H33.3265L33.3433 6.9421H34.9171L34.633 8.2701L35.2621 8.71067C35.7797 9.07362 36.4361 9.27292 37.1094 9.27292C37.9152 9.27292 38.6011 8.99809 39.0829 8.52395C39.613 9.00229 40.3094 9.27292 41.1216 9.27292C41.7948 9.27292 42.447 9.11977 43.0109 8.83235L43.3728 8.64773V8.97501L44.3658 9.13026C44.6646 9.17642 45.1464 9.23306 45.7397 9.23306C46.9831 9.23306 47.8857 8.92886 48.4874 8.33094C49.0387 8.92886 49.8066 9.27502 50.7239 9.27502C51.1384 9.27502 51.5045 9.21837 51.8137 9.13655V9.16593H58.2034L57.8078 10.5695L60.8627 10.2002L61.1405 9.62538C61.3172 9.26243 61.5044 8.77571 61.6812 8.24283L61.9189 9.16802H64.8497L64.9296 8.87641V9.16802H70.888L71.0752 8.55123C71.5002 9.00438 72.0893 9.27712 72.7605 9.27712C73.0129 9.27712 73.2591 9.23935 73.4926 9.16802H76.2235L76.2109 9.08201L76.5412 9.13446C76.9788 9.20369 77.4417 9.23726 77.9172 9.23726C79.1438 9.23726 80.0401 8.93935 80.6565 8.33304C81.2056 8.93305 81.9757 9.27712 82.893 9.27712C83.3075 9.27712 83.6735 9.22047 83.9849 9.13865V9.16802H91.5275C91.7148 9.23726 91.9146 9.27712 92.1292 9.27712H92.1419C93.1538 9.27712 93.9176 8.44004 93.9176 7.33232C93.9176 6.22461 93.1538 5.38962 92.1419 5.38962L92.144 5.38543Z" fill="white"/>
<path d="M3.88622 6.10922L3.42966 8.00367H2.4303L4.13448 1.31541H5.36949L7.09681 8.00367H6.05537L5.57567 6.10922H3.88622ZM5.40946 5.18822L4.98868 3.53714C4.8919 3.13014 4.80353 2.67698 4.72358 2.28676H4.70465C4.6247 2.67488 4.54895 3.13853 4.45428 3.53714L4.04401 5.18822H5.40736H5.40946Z" fill="#E0040B"/>
<path d="M8.74419 1.31541H7.76797V8.00576H8.74419V1.31541Z" fill="#E0040B"/>
<path d="M10.6756 1.82522C10.6756 2.19026 10.4631 2.47978 10.1223 2.47978C9.78143 2.47978 9.58787 2.19026 9.58787 1.82522C9.58787 1.46018 9.80668 1.16017 10.1286 1.16017C10.4505 1.16017 10.6714 1.44549 10.6756 1.82522ZM9.64047 3.1721H10.6209V8.00367H9.64047V3.1721Z" fill="#E0040B"/>
<path d="M11.5151 4.61339C11.5151 4.05534 11.5045 3.5896 11.4814 3.1721H12.3167L12.3608 3.8875H12.3819C12.5691 3.51197 12.9163 3.06091 13.5664 3.06091C14.0692 3.06091 14.4606 3.42176 14.6289 3.95883H14.6457C14.7762 3.6861 14.9361 3.49099 15.1149 3.35253C15.3295 3.16581 15.5714 3.06091 15.8849 3.06091C16.5287 3.06091 17.1725 3.61057 17.1725 5.15466V8.00367H16.2279V5.33509C16.2279 4.53157 16.0091 4.05534 15.542 4.05534C15.2096 4.05534 14.9634 4.34905 14.8666 4.70151C14.8414 4.81689 14.8161 4.96585 14.8161 5.10641V8.00158H13.8715V5.20292C13.8715 4.52948 13.659 4.05324 13.2108 4.05324C12.8447 4.05324 12.6028 4.40989 12.5186 4.74766C12.4745 4.86934 12.4597 5.00781 12.4597 5.14208V8.00158H11.5151V4.6113V4.61339Z" fill="#E0040B"/>
<path d="M18.6958 5.92881C18.7189 6.80155 19.2638 7.17708 19.8803 7.17708C20.3305 7.17708 20.6503 7.09946 20.9449 6.96099L21.0858 7.80227C20.7534 7.9743 20.2927 8.11277 19.7435 8.11277C18.498 8.11277 17.7679 7.14142 17.7679 5.66237C17.7679 4.32388 18.4096 3.06091 19.6446 3.06091C20.8797 3.06091 21.2983 4.35115 21.2983 5.41481C21.2983 5.64558 21.2815 5.82391 21.2647 5.92881H18.6958ZM20.3831 5.07914C20.3936 4.63227 20.2316 3.90009 19.5878 3.90009C18.9882 3.90009 18.7379 4.57983 18.6958 5.07914H20.3831Z" fill="#E0040B"/>
<path d="M22.0158 4.61339C22.0158 4.05534 22.0074 3.5896 21.9842 3.1721H22.8363L22.8847 3.90009H22.9057C23.0741 3.52036 23.4906 3.06091 24.1281 3.06091C24.7656 3.06091 25.4894 3.61057 25.4894 5.13788V8.00367H24.5237V5.27634C24.5237 4.57983 24.3175 4.05744 23.7894 4.05744C23.4044 4.05744 23.1351 4.4057 23.032 4.77074C23.0004 4.88193 22.992 5.02669 22.992 5.17145V8.00577H22.0158V4.61549V4.61339Z" fill="#E0040B"/>
<path d="M27.425 1.93221V3.1721H28.3507V4.0868H27.425V6.21832C27.425 6.80154 27.5533 7.10994 27.9215 7.10994C28.1046 7.10994 28.1908 7.09106 28.3002 7.0491L28.3149 7.98269C28.1719 8.05192 27.9215 8.11066 27.6122 8.11066C27.2567 8.11066 26.9579 7.95332 26.777 7.70366C26.5708 7.42673 26.4782 6.99036 26.4782 6.35678V4.08471H25.9291V3.17H26.4782V2.28047L27.4229 1.93011L27.425 1.93221Z" fill="#E0040B"/>
<path d="M29.7056 5.92881C29.7309 6.80155 30.2758 7.17708 30.8923 7.17708C31.3404 7.17708 31.6623 7.09946 31.9547 6.96099L32.0978 7.80227C31.7633 7.9743 31.3067 8.11277 30.7534 8.11277C29.5121 8.11277 28.7799 7.14142 28.7799 5.66237C28.7799 4.32388 29.4237 3.06091 30.6566 3.06091C31.8895 3.06091 32.3082 4.35115 32.3082 5.41481C32.3082 5.64558 32.2914 5.82391 32.2787 5.92881H29.7056ZM31.3951 5.07914C31.4014 4.63227 31.2457 3.90009 30.5998 3.90009C29.9981 3.90009 29.7519 4.57983 29.7056 5.07914H31.3951Z" fill="#E0040B"/>
<path d="M35.2095 4.93857H33.2045V5.78194H35.2095V4.93857Z" fill="#E0040B"/>
<path d="M36.1395 6.88127C36.3604 7.05121 36.7791 7.22953 37.1262 7.22953C37.5491 7.22953 37.7384 7.01135 37.7384 6.69246C37.7384 6.37357 37.5807 6.20154 37.1073 5.98965C36.3583 5.66237 36.0448 5.14417 36.0511 4.57983C36.0511 3.72806 36.6107 3.06091 37.5028 3.06091C37.9257 3.06091 38.2981 3.20357 38.5211 3.35253L38.3318 4.21478C38.1655 4.0973 37.8584 3.93785 37.5196 3.93785C37.1809 3.93785 36.9852 4.14765 36.9852 4.44346C36.9852 4.73927 37.1641 4.89871 37.6522 5.1169C38.3486 5.43579 38.6705 5.87845 38.6768 6.59595C38.6768 7.4708 38.134 8.11277 37.1178 8.11277C36.6528 8.11277 36.2362 7.96381 35.9543 7.76451L36.1437 6.88127H36.1395Z" fill="#E0040B"/>
<path d="M40.0801 5.92881C40.1033 6.80155 40.6461 7.17708 41.2625 7.17708C41.7107 7.17708 42.0326 7.09946 42.3271 6.96099L42.4702 7.80227C42.1357 7.9743 41.6791 8.11277 41.1258 8.11277C39.8845 8.11277 39.1502 7.14142 39.1502 5.66237C39.1502 4.32388 39.794 3.06091 41.0269 3.06091C42.2598 3.06091 42.6806 4.35115 42.6806 5.41481C42.6806 5.64558 42.6637 5.82391 42.6469 5.92881H40.078H40.0801ZM41.7696 5.07914C41.7759 4.63227 41.6202 3.90009 40.9722 3.90009C40.3726 3.90009 40.1222 4.57983 40.0822 5.07914H41.7717H41.7696Z" fill="#E0040B"/>
<path d="M59.4173 9.2037C59.6298 8.44844 59.8423 7.40576 59.9475 6.58337L60.9658 6.48686C60.7407 7.41625 60.3873 8.4904 60.0822 9.12398L59.4194 9.2037H59.4173Z" fill="#E0040B"/>
<path d="M62.8404 8.00367L61.1215 1.31541H62.1777L62.9014 4.34904C63.1055 5.19452 63.278 5.97705 63.4232 6.79315H63.44C63.5831 6.00013 63.7725 5.18612 63.985 4.37002L64.7592 1.31541H65.7901L63.9534 8.00367H62.8425H62.8404Z" fill="#E0040B"/>
<path d="M67.1409 1.82522C67.1409 2.19026 66.9305 2.47978 66.5917 2.47978C66.2698 2.47978 66.0573 2.19026 66.0573 1.82522C66.0573 1.46018 66.2761 1.16017 66.5981 1.16017C66.92 1.16017 67.1346 1.44549 67.143 1.82522M66.112 3.1721H67.0883V8.00367H66.112V3.1721Z" fill="#E0040B"/>
<path d="M68.6809 3.1721L69.3037 5.6225C69.411 6.05049 69.4931 6.43651 69.5604 6.83512H69.5835C69.653 6.43651 69.7455 6.06307 69.8444 5.6225L70.4524 3.1721H71.4771L70.0106 8.00367H69.0533L67.629 3.1721H68.6788H68.6809Z" fill="#E0040B"/>
<path d="M74.8055 6.84141C74.8055 7.28198 74.8202 7.70367 74.8644 8.00367H73.9849L73.9239 7.4708H73.8987C73.663 7.84423 73.2612 8.11277 72.7647 8.11277C71.9946 8.11277 71.557 7.40366 71.557 6.67358C71.557 5.45257 72.4133 4.83997 73.8335 4.84836V4.76864C73.8335 4.45185 73.7304 3.92527 73.0571 3.92527C72.6763 3.92527 72.285 4.07212 72.022 4.28402L71.8347 3.48889C72.1145 3.27071 72.6111 3.06091 73.2191 3.06091C74.4499 3.06091 74.8055 4.04695 74.8055 5.10012V6.84141ZM73.8587 5.64348C73.1728 5.62041 72.5185 5.80922 72.5185 6.5435C72.5185 7.01974 72.7626 7.23792 73.0676 7.23792C73.4548 7.23792 73.7409 6.92113 73.825 6.57287C73.8482 6.48476 73.8566 6.38406 73.8566 6.30434V5.64139L73.8587 5.64348Z" fill="#E0040B"/>
<path d="M76.7285 1.40563C77.0356 1.3301 77.5911 1.26717 78.136 1.26717C78.8598 1.26717 79.2974 1.37836 79.6592 1.69515C79.9896 1.9427 80.2105 2.38118 80.2105 2.94342C80.2105 3.56022 79.9033 4.12037 79.3289 4.38891V4.41199C79.8886 4.59031 80.3998 5.14417 80.3998 6.06936C80.3998 6.66308 80.1978 7.13092 79.8886 7.44981C79.5099 7.86521 78.8871 8.0729 77.9193 8.0729C77.3786 8.0729 76.9704 8.02255 76.7285 7.98479V1.40563ZM77.6858 4.04694H78.1823C78.8576 4.04694 79.2343 3.64833 79.2343 3.08399C79.2343 2.4609 78.8576 2.16928 78.2391 2.16928C77.953 2.16928 77.7909 2.19236 77.6836 2.21963V4.04694H77.6858ZM77.6858 7.11834C77.812 7.14981 77.9782 7.14981 78.1991 7.14981C78.8198 7.14981 79.3731 6.8519 79.3731 6.02741C79.3731 5.25536 78.8387 4.93857 78.1676 4.93857H77.6858V7.11834Z" fill="#E0040B"/>
<path d="M81.8473 5.92881C81.8747 6.80155 82.4196 7.17708 83.0339 7.17708C83.4842 7.17708 83.804 7.09946 84.0964 6.96099L84.2395 7.80227C83.9071 7.9743 83.4505 8.11277 82.8972 8.11277C81.6538 8.11277 80.9216 7.14142 80.9216 5.66237C80.9216 4.32388 81.5675 3.06091 82.7962 3.06091C84.0249 3.06091 84.452 4.35115 84.452 5.41481C84.452 5.64558 84.4373 5.82391 84.4162 5.92881H81.8494H81.8473ZM83.5347 5.07914C83.5452 4.63227 83.3895 3.90009 82.7394 3.90009C82.1398 3.90009 81.8894 4.57983 81.8473 5.07914H83.5347Z" fill="#E0040B"/>
<path d="M85.1652 4.61339C85.1652 4.05534 85.1568 3.5896 85.1316 3.1721H85.971L86.011 3.8875H86.0363C86.2235 3.51197 86.5707 3.06091 87.2187 3.06091C87.7215 3.06091 88.1128 3.42176 88.2854 3.95674H88.298C88.4347 3.684 88.5904 3.48889 88.7693 3.35043C88.986 3.16371 89.2258 3.06091 89.5414 3.06091C90.181 3.06091 90.8269 3.61057 90.8269 5.15466V8.00367H89.8801V5.33509C89.8801 4.53157 89.6613 4.05534 89.1943 4.05534C88.8618 4.05534 88.6199 4.34905 88.5168 4.70151C88.4915 4.81689 88.4684 4.96585 88.4684 5.10641V8.00158H87.5237V5.20292C87.5237 4.52948 87.3133 4.05324 86.8631 4.05324C86.4991 4.05324 86.2551 4.40989 86.1688 4.74766C86.1288 4.86934 86.1141 5.00781 86.1141 5.14208V8.00158H85.1673V4.6113L85.1652 4.61339Z" fill="#E0040B"/>
<path d="M44.5573 1.40563C44.8645 1.3301 45.422 1.26717 45.969 1.26717C46.6886 1.26717 47.1283 1.37836 47.4902 1.69515C47.8247 1.9427 48.0435 2.38118 48.0435 2.94342C48.0435 3.56022 47.7384 4.12037 47.1598 4.38891V4.41199C47.7216 4.59031 48.2307 5.14417 48.2307 6.06936C48.2307 6.66308 48.0267 7.13092 47.7216 7.44981C47.3429 7.86521 46.7159 8.0729 45.7439 8.0729C45.2116 8.0729 44.7971 8.02255 44.5573 7.98479V1.40563ZM45.5167 4.04694H46.0132C46.6865 4.04694 47.0631 3.64833 47.0631 3.08399C47.0631 2.4609 46.6844 2.16928 46.0679 2.16928C45.7839 2.16928 45.6198 2.19236 45.5146 2.21963V4.04694H45.5167ZM45.5167 7.11834C45.6408 7.14981 45.8091 7.14981 46.0279 7.14981C46.6507 7.14981 47.204 6.8519 47.204 6.02741C47.204 5.25536 46.6675 4.93857 45.9964 4.93857H45.5167V7.11834Z" fill="#E0040B"/>
<path d="M49.6761 5.92881C49.6993 6.80155 50.2463 7.17708 50.8628 7.17708C51.3109 7.17708 51.6328 7.09946 51.9273 6.96099L52.0662 7.80227C51.7359 7.9743 51.2772 8.11277 50.7281 8.11277C49.4826 8.11277 48.7504 7.14142 48.7504 5.66237C48.7504 4.32388 49.3942 3.06091 50.6271 3.06091C51.86 3.06091 52.2829 4.35115 52.2829 5.41481C52.2829 5.64558 52.2661 5.82391 52.2492 5.92881H49.6782H49.6761ZM51.3656 5.07914C51.3719 4.63227 51.212 3.90009 50.5703 3.90009C49.9686 3.90009 49.7203 4.57983 49.674 5.07914H51.3635H51.3656Z" fill="#E0040B"/>
<path d="M52.9961 4.61339C52.9961 4.05534 52.9856 3.5896 52.9646 3.1721H53.7998L53.8398 3.8875H53.8651C54.0523 3.51197 54.3995 3.06091 55.0454 3.06091C55.5482 3.06091 55.9416 3.42176 56.1121 3.95674H56.1289C56.2593 3.684 56.4171 3.48889 56.596 3.35043C56.8106 3.16371 57.0546 3.06091 57.3681 3.06091C58.0098 3.06091 58.6536 3.61057 58.6536 5.15466V8.00367H57.711V5.33509C57.711 4.53157 57.4922 4.05534 57.0231 4.05534C56.6906 4.05534 56.4466 4.34905 56.3477 4.70151C56.3225 4.81689 56.2993 4.96585 56.2993 5.10641V8.00158H55.3547V5.20292C55.3547 4.52948 55.1401 4.05324 54.6898 4.05324C54.3279 4.05324 54.086 4.40989 53.9997 4.74766C53.9576 4.86934 53.9408 5.00781 53.9408 5.14208V8.00158H52.9961V4.6113V4.61339Z" fill="#E0040B"/>
<path d="M92.1313 8.11276C91.7863 8.11276 91.5401 7.77499 91.5401 7.32813C91.5401 6.88126 91.7905 6.54559 92.144 6.54559C92.4974 6.54559 92.7415 6.86029 92.7415 7.32813C92.7415 7.79597 92.5016 8.11276 92.144 8.11276H92.1313Z" fill="#E0040B"/>
<path d="M26.0343 61.4426C26.0343 62.9405 25.8996 63.6895 25.1275 63.8972L24.8372 63.9748L25.3232 64.8098L25.4767 64.7888C27.0547 64.5769 27.8878 63.5678 27.8878 61.8663V55.8264H26.0343V61.4405V61.4426Z" fill="#E0040B"/>
<path d="M31.4414 55.8305H29.5983V63.2048H31.4414V55.8305Z" fill="#E0040B"/>
<path d="M44.8666 55.7026C42.5291 55.7026 41.0795 57.1648 41.0795 59.5166C41.0795 61.8684 42.5312 63.3349 44.8666 63.3349C47.2019 63.3349 48.6536 61.8726 48.6536 59.5166C48.6536 57.1606 47.204 55.7026 44.8666 55.7026ZM46.7117 59.5166C46.7117 61.1782 45.9711 62.2964 44.8666 62.2964C43.762 62.2964 43.0193 61.1803 43.0193 59.5166C43.0193 57.853 43.762 56.7348 44.8666 56.7348C45.9711 56.7348 46.7117 57.853 46.7117 59.5166Z" fill="#E0040B"/>
<path d="M62.933 55.7026C60.5955 55.7026 59.1438 57.1648 59.1438 59.5166C59.1438 61.8684 60.5955 63.3349 62.933 63.3349C65.2705 63.3349 66.7201 61.8726 66.7201 59.5166C66.7201 57.1606 65.2684 55.7026 62.933 55.7026ZM64.776 59.5166C64.776 61.1782 64.0334 62.2964 62.933 62.2964C61.8326 62.2964 61.0836 61.1803 61.0836 59.5166C61.0836 57.853 61.8263 56.7348 62.933 56.7348C64.0397 56.7348 64.776 57.853 64.776 59.5166Z" fill="#E0040B"/>
<path d="M76.9389 55.7026C74.6035 55.7026 73.1518 57.1648 73.1518 59.5166C73.1518 61.8684 74.6035 63.3349 76.9389 63.3349C79.2742 63.3349 80.7301 61.8726 80.7301 59.5166C80.7301 57.1606 79.2784 55.7026 76.9389 55.7026ZM78.7861 59.5166C78.7861 61.1782 78.0434 62.2964 76.9389 62.2964C75.8343 62.2964 75.0937 61.1803 75.0937 59.5166C75.0937 57.853 75.8343 56.7348 76.9389 56.7348C78.0434 56.7348 78.7861 57.853 78.7861 59.5166Z" fill="#E0040B"/>
<path d="M22.4576 55.8264C22.4576 55.8264 20.7618 57.7963 19.7456 58.9817C18.5632 58.5432 17.0463 58.3082 15.2748 59.395C13.6001 60.423 12.3419 63.5195 15.3737 63.5321C16.878 63.5384 18.3402 62.9531 20.1896 60.767C20.2422 60.7041 20.3389 60.5929 20.3894 60.5341C21.2163 61.1363 21.879 61.9796 22.4555 63.2069H24.2901V55.8284H22.4555L22.4576 55.8264ZM19.0471 59.7978C17.9594 61.1069 17.0863 61.9796 16.3983 62.3908C14.8224 63.3328 14.389 61.4342 16.3499 60.167C17.1094 59.6761 18.2624 59.4621 19.0471 59.7957V59.7978ZM21.109 59.6866C21.6245 59.0761 22.2009 58.39 22.4576 58.0837V60.8446C22.0831 60.4334 21.6266 60.0327 21.109 59.6866Z" fill="#E0040B"/>
<path d="M70.8816 63.2048V57.0536C71.0689 57.0536 72.1545 57.104 72.914 57.2236V55.8305H66.9683V57.2236C67.7279 57.104 68.8135 57.0536 69.0007 57.0536V63.2048H70.8816Z" fill="#E0040B"/>
<path d="M55.9038 58.9334L53.844 63.2048H53.3054L51.2667 58.8747C51.273 58.9187 51.2772 58.9691 51.273 59.0215C51.1026 60.3768 50.9196 62.4936 50.9006 63.2048H49.4026C49.6951 61.7132 50.3305 57.3096 50.5009 55.8305H51.7022L53.863 60.3453L56.1394 55.8305H57.2187C57.406 57.3075 57.7132 59.7831 58.317 63.2048H56.2236C56.1983 62.4705 56.0342 60.3747 55.8996 59.0803C55.8975 59.0278 55.8996 58.9775 55.9059 58.9334H55.9038Z" fill="#E0040B"/>
<path d="M38.3402 59.932C38.4075 60.0097 38.4874 60.1292 38.5464 60.2299L38.5211 59.7348V55.8305H39.8718V63.2048H38.7925L34.7593 58.7551C34.6793 58.6754 34.5889 58.539 34.53 58.4362L34.5552 58.9187V63.2048H33.2045V55.8305H34.5552L38.3423 59.932H38.3402Z" fill="#E0040B"/>
<path d="M82.1819 62.5188C82.1819 62.1181 81.8515 61.7887 81.4497 61.7887C81.0478 61.7887 80.7175 62.116 80.7175 62.5188H80.808C80.808 62.1684 81.0962 61.881 81.4497 61.881C81.8032 61.881 82.0893 62.1684 82.0893 62.5188H82.1819Z" fill="#E0040B"/>
<path d="M82.0893 62.5188C82.0893 62.8692 81.8032 63.1566 81.4497 63.1566C81.0962 63.1566 80.808 62.8692 80.808 62.5188H80.7196C80.7196 62.9195 81.0457 63.2468 81.4497 63.2468C81.8536 63.2468 82.1798 62.9195 82.1798 62.5188H82.0893Z" fill="#E0040B"/>
<path d="M81.2793 62.6048H81.5107C81.618 62.6048 81.6243 62.6489 81.6243 62.7685C81.6243 62.8524 81.6285 62.8964 81.639 62.9384H81.801V62.9132C81.7695 62.9006 81.7695 62.8692 81.7695 62.7454C81.7695 62.5859 81.74 62.5608 81.6832 62.5293C81.7506 62.502 81.7905 62.4202 81.7905 62.3279C81.7905 62.2566 81.7569 62.0866 81.5696 62.0866H81.1488V62.9363H81.2919V62.2314H81.5444C81.6306 62.2314 81.6475 62.2985 81.6475 62.3447C81.6475 62.4265 81.6096 62.4601 81.5338 62.4601H81.2835V62.6027L81.2793 62.6048Z" fill="#E0040B"/>
<path d="M61.9273 24.7914C64.1575 24.7914 65.9648 22.9893 65.9648 20.7634C65.9648 18.5375 64.1575 16.7395 61.9273 16.7395C59.6972 16.7395 57.892 18.5417 57.892 20.7634C57.892 22.9851 59.6993 24.7914 61.9273 24.7914Z" fill="#E0040B"/>
<path d="M60.4672 27.3782C58.6746 27.3782 56.9494 28.9684 53.6105 30.1517C53.6084 30.1517 53.6105 17.329 53.6105 17.3206C53.6105 16.643 52.9835 16.0367 52.264 16.0367H48.0919C47.5112 16.0367 47.0378 16.2885 46.5813 16.771L36.4782 28.5342C35.401 28.1586 33.5243 27.6153 31.1742 27.3908C26.9306 26.988 23.6463 28.6496 21.7465 30.7643C17.4376 35.5623 20.5451 42.0638 26.5939 42.0638C30.5619 42.0638 33.1308 40.4505 36.9368 36.3155C37.9509 35.214 38.9124 34.0329 38.9124 34.0329L38.9209 34.0224C41.7233 34.8406 44.2354 35.2182 48.094 35.2182V40.4715C48.094 41.21 48.6957 41.81 49.4363 41.81H52.2619C53.0025 41.81 53.6042 41.21 53.6042 40.4715C53.6042 40.4715 53.6042 37.8113 53.6042 34.2972C55.5482 33.7119 57.3239 32.9965 59.2427 31.9538L59.2364 43.1631C58.1907 43.8681 55.2263 45.901 55.2263 45.901C53.0256 47.4597 53.6189 48.7563 54.6435 49.6416C55.6955 50.55 57.0672 50.8836 58.5695 50.8836C61.8747 50.8836 64.572 48.0472 64.5846 43.6037C69.9601 40.3519 76.2635 36.1203 75.9858 30.6993C75.9858 28.8237 74.3952 27.3761 72.6468 27.3761C70.8101 27.3761 69.3205 28.8614 69.3205 30.693C69.3205 31.7629 69.8297 32.7091 70.6166 33.3175C69.6508 35.5392 67.4186 37.5197 64.593 39.54V28.744C64.5762 27.9866 63.9471 27.3761 63.1834 27.3761H60.4672V27.3782ZM33.3917 32.1217L31.3299 34.2972C29.7162 36.0029 27.8416 38.3001 25.9165 38.3001C25.1401 38.3001 24.5636 37.9141 24.2123 37.3413C23.6274 36.3889 23.6695 34.9161 24.4437 33.8378C26.0911 31.5447 28.5064 31.1713 31.0437 31.5258C32.2072 31.6895 32.8258 31.893 33.3917 32.1217ZM48.0961 23.1508V31.016C46.1016 31.058 44.1449 30.7979 42.0641 30.2985L48.0961 23.1508Z" fill="#E0040B"/>
</g>
<defs>
<clipPath id="clip0_1379_5928">
<rect width="93" height="67" fill="white" transform="translate(0.919678)"/>
</clipPath>
</defs>
</svg>
