<svg width="44" height="18" viewBox="0 0 44 18" fill="none" xmlns="http://www.w3.org/2000/svg">
<path d="M31.7393 2.8616L30.93 5.08131H32.557L31.7393 2.8616Z" fill="black"/>
<path d="M3.77012 2.8616L2.96994 5.08131H4.57673L3.77012 2.8616Z" fill="black"/>
<path d="M22.3391 3.17714C22.1995 3.08787 21.9845 3.07645 21.7806 3.07645H20.3291V4.31278H21.7613C21.9882 4.31278 22.1793 4.30863 22.3437 4.1986C22.4953 4.10828 22.5863 3.91209 22.5863 3.66918C22.5863 3.43043 22.4916 3.25811 22.3391 3.17714Z" fill="black"/>
<path d="M27.3876 12.7551C27.2443 12.6586 27.033 12.6544 26.8253 12.6544H25.3738V13.9051H26.806C27.0357 13.9051 27.2314 13.8968 27.3903 13.792C27.5428 13.6861 27.6338 13.4962 27.6338 13.2564C27.631 13.0166 27.5401 12.8443 27.3876 12.7551Z" fill="black"/>
<path d="M21.651 12.654H20.115V14.0736H21.6363C22.0893 14.0736 22.3713 13.8202 22.3713 13.3394C22.3704 12.8492 22.0773 12.654 21.651 12.654Z" fill="black"/>
<path d="M43.4121 13.4901C43.4039 13.4808 43.3947 13.4704 43.3864 13.4631C43.6096 13.2991 43.7584 13.0147 43.7584 12.6909V11.5044C43.7584 10.9948 43.3938 10.5837 42.9437 10.5837H40.583C39.8473 10.5837 39.2925 10.8287 38.8883 11.1982C38.7753 10.8411 38.4851 10.5837 38.1296 10.5837H35.7689C35.1195 10.5837 34.6079 10.7653 34.2184 11.0643C34.077 10.7788 33.8225 10.5837 33.5176 10.5837H29.5862C29.2693 10.5837 29.002 10.7923 28.867 11.0903C28.811 11.0456 28.7696 10.9937 28.7108 10.9543C28.1404 10.6096 27.5342 10.5837 26.9096 10.5837H24.1879C23.871 10.5837 23.6028 10.7944 23.4687 11.0944C23.0545 10.7903 22.4748 10.5837 21.6509 10.5837H17.8867C17.6598 10.5837 17.444 10.6875 17.2888 10.8764L16.3968 11.9632L15.5408 10.8889C15.3874 10.6906 15.1678 10.5827 14.9354 10.5827H10.1976C9.74751 10.5827 9.38377 10.9948 9.38377 11.5034V17.0744C9.38377 17.5841 9.74843 17.9951 10.1976 17.9951H14.8647C15.0916 17.9951 15.3075 17.8882 15.4618 17.6993L16.361 16.6L17.2144 17.6847C17.3687 17.882 17.591 17.993 17.8233 17.993H20.1133C20.5643 17.993 20.928 17.5809 20.928 17.0744V16.1236H21.5829C22.3793 16.1236 22.9552 15.9388 23.3741 15.6575V17.0744C23.3741 17.582 23.7388 17.993 24.1889 17.993H25.3729C25.8239 17.993 26.1876 17.5809 26.1876 17.0744V15.9575H26.6313C26.7396 15.9575 26.8159 15.9616 26.871 15.9658C26.8747 16.0654 26.8747 16.1848 26.8728 16.2637V17.0744C26.8728 17.582 27.2393 17.993 27.6876 17.993H28.8698C29.002 17.993 29.1214 17.9526 29.2298 17.8892C29.34 17.9505 29.4585 17.993 29.589 17.993H33.5213C33.6489 17.993 33.7674 17.9526 33.8749 17.8934C33.9824 17.9526 34.0981 17.993 34.2285 17.993H36.5231C37.2533 17.993 37.8485 17.7906 38.294 17.4336C38.4162 17.7616 38.7046 17.993 39.0417 17.993H41.3362C43.0052 17.993 44 16.9914 44 15.315C44 14.5385 43.8145 13.9604 43.4121 13.4901ZM21.5839 15.2029H20.1142V17.0723H17.8243L16.373 15.2288L14.8647 17.0723H10.1976V11.5003H14.9354L16.3867 13.3272L17.8858 11.5003H21.65C22.5842 11.5003 23.6359 11.7961 23.6359 13.3386C23.6359 14.8842 22.6145 15.206 21.5839 15.2029ZM28.0991 14.4856C28.36 14.5935 28.574 14.7897 28.6732 14.9537C28.8413 15.2257 28.8633 15.479 28.8688 15.97V17.0744H27.6867V16.3769C27.6867 16.0426 27.7151 15.5454 27.4947 15.2859C27.3257 15.0876 27.0639 15.0409 26.6322 15.0409H25.3738V17.0744H24.1898V11.5034H26.9114C27.5066 11.5034 27.9402 11.5314 28.3287 11.765C28.6998 12.0182 28.934 12.367 28.934 13.0012C28.934 13.8918 28.4077 14.3455 28.0991 14.4856ZM33.5194 12.6545H30.7601V13.6687H33.4514V14.8063H30.7601V15.9129L33.5194 15.9191V17.0744H29.5881V11.5034H33.5194V12.6545ZM36.524 17.0682H34.2295V15.8713H36.5139C36.7362 15.8713 36.8951 15.8402 36.9943 15.7333C37.0751 15.6482 37.132 15.5205 37.132 15.3689C37.132 15.207 37.0714 15.0793 36.9888 15.0015C36.8969 14.9164 36.7757 14.878 36.569 14.878C35.4686 14.8375 34.088 14.9164 34.088 13.1549C34.088 12.3442 34.5362 11.4961 35.7726 11.4961H38.1333V12.6815H35.9719C35.7561 12.6815 35.6174 12.6919 35.4998 12.7832C35.3703 12.8746 35.3216 13.0085 35.3216 13.185C35.3216 13.3957 35.4309 13.5358 35.5788 13.6002C35.7046 13.649 35.8369 13.6635 36.0381 13.6635L36.6709 13.6842C37.3093 13.704 37.7493 13.8285 38.0148 14.1327C38.2462 14.4015 38.3684 14.742 38.3684 15.3139C38.3684 16.5149 37.708 17.0744 36.524 17.0682ZM41.3381 17.0682H39.0435V15.8713H41.3289C41.5512 15.8713 41.7101 15.8402 41.8084 15.7333C41.8892 15.6482 41.9461 15.5205 41.9461 15.3689C41.9461 15.207 41.8855 15.0793 41.8028 15.0015C41.7119 14.9164 41.5907 14.878 41.3831 14.878C40.2817 14.8375 38.9021 14.9164 38.9021 13.1549C38.9021 12.3442 39.3503 11.4961 40.5867 11.4961H42.9474V12.6815H40.7869C40.5702 12.6815 40.4305 12.6919 40.3139 12.7832C40.1844 12.8746 40.1366 13.0085 40.1366 13.185C40.1366 13.3957 40.2468 13.5358 40.3929 13.6002C40.5196 13.649 40.651 13.6635 40.8521 13.6635L41.485 13.6842C42.1243 13.704 42.5652 13.8285 42.8307 14.1327C43.0603 14.4015 43.1843 14.742 43.1843 15.3139C43.1843 16.5149 42.5221 17.0744 41.3381 17.0682Z" fill="black"/>
<path d="M39.714 0.995117H38.508C38.057 0.995117 37.6932 1.40718 37.6932 1.91473V2.48975L37.1339 1.44039C36.985 1.16534 36.7214 0.996155 36.4376 0.996155H34.6418C34.1918 0.996155 33.828 1.40822 33.828 1.91577V2.69734L33.3954 1.55353C33.2677 1.2162 32.9738 0.996155 32.6486 0.996155H30.8832C30.7041 0.996155 30.5332 1.06258 30.3973 1.17883C30.2622 1.06362 30.0923 0.996155 29.9095 0.996155H28.7714C27.8033 0.996155 27.0868 1.26083 26.5596 1.77772C26.499 1.33868 26.1766 0.996155 25.7706 0.996155H24.5673C24.2458 0.996155 23.9766 1.21101 23.8425 1.51409C23.792 1.47257 23.7534 1.42275 23.6965 1.38538C23.1435 1.02418 22.5621 0.996155 21.8612 0.996155H19.1515C18.9991 0.996155 18.8659 1.05636 18.7428 1.13835C18.6225 1.05636 18.4874 0.996155 18.3349 0.996155H14.3999C14.2337 0.996155 14.0894 1.0657 13.9608 1.16119C13.8313 1.0657 13.6871 0.996155 13.5218 0.996155H11.5579C11.2328 0.996155 10.9379 1.21724 10.8102 1.55768L10.1103 3.42182L9.33966 1.53069C9.20555 1.20478 8.91621 0.996155 8.60023 0.996155H6.6768C6.22672 0.996155 5.86297 1.40822 5.86297 1.91577V2.71602L5.42115 1.55145C5.29256 1.21412 4.99862 0.995117 4.67254 0.995117H2.92364C2.59755 0.995117 2.30362 1.21516 2.17502 1.55249L0.0660474 7.12312C-0.0423407 7.40855 -0.0157029 7.73239 0.13402 7.99187C0.284661 8.24928 0.540016 8.40497 0.813741 8.40497H2.09419C2.42119 8.40497 2.71788 8.18078 2.84372 7.83826L3.09265 7.16152H4.4576L4.70285 7.83411C4.82777 8.1787 5.12538 8.40393 5.45606 8.40393H7.85254C8.30262 8.40393 8.66637 7.99187 8.66637 7.48432V7.46252L8.82068 7.85798C8.95111 8.19012 9.24321 8.40497 9.5647 8.40497L10.5999 8.40705C10.9232 8.40705 11.2135 8.19219 11.3439 7.85902L11.5001 7.4646V7.48743C11.5001 7.99499 11.8638 8.40601 12.3139 8.40601H13.5218C13.6871 8.40601 13.8313 8.33543 13.9608 8.24098C14.0894 8.33543 14.2337 8.40601 14.3999 8.40601H18.3349C18.4874 8.40601 18.6225 8.34581 18.7428 8.26381C18.865 8.34581 18.9991 8.40601 19.1515 8.40601H20.3309C20.781 8.40601 21.1448 7.99395 21.1448 7.4864V6.37995H21.5949C21.6968 6.37995 21.7694 6.38307 21.8236 6.38722C21.8291 6.48167 21.8273 6.59377 21.8273 6.6685L21.8254 6.79098L21.83 7.49366C21.8337 7.9981 22.1983 8.40601 22.6448 8.40601H23.8333C23.9665 8.40601 24.0869 8.3593 24.198 8.29495C24.311 8.36034 24.4322 8.40601 24.5663 8.40601H25.7696C26.1646 8.40601 26.4769 8.08425 26.5532 7.66492C27.2209 8.2991 28.1615 8.40601 28.6851 8.40601H30.0657C30.3945 8.40601 30.6921 8.17766 30.8161 7.82995L31.0559 7.16256H32.4135L32.6624 7.8393C32.7882 8.18078 33.084 8.40497 33.4138 8.40497H35.8111C36.2612 8.40497 36.625 7.99291 36.625 7.48536V6.60622L37.3479 7.96073C37.4958 8.23579 37.7594 8.40497 38.046 8.40497H39.714C40.1641 8.40497 40.5279 7.99291 40.5279 7.48536V1.91473C40.5279 1.40718 40.1623 0.995117 39.714 0.995117ZM13.5209 7.48432H12.313L12.3084 3.12186L10.5999 7.48432H9.5647L7.85346 3.1177V7.48432H5.45514L5.0023 6.2419H2.54979L2.09235 7.48432H0.811904L2.9218 1.91369H4.6707L6.67588 7.18851V1.91369H8.59931L10.1415 5.69283L11.557 1.91369H13.5209V7.48432ZM18.334 3.07411H15.5766V4.0778H18.2688V5.21953H15.5766V6.33221H18.334V7.48432H14.399V1.91369H18.334V3.07411ZM23.0526 4.89985C23.3107 5.01195 23.5311 5.20708 23.6359 5.369C23.803 5.64613 23.8315 5.89316 23.8315 6.39033V7.48328H22.6429L22.6374 6.7806C22.6374 6.44638 22.6659 5.96478 22.4519 5.69595C22.2801 5.50082 22.0174 5.45826 21.593 5.45826H20.33V7.48432H19.1497V1.91473H21.8594C22.462 1.91473 22.9056 1.93238 23.2859 2.18148C23.6588 2.43059 23.882 2.79387 23.882 3.41559C23.882 4.30303 23.3575 4.76284 23.0526 4.89985ZM25.7706 7.48432H24.5673V1.91369H25.7706V7.48432ZM39.714 7.48432H38.045L35.8102 3.3035V7.48432H33.4128L32.9536 6.2419H30.5047L30.062 7.48432H28.6823C28.1101 7.48432 27.3872 7.34108 26.9775 6.86882C26.5605 6.39552 26.3456 5.75407 26.3456 4.74208C26.3456 3.91588 26.4751 3.16026 26.9766 2.56241C27.356 2.11817 27.9521 1.91369 28.7659 1.91369H29.904V3.10733H28.788C28.359 3.10733 28.1156 3.17894 27.8823 3.43739C27.6811 3.67196 27.5443 4.11516 27.5443 4.69953C27.5443 5.2953 27.649 5.72501 27.8694 6.00629C28.0522 6.22737 28.3829 6.2938 28.6906 6.2938H29.2188L30.8832 1.91369H32.6486L34.6418 7.18228V1.91369H36.4376L38.508 5.79352V1.91369H39.714V7.48432ZM29.1986 4.02798L28.6869 5.37626C28.574 5.37626 28.4977 5.36173 28.4555 5.34928C28.416 5.26624 28.3618 5.08253 28.3618 4.70056C28.3618 4.31445 28.4444 4.11413 28.4555 4.09648C28.4894 4.05912 28.5179 4.02694 28.7944 4.02694L29.1986 4.02798Z" fill="black"/>
<path d="M17.1316 14.2961L18.9415 16.5668V12.1012L17.1316 14.2961Z" fill="black"/>
<path d="M14.3259 12.6544H11.3742V13.6665H13.9594V14.8043H11.3742V15.9129H14.2689L15.6144 14.2759L14.3259 12.6544Z" fill="black"/>
</svg>
