<svg width="29" height="18" viewBox="0 0 29 18" fill="none" xmlns="http://www.w3.org/2000/svg">
<path d="M3.8055 17.9951H0.543644C0.243394 17.9951 0 17.7573 0 17.4639V1.52674C0 1.23334 0.243394 0.995505 0.543644 0.995505H3.8055C4.10575 0.995505 4.34915 1.23334 4.34915 1.52674V17.4639C4.34915 17.7573 4.10575 17.9951 3.8055 17.9951Z" fill="black"/>
<path d="M16.1311 17.9951H11.4186C11.1183 17.9951 10.8749 17.7573 10.8749 17.4639V1.52674C10.8749 1.23334 11.1183 0.995505 11.4186 0.995505H16.1311C16.4314 0.995505 16.6748 1.23334 16.6748 1.52674V17.4639C16.6748 17.7573 16.4314 17.9951 16.1311 17.9951Z" fill="black"/>
<path d="M21.2056 17.9951H19.3934C19.0932 17.9951 18.8498 17.7573 18.8498 17.4639V1.52674C18.8498 1.23334 19.0932 0.995505 19.3934 0.995505H21.2056C21.5058 0.995505 21.7492 1.23334 21.7492 1.52674V17.4639C21.7492 17.7573 21.5058 17.9951 21.2056 17.9951Z" fill="black"/>
<path d="M28.4555 17.9951H26.6433C26.3431 17.9951 26.0997 17.7573 26.0997 17.4639V1.52674C26.0997 1.23334 26.3431 0.995505 26.6433 0.995505H28.4555C28.7557 0.995505 28.9991 1.23334 28.9991 1.52674V17.4639C28.9991 17.7573 28.7557 17.9951 28.4555 17.9951Z" fill="black"/>
<path d="M3.8055 0.995505H2.3558C2.65616 0.995505 2.89963 1.23334 2.89963 1.52674V17.4639C2.89963 17.7573 2.65616 17.9951 2.3558 17.9951H3.8055C4.10575 17.9951 4.34915 17.7573 4.34915 17.4639V1.52674C4.34915 1.23334 4.10575 0.995505 3.8055 0.995505Z" fill="black"/>
<path d="M16.1311 0.995505L14.6811 0.995117C14.9815 0.995117 15.2249 1.23296 15.2249 1.52635V17.4635C15.2249 17.7569 14.9815 17.9947 14.6811 17.9947L16.1311 17.9951C16.4314 17.9951 16.6748 17.7573 16.6748 17.4639V1.52674C16.6748 1.23334 16.4314 0.995505 16.1311 0.995505Z" fill="black"/>
<path d="M21.2056 0.995505L19.756 0.995117C20.0564 0.995117 20.2999 1.23296 20.2999 1.52635V17.4635C20.2999 17.7569 20.0564 17.9947 19.756 17.9947L21.2056 17.9951C21.5059 17.9951 21.7501 17.7569 21.7501 17.4635V1.52635C21.7501 1.23296 21.5059 0.995505 21.2056 0.995505Z" fill="black"/>
<path d="M28.4555 0.995505L27.006 0.995117C27.3063 0.995117 27.5498 1.23296 27.5498 1.52635V17.4635C27.5498 17.7569 27.3063 17.9947 27.006 17.9947L28.4555 17.9951C28.7558 17.9951 29 17.7569 29 17.4635V1.52635C29 1.23296 28.7558 0.995505 28.4555 0.995505Z" fill="black"/>
<path d="M6.52504 17.9947C6.22469 17.9947 5.98121 17.7569 5.98121 17.4635V1.52635C5.98121 1.23296 6.22469 0.995117 6.52504 0.995117C6.82539 0.995117 7.06886 1.23296 7.06886 1.52635V17.4635C7.06886 17.7569 6.82539 17.9947 6.52504 17.9947Z" fill="black"/>
<path d="M23.9248 17.9947C23.6245 17.9947 23.381 17.7569 23.381 17.4635V1.52635C23.381 1.23296 23.6245 0.995117 23.9248 0.995117C24.2252 0.995117 24.4687 1.23296 24.4687 1.52635V17.4635C24.4687 17.7569 24.2252 17.9947 23.9248 17.9947Z" fill="black"/>
<path d="M8.7 17.9947C8.39965 17.9947 8.15617 17.7569 8.15617 17.4635V1.52635C8.15617 1.23296 8.39965 0.995117 8.7 0.995117C9.00035 0.995117 9.24383 1.23296 9.24383 1.52635V17.4635C9.24383 17.7569 9.00035 17.9947 8.7 17.9947Z" fill="black"/>
</svg>
