<svg width="26" height="22" viewBox="0 0 26 22" fill="none" xmlns="http://www.w3.org/2000/svg">
<path d="M10.4651 21.9951L15.1214 21.995L15.173 21.9951C15.1727 21.9951 15.1731 21.9951 15.173 21.9951C17.9041 21.9951 20.6496 20.8833 22.7048 18.9449C24.8298 16.9409 26 14.325 26 11.5794C26 8.62875 24.8228 5.91256 22.6851 3.93128C20.6717 2.06542 17.9193 0.995117 15.1245 0.995117H10.5054C4.51634 0.995117 0 5.54542 0 11.5794C0 17.3226 4.69469 21.9951 10.4651 21.9951ZM18.8776 11.4773C18.8776 16.11 15.1355 19.8791 10.5357 19.8791C5.93404 19.8791 2.19025 16.11 2.19025 11.4773C2.19025 6.84454 5.93404 3.07541 10.5357 3.07541C15.1353 3.07557 18.8776 6.84454 18.8776 11.4773Z" fill="black"/>
<path d="M16.2223 11.4774C16.2177 9.04019 14.7051 6.95721 12.5701 6.13008V16.8201C14.7051 15.9942 16.2177 13.9158 16.2223 11.4774Z" fill="black"/>
<path d="M4.84957 11.4774C4.8538 13.9156 6.36236 15.9942 8.49809 16.8201V6.13008C6.36236 6.96179 4.8538 9.04019 4.84957 11.4774Z" fill="black"/>
</svg>
