<svg width="44" height="23" viewBox="0 0 44 23" fill="none" xmlns="http://www.w3.org/2000/svg">
<path d="M1.37282 18.6169C1.17609 18.2992 0.913796 17.7917 0.751788 17.4158C-0.193255 15.2152 -0.235686 12.937 0.558922 10.7519C1.43453 8.35364 3.10861 6.52106 5.27256 5.58346C7.99198 4.40952 10.9968 4.6381 13.6044 6.19174C15.2592 7.14484 16.4318 8.6171 17.3228 10.7015C17.4347 10.9689 17.535 11.2517 17.6353 11.4958L1.37282 18.6169ZM6.80392 9.12078C4.87141 9.95377 3.87622 11.7747 4.08451 13.9056L12.262 10.3683C10.8541 8.71009 9.02574 8.15993 6.80392 9.12078ZM13.2804 16.8153C13.2765 16.8153 13.2765 16.8192 13.2765 16.8192L13.1068 16.703C12.6169 17.4972 11.857 18.1442 10.8965 18.5627C9.06817 19.3608 7.3748 19.1554 6.15589 18.0822L6.04403 18.2527C6.04403 18.2527 6.04403 18.2488 6.04017 18.2488L3.96493 21.3677C4.48181 21.728 5.03341 22.0302 5.61201 22.2743C7.90326 23.2313 10.2485 23.1848 12.559 22.1775C14.2293 21.4491 15.5408 20.341 16.4356 18.9346L13.2804 16.8153Z" fill="black"/>
<path d="M23.317 0.995117V18.3301L26.0017 19.4227L24.4781 22.9951L21.5156 21.7552C20.8522 21.4646 20.397 21.0229 20.0576 20.5231C19.7297 20.0155 19.4867 19.3142 19.4867 18.3766V0.995117H23.317Z" fill="black"/>
<path d="M30.2679 13.9162C30.2679 12.4399 30.9198 11.1148 31.9459 10.2159L29.1917 7.13168C27.3248 8.79003 26.1483 11.2117 26.1483 13.9084C26.1445 16.6091 27.3209 19.0346 29.184 20.6929L31.9343 17.6087C30.9121 16.7059 30.2679 15.3885 30.2679 13.9162Z" fill="black"/>
<path d="M35.159 18.8332C34.619 18.8332 34.0944 18.7403 33.6083 18.5775L32.293 22.5021C33.1918 22.8043 34.1522 22.9709 35.1551 22.9709C39.5139 22.9748 43.1514 19.8677 43.9961 15.7416L39.9536 14.9125C39.4946 17.1557 37.5235 18.8371 35.159 18.8332Z" fill="black"/>
<path d="M35.1706 4.86162C34.1716 4.86162 33.2111 5.02435 32.3124 5.32269L33.6161 9.25149C34.106 9.08876 34.6267 8.99965 35.1668 8.99965C37.5351 9.00352 39.5101 10.6928 39.9575 12.9401L44 12.1187C43.1707 7.98451 39.5332 4.86549 35.1706 4.86162Z" fill="black"/>
</svg>
