<svg width="34" height="16" viewBox="0 0 34 16" fill="none" xmlns="http://www.w3.org/2000/svg">
<path fill-rule="evenodd" clip-rule="evenodd" d="M5.80989 0.995117H34C33.4261 3.86218 32.863 6.66565 32.3021 9.4579C32.1804 10.0636 32.0589 10.6687 31.9373 11.2739C31.9105 11.4073 31.8837 11.5413 31.8569 11.6755C31.7085 12.4172 31.5592 13.1637 31.4044 13.8349C31.0109 15.5409 29.5547 15.9951 27.4338 15.9951H0C0.328226 14.4045 0.645658 12.7791 0.965047 11.1438C1.35467 9.14877 1.7472 7.13886 2.1658 5.15891C2.21766 4.91365 2.26421 4.66335 2.31085 4.41253C2.39896 3.93869 2.48741 3.463 2.61271 3.01603C2.9802 1.70533 4.25291 1.06973 5.80989 0.995117ZM22.1481 9.53916C22.0389 10.4415 23.1069 10.3343 23.4873 9.9568C23.7684 9.6779 23.8469 9.18003 23.9106 8.77634C23.9126 8.76369 23.9145 8.75113 23.9165 8.73868C23.0439 8.63043 22.2389 8.78969 22.1481 9.53916ZM22.1985 7.41851C22.2302 7.29286 22.2619 7.16721 22.2855 7.03332C22.4424 7.02872 22.6214 7.01405 22.8099 6.99862C23.6714 6.92807 24.7302 6.84135 24.775 7.62495C24.7916 7.91511 24.724 8.22985 24.6544 8.55364C24.624 8.69522 24.5933 8.83852 24.569 8.98226C24.5651 9.00506 24.5613 9.02777 24.5575 9.05039C24.4682 9.57835 24.3866 10.0616 24.3801 10.6529H23.7449C23.7349 10.4396 23.7648 10.267 23.7964 10.0961C23.4921 10.5899 22.6132 10.9492 21.8906 10.6355C21.5154 10.4726 21.3195 9.88876 21.4957 9.29551C21.7586 8.40982 22.7585 8.20326 23.9853 8.32104L23.9866 8.31738C24.0408 8.16469 24.1142 7.9584 24.0711 7.76414C23.9404 7.1748 22.5838 7.51427 22.1481 7.62495C22.164 7.55525 22.1813 7.48688 22.1985 7.41851ZM27.8998 9.43477C27.9112 9.95167 28.1583 10.2634 28.6553 10.2526C29.5574 10.233 29.7056 9.24314 29.843 8.32546C29.8827 8.06014 29.9215 7.80084 29.9774 7.57278C29.706 7.47886 29.4378 7.39156 29.0674 7.43352C28.2719 7.52373 27.8801 8.52948 27.8998 9.43477ZM30.0461 7.08548C30.1557 6.5702 30.2403 6.02945 30.3036 5.46715H31.0419C30.9602 5.93839 30.8706 6.40168 30.781 6.86498C30.5461 8.0798 30.3112 9.29464 30.2178 10.6529H29.5482C29.5509 10.5071 29.5724 10.3804 29.594 10.2537C29.6019 10.2073 29.6098 10.1608 29.6168 10.1134C29.6077 10.083 29.5713 10.1428 29.5338 10.2043C29.5148 10.2354 29.4956 10.267 29.4795 10.2875C29.4159 10.3682 29.3179 10.4846 29.2219 10.5485C28.7264 10.8788 27.7448 10.7848 27.402 10.3918C27.2031 10.1638 27.1483 9.8441 27.1444 9.52173C27.1245 7.85495 28.2351 6.50453 30.0461 7.08548ZM9.95778 9.67835C10.0339 10.3917 11.005 10.3982 11.4 9.97423C11.7271 9.62308 11.9986 8.75516 11.8979 8.06002C11.7819 7.25933 10.6386 7.31744 10.2496 7.79893C10.2168 7.96525 10.1891 8.14056 10.1605 8.32223C10.14 8.45232 10.1189 8.58567 10.0951 8.72131C10.0792 8.81214 10.0586 8.90331 10.038 8.99439C9.98594 9.22536 9.93397 9.45573 9.95778 9.67835ZM10.2672 7.34954C10.5973 7.0794 11.3589 6.79541 11.9838 7.03332C13.2696 7.52285 12.5302 10.0232 11.5716 10.5485C11.1071 10.803 10.0062 10.929 9.83758 10.2701C9.73592 10.6981 9.67076 11.163 9.6056 11.628C9.57539 11.8437 9.54517 12.0593 9.51131 12.2712H8.77305C9.10438 10.5536 9.41831 8.81841 9.68305 7.03332H10.3183C10.3155 7.09138 10.304 7.14063 10.2926 7.18989C10.2811 7.23916 10.2696 7.28844 10.2668 7.34656L10.2672 7.34954ZM10.2672 7.34954C10.2652 7.35113 10.2633 7.35272 10.2613 7.35431C10.2573 7.35752 10.2534 7.36072 10.2496 7.36393C10.2593 7.36305 10.2683 7.36143 10.2672 7.34954ZM13.7522 8.28624H15.4863C15.6435 7.61407 15.2627 7.39555 14.7308 7.41616C14.1658 7.43805 13.8071 7.88218 13.7522 8.28624ZM13.4775 7.50312C13.798 7.16095 14.2489 7.00534 14.7824 6.96372C15.3909 6.91622 15.9888 7.04406 16.1559 7.53799C16.251 7.81889 16.1931 8.12171 16.1369 8.4155C16.1183 8.513 16.0999 8.6095 16.0872 8.70388C15.29 8.68314 14.4625 8.6782 13.6664 8.70388C13.5428 9.23828 13.545 9.85322 13.9239 10.0961C14.4258 10.4176 15.273 10.1593 15.761 9.97423C15.7489 10.0488 15.7343 10.1208 15.7196 10.1928C15.6951 10.3132 15.6706 10.4335 15.658 10.5659C14.4734 10.8581 12.9924 10.9013 12.8594 9.69579C12.7661 8.85077 13.0844 7.92286 13.4775 7.50312ZM8.27511 7.08548C8.27365 7.06082 8.27231 7.03622 8.29231 7.03332H9.03058C8.77592 8.19637 8.57271 9.41152 8.39531 10.6529H7.65705C7.89231 9.49342 8.11245 8.31854 8.27511 7.08548ZM26.1486 7.60751C26.3608 7.27487 26.904 6.72007 27.5565 7.05068C27.5276 7.14542 27.5102 7.25189 27.4928 7.35835C27.4809 7.43108 27.4691 7.50381 27.4535 7.57278C26.2978 7.24149 26.0661 8.3432 25.9082 9.34774C25.8886 9.47222 25.8677 9.5886 25.8475 9.70134C25.7913 10.0148 25.74 10.3001 25.7365 10.6529H24.9811C25.2283 9.48234 25.4405 8.27617 25.6163 7.03332H26.2688C26.2417 7.11751 26.2269 7.21408 26.212 7.31064C26.196 7.4148 26.18 7.51894 26.1486 7.60751ZM19.1949 9.10409C19.1779 9.32774 19.1956 9.622 19.2636 9.80018C19.4978 10.4133 20.5052 10.2691 21.0321 9.9916C21.0158 10.0702 21.0023 10.1517 20.9889 10.2331C20.9711 10.3405 20.9533 10.4478 20.9291 10.5485C19.9647 10.8861 18.7738 10.8382 18.5081 9.9568C18.2812 9.20362 18.6022 8.00657 19.0919 7.48575C19.5922 6.95372 20.5357 6.85135 21.53 7.01595C21.5195 7.09656 21.5065 7.17471 21.4936 7.25286C21.4745 7.36841 21.4553 7.48397 21.4441 7.60751C20.8379 7.39278 20.0779 7.32947 19.6929 7.71197C19.4139 7.98907 19.2331 8.60124 19.1949 9.10409ZM17.4437 7.64238C17.6823 7.21818 18.1969 6.76534 18.8516 7.03332C18.8428 7.11597 18.8271 7.19157 18.8114 7.26718C18.7913 7.36409 18.7712 7.46101 18.7657 7.57278C18.0729 7.3221 17.5928 7.78164 17.4093 8.32104C17.2453 8.80329 17.1757 9.42649 17.1116 10.0004C17.0859 10.2298 17.0612 10.4514 17.0317 10.6529H16.2933C16.3231 10.4942 16.3532 10.3357 16.3832 10.1773C16.5782 9.1485 16.7732 8.1197 16.9114 7.03332H17.5639C17.5462 7.11357 17.5321 7.19734 17.518 7.2811C17.497 7.40538 17.476 7.52964 17.4437 7.64238ZM6.60971 7.62495C6.72885 6.94521 6.84765 6.26513 6.95311 5.57154H7.81158C7.47391 7.22474 7.18905 8.93145 6.91878 10.6529H6.07745C6.15297 10.1675 6.24121 9.69506 6.32946 9.22262C6.39608 8.86595 6.4627 8.50928 6.52385 8.14705C5.8987 8.08669 5.1334 8.10674 4.46127 8.12436C4.39226 8.12617 4.32424 8.12795 4.25745 8.12961C4.10895 8.82156 3.99725 9.55085 3.88554 10.2802C3.86651 10.4045 3.84747 10.5288 3.82825 10.6529H2.98698C3.21613 9.49703 3.41573 8.31121 3.61534 7.12535C3.70266 6.60659 3.78998 6.08781 3.87978 5.57154H4.70385C4.63549 5.90047 4.57652 6.23892 4.51756 6.57735C4.45713 6.92417 4.3967 7.27097 4.32618 7.60751C4.91414 7.65194 5.52953 7.64182 6.14237 7.63174C6.29848 7.62917 6.45443 7.62661 6.60971 7.62495ZM9.16798 5.57154C9.38451 5.76641 9.19498 6.23452 9.04778 6.33723C8.95411 6.40256 8.63898 6.4777 8.49831 6.33723C8.35391 6.19297 8.43938 5.80472 8.53271 5.67593C8.59071 5.59586 8.67611 5.54478 8.82458 5.51938C8.98458 5.49194 9.09938 5.50985 9.16798 5.57154Z" fill="black"/>
</svg>
