<svg width="27" height="18" viewBox="0 0 27 18" fill="none" xmlns="http://www.w3.org/2000/svg">
<path d="M18.4083 0.995117C16.5822 0.995117 14.8911 1.5634 13.4994 2.52512C14.3314 3.09947 15.0555 3.8159 15.636 4.63797H11.3628C11.9433 3.8159 12.6673 3.09947 13.4994 2.52512C12.1077 1.5634 10.4166 0.995117 8.59052 0.995117C3.8461 0.995117 0 4.80069 0 9.49512C0 14.1895 3.8461 17.9951 8.59052 17.9951C10.4166 17.9951 12.1077 17.4268 13.4994 16.4651C12.6673 15.8908 11.9433 15.1743 11.3628 14.3523H15.6372C15.0555 15.1743 14.3314 15.8908 13.5006 16.4651C14.8923 17.4268 16.5834 17.9951 18.4095 17.9951C23.1539 17.9951 27 14.1895 27 9.49512C26.9988 4.80069 23.1527 0.995117 18.4083 0.995117ZM16.8092 7.06655C16.9282 7.46119 17.0252 7.86433 17.0853 8.28083H9.91346C9.97359 7.86433 10.0705 7.46119 10.1896 7.06655H16.8092ZM10.1896 11.9237C10.0705 11.529 9.97359 11.1259 9.91346 10.7094H17.0865C17.0264 11.1259 16.9295 11.529 16.8104 11.9237H10.1896Z" fill="black"/>
</svg>
