<svg width="53" height="19" viewBox="0 0 53 19" fill="none" xmlns="http://www.w3.org/2000/svg">
<path d="M21.8028 18.1349C21.6193 18.1349 21.4781 17.9859 21.4781 17.8234V7.474C21.4781 5.40141 23.2427 3.70813 25.4025 3.70813H28.5786C30.7384 3.70813 32.4889 5.40141 32.4889 7.46045V9.65495C32.4889 11.7275 30.7243 13.4208 28.5645 13.4208H24.0755C23.892 13.4208 23.7508 13.2718 23.7508 13.1092C23.7508 12.9467 23.9061 12.7977 24.0755 12.7977H28.5645C30.3573 12.7977 31.8254 11.4024 31.8254 9.66849V7.474C31.8254 5.75362 30.3714 4.35835 28.5786 4.35835H25.4025C23.6097 4.35835 22.1416 5.75362 22.1416 7.48754V17.8234C22.1416 17.9859 21.9863 18.1349 21.8028 18.1349ZM35.8909 13.4885C35.7074 13.4885 35.5662 13.3395 35.5662 13.177V5.4556C35.5662 4.84602 35.0581 4.35835 34.4228 4.35835H33.0394C32.8559 4.35835 32.7147 4.20934 32.7147 4.04679C32.7147 3.88423 32.87 3.73522 33.0394 3.73522H34.4228C35.411 3.73522 36.2297 4.50736 36.2297 5.46915V13.1905C36.2156 13.3395 36.0744 13.4885 35.8909 13.4885Z" fill="black"/>
<path d="M35.5946 2.8408L34.9734 2.24476C34.8181 2.09575 34.8181 1.85192 34.9734 1.70291L35.5946 1.10687C35.7499 0.957865 36.004 0.957865 36.1593 1.10687L36.7806 1.70291C36.9359 1.85192 36.9359 2.09575 36.7806 2.24476L36.1593 2.8408C36.004 2.98981 35.7499 2.98981 35.5946 2.8408Z" fill="black"/>
<path d="M39.9 13.4198H38.5307C38.3471 13.4198 38.206 13.2708 38.206 13.1082C38.206 12.9456 38.3613 12.7966 38.5307 12.7966H39.9C40.5211 12.7966 41.0998 12.5663 41.5375 12.1464L44.7419 9.0714C45.0101 8.81402 45.3489 8.67856 45.73 8.67856C46.1112 8.67856 46.45 8.81402 46.7182 9.0714L49.9085 12.1329C50.3461 12.5528 50.9249 12.7831 51.546 12.7831H52.6612C52.8447 12.7831 52.9859 12.9321 52.9859 13.0946C52.9859 13.2572 52.8306 13.4062 52.6612 13.4062H51.546C50.7555 13.4062 49.9932 13.1082 49.4285 12.5663L46.2382 9.50488C46.0971 9.36942 45.9136 9.30169 45.7159 9.30169C45.5183 9.30169 45.3348 9.36942 45.1936 9.50488L41.9892 12.5799C41.4528 13.1217 40.7046 13.4198 39.9 13.4198ZM45.73 8.46182C45.363 8.46182 45.0101 8.32635 44.7419 8.06898L41.5375 4.99397C41.0998 4.57403 40.5211 4.34375 39.9 4.34375H38.5307C38.3471 4.34375 38.206 4.19474 38.206 4.03218C38.206 3.86963 38.3613 3.72062 38.5307 3.72062H39.9C40.6905 3.72062 41.4528 4.01864 42.0174 4.56049L45.2077 7.62195C45.3489 7.75741 45.5324 7.82514 45.73 7.82514C45.9277 7.82514 46.1112 7.75741 46.2523 7.62195L49.4427 4.56049C50.0073 4.01864 50.7555 3.72062 51.5601 3.72062H52.6753C52.8588 3.72062 53 3.86963 53 4.03218C53 4.19474 52.8447 4.34375 52.6753 4.34375H51.5601C50.939 4.34375 50.3602 4.57403 49.9226 4.99397L46.7323 8.05543C46.45 8.31281 46.0971 8.46182 45.73 8.46182Z" fill="black"/>
<path d="M13.657 15.0599C12.9653 15.0599 12.33 14.8025 11.836 14.342L9.21031 11.8224C9.02679 11.6463 8.70212 11.6463 8.5186 11.8224L5.89295 14.342C5.41299 14.8025 4.76363 15.0599 4.07193 15.0599H3.54962L6.86698 18.2433C7.9116 19.2457 9.59145 19.2457 10.6219 18.2433L13.9534 15.0464H13.657V15.0599Z" fill="black"/>
<path d="M4.07193 6.14633C4.76364 6.14633 5.39888 6.40371 5.89295 6.86428L8.53273 9.39743C8.71625 9.57354 9.02681 9.57354 9.22444 9.39743L11.8501 6.87783C12.3301 6.41725 12.9794 6.15987 13.6711 6.15987H13.9817L10.6361 2.96295C9.59147 1.96053 7.91161 1.96053 6.88111 2.96295L3.54962 6.14633H4.07193Z" fill="black"/>
<path d="M16.7209 8.8008L14.7022 6.86368C14.6599 6.87723 14.6034 6.89078 14.5611 6.89078H13.6435C13.1635 6.89078 12.7118 7.08042 12.373 7.39199L9.76148 9.92514C9.5215 10.1554 9.19683 10.2773 8.87215 10.2773C8.54747 10.2773 8.2228 10.1554 7.98282 9.92514L5.34305 7.39199C5.00426 7.06688 4.53842 6.89078 4.07258 6.89078H2.94327C2.90092 6.89078 2.84445 6.87723 2.8021 6.86368L0.783459 8.8008C-0.261153 9.80323 -0.261153 11.4152 0.783459 12.4041L2.8021 14.3412C2.84445 14.3277 2.8868 14.3141 2.94327 14.3141H4.07258C4.55253 14.3141 5.00426 14.1245 5.34305 13.8129L7.98282 11.2798C8.46277 10.8192 9.29564 10.8192 9.76148 11.2798L12.3871 13.7994C12.7259 14.1245 13.1918 14.3006 13.6576 14.3006H14.5752C14.6316 14.3006 14.674 14.3141 14.7163 14.3277L16.735 12.3906C17.7655 11.4152 17.7655 9.80323 16.7209 8.8008Z" fill="black"/>
<path d="M24.5419 16.9294C24.3865 16.9294 24.2169 16.97 24.0474 16.9971V17.6202C24.1604 17.6609 24.3017 17.688 24.4289 17.688C24.7539 17.688 24.9093 17.5796 24.9093 17.3087C24.9234 17.0513 24.7963 16.9294 24.5419 16.9294ZM23.9343 16.8616H24.0191L24.0332 16.9158C24.1887 16.8752 24.4006 16.8345 24.5419 16.8345C24.6691 16.8345 24.7821 16.8481 24.881 16.9294C24.9941 17.0242 25.0365 17.1597 25.0365 17.3222C25.0365 17.4848 24.9799 17.6338 24.8245 17.7286C24.7115 17.7828 24.5702 17.8099 24.443 17.8099C24.3158 17.8099 24.1745 17.7963 24.0474 17.7557V18.1214H23.9343V16.8616Z" fill="black"/>
<path d="M25.8688 16.9295C25.5439 16.9295 25.3884 17.0243 25.3884 17.3088C25.3884 17.5797 25.5297 17.7016 25.8688 17.7016C26.1938 17.7016 26.3493 17.6068 26.3493 17.3223C26.3351 17.0514 26.1938 16.9295 25.8688 16.9295ZM26.2927 17.7016C26.1797 17.7829 26.0384 17.7964 25.8688 17.7964C25.6993 17.7964 25.5439 17.7694 25.4449 17.7016C25.3178 17.6203 25.2754 17.4849 25.2754 17.3223C25.2754 17.1598 25.3178 17.0243 25.4449 16.943C25.558 16.8753 25.6993 16.8482 25.8688 16.8482C26.0384 16.8482 26.1797 16.8753 26.2927 16.943C26.4199 17.0243 26.4623 17.1598 26.4623 17.3223C26.4623 17.4849 26.4058 17.6203 26.2927 17.7016Z" fill="black"/>
<path d="M27.8448 17.7687L27.4777 17.0101H27.4636L27.1106 17.7687H27.0118L26.6164 16.8611H26.7435L27.0682 17.6197L27.4212 16.8611H27.5342L27.8871 17.6197H27.9013L28.2119 16.8611H28.3389L27.9436 17.7687H27.8448Z" fill="black"/>
<path d="M29.045 16.9294C28.7341 16.9294 28.6352 17.0648 28.6211 17.2409H29.4689C29.4689 17.0377 29.3558 16.9294 29.045 16.9294ZM29.045 17.7963C28.8613 17.7963 28.7483 17.7692 28.6494 17.7015C28.5363 17.6067 28.4939 17.4712 28.4939 17.3222C28.4939 17.1732 28.5504 17.0242 28.6776 16.9294C28.7765 16.8616 28.9178 16.8345 29.045 16.8345C29.1722 16.8345 29.3135 16.8481 29.4265 16.9294C29.5678 17.0242 29.5961 17.1732 29.5961 17.3493H28.6211C28.6211 17.539 28.6917 17.7015 29.0591 17.7015C29.2287 17.7015 29.3982 17.6744 29.5537 17.6473V17.7422C29.3841 17.7692 29.2145 17.7963 29.045 17.7963Z" fill="black"/>
<path d="M29.9055 17.7692V16.8616H29.9903L30.0044 16.9158C30.2023 16.8616 30.3012 16.8345 30.4707 16.8345H30.4849V16.9294H30.4566C30.3012 16.9294 30.2164 16.9429 30.0044 16.9971V17.7557H29.9055V17.7692Z" fill="black"/>
<path d="M31.1342 16.9294C30.8234 16.9294 30.7245 17.0648 30.7103 17.2409H31.5581C31.5581 17.0377 31.4451 16.9294 31.1342 16.9294ZM31.1342 17.7963C30.9506 17.7963 30.8375 17.7692 30.7386 17.7015C30.6256 17.6067 30.5832 17.4712 30.5832 17.3222C30.5832 17.1732 30.6397 17.0242 30.7669 16.9294C30.8658 16.8616 31.0071 16.8345 31.1342 16.8345C31.2614 16.8345 31.4027 16.8481 31.5157 16.9294C31.657 17.0242 31.6853 17.1732 31.6853 17.3493H30.7103C30.7103 17.539 30.781 17.7015 31.1484 17.7015C31.3179 17.7015 31.4875 17.6744 31.6429 17.6473V17.7422C31.4734 17.7692 31.3038 17.7963 31.1342 17.7963Z" fill="black"/>
<path d="M32.8992 16.9829C32.7862 16.9422 32.6449 16.9151 32.5177 16.9151C32.1927 16.9151 32.0373 17.0235 32.0373 17.2944C32.0373 17.5518 32.1645 17.6737 32.4188 17.6737C32.5743 17.6737 32.7438 17.6331 32.9134 17.606V16.9829H32.8992ZM32.9134 17.7685L32.8992 17.7144C32.7438 17.755 32.5319 17.7956 32.3906 17.7956C32.2634 17.7956 32.1504 17.7821 32.0514 17.7008C31.9384 17.606 31.896 17.4705 31.896 17.308C31.896 17.1454 31.9525 16.9964 32.108 16.9151C32.221 16.8609 32.3623 16.8339 32.4895 16.8339C32.6166 16.8339 32.7438 16.8609 32.8851 16.888V16.4681H32.9981V17.7685H32.9134Z" fill="black"/>
<path d="M34.6351 16.9287C34.4797 16.9287 34.3102 16.9693 34.1406 16.9964V17.6195C34.2678 17.6602 34.3949 17.6873 34.5221 17.6873C34.8471 17.6873 35.0025 17.5789 35.0025 17.308C35.0025 17.0506 34.8753 16.9287 34.6351 16.9287ZM34.9177 17.7144C34.8047 17.7685 34.6634 17.7956 34.5362 17.7956C34.3949 17.7956 34.2536 17.7685 34.1123 17.7279V17.7685H34.0276V16.4681H34.1406V16.9016C34.296 16.8745 34.4938 16.8203 34.6493 16.8203C34.7764 16.8203 34.8895 16.8339 34.9884 16.9151C35.1014 17.01 35.1438 17.1454 35.1438 17.308C35.1297 17.4705 35.0732 17.6331 34.9177 17.7144Z" fill="black"/>
<path d="M35.2699 18.1214V18.0266C35.3264 18.0266 35.3688 18.0401 35.4112 18.0401C35.5524 18.0401 35.6372 17.9995 35.7079 17.8505L35.7503 17.7827L35.2557 16.8751H35.3829L35.8068 17.6608H35.8209L36.2307 16.8751H36.3578L35.8209 17.9047C35.722 18.0943 35.6231 18.1485 35.4253 18.1485C35.3688 18.1214 35.3264 18.1214 35.2699 18.1214Z" fill="black"/>
<path d="M37.8679 17.254H37.5005V17.5791H37.8679C38.1222 17.5791 38.2211 17.552 38.2211 17.4165C38.2211 17.2675 38.0939 17.254 37.8679 17.254ZM37.8113 16.7257H37.5146V17.0508H37.8113C38.0657 17.0508 38.1646 17.0237 38.1646 16.8882C38.1504 16.7392 38.0374 16.7257 37.8113 16.7257ZM38.3765 17.6874C38.2352 17.7687 38.0798 17.7687 37.7831 17.7687H37.2179V16.536H37.7689C38.0233 16.536 38.1787 16.536 38.32 16.6173C38.4189 16.6715 38.4472 16.7527 38.4472 16.8611C38.4472 16.9966 38.3907 17.0779 38.2494 17.132V17.1456C38.4189 17.1862 38.5178 17.2675 38.5178 17.4436C38.5178 17.552 38.4754 17.6333 38.3765 17.6874Z" fill="black"/>
<path d="M39.6326 17.3899C39.5196 17.3764 39.4065 17.3764 39.2935 17.3764C39.0957 17.3764 39.025 17.417 39.025 17.4983C39.025 17.5796 39.0816 17.6202 39.237 17.6202C39.3642 17.6202 39.5055 17.5931 39.6326 17.566V17.3899ZM39.6891 17.7692L39.675 17.7151C39.5196 17.7557 39.3218 17.7963 39.1522 17.7963C39.0533 17.7963 38.9403 17.7828 38.8696 17.7286C38.799 17.6744 38.7707 17.6067 38.7707 17.5119C38.7707 17.4035 38.8131 17.3087 38.9261 17.268C39.025 17.2274 39.1663 17.2138 39.2794 17.2138C39.3783 17.2138 39.5196 17.2138 39.6185 17.2274V17.2138C39.6185 17.0648 39.5196 17.0242 39.2511 17.0242C39.1522 17.0242 39.025 17.0242 38.8979 17.0377V16.8481C39.025 16.8345 39.1805 16.8345 39.3076 16.8345C39.4772 16.8345 39.6468 16.8481 39.7457 16.9158C39.8587 16.9836 39.8728 17.0919 39.8728 17.2274V17.7692H39.6891Z" fill="black"/>
<path d="M41.1431 17.7692V17.268C41.1431 17.1055 41.0583 17.0377 40.9029 17.0377C40.7898 17.0377 40.6344 17.0648 40.5214 17.0919V17.7692H40.2388V16.8616H40.4507L40.4649 16.9158C40.6344 16.8752 40.8181 16.8345 40.9735 16.8345C41.0866 16.8345 41.2137 16.8481 41.2985 16.9294C41.3692 16.9971 41.3974 17.0784 41.3974 17.2138V17.7692H41.1431Z" fill="black"/>
<path d="M42.1591 17.7962C42.0319 17.7962 41.9048 17.7827 41.8059 17.7014C41.6928 17.6066 41.6504 17.4711 41.6504 17.3086C41.6504 17.1595 41.6928 17.0105 41.8483 16.9157C41.9613 16.848 42.1167 16.8209 42.2721 16.8209C42.3852 16.8209 42.4841 16.8344 42.6113 16.8344V17.0241C42.5124 17.0105 42.3993 17.0105 42.3145 17.0105C42.0602 17.0105 41.9472 17.0918 41.9472 17.295C41.9472 17.4982 42.0319 17.5795 42.2439 17.5795C42.3711 17.5795 42.5124 17.5524 42.6395 17.5388V17.7285C42.47 17.7691 42.3145 17.7962 42.1591 17.7962Z" fill="black"/>
<path d="M43.4014 17.0242C43.1471 17.0242 43.0341 17.1055 43.0341 17.3087C43.0341 17.5119 43.1471 17.6067 43.4014 17.6067C43.6558 17.6067 43.7547 17.539 43.7547 17.3222C43.7688 17.119 43.6558 17.0242 43.4014 17.0242ZM43.8536 17.7015C43.7406 17.7828 43.5851 17.7963 43.4014 17.7963C43.2178 17.7963 43.0623 17.7692 42.9493 17.7015C42.8221 17.6202 42.7656 17.4848 42.7656 17.3222C42.7656 17.1597 42.808 17.0242 42.9493 16.9294C43.0623 16.8616 43.2178 16.8345 43.4014 16.8345C43.5851 16.8345 43.7406 16.8616 43.8536 16.9294C43.9808 17.0107 44.0373 17.1461 44.0373 17.3087C44.0373 17.4712 43.9949 17.6202 43.8536 17.7015Z" fill="black"/>
<path d="M45.5613 17.796C45.4058 17.796 45.2222 17.7689 45.095 17.6741C44.9396 17.5521 44.8972 17.3625 44.8972 17.1593C44.8972 16.9832 44.9537 16.7665 45.1656 16.631C45.3211 16.5362 45.5189 16.5091 45.7167 16.5091C45.858 16.5091 46.0134 16.5226 46.1689 16.5362V16.7529C46.0276 16.7394 45.858 16.7394 45.7308 16.7394C45.3635 16.7394 45.208 16.8748 45.208 17.1593C45.208 17.4438 45.3493 17.5792 45.6178 17.5792C45.8015 17.5792 45.9993 17.5386 46.1971 17.5115V17.7282C45.9852 17.7553 45.7732 17.796 45.5613 17.796Z" fill="black"/>
<path d="M46.9588 16.9972C46.7327 16.9972 46.6479 17.0785 46.6338 17.214H47.2696C47.2696 17.065 47.1848 16.9972 46.9588 16.9972ZM46.9305 17.7964C46.7751 17.7964 46.6338 17.7829 46.5207 17.7016C46.4077 17.6068 46.3653 17.4713 46.3653 17.3223C46.3653 17.1869 46.4077 17.0243 46.549 16.943C46.662 16.8618 46.8175 16.8482 46.9588 16.8482C47.1001 16.8482 47.2555 16.8618 47.3685 16.943C47.524 17.0514 47.5381 17.2004 47.5381 17.3901H46.6338C46.6338 17.5255 46.7186 17.6203 46.987 17.6203C47.1566 17.6203 47.3403 17.5933 47.4957 17.5797V17.7558C47.312 17.7694 47.1142 17.7964 46.9305 17.7964Z" fill="black"/>
<path d="M48.7236 17.7692V17.268C48.7236 17.1055 48.6388 17.0377 48.4834 17.0377C48.3703 17.0377 48.2149 17.0648 48.1019 17.0919V17.7692H47.8334V16.8616H48.0453L48.0595 16.9158C48.229 16.8752 48.4127 16.8345 48.5681 16.8345C48.6812 16.8345 48.8083 16.8481 48.8931 16.9294C48.9638 16.9971 48.992 17.0784 48.992 17.2138V17.7692H48.7236Z" fill="black"/>
<path d="M49.7397 17.7959C49.6125 17.7959 49.4995 17.7552 49.4288 17.6604C49.3864 17.5927 49.3582 17.5114 49.3582 17.3895V17.0508H49.1603V16.8612H49.3582L49.3864 16.5903H49.6266V16.8612H50.0081V17.0508H49.6266V17.3488C49.6266 17.4166 49.6266 17.4843 49.6549 17.5249C49.6832 17.5927 49.7397 17.6062 49.8244 17.6062C49.881 17.6062 49.9657 17.5927 50.0081 17.5927V17.7688C49.9375 17.7823 49.8244 17.7959 49.7397 17.7959Z" fill="black"/>
<path d="M50.2614 17.7692V16.8616H50.4734L50.4875 16.9158C50.6571 16.8752 50.7984 16.8345 50.9538 16.8345C50.9679 16.8345 50.9679 16.8345 50.9821 16.8345V17.0513C50.9538 17.0513 50.9114 17.0513 50.8832 17.0513C50.756 17.0513 50.6571 17.0648 50.5158 17.0919V17.7692H50.2614Z" fill="black"/>
<path d="M51.9562 17.3899C51.8431 17.3764 51.7301 17.3764 51.6171 17.3764C51.4193 17.3764 51.3486 17.417 51.3486 17.4983C51.3486 17.5796 51.4051 17.6202 51.5606 17.6202C51.6877 17.6202 51.829 17.5931 51.9562 17.566V17.3899ZM52.0127 17.7692L51.9986 17.7151C51.8431 17.7557 51.6453 17.7963 51.4758 17.7963C51.3769 17.7963 51.2638 17.7828 51.1932 17.7286C51.1225 17.6744 51.0943 17.6067 51.0943 17.5119C51.0943 17.4035 51.1367 17.3087 51.2497 17.268C51.3486 17.2274 51.4899 17.2138 51.6029 17.2138C51.7019 17.2138 51.8431 17.2138 51.9421 17.2274V17.2138C51.9421 17.0648 51.8431 17.0242 51.5747 17.0242C51.4758 17.0242 51.3486 17.0242 51.2214 17.0377V16.8481C51.3486 16.8345 51.504 16.8345 51.6312 16.8345C51.8008 16.8345 51.9703 16.8481 52.0692 16.9158C52.1823 16.9836 52.1964 17.0919 52.1964 17.2274V17.7692H52.0127Z" fill="black"/>
<path d="M52.5624 16.4681H52.8322V17.7685H52.5624V16.4681Z" fill="black"/>
</svg>
