<svg width="25" height="23" viewBox="0 0 25 23" fill="none" xmlns="http://www.w3.org/2000/svg">
<path d="M24.8761 1.34681C24.7401 1.12695 24.512 0.995117 24.2676 0.995117H19.2031C18.8992 0.995117 18.627 1.19824 18.5187 1.50572L14.4425 13.0782L12.4434 3.72996C12.1081 2.16179 10.8351 1.06661 9.34797 1.06661H0.732098C0.346241 1.06661 0.0269509 1.39103 0.00158312 1.80803C-0.0235939 2.22523 0.254307 2.59221 0.636921 2.64697C0.657139 2.64986 2.68122 2.94928 5.15543 4.13228C5.56036 4.3259 5.99295 4.55154 6.44137 4.81211L10.6488 22.4006C10.7325 22.7507 11.0242 22.9951 11.3579 22.9951H16.5217C16.8187 22.9951 17.0863 22.8009 17.1992 22.5033L24.9449 2.09029C25.0378 1.84543 25.0121 1.56667 24.8761 1.34681ZM5.69063 2.65379H9.34797C10.1496 2.65379 10.8357 3.24353 11.0163 4.08806L11.6606 7.10144C11.1315 6.49744 10.5572 5.92836 9.94002 5.39731C8.69127 4.32321 7.26553 3.40202 5.70208 2.65916C5.69826 2.6573 5.69445 2.65544 5.69063 2.65379Z" fill="black"/>
</svg>
