<svg width="67" height="67" viewBox="0 0 67 67" fill="none" xmlns="http://www.w3.org/2000/svg">
<circle cx="33.2628" cy="33.2628" r="33.2628" fill="white"/>
<g clip-path="url(#clip0_1332_5424)">
<path d="M33.4631 49.9986C29.9912 49.9986 26.5204 49.9986 23.0484 49.9986C22.2822 49.9986 21.9751 49.6955 21.9751 48.9445C21.9751 46.2093 21.968 43.474 21.9845 40.7387C21.9868 40.409 21.8727 40.3095 21.5702 40.2666C18.0571 39.7749 15.1842 37.2479 14.2873 33.8739C13.2022 29.7907 15.2889 25.4969 19.1881 23.7694C20.5227 23.1781 21.9162 22.9132 23.3744 22.9953C23.7758 23.0185 24.1748 23.1064 24.5726 23.1793C24.7503 23.2117 24.8174 23.192 24.8668 22.9895C25.7566 19.3494 28.0363 16.9937 31.7565 16.193C36.1053 15.257 40.5 17.7747 41.9135 22.1379C42.0029 22.4122 42.09 22.691 42.13 22.9757C42.163 23.2047 42.2571 23.2152 42.4502 23.177C45.296 22.6112 47.8158 23.3228 49.9837 25.1683C51.6891 26.6204 52.653 28.4867 52.9366 30.7082C53.4686 34.8806 50.7099 38.9083 46.5165 40.0457C46.1269 40.1509 45.7279 40.2227 45.3289 40.2886C45.0983 40.3268 45.0112 40.4113 45.0159 40.66C45.0347 41.5429 45.0241 42.4269 45.0241 43.3109C45.0241 45.2107 45.0241 47.1106 45.0241 49.0105C45.0241 49.6492 44.6769 49.9963 44.0272 49.9975C40.507 49.9986 36.9857 49.9975 33.4655 49.9986H33.4631ZM33.4949 44.7699C36.609 44.7711 39.7244 44.7653 42.8385 44.7803C43.1857 44.7815 43.2599 44.682 43.2564 44.358C43.2399 42.7728 43.2469 41.1865 43.2505 39.6013C43.2516 39.0367 43.6259 38.6699 44.1955 38.6722C44.7146 38.6734 45.2242 38.6051 45.7279 38.4917C49.3023 37.6934 51.682 34.3148 51.1536 30.7603C50.7605 28.1164 49.2787 26.2628 46.7777 25.2342C45.1524 24.5654 43.4835 24.5597 41.8099 25.1058C41.1449 25.3233 40.6695 25.019 40.5694 24.3375C40.5094 23.9325 40.4811 23.5241 40.3788 23.1226C39.7232 20.5713 38.1238 18.8427 35.5816 18.0744C33.0276 17.3026 30.6914 17.8407 28.6965 19.6075C27.3007 20.8432 26.6063 22.4307 26.4286 24.26C26.3509 25.0572 25.866 25.3337 25.0857 25.0803C23.9806 24.7216 22.8519 24.6164 21.7067 24.8107C17.6981 25.4911 15.3772 29.0826 15.8232 32.5595C16.2622 35.9798 19.234 38.641 22.7224 38.6688C23.4003 38.6745 23.7452 39.0101 23.7452 39.6685C23.7452 41.205 23.7428 42.7427 23.7464 44.2793C23.7475 44.8578 23.6781 44.7664 24.223 44.7664C27.3136 44.7699 30.4031 44.7676 33.4937 44.7676L33.4949 44.7699ZM33.5372 46.5136C31.0033 46.5136 28.4682 46.5136 25.9343 46.5136C25.294 46.5136 24.6549 46.5194 24.0147 46.5101C23.8064 46.5066 23.7334 46.5726 23.7428 46.7797C23.7569 47.1303 23.7722 47.4832 23.7393 47.8315C23.7052 48.182 23.8193 48.2677 24.1783 48.2665C30.1948 48.2538 36.2101 48.2573 42.2265 48.2573C42.4855 48.2573 42.7432 48.248 43.001 48.2607C43.1963 48.2711 43.2587 48.2006 43.2528 48.0108C43.2411 47.6359 43.2281 47.2599 43.2564 46.8862C43.2799 46.583 43.1799 46.5043 42.875 46.5055C39.762 46.5159 36.6502 46.5124 33.5372 46.5124V46.5136Z" fill="#EE6262"/>
</g>
<defs>
<clipPath id="clip0_1332_5424">
<rect width="39" height="34" fill="white" transform="translate(14 16)"/>
</clipPath>
</defs>
</svg>
