<svg xmlns="http://www.w3.org/2000/svg" width="67" height="67" viewBox="0 0 67 67" fill="none">
  <circle cx="33.2628" cy="33.2628" r="33.2628" fill="white"/>
  <path d="M16.7601 17.1819L20.871 19.4464C20.6152 19.7508 20.4335 20.1102 20.3403 20.4963C20.2839 20.7812 20.2939 21.0752 20.3693 21.3557C20.4447 21.6363 20.5836 21.8958 20.7753 22.1144C20.9511 22.3553 21.1804 22.5523 21.4453 22.69C21.7102 22.8277 22.0035 22.9025 22.3021 22.9083H22.3848C20.313 26.1748 19.5591 30.1028 20.275 33.9014C21.2929 39.1333 24.7425 40.9727 26.6218 41.2547C27.1458 41.3544 27.6875 41.3032 28.1835 41.1072C28.5764 42.1599 29.3531 43.0259 30.3585 43.5323C30.8129 43.7344 31.3052 43.8379 31.8027 43.8359C32.1061 43.835 32.4083 43.7986 32.7032 43.7275C33.3688 44.8337 34.4084 45.8706 36.0049 46.0354V48.7815C34.5842 48.8299 33.1914 49.1883 31.9245 49.8314L31.7592 49.9095L31.881 50.3433V50.7771C32.0358 50.7664 32.1853 50.7172 32.316 50.6339C35.3002 49.2153 37.8102 49.3325 39.7808 51.0287L40.3463 50.3693C39.3741 49.5286 38.1705 48.9995 36.8923 48.8509V46.0398C38.048 46.0413 39.1657 45.6287 40.0418 44.8771H40.3463C41.2698 44.8754 42.1798 44.6555 43.0017 44.2355C43.8236 43.8155 44.5341 43.2073 45.0749 42.4607C46.7061 40.3697 47.2803 37.4761 47.0454 36.0141C51.0997 33.4762 50.2689 30.4699 49.9208 29.6152C50.3581 28.8643 50.6059 28.0187 50.643 27.1511V27.0253L50.5908 26.9212C49.6033 25.1512 47.3282 24.3877 44.1918 24.7781C41.7688 25.0774 38.9195 26.1143 37.8407 27.2292C36.2703 25.316 33.3383 25.3941 32.055 25.533C32.1638 24.4397 32.0246 21.9756 29.8408 17.7241C29.8017 17.6504 29.7625 17.5853 29.7234 17.5159C30.2861 17.3816 30.8058 17.1081 31.2346 16.7207C31.6634 16.3332 31.9874 15.8443 32.1768 15.2991C32.368 14.7328 32.3874 14.1229 32.2327 13.5457C32.0779 12.9685 31.7559 12.4496 31.3068 12.0541C31.0875 11.8218 30.8135 11.6478 30.5096 11.5478C30.2058 11.4478 29.8817 11.425 29.5668 11.4814C29.1801 11.5728 28.8245 11.7644 28.5358 12.0367C28.5177 11.7062 28.4239 11.3842 28.2618 11.0953C28.0918 10.8228 27.8574 10.596 27.579 10.4349C27.3007 10.2738 26.9869 10.1833 26.6653 10.1713C26.3303 10.1144 25.9866 10.1366 25.6618 10.236C25.337 10.3355 25.04 10.5094 24.7947 10.7439C24.5827 10.9527 24.4129 11.2001 24.2945 11.4728C24.179 11.3238 24.041 11.1936 23.8856 11.0867C23.6039 10.9119 23.2832 10.8097 22.9521 10.7892C22.621 10.7688 22.29 10.8308 21.9889 10.9695C21.7327 11.0432 21.5004 11.1825 21.3149 11.3735C21.1295 11.5645 20.9974 11.8007 20.9319 12.0584C20.6578 13.2124 21.8019 14.7525 22.4065 15.4683C22.263 15.5767 22.1499 15.6722 22.0803 15.7329L16.7601 17.1819ZM31.1154 25.893L30.8196 26.6349L31.6026 26.483C31.6461 26.483 36.0049 25.6544 37.4752 28.2183L37.9755 29.1424L38.2496 28.1185C38.4105 27.5242 41.0858 26.0405 44.2962 25.6414C45.8666 25.4462 48.6463 25.3985 49.7642 27.2335C49.7282 28.1986 49.3431 29.1181 48.6803 29.8222C48.0175 30.5263 47.1216 30.9675 46.158 31.0642L46.1928 31.498L46.2276 31.9318C47.3769 31.7791 48.4455 31.2585 49.2727 30.4482C49.5206 31.4763 49.5032 33.563 46.319 35.4415L46.0232 35.615L46.1232 35.9404C46.4016 36.8557 46.0406 39.8014 44.3832 41.9358C43.9593 42.5309 43.4088 43.0254 42.7712 43.3838C42.1335 43.7423 41.4243 43.9559 40.6943 44.0095C41.1957 42.9821 41.3396 41.8174 41.1032 40.6994L40.255 40.899C40.255 40.899 40.69 42.7123 39.6894 43.9617C39.0587 44.7643 37.9494 45.1808 36.453 45.1938C33.3122 45.1938 32.5118 40.7688 32.5031 40.7254L31.6331 40.8729C31.7812 41.5813 32.0118 42.27 32.3204 42.9249C31.7853 43.0192 31.2341 42.9528 30.737 42.734C29.8974 42.3523 29.2405 41.515 28.7968 40.2395L28.4662 39.2938L27.9703 40.1875C27.892 40.335 27.457 40.4998 26.7349 40.3957C25.0862 40.1571 22.0411 38.4869 21.1102 33.7279C19.8878 27.4938 23.4332 22.8259 23.7986 22.3661C24.2414 22.0627 24.6409 21.7007 24.9861 21.2902L24.3075 20.7479C24.0161 21.108 23.0852 22.0494 22.2804 22.0494C22.1135 22.0404 21.951 21.9926 21.8059 21.9097C21.6609 21.8268 21.5373 21.7112 21.4452 21.5722C21.3353 21.4536 21.2549 21.311 21.2103 21.1558C21.1657 21.0005 21.1583 20.8371 21.1885 20.6785C21.3712 19.8108 22.6154 19.0256 23.0808 18.787L22.685 18.0148C22.2652 18.2359 21.8701 18.5005 21.5061 18.8044L19.0657 17.4595L22.5153 16.5311L22.5936 16.453C22.5936 16.453 24.1596 14.9737 25.9345 15.2644C27.1351 15.4639 28.1878 16.4314 29.0665 18.1363C31.8854 23.6198 31.1111 25.8757 31.1067 25.893H31.1154ZM21.7758 12.2753C21.8062 12.1409 21.8976 11.9413 22.2847 11.8025C22.4553 11.7139 22.6449 11.6676 22.8372 11.6676C23.0296 11.6676 23.2191 11.7139 23.3897 11.8025C23.8247 12.0931 23.9726 12.8176 24.0074 13.2081C24.0074 13.3165 24.0074 13.3816 24.0074 13.3946L24.8774 13.3425C24.8774 13.3122 24.8774 13.2384 24.8774 13.1343C24.8774 12.6745 24.9426 11.7981 25.4038 11.3426C25.5609 11.2063 25.7474 11.1079 25.9489 11.0552C26.1503 11.0026 26.3613 10.997 26.5652 11.0389C26.7512 11.038 26.9345 11.0826 27.0991 11.1688C27.2636 11.2551 27.4045 11.3803 27.5092 11.5335C27.8833 12.1669 27.5092 13.3208 27.3526 13.7026L28.1487 14.0497C28.3227 13.6419 28.9795 12.5009 29.7103 12.3404C29.8903 12.3159 30.0736 12.3363 30.2437 12.3999C30.4138 12.4636 30.5653 12.5683 30.6848 12.7048C31.0117 12.9857 31.2474 13.3571 31.3621 13.7719C31.4767 14.1868 31.4651 14.6262 31.3286 15.0344C31.1683 15.4831 30.8876 15.8794 30.5172 16.18C30.1467 16.4806 29.7006 16.6741 29.2275 16.7394C28.327 15.3945 27.2656 14.605 26.0563 14.4011C25.0378 14.2639 24.0027 14.4749 23.12 14.9997C22.45 14.2145 21.6148 12.9608 21.7758 12.2753Z" fill="#EE6262" stroke="#EE6262" stroke-width="0.5"/>
  <path d="M28.4923 28.0969L28.0573 28.0622L27.6222 28.0232C27.5737 29.1395 27.7695 30.2529 28.1962 31.2861C28.623 32.3192 29.2702 33.2473 30.0931 34.0056C31.9506 35.6845 34.6781 36.5261 38.2495 36.5261C40.1805 36.5055 42.1055 36.308 44.0003 35.9361L44.6876 35.806L44.2526 35.2463C42.9476 33.511 42.4865 30.7389 42.4778 30.7129L41.6078 30.8517C41.865 32.3108 42.354 33.7196 43.0564 35.0251C37.175 34.5783 34.9304 31.0339 34.9304 30.9949L34.5563 31.2161L34.1822 31.4374C34.2692 31.5849 36.044 34.4524 40.6421 35.5327C36.118 35.9665 32.7771 35.2377 30.6978 33.3636C29.9768 32.6917 29.4073 31.8748 29.0271 30.9668C28.6469 30.0588 28.4646 29.0805 28.4923 28.0969Z" fill="#EE6262" stroke="#EE6262" stroke-width="0.5"/>
</svg>