<svg xmlns="http://www.w3.org/2000/svg" width="68" height="69" viewBox="0 0 68 69" fill="none">
  <circle cx="34.3171" cy="34.3218" r="33.2628" fill="white"/>
  <path d="M25.3797 38.2082C38.1569 43.189 47.949 41.2515 49.3561 37.6417C49.8472 36.3763 49.2784 34.9304 48.061 34.3507C47.542 34.1037 46.9714 33.8524 46.4742 33.6327C46.4688 33.6306 46.4173 33.6077 46.4119 33.6056C42.4211 31.977 36.5733 29.0142 31.8809 22.1222C31.0938 20.9683 29.8995 20.2033 28.5116 19.9692C27.1262 19.7354 25.6832 20.0811 24.5541 20.9192C23.3373 21.8225 21.1471 23.7198 20.146 26.288C18.3025 31.017 20.6496 36.3644 25.3794 38.2081L25.3797 38.2082ZM25.3319 21.9684C26.1899 21.3315 27.2416 21.0795 28.2944 21.2572C29.3107 21.4278 30.2172 21.996 30.802 22.8584C35.6931 30.0416 41.7726 33.1229 45.9482 34.8281C46.4345 35.0421 46.9925 35.2877 47.4995 35.5295C48.103 35.8167 48.3843 36.5373 48.128 37.1963C47.1544 39.6939 38.4095 41.8865 25.8536 36.992C21.7956 35.4101 19.7806 30.8209 21.3625 26.7627C22.007 25.1095 23.4541 23.3618 25.3316 21.9682L25.3319 21.9684Z" fill="#EE6262"/>
  <path d="M51.7342 41.1681C52.2688 40.5462 52.6974 39.8568 52.9948 39.094C55.2819 33.2268 52.0707 31.8151 48.0056 30.0275C43.8688 28.2087 38.2029 25.7179 33.8246 17.7017C32.776 15.7829 31.0252 14.8438 28.7632 14.9888C24.2459 15.2794 18.3987 19.987 16.4966 24.8667C16.1416 25.7772 15.9042 26.7042 15.7607 27.633C15.1971 28.3671 14.8153 29.2335 14.4992 29.9905C11.8713 36.7319 15.2181 44.3553 21.9597 46.9833C35.5705 52.289 48.3249 51.0746 50.9976 44.2182C51.4336 43.0516 51.7259 42.0908 51.7344 41.1684L51.7342 41.1681ZM28.8465 16.2916C29.556 16.246 30.1901 16.3327 30.746 16.5494C31.5574 16.8657 32.204 17.4597 32.6777 18.3276C37.2695 26.7339 43.1706 29.3286 47.479 31.2233C51.6888 33.0739 53.6102 33.9189 51.7778 38.6198C49.4115 44.6901 37.1426 45.5978 24.4307 40.6425C18.3604 38.2763 15.346 31.4117 17.7126 25.3407C19.4254 20.9468 24.836 16.5492 28.8458 16.292L28.8465 16.2916ZM22.4334 45.7656C16.422 43.4223 13.4169 36.6702 15.6562 30.6441C16.041 35.5066 19.1159 39.9715 23.9565 41.8585C34.7913 46.082 45.0767 46.1701 50.173 42.5736C50.0701 42.9404 49.9439 43.3251 49.7809 43.7431C47.4147 49.8134 35.1458 50.7211 22.4339 45.7659L22.4334 45.7656Z" fill="#EE6262"/>
  <path d="M26.0362 30.792C27.378 31.3151 28.8949 30.6491 29.4179 29.3073C29.941 27.9655 29.275 26.4486 27.9332 25.9256C26.5914 25.4025 25.0746 26.0685 24.5515 27.4103C24.0284 28.7521 24.6944 30.269 26.0362 30.792ZM27.459 27.1422C28.13 27.4038 28.4629 28.162 28.2013 28.833C27.9398 29.5041 27.1815 29.837 26.5105 29.5754C25.8394 29.3138 25.5065 28.5556 25.7681 27.8845C26.0297 27.2135 26.7879 26.8806 27.459 27.1422Z" fill="#EE6262"/>
</svg>