<svg xmlns="http://www.w3.org/2000/svg" width="67" height="67" viewBox="0 0 67 67" fill="none">
  <circle cx="33.2628" cy="33.2628" r="33.2628" fill="white"/>
  <mask id="path-2-outside-1_1332_5420" maskUnits="userSpaceOnUse" x="19.803" y="9.87787" width="27" height="47" fill="black">
    <rect fill="white" x="19.803" y="9.87787" width="27" height="47"/>
    <path d="M45.9215 24.5503C46.0146 23.3985 45.6184 22.2614 44.8342 21.4287C45.0651 20.4779 45.1034 19.4888 44.9463 18.5222C44.7101 17.1366 43.8756 15.9327 42.6747 15.2444C42.2209 14.9579 41.6581 14.9166 41.1691 15.1342C40.5937 15.4451 40.4734 15.9865 40.3349 16.6135H40.3346C40.2492 17.044 40.1265 17.4662 39.9683 17.8749C39.9926 17.6146 39.9933 17.3524 39.9708 17.0918C39.8881 16.3349 39.3324 15.6699 38.8423 15.0829C38.7147 14.9299 38.5892 14.7799 38.476 14.633V14.6327C38.1832 14.181 37.9512 13.6909 37.7856 13.1763C37.6415 12.7659 37.4703 12.3663 37.2738 11.9795C36.9335 11.3771 36.3352 10.9739 35.6592 10.8912C35.2623 10.8306 34.8619 10.9789 34.5959 11.2858C34.3726 11.5594 33.4271 12.0664 32.737 12.4367C32.2202 12.7138 31.7319 12.9756 31.4124 13.1932H31.412C30.929 13.5806 30.639 14.167 30.6207 14.7942C29.9071 13.7852 29.2153 12.3211 27.8984 12.4051C26.3158 12.4999 25.3853 14.5695 25.2032 15.0125C24.8088 14.9644 24.4095 15.0455 24.0632 15.2445C22.862 15.9328 22.0279 17.1367 21.7913 18.5222C21.6345 19.4888 21.6728 20.478 21.9038 21.4288C21.1191 22.2614 20.723 23.3986 20.8165 24.5504C20.8027 25.5274 21.1803 26.4677 21.8615 27.1539C21.1592 27.8479 20.8653 28.8679 21.0875 29.84C21.3008 30.9832 21.954 31.8701 22.7815 32.9932C23.5524 33.9939 24.2396 35.0589 24.8355 36.1773C26.0655 38.5496 26.9409 45.5079 27.4115 49.2462C27.537 50.2418 27.6358 51.0286 27.7096 51.4806C27.9163 52.7473 28.5459 56.5892 32.0219 56.6836L32.0237 56.6843C32.0307 56.6854 32.0377 56.685 32.0448 56.6858C32.0518 56.6861 32.0581 56.6876 32.0651 56.6876L32.0655 56.6872C32.1724 56.6908 32.2792 56.6883 32.3857 56.6797C32.3924 56.6804 32.3977 56.684 32.4044 56.6843C32.6881 56.6994 32.9591 56.7066 33.2171 56.7066C38.1752 56.7062 38.6086 54.0517 39.028 51.4802C39.1018 51.0271 39.2009 50.239 39.3268 49.2416C39.7975 45.5046 40.6731 38.5488 41.9021 36.1773H41.9017C42.4979 35.0592 43.1848 33.9943 43.9557 32.9936C44.7832 31.8704 45.4367 30.9832 45.6501 29.84C45.8723 28.868 45.578 27.8479 44.876 27.1539C45.5573 26.4677 45.9352 25.5273 45.9215 24.5503ZM31.8484 13.8621C32.1338 13.6679 32.6042 13.4158 33.1024 13.1487C34.1738 12.5738 34.8991 12.1696 35.2006 11.8004H35.2003C35.3054 11.706 35.4471 11.6662 35.5848 11.6916C36.0018 11.7498 36.3702 11.9994 36.5849 12.3695C36.7635 12.7239 36.9192 13.0902 37.0507 13.4654C37.2409 14.0557 37.5119 14.6158 37.8554 15.1289C37.9749 15.2844 38.1074 15.4427 38.2421 15.6047C38.679 16.1278 39.1311 16.6692 39.1866 17.1802H39.187C39.2373 17.9572 39.0963 18.7349 38.7768 19.4418C38.518 19.6038 38.2224 19.7607 37.9169 19.9212C37.3372 20.1994 36.7892 20.5416 36.2826 20.9423C35.9452 20.3086 35.4572 19.7714 34.8642 19.3797L34.8128 19.3406V19.3402C34.6082 19.0802 34.4852 18.7632 34.4599 18.4307C34.3752 17.8882 34.1832 17.369 33.8953 16.9051C33.5115 16.36 32.9353 15.9888 32.2882 15.8692C31.9834 15.7848 31.6849 15.6767 31.396 15.546C31.4009 15.5184 31.403 15.49 31.4019 15.462C31.3643 15.1518 31.365 14.1914 31.8484 13.8621ZM27.9439 13.2072C28.6132 13.1727 29.118 13.9551 29.6137 14.7159C30.0324 15.3587 30.4275 15.9658 30.9759 16.2351C31.3278 16.4027 31.693 16.5388 32.0682 16.6412C32.5413 16.7112 32.9677 16.9722 33.2508 17.3661C33.4761 17.7449 33.6258 18.1657 33.6912 18.6041C33.738 19.1283 33.9682 19.6177 34.3394 19.9825L34.3908 20.022C34.9202 20.4285 35.5656 20.9319 35.6665 21.6481C34.749 23.0582 34.698 25.0118 33.3682 25.9489C32.5611 25.3801 32.2208 24.4343 31.8685 23.4373L31.8692 23.4377C31.6632 22.7508 31.3623 22.0973 30.9753 21.4974C30.4603 20.7843 29.6261 20.3456 28.819 19.9212C28.1391 19.5639 27.4972 19.2261 27.2392 18.8048C26.8293 18.1334 26.5452 17.3898 26.4018 16.6124C26.3484 16.1654 26.1754 15.7421 25.9012 15.3891L25.9033 15.3855C26.1241 14.8006 26.92 13.2689 27.944 13.2071L27.9439 13.2072ZM28.4856 51.3475C28.4146 50.9102 28.3161 50.13 28.1917 49.143C27.6816 45.0882 26.8271 38.3013 25.5306 35.8002C24.9158 34.6441 24.2064 33.5428 23.4102 32.5087C22.6442 31.4692 22.0393 30.6481 21.8603 29.6887H21.8606C21.7502 29.2804 21.7734 28.8463 21.9267 28.4529C22.08 28.059 22.3549 27.7272 22.7096 27.5075C22.8467 27.4378 22.9317 27.2928 22.9272 27.1362C22.9226 26.9797 22.8295 26.84 22.6881 26.7782C22.6783 26.7736 21.6789 26.3158 21.6019 24.5144C21.5246 22.7019 22.5444 21.9134 22.5855 21.8825C22.7335 21.7734 22.7894 21.5752 22.7209 21.4025C22.4548 20.5056 22.4031 19.5569 22.5704 18.6353C22.7694 17.5082 23.4464 16.5287 24.4202 15.96C24.5921 15.8624 24.7837 15.806 24.9802 15.7952C25.0565 15.7931 25.1317 15.8099 25.1999 15.844C25.4453 15.9769 25.5103 16.2297 25.6344 16.7894V16.7898C25.7975 17.6555 26.1153 18.4831 26.5723 19.2313C26.9453 19.8395 27.6807 20.2266 28.4594 20.6359C29.1857 21.0179 29.9369 21.4129 30.3422 21.9744V21.974C30.6821 22.5126 30.9469 23.0968 31.129 23.7101C31.561 24.9341 32.0514 26.3215 33.532 26.957C35.6307 27.8579 35.6775 30.8725 35.727 34.0644C35.7418 35.0134 35.7569 35.9951 35.83 36.9225C36.1426 40.8771 36.2948 44.1086 36.2709 46.2669C36.2638 46.8733 36.2723 47.5059 36.2811 48.1447C36.3113 50.3978 36.3433 52.7273 35.6905 54.1269C35.0714 55.4551 33.6909 55.8293 32.5066 55.8773C32.5966 54.7962 32.7805 51.7047 32.6423 45.5412C32.6272 44.8662 32.571 44.1707 32.4855 43.4651V43.4648C32.5376 43.4368 32.5829 43.3973 32.6181 43.3492L34.7761 40.2821C34.903 40.1015 34.8626 39.8502 34.6857 39.7206C34.5093 39.591 34.2632 39.6322 34.1363 39.8129L32.3315 42.3779V42.3775C31.9262 40.0548 31.3314 37.7705 30.5531 35.5491L32.535 29.2556H32.5346C32.6014 29.0441 32.4875 28.8175 32.2805 28.7497C32.0734 28.6814 31.8516 28.7978 31.7851 29.0092L30.115 34.3121C29.175 31.738 28.0866 29.2225 26.8555 26.7795C26.7529 26.5856 26.5163 26.5127 26.3254 26.6158C26.1345 26.7192 26.0607 26.9598 26.1598 27.1558C26.1827 27.2 27.1392 29.0616 28.2614 31.7686L24.7797 30.5564C24.6802 30.5187 24.5698 30.5237 24.4739 30.5704C24.3783 30.6171 24.3048 30.7011 24.2707 30.8038C24.2362 30.9065 24.244 31.0188 24.2921 31.1158C24.3403 31.2124 24.4247 31.2849 24.5259 31.3172L28.6635 32.7578C30.1495 36.4934 31.762 41.4515 31.8544 45.5591C31.9932 51.7421 31.8002 54.8529 31.7166 55.8585C29.9842 55.6585 28.9532 54.213 28.4857 51.3477L28.4856 51.3475ZM44.876 29.689C44.697 30.6484 44.0921 31.4695 43.3257 32.5094C42.5291 33.5434 41.8201 34.6443 41.2053 35.8005C39.9095 38.3009 39.0552 45.0851 38.5449 49.1387C38.4205 50.1282 38.322 50.9099 38.2503 51.3479C37.9283 53.323 37.6541 54.9909 35.5199 55.6268V55.6264C35.8908 55.3104 36.1914 54.9173 36.4012 54.4735C37.1324 52.9044 37.0997 50.4797 37.0677 48.1344C37.0589 47.5028 37.0505 46.8766 37.0575 46.277C37.0821 44.0943 36.9289 40.8373 36.6146 36.8591C36.6128 36.8379 36.6121 36.816 36.6107 36.7948C37.0691 35.3686 37.5746 33.9985 38.0675 32.7612L42.2104 31.3186C42.3116 31.2863 42.396 31.2137 42.4441 31.1168C42.4923 31.0202 42.5 30.9078 42.4659 30.8051C42.4315 30.7024 42.3584 30.6181 42.2624 30.5717C42.1664 30.5251 42.056 30.52 41.9566 30.5574L38.4704 31.7713C39.5981 29.0554 40.5617 27.1855 40.5768 27.1568V27.1571C40.6759 26.9611 40.6017 26.7202 40.4112 26.6171C40.2203 26.5141 39.9838 26.587 39.8808 26.7809C38.6043 29.3122 37.4829 31.9225 36.5229 34.5957C36.5198 34.4144 36.5166 34.2327 36.5138 34.0528C36.4642 30.8756 36.4066 27.6003 34.1262 26.3662C35.4687 25.1519 35.558 23.1347 36.3939 21.9753C36.7993 21.4137 37.5505 21.0188 38.2768 20.6368C39.0554 20.2275 39.7908 19.8404 40.1638 19.2322L40.1642 19.2325C40.6208 18.4843 40.9386 17.6566 41.1017 16.791C41.2255 16.2309 41.2908 15.9778 41.5362 15.8453C41.7999 15.7613 42.0867 15.804 42.3159 15.9613C43.2896 16.5296 43.9667 17.5092 44.1657 18.6365C44.3327 19.5572 44.2814 20.5054 44.0156 21.402C43.9467 21.5739 44.0012 21.7718 44.1481 21.882C44.1914 21.9147 45.2109 22.7032 45.1338 24.5156C45.0586 26.2862 44.0842 26.7619 44.0473 26.7795C43.9074 26.8416 43.8149 26.9802 43.81 27.1357C43.8047 27.2911 43.888 27.4358 44.0234 27.5073C44.3791 27.7267 44.6547 28.0584 44.8087 28.4523C44.9623 28.8465 44.9862 29.281 44.8758 29.69L44.876 29.689Z"/>
  </mask>
  <path d="M45.9215 24.5503C46.0146 23.3985 45.6184 22.2614 44.8342 21.4287C45.0651 20.4779 45.1034 19.4888 44.9463 18.5222C44.7101 17.1366 43.8756 15.9327 42.6747 15.2444C42.2209 14.9579 41.6581 14.9166 41.1691 15.1342C40.5937 15.4451 40.4734 15.9865 40.3349 16.6135H40.3346C40.2492 17.044 40.1265 17.4662 39.9683 17.8749C39.9926 17.6146 39.9933 17.3524 39.9708 17.0918C39.8881 16.3349 39.3324 15.6699 38.8423 15.0829C38.7147 14.9299 38.5892 14.7799 38.476 14.633V14.6327C38.1832 14.181 37.9512 13.6909 37.7856 13.1763C37.6415 12.7659 37.4703 12.3663 37.2738 11.9795C36.9335 11.3771 36.3352 10.9739 35.6592 10.8912C35.2623 10.8306 34.8619 10.9789 34.5959 11.2858C34.3726 11.5594 33.4271 12.0664 32.737 12.4367C32.2202 12.7138 31.7319 12.9756 31.4124 13.1932H31.412C30.929 13.5806 30.639 14.167 30.6207 14.7942C29.9071 13.7852 29.2153 12.3211 27.8984 12.4051C26.3158 12.4999 25.3853 14.5695 25.2032 15.0125C24.8088 14.9644 24.4095 15.0455 24.0632 15.2445C22.862 15.9328 22.0279 17.1367 21.7913 18.5222C21.6345 19.4888 21.6728 20.478 21.9038 21.4288C21.1191 22.2614 20.723 23.3986 20.8165 24.5504C20.8027 25.5274 21.1803 26.4677 21.8615 27.1539C21.1592 27.8479 20.8653 28.8679 21.0875 29.84C21.3008 30.9832 21.954 31.8701 22.7815 32.9932C23.5524 33.9939 24.2396 35.0589 24.8355 36.1773C26.0655 38.5496 26.9409 45.5079 27.4115 49.2462C27.537 50.2418 27.6358 51.0286 27.7096 51.4806C27.9163 52.7473 28.5459 56.5892 32.0219 56.6836L32.0237 56.6843C32.0307 56.6854 32.0377 56.685 32.0448 56.6858C32.0518 56.6861 32.0581 56.6876 32.0651 56.6876L32.0655 56.6872C32.1724 56.6908 32.2792 56.6883 32.3857 56.6797C32.3924 56.6804 32.3977 56.684 32.4044 56.6843C32.6881 56.6994 32.9591 56.7066 33.2171 56.7066C38.1752 56.7062 38.6086 54.0517 39.028 51.4802C39.1018 51.0271 39.2009 50.239 39.3268 49.2416C39.7975 45.5046 40.6731 38.5488 41.9021 36.1773H41.9017C42.4979 35.0592 43.1848 33.9943 43.9557 32.9936C44.7832 31.8704 45.4367 30.9832 45.6501 29.84C45.8723 28.868 45.578 27.8479 44.876 27.1539C45.5573 26.4677 45.9352 25.5273 45.9215 24.5503ZM31.8484 13.8621C32.1338 13.6679 32.6042 13.4158 33.1024 13.1487C34.1738 12.5738 34.8991 12.1696 35.2006 11.8004H35.2003C35.3054 11.706 35.4471 11.6662 35.5848 11.6916C36.0018 11.7498 36.3702 11.9994 36.5849 12.3695C36.7635 12.7239 36.9192 13.0902 37.0507 13.4654C37.2409 14.0557 37.5119 14.6158 37.8554 15.1289C37.9749 15.2844 38.1074 15.4427 38.2421 15.6047C38.679 16.1278 39.1311 16.6692 39.1866 17.1802H39.187C39.2373 17.9572 39.0963 18.7349 38.7768 19.4418C38.518 19.6038 38.2224 19.7607 37.9169 19.9212C37.3372 20.1994 36.7892 20.5416 36.2826 20.9423C35.9452 20.3086 35.4572 19.7714 34.8642 19.3797L34.8128 19.3406V19.3402C34.6082 19.0802 34.4852 18.7632 34.4599 18.4307C34.3752 17.8882 34.1832 17.369 33.8953 16.9051C33.5115 16.36 32.9353 15.9888 32.2882 15.8692C31.9834 15.7848 31.6849 15.6767 31.396 15.546C31.4009 15.5184 31.403 15.49 31.4019 15.462C31.3643 15.1518 31.365 14.1914 31.8484 13.8621ZM27.9439 13.2072C28.6132 13.1727 29.118 13.9551 29.6137 14.7159C30.0324 15.3587 30.4275 15.9658 30.9759 16.2351C31.3278 16.4027 31.693 16.5388 32.0682 16.6412C32.5413 16.7112 32.9677 16.9722 33.2508 17.3661C33.4761 17.7449 33.6258 18.1657 33.6912 18.6041C33.738 19.1283 33.9682 19.6177 34.3394 19.9825L34.3908 20.022C34.9202 20.4285 35.5656 20.9319 35.6665 21.6481C34.749 23.0582 34.698 25.0118 33.3682 25.9489C32.5611 25.3801 32.2208 24.4343 31.8685 23.4373L31.8692 23.4377C31.6632 22.7508 31.3623 22.0973 30.9753 21.4974C30.4603 20.7843 29.6261 20.3456 28.819 19.9212C28.1391 19.5639 27.4972 19.2261 27.2392 18.8048C26.8293 18.1334 26.5452 17.3898 26.4018 16.6124C26.3484 16.1654 26.1754 15.7421 25.9012 15.3891L25.9033 15.3855C26.1241 14.8006 26.92 13.2689 27.944 13.2071L27.9439 13.2072ZM28.4856 51.3475C28.4146 50.9102 28.3161 50.13 28.1917 49.143C27.6816 45.0882 26.8271 38.3013 25.5306 35.8002C24.9158 34.6441 24.2064 33.5428 23.4102 32.5087C22.6442 31.4692 22.0393 30.6481 21.8603 29.6887H21.8606C21.7502 29.2804 21.7734 28.8463 21.9267 28.4529C22.08 28.059 22.3549 27.7272 22.7096 27.5075C22.8467 27.4378 22.9317 27.2928 22.9272 27.1362C22.9226 26.9797 22.8295 26.84 22.6881 26.7782C22.6783 26.7736 21.6789 26.3158 21.6019 24.5144C21.5246 22.7019 22.5444 21.9134 22.5855 21.8825C22.7335 21.7734 22.7894 21.5752 22.7209 21.4025C22.4548 20.5056 22.4031 19.5569 22.5704 18.6353C22.7694 17.5082 23.4464 16.5287 24.4202 15.96C24.5921 15.8624 24.7837 15.806 24.9802 15.7952C25.0565 15.7931 25.1317 15.8099 25.1999 15.844C25.4453 15.9769 25.5103 16.2297 25.6344 16.7894V16.7898C25.7975 17.6555 26.1153 18.4831 26.5723 19.2313C26.9453 19.8395 27.6807 20.2266 28.4594 20.6359C29.1857 21.0179 29.9369 21.4129 30.3422 21.9744V21.974C30.6821 22.5126 30.9469 23.0968 31.129 23.7101C31.561 24.9341 32.0514 26.3215 33.532 26.957C35.6307 27.8579 35.6775 30.8725 35.727 34.0644C35.7418 35.0134 35.7569 35.9951 35.83 36.9225C36.1426 40.8771 36.2948 44.1086 36.2709 46.2669C36.2638 46.8733 36.2723 47.5059 36.2811 48.1447C36.3113 50.3978 36.3433 52.7273 35.6905 54.1269C35.0714 55.4551 33.6909 55.8293 32.5066 55.8773C32.5966 54.7962 32.7805 51.7047 32.6423 45.5412C32.6272 44.8662 32.571 44.1707 32.4855 43.4651V43.4648C32.5376 43.4368 32.5829 43.3973 32.6181 43.3492L34.7761 40.2821C34.903 40.1015 34.8626 39.8502 34.6857 39.7206C34.5093 39.591 34.2632 39.6322 34.1363 39.8129L32.3315 42.3779V42.3775C31.9262 40.0548 31.3314 37.7705 30.5531 35.5491L32.535 29.2556H32.5346C32.6014 29.0441 32.4875 28.8175 32.2805 28.7497C32.0734 28.6814 31.8516 28.7978 31.7851 29.0092L30.115 34.3121C29.175 31.738 28.0866 29.2225 26.8555 26.7795C26.7529 26.5856 26.5163 26.5127 26.3254 26.6158C26.1345 26.7192 26.0607 26.9598 26.1598 27.1558C26.1827 27.2 27.1392 29.0616 28.2614 31.7686L24.7797 30.5564C24.6802 30.5187 24.5698 30.5237 24.4739 30.5704C24.3783 30.6171 24.3048 30.7011 24.2707 30.8038C24.2362 30.9065 24.244 31.0188 24.2921 31.1158C24.3403 31.2124 24.4247 31.2849 24.5259 31.3172L28.6635 32.7578C30.1495 36.4934 31.762 41.4515 31.8544 45.5591C31.9932 51.7421 31.8002 54.8529 31.7166 55.8585C29.9842 55.6585 28.9532 54.213 28.4857 51.3477L28.4856 51.3475ZM44.876 29.689C44.697 30.6484 44.0921 31.4695 43.3257 32.5094C42.5291 33.5434 41.8201 34.6443 41.2053 35.8005C39.9095 38.3009 39.0552 45.0851 38.5449 49.1387C38.4205 50.1282 38.322 50.9099 38.2503 51.3479C37.9283 53.323 37.6541 54.9909 35.5199 55.6268V55.6264C35.8908 55.3104 36.1914 54.9173 36.4012 54.4735C37.1324 52.9044 37.0997 50.4797 37.0677 48.1344C37.0589 47.5028 37.0505 46.8766 37.0575 46.277C37.0821 44.0943 36.9289 40.8373 36.6146 36.8591C36.6128 36.8379 36.6121 36.816 36.6107 36.7948C37.0691 35.3686 37.5746 33.9985 38.0675 32.7612L42.2104 31.3186C42.3116 31.2863 42.396 31.2137 42.4441 31.1168C42.4923 31.0202 42.5 30.9078 42.4659 30.8051C42.4315 30.7024 42.3584 30.6181 42.2624 30.5717C42.1664 30.5251 42.056 30.52 41.9566 30.5574L38.4704 31.7713C39.5981 29.0554 40.5617 27.1855 40.5768 27.1568V27.1571C40.6759 26.9611 40.6017 26.7202 40.4112 26.6171C40.2203 26.5141 39.9838 26.587 39.8808 26.7809C38.6043 29.3122 37.4829 31.9225 36.5229 34.5957C36.5198 34.4144 36.5166 34.2327 36.5138 34.0528C36.4642 30.8756 36.4066 27.6003 34.1262 26.3662C35.4687 25.1519 35.558 23.1347 36.3939 21.9753C36.7993 21.4137 37.5505 21.0188 38.2768 20.6368C39.0554 20.2275 39.7908 19.8404 40.1638 19.2322L40.1642 19.2325C40.6208 18.4843 40.9386 17.6566 41.1017 16.791C41.2255 16.2309 41.2908 15.9778 41.5362 15.8453C41.7999 15.7613 42.0867 15.804 42.3159 15.9613C43.2896 16.5296 43.9667 17.5092 44.1657 18.6365C44.3327 19.5572 44.2814 20.5054 44.0156 21.402C43.9467 21.5739 44.0012 21.7718 44.1481 21.882C44.1914 21.9147 45.2109 22.7032 45.1338 24.5156C45.0586 26.2862 44.0842 26.7619 44.0473 26.7795C43.9074 26.8416 43.8149 26.9802 43.81 27.1357C43.8047 27.2911 43.888 27.4358 44.0234 27.5073C44.3791 27.7267 44.6547 28.0584 44.8087 28.4523C44.9623 28.8465 44.9862 29.281 44.8758 29.69L44.876 29.689Z" fill="#EE6262"/>
  <path d="M45.9215 24.5503C46.0146 23.3985 45.6184 22.2614 44.8342 21.4287C45.0651 20.4779 45.1034 19.4888 44.9463 18.5222C44.7101 17.1366 43.8756 15.9327 42.6747 15.2444C42.2209 14.9579 41.6581 14.9166 41.1691 15.1342C40.5937 15.4451 40.4734 15.9865 40.3349 16.6135H40.3346C40.2492 17.044 40.1265 17.4662 39.9683 17.8749C39.9926 17.6146 39.9933 17.3524 39.9708 17.0918C39.8881 16.3349 39.3324 15.6699 38.8423 15.0829C38.7147 14.9299 38.5892 14.7799 38.476 14.633V14.6327C38.1832 14.181 37.9512 13.6909 37.7856 13.1763C37.6415 12.7659 37.4703 12.3663 37.2738 11.9795C36.9335 11.3771 36.3352 10.9739 35.6592 10.8912C35.2623 10.8306 34.8619 10.9789 34.5959 11.2858C34.3726 11.5594 33.4271 12.0664 32.737 12.4367C32.2202 12.7138 31.7319 12.9756 31.4124 13.1932H31.412C30.929 13.5806 30.639 14.167 30.6207 14.7942C29.9071 13.7852 29.2153 12.3211 27.8984 12.4051C26.3158 12.4999 25.3853 14.5695 25.2032 15.0125C24.8088 14.9644 24.4095 15.0455 24.0632 15.2445C22.862 15.9328 22.0279 17.1367 21.7913 18.5222C21.6345 19.4888 21.6728 20.478 21.9038 21.4288C21.1191 22.2614 20.723 23.3986 20.8165 24.5504C20.8027 25.5274 21.1803 26.4677 21.8615 27.1539C21.1592 27.8479 20.8653 28.8679 21.0875 29.84C21.3008 30.9832 21.954 31.8701 22.7815 32.9932C23.5524 33.9939 24.2396 35.0589 24.8355 36.1773C26.0655 38.5496 26.9409 45.5079 27.4115 49.2462C27.537 50.2418 27.6358 51.0286 27.7096 51.4806C27.9163 52.7473 28.5459 56.5892 32.0219 56.6836L32.0237 56.6843C32.0307 56.6854 32.0377 56.685 32.0448 56.6858C32.0518 56.6861 32.0581 56.6876 32.0651 56.6876L32.0655 56.6872C32.1724 56.6908 32.2792 56.6883 32.3857 56.6797C32.3924 56.6804 32.3977 56.684 32.4044 56.6843C32.6881 56.6994 32.9591 56.7066 33.2171 56.7066C38.1752 56.7062 38.6086 54.0517 39.028 51.4802C39.1018 51.0271 39.2009 50.239 39.3268 49.2416C39.7975 45.5046 40.6731 38.5488 41.9021 36.1773H41.9017C42.4979 35.0592 43.1848 33.9943 43.9557 32.9936C44.7832 31.8704 45.4367 30.9832 45.6501 29.84C45.8723 28.868 45.578 27.8479 44.876 27.1539C45.5573 26.4677 45.9352 25.5273 45.9215 24.5503ZM31.8484 13.8621C32.1338 13.6679 32.6042 13.4158 33.1024 13.1487C34.1738 12.5738 34.8991 12.1696 35.2006 11.8004H35.2003C35.3054 11.706 35.4471 11.6662 35.5848 11.6916C36.0018 11.7498 36.3702 11.9994 36.5849 12.3695C36.7635 12.7239 36.9192 13.0902 37.0507 13.4654C37.2409 14.0557 37.5119 14.6158 37.8554 15.1289C37.9749 15.2844 38.1074 15.4427 38.2421 15.6047C38.679 16.1278 39.1311 16.6692 39.1866 17.1802H39.187C39.2373 17.9572 39.0963 18.7349 38.7768 19.4418C38.518 19.6038 38.2224 19.7607 37.9169 19.9212C37.3372 20.1994 36.7892 20.5416 36.2826 20.9423C35.9452 20.3086 35.4572 19.7714 34.8642 19.3797L34.8128 19.3406V19.3402C34.6082 19.0802 34.4852 18.7632 34.4599 18.4307C34.3752 17.8882 34.1832 17.369 33.8953 16.9051C33.5115 16.36 32.9353 15.9888 32.2882 15.8692C31.9834 15.7848 31.6849 15.6767 31.396 15.546C31.4009 15.5184 31.403 15.49 31.4019 15.462C31.3643 15.1518 31.365 14.1914 31.8484 13.8621ZM27.9439 13.2072C28.6132 13.1727 29.118 13.9551 29.6137 14.7159C30.0324 15.3587 30.4275 15.9658 30.9759 16.2351C31.3278 16.4027 31.693 16.5388 32.0682 16.6412C32.5413 16.7112 32.9677 16.9722 33.2508 17.3661C33.4761 17.7449 33.6258 18.1657 33.6912 18.6041C33.738 19.1283 33.9682 19.6177 34.3394 19.9825L34.3908 20.022C34.9202 20.4285 35.5656 20.9319 35.6665 21.6481C34.749 23.0582 34.698 25.0118 33.3682 25.9489C32.5611 25.3801 32.2208 24.4343 31.8685 23.4373L31.8692 23.4377C31.6632 22.7508 31.3623 22.0973 30.9753 21.4974C30.4603 20.7843 29.6261 20.3456 28.819 19.9212C28.1391 19.5639 27.4972 19.2261 27.2392 18.8048C26.8293 18.1334 26.5452 17.3898 26.4018 16.6124C26.3484 16.1654 26.1754 15.7421 25.9012 15.3891L25.9033 15.3855C26.1241 14.8006 26.92 13.2689 27.944 13.2071L27.9439 13.2072ZM28.4856 51.3475C28.4146 50.9102 28.3161 50.13 28.1917 49.143C27.6816 45.0882 26.8271 38.3013 25.5306 35.8002C24.9158 34.6441 24.2064 33.5428 23.4102 32.5087C22.6442 31.4692 22.0393 30.6481 21.8603 29.6887H21.8606C21.7502 29.2804 21.7734 28.8463 21.9267 28.4529C22.08 28.059 22.3549 27.7272 22.7096 27.5075C22.8467 27.4378 22.9317 27.2928 22.9272 27.1362C22.9226 26.9797 22.8295 26.84 22.6881 26.7782C22.6783 26.7736 21.6789 26.3158 21.6019 24.5144C21.5246 22.7019 22.5444 21.9134 22.5855 21.8825C22.7335 21.7734 22.7894 21.5752 22.7209 21.4025C22.4548 20.5056 22.4031 19.5569 22.5704 18.6353C22.7694 17.5082 23.4464 16.5287 24.4202 15.96C24.5921 15.8624 24.7837 15.806 24.9802 15.7952C25.0565 15.7931 25.1317 15.8099 25.1999 15.844C25.4453 15.9769 25.5103 16.2297 25.6344 16.7894V16.7898C25.7975 17.6555 26.1153 18.4831 26.5723 19.2313C26.9453 19.8395 27.6807 20.2266 28.4594 20.6359C29.1857 21.0179 29.9369 21.4129 30.3422 21.9744V21.974C30.6821 22.5126 30.9469 23.0968 31.129 23.7101C31.561 24.9341 32.0514 26.3215 33.532 26.957C35.6307 27.8579 35.6775 30.8725 35.727 34.0644C35.7418 35.0134 35.7569 35.9951 35.83 36.9225C36.1426 40.8771 36.2948 44.1086 36.2709 46.2669C36.2638 46.8733 36.2723 47.5059 36.2811 48.1447C36.3113 50.3978 36.3433 52.7273 35.6905 54.1269C35.0714 55.4551 33.6909 55.8293 32.5066 55.8773C32.5966 54.7962 32.7805 51.7047 32.6423 45.5412C32.6272 44.8662 32.571 44.1707 32.4855 43.4651V43.4648C32.5376 43.4368 32.5829 43.3973 32.6181 43.3492L34.7761 40.2821C34.903 40.1015 34.8626 39.8502 34.6857 39.7206C34.5093 39.591 34.2632 39.6322 34.1363 39.8129L32.3315 42.3779V42.3775C31.9262 40.0548 31.3314 37.7705 30.5531 35.5491L32.535 29.2556H32.5346C32.6014 29.0441 32.4875 28.8175 32.2805 28.7497C32.0734 28.6814 31.8516 28.7978 31.7851 29.0092L30.115 34.3121C29.175 31.738 28.0866 29.2225 26.8555 26.7795C26.7529 26.5856 26.5163 26.5127 26.3254 26.6158C26.1345 26.7192 26.0607 26.9598 26.1598 27.1558C26.1827 27.2 27.1392 29.0616 28.2614 31.7686L24.7797 30.5564C24.6802 30.5187 24.5698 30.5237 24.4739 30.5704C24.3783 30.6171 24.3048 30.7011 24.2707 30.8038C24.2362 30.9065 24.244 31.0188 24.2921 31.1158C24.3403 31.2124 24.4247 31.2849 24.5259 31.3172L28.6635 32.7578C30.1495 36.4934 31.762 41.4515 31.8544 45.5591C31.9932 51.7421 31.8002 54.8529 31.7166 55.8585C29.9842 55.6585 28.9532 54.213 28.4857 51.3477L28.4856 51.3475ZM44.876 29.689C44.697 30.6484 44.0921 31.4695 43.3257 32.5094C42.5291 33.5434 41.8201 34.6443 41.2053 35.8005C39.9095 38.3009 39.0552 45.0851 38.5449 49.1387C38.4205 50.1282 38.322 50.9099 38.2503 51.3479C37.9283 53.323 37.6541 54.9909 35.5199 55.6268V55.6264C35.8908 55.3104 36.1914 54.9173 36.4012 54.4735C37.1324 52.9044 37.0997 50.4797 37.0677 48.1344C37.0589 47.5028 37.0505 46.8766 37.0575 46.277C37.0821 44.0943 36.9289 40.8373 36.6146 36.8591C36.6128 36.8379 36.6121 36.816 36.6107 36.7948C37.0691 35.3686 37.5746 33.9985 38.0675 32.7612L42.2104 31.3186C42.3116 31.2863 42.396 31.2137 42.4441 31.1168C42.4923 31.0202 42.5 30.9078 42.4659 30.8051C42.4315 30.7024 42.3584 30.6181 42.2624 30.5717C42.1664 30.5251 42.056 30.52 41.9566 30.5574L38.4704 31.7713C39.5981 29.0554 40.5617 27.1855 40.5768 27.1568V27.1571C40.6759 26.9611 40.6017 26.7202 40.4112 26.6171C40.2203 26.5141 39.9838 26.587 39.8808 26.7809C38.6043 29.3122 37.4829 31.9225 36.5229 34.5957C36.5198 34.4144 36.5166 34.2327 36.5138 34.0528C36.4642 30.8756 36.4066 27.6003 34.1262 26.3662C35.4687 25.1519 35.558 23.1347 36.3939 21.9753C36.7993 21.4137 37.5505 21.0188 38.2768 20.6368C39.0554 20.2275 39.7908 19.8404 40.1638 19.2322L40.1642 19.2325C40.6208 18.4843 40.9386 17.6566 41.1017 16.791C41.2255 16.2309 41.2908 15.9778 41.5362 15.8453C41.7999 15.7613 42.0867 15.804 42.3159 15.9613C43.2896 16.5296 43.9667 17.5092 44.1657 18.6365C44.3327 19.5572 44.2814 20.5054 44.0156 21.402C43.9467 21.5739 44.0012 21.7718 44.1481 21.882C44.1914 21.9147 45.2109 22.7032 45.1338 24.5156C45.0586 26.2862 44.0842 26.7619 44.0473 26.7795C43.9074 26.8416 43.8149 26.9802 43.81 27.1357C43.8047 27.2911 43.888 27.4358 44.0234 27.5073C44.3791 27.7267 44.6547 28.0584 44.8087 28.4523C44.9623 28.8465 44.9862 29.281 44.8758 29.69L44.876 29.689Z" stroke="#EE6262" stroke-width="0.2" mask="url(#path-2-outside-1_1332_5420)"/>
</svg>