<svg width="68" height="69" viewBox="0 0 68 69" fill="none" xmlns="http://www.w3.org/2000/svg">
<path d="M43.4152 22.3704C43.3111 22.2662 43.1653 22.2142 43.0247 22.2298C42.8685 22.2454 39.1922 22.6724 36.6146 25.2447C35.2452 26.6142 34.4901 28.2857 34.0735 29.5823C33.657 28.2857 32.9019 26.6142 31.5376 25.2499C28.9653 22.6724 25.2838 22.2506 25.1276 22.235C24.9818 22.2194 24.836 22.2714 24.7371 22.3756C24.6329 22.4797 24.5809 22.6255 24.5965 22.7661C24.6121 22.9067 24.9714 25.9789 26.9918 28.4732C25.9503 28.1555 25.1953 28.0722 25.1276 28.0618C24.9818 28.041 24.836 28.0983 24.7371 28.2024C24.6329 28.3066 24.5809 28.4524 24.5965 28.593C24.6121 28.7335 24.9714 31.8058 26.9918 34.3C25.9503 33.9824 25.1953 33.8991 25.1276 33.8887C24.9818 33.873 24.836 33.9251 24.7371 34.0292C24.6329 34.1334 24.5809 34.2792 24.5965 34.4198C24.6121 34.5604 24.9714 37.6326 26.9918 40.1269C25.9503 39.8092 25.1953 39.7259 25.1276 39.7155C24.9818 39.6947 24.836 39.7519 24.7371 39.8561C24.6329 39.9602 24.5809 40.106 24.5965 40.2466C24.6121 40.4028 25.0391 44.0791 27.6114 46.6567C29.7047 48.7499 32.527 49.4217 33.5945 49.6091V55.1808C33.5945 55.4464 33.808 55.6651 34.0788 55.6651C34.3495 55.6651 34.563 55.4516 34.563 55.1808V49.6091C35.6357 49.4217 38.4476 48.7447 40.5409 46.6567C43.1132 44.0791 43.5402 40.4028 43.5558 40.2466C43.5714 40.1008 43.5194 39.9602 43.4152 39.8561C43.3111 39.7519 43.1653 39.6999 43.0247 39.7155C42.957 39.7207 42.202 39.8092 41.1605 40.1269C43.1809 37.6326 43.5402 34.5604 43.5558 34.4198C43.5714 34.274 43.5194 34.1334 43.4152 34.0292C43.3111 33.9251 43.1653 33.873 43.0247 33.8887C42.957 33.8939 42.202 33.9824 41.1605 34.3C43.1809 31.8058 43.5402 28.7335 43.5558 28.593C43.5714 28.4471 43.5194 28.3013 43.4152 28.2024C43.3111 28.0983 43.1653 28.0462 43.0247 28.0618C42.957 28.067 42.202 28.1555 41.1605 28.4732C43.1809 25.9789 43.5402 22.9067 43.5558 22.7661C43.5662 22.6203 43.5142 22.4745 43.4152 22.3704ZM34.0735 32.1911C34.0892 32.1911 34.11 32.1911 34.1256 32.1859C34.1933 32.1807 34.9484 32.0922 35.9898 31.7745C35.0108 32.9826 34.4224 34.3208 34.0735 35.4039C33.7247 34.3208 33.1363 32.9826 32.1573 31.7745C33.1987 32.0922 33.9538 32.1755 34.0215 32.1859C34.0371 32.1911 34.0579 32.1911 34.0735 32.1911ZM34.1256 38.0179C34.1933 38.0127 34.9484 37.9242 35.9898 37.6066C35.0108 38.8146 34.4224 40.1529 34.0735 41.236C33.7247 40.1529 33.1363 38.8146 32.1573 37.6066C33.1987 37.9242 33.9538 38.0075 34.0215 38.0179C34.0371 38.0179 34.0579 38.0232 34.0735 38.0232C34.0892 38.0232 34.11 38.0232 34.1256 38.0179ZM25.6639 23.3025C26.7835 23.5368 29.1267 24.2085 30.8555 25.9321C32.5791 27.6557 33.2508 30.0041 33.4851 31.1236C32.3656 30.8893 30.0224 30.2176 28.2936 28.494C26.57 26.7652 25.8983 24.422 25.6639 23.3025ZM25.6639 29.1345C26.7835 29.3688 29.1267 30.0405 30.8555 31.7641C32.5791 33.4877 33.2508 35.8361 33.4851 36.9557C32.3656 36.7214 30.0224 36.0496 28.2936 34.3261C26.57 32.5973 25.8983 30.2488 25.6639 29.1345ZM25.6639 34.9613C26.7835 35.1957 29.1267 35.8674 30.8555 37.591C32.5791 39.3145 33.2508 41.663 33.4851 42.7825C32.3656 42.5482 30.0224 41.8765 28.2936 40.1529C26.57 38.4293 25.8983 36.0809 25.6639 34.9613ZM28.2936 45.9797C26.57 44.2561 25.8983 41.9077 25.6639 40.7882C26.7835 41.0225 29.1267 41.6942 30.8555 43.4178C32.5791 45.1414 33.2508 47.4898 33.4851 48.6093C32.3656 48.375 30.0172 47.7085 28.2936 45.9797ZM34.0735 47.0732C33.7247 45.9901 33.1363 44.6519 32.1573 43.4438C33.1987 43.7615 33.9538 43.8448 34.0215 43.8552C34.0371 43.8552 34.0579 43.8604 34.0735 43.8604C34.0892 43.8604 34.11 43.8604 34.1256 43.8552C34.1933 43.85 34.9484 43.7615 35.9898 43.4438C35.0108 44.6467 34.4224 45.9901 34.0735 47.0732ZM42.4831 40.7934C42.2488 41.9129 41.5771 44.2561 39.8535 45.9849C38.1299 47.7085 35.7815 48.3802 34.662 48.6146C34.8963 47.495 35.568 45.1518 37.2916 43.423C39.0152 41.6942 41.3636 41.0277 42.4831 40.7934ZM42.4831 34.9613C42.2488 36.0809 41.5771 38.4241 39.8535 40.1529C38.1299 41.8765 35.7815 42.5482 34.662 42.7825C34.8963 41.663 35.568 39.3197 37.2916 37.591C39.0152 35.8674 41.3636 35.1957 42.4831 34.9613ZM42.4831 29.1345C42.2488 30.254 41.5771 32.6025 39.8535 34.3261C38.1299 36.0496 35.7815 36.7214 34.662 36.9557C34.8963 35.8361 35.568 33.4929 37.2916 31.7641C39.0152 30.0353 41.3636 29.3636 42.4831 29.1345ZM39.8535 28.494C38.1299 30.2176 35.7815 30.8893 34.662 31.1236C34.8963 30.0041 35.568 27.6609 37.2916 25.9321C39.0152 24.2085 41.3636 23.5368 42.4831 23.3025C42.2488 24.422 41.5771 26.7704 39.8535 28.494Z" fill="#EE6262"/>
<path d="M34.0738 27.692C34.2196 27.692 34.3602 27.6243 34.4487 27.5098C34.5476 27.39 36.8492 24.4844 36.8492 20.8446C36.8492 17.1996 34.5476 14.2992 34.4487 14.1794C34.2664 13.9503 33.8811 13.9503 33.6988 14.1794C33.5999 14.2992 31.2983 17.2048 31.2983 20.8446C31.2983 24.4844 33.5999 27.39 33.6988 27.5098C33.7874 27.6295 33.928 27.692 34.0738 27.692ZM34.0738 15.3198C34.6986 16.2779 35.8859 18.4076 35.8859 20.8498C35.8859 23.2868 34.6986 25.4217 34.0738 26.3798C33.4489 25.4217 32.2617 23.292 32.2617 20.8498C32.2617 18.4076 33.4489 16.2779 34.0738 15.3198Z" fill="#EE6262"/>
<circle cx="33.9612" cy="34.7786" r="33.304" stroke="#EE6262"/>
</svg>
