<svg width="69" height="69" viewBox="0 0 69 69" fill="none" xmlns="http://www.w3.org/2000/svg">
<circle cx="34.5318" cy="34.7788" r="33.304" stroke="#EE6262"/>
<path d="M22.9975 21.7365V18.6112C22.9975 17.7075 23.7301 16.9749 24.6338 16.9749H36.6338C37.5376 16.9749 38.2702 17.7075 38.2702 18.6112V21.7365L42.0141 28.1545C42.0627 28.238 42.0884 28.3328 42.0884 28.4294V39.9981C43.7015 39.2417 45.6101 38.793 47.5429 38.793C52.1426 38.793 55.1793 41.5228 55.1793 45.3385C55.1793 49.1542 52.1426 51.8839 47.5429 51.8839C45.6101 51.8839 43.7015 51.4353 42.0884 50.6789V51.3385C42.0884 52.2422 41.3558 52.9749 40.452 52.9749H20.8157C19.9119 52.9749 19.1793 52.2422 19.1793 51.3385V28.4582C19.1737 28.3574 19.1964 28.2526 19.2536 28.1545L22.9975 21.7365ZM20.2702 28.9749V51.3385C20.2702 51.6397 20.5144 51.8839 20.8157 51.8839H33.3611V28.9749H20.2702ZM37.7247 45.3385C37.7247 43.5161 38.9612 41.8245 40.9975 40.5875V28.5769L37.7247 22.9665L34.452 28.5769V51.8839H40.452C40.7533 51.8839 40.9975 51.6397 40.9975 51.3385V50.0895C38.9612 48.8525 37.7247 47.1609 37.7247 45.3385ZM36.7751 22.4294H23.8562L20.6744 27.8839H33.5933L36.7751 22.4294ZM37.1793 21.3385V18.6112C37.1793 18.31 36.9351 18.0658 36.6338 18.0658H24.6338C24.3326 18.0658 24.0884 18.31 24.0884 18.6112V21.3385H37.1793ZM47.5429 50.793C51.5645 50.793 54.0884 48.5243 54.0884 45.3385C54.0884 42.1527 51.5645 39.8839 47.5429 39.8839C43.079 39.8839 38.8157 42.5241 38.8157 45.3385C38.8157 48.1529 43.079 50.793 47.5429 50.793Z" fill="#EE6262"/>
</svg>
