<svg width="69" height="69" viewBox="0 0 69 69" fill="none" xmlns="http://www.w3.org/2000/svg">
<circle cx="34.6678" cy="34.7788" r="33.304" stroke="#EE6262"/>
<path d="M36.9321 33.9335C35.8597 33.897 34.9656 34.6724 34.1632 35.363C33.9181 35.5741 33.686 35.7735 33.4723 35.9272C33.2442 36.0914 32.9781 36.2347 32.6923 36.3872C32.2229 36.6387 31.7365 36.898 31.359 37.298C30.5868 38.1151 30.4636 39.452 31.0601 40.5518C31.4704 41.3102 32.0866 41.7819 32.8916 41.9539C33.1079 42.0008 33.3412 42.0243 33.5851 42.0243C35.1439 42.0243 36.9492 41.077 38.1199 40.1909C39.638 39.0416 40.0117 37.3384 39.1464 35.5194C38.7007 34.5837 37.8315 33.9609 36.9321 33.9309V33.9335ZM36.8666 34.8444H36.9033C37.5391 34.8652 38.0727 35.3956 38.3179 35.9116C38.9917 37.3267 38.7243 38.5894 37.5653 39.4664C36.2543 40.4593 34.3625 41.3376 33.0869 41.0639C32.5494 40.9479 32.1521 40.6404 31.8703 40.1205C31.4652 39.3738 31.532 38.45 32.0302 37.9235C32.3055 37.6316 32.7067 37.4179 33.1302 37.1912C33.4278 37.0322 33.7358 36.8667 34.0151 36.6648C34.2589 36.4875 34.5041 36.2777 34.7663 36.0523C35.4244 35.4868 36.1691 34.8444 36.8679 34.8444H36.8666Z" fill="#EE6262"/>
<path d="M28.1442 38.9972C27.0849 38.5946 25.8998 39.065 24.8549 39.4807C24.5311 39.6097 24.2243 39.7308 23.9516 39.8142C23.6592 39.9029 23.3354 39.955 22.9919 40.0097C22.4295 40.1009 21.8474 40.1947 21.3269 40.4645C20.2834 41.0079 19.6803 42.3383 19.8901 43.627C20.0369 44.5288 20.4905 45.2155 21.2365 45.6663C21.8841 46.0573 22.7494 46.2566 23.8087 46.2566C24.868 46.2566 26.0571 46.0534 27.1387 45.7002C29.0685 45.0695 30.0426 43.485 29.8079 41.3545C29.6873 40.2612 29.0344 39.336 28.1429 38.9972H28.1442ZM26.8529 44.8337C25.1643 45.3849 22.9211 45.6155 21.715 44.8871C21.2011 44.577 20.9022 44.117 20.7973 43.4811C20.6478 42.5676 21.0503 41.6398 21.7543 41.2724C22.1424 41.0704 22.6275 40.9922 23.1401 40.9101C23.498 40.8528 23.8677 40.7929 24.219 40.686C24.5284 40.5922 24.8523 40.4632 25.1944 40.3277C25.867 40.0605 26.6287 39.7582 27.2698 39.7582C27.473 39.7582 27.6565 39.7895 27.8165 39.8494C28.4681 40.097 28.8286 40.8332 28.8968 41.4535C29.0816 43.1423 28.3566 44.3424 26.8529 44.8337Z" fill="#EE6262"/>
<path d="M53.5493 28.0396C53.4182 27.4702 53.295 26.932 53.194 26.3991C52.4992 22.7009 51.2236 21.1438 50.3255 20.2942C50.0712 20.0544 49.4445 19.627 48.8231 19.3195C48.7707 19.0576 48.6474 18.7214 48.4901 18.3083C48.4088 18.0933 48.2974 17.8001 48.2843 17.7102L48.2344 17.387C48.0902 16.4527 48.0562 16.2312 48.1047 14.8734C48.1151 14.5607 47.9421 14.2492 47.6707 14.1007C47.3915 13.9469 47.1044 14.0225 46.9654 14.0577C46.1801 14.2623 45.0683 14.6428 44.4679 15.581C44.3093 15.8299 44.2372 16.0605 44.2463 16.2872C44.2568 16.5205 44.3512 16.7081 44.4207 16.8462L45.7488 19.5006C45.5875 19.7847 45.4512 20.0935 45.3305 20.3658C45.1863 20.6942 45.0487 21.003 44.8848 21.2663C44.0982 22.5302 43.1293 23.6548 42.0032 24.6112C40.8285 25.6081 39.7338 27.6344 38.8541 29.2645C38.6221 29.6932 38.4044 30.0985 38.2078 30.4386C37.5143 31.6413 36.8378 31.8485 35.8139 32.1625C34.8739 32.4505 33.7044 32.8089 32.2086 34.0351C30.9841 35.0384 29.0241 36.2333 27.6148 36.4848C26.0311 36.7676 23.0891 37.5924 21.5998 38.0355C20.5681 38.343 19.6477 39.1835 18.9739 39.7985C18.6972 40.0513 18.4599 40.269 18.2961 40.3745C18.0181 40.5556 17.6891 40.7003 17.3403 40.8553C16.791 41.099 16.222 41.3505 15.7619 41.7805C15.6531 41.8808 15.5246 42.062 15.5259 42.3526C15.5285 43.4133 17.6445 45.4421 17.6655 45.4617C18.5347 46.2618 20.201 47.3081 21.2314 47.7004C21.9604 47.9779 22.8453 48.1187 23.864 48.1187C25.6404 48.1187 27.3473 47.6925 27.9989 47.5101C29.0792 47.2065 29.6704 46.4872 30.2421 45.7901C30.7324 45.1933 31.1952 44.6277 31.9569 44.3893C32.5193 44.2133 33.1079 44.1365 33.7307 44.0544C34.3573 43.9723 35.0063 43.8876 35.6382 43.6908C36.9492 43.2843 38.0269 42.694 38.9328 41.8861C39.7207 41.1837 40.274 40.411 40.7617 39.7282C41.1392 39.2004 41.4945 38.7027 41.9088 38.3052C41.9324 38.2818 41.9573 38.2596 41.9809 38.2375C41.3883 39.0493 40.822 39.964 40.4719 41.1616C40.0406 42.6405 39.5594 44.0374 38.4162 44.8753C37.8197 45.3118 37.1092 45.6363 36.3566 45.979C34.8634 46.6592 33.3203 47.3629 32.6124 49.023C32.4944 49.3005 32.4026 49.5859 32.3135 49.8622C32.2374 50.098 32.1666 50.3208 32.0814 50.5332C31.9044 50.9763 31.7038 51.2695 31.4338 51.4832C31.3407 51.5562 31.0811 51.6552 30.8713 51.7334C30.3351 51.9353 29.7806 52.1451 29.5997 52.6169C29.5302 52.7993 29.5393 52.9934 29.6272 53.1772C29.8671 53.6789 30.6944 54.0424 31.8677 54.4333C31.9424 54.4581 32.0014 54.4776 32.0395 54.492C32.3239 54.5962 32.5979 54.707 32.8628 54.8151C33.7923 55.193 34.6707 55.5501 35.7627 55.5501C35.9135 55.5501 36.0682 55.5436 36.2216 55.5292C38.3835 55.3338 40.4051 54.4829 41.914 53.1342C42.7111 52.4214 43.1726 51.5288 43.6197 50.6649C44.0274 49.8778 44.4115 49.1337 45.0251 48.55C45.5128 48.0874 46.066 47.7095 46.6521 47.3094C47.1004 47.0032 47.5632 46.6866 47.9958 46.3282C49.4524 45.119 49.9899 43.3507 50.5091 41.6398C50.6611 41.1407 50.804 40.669 50.9692 40.2129C51.3101 39.2695 51.8279 38.3912 52.3288 37.5403C52.9725 36.447 53.6385 35.316 53.9741 33.9986C54.4736 32.0401 54.0055 30.0034 53.5519 28.0344L53.5493 28.0396ZM42.3244 33.979C41.0396 33.1229 40.6266 31.9241 41.1589 30.6041C41.7633 29.1094 42.9157 27.4194 44.131 27.0115C44.3184 26.949 44.5059 26.9164 44.6882 26.9164C44.8088 26.9164 44.932 26.9307 45.0552 26.9594C44.6108 28.4123 44.5426 30.4542 44.4863 32.1013C44.4718 32.5339 44.4574 32.9418 44.4391 33.2962C44.4273 33.5047 44.4063 33.708 44.3722 33.9165C44.2699 34.0259 44.1651 34.1093 44.0536 34.1706C43.5082 34.4703 42.7911 34.2905 42.3231 33.979H42.3244ZM46.1722 20.7333C46.2011 20.6682 46.2299 20.6043 46.2574 20.5405C46.285 20.5874 46.3125 20.6304 46.3413 20.6708C46.344 20.8258 46.3518 20.9796 46.3584 21.1307C46.3741 21.4878 46.3885 21.8253 46.3584 22.1341C46.226 23.4984 45.8969 24.8328 45.3804 26.102C44.873 25.9599 44.3552 25.9756 43.8386 26.1476C42.2444 26.6818 40.94 28.699 40.308 30.264C39.6066 32.001 40.1547 33.6311 41.8144 34.7361C42.483 35.1818 43.3155 35.3446 44.0208 35.1583C43.8727 35.5193 43.6878 35.8724 43.4571 36.2333C42.7216 36.5669 42.0478 36.9057 41.2716 37.6511C40.797 38.1072 40.4155 38.6388 40.0131 39.2017C39.0744 40.5139 38.0111 41.9994 35.3642 42.8217C34.807 42.995 34.2262 43.0706 33.6101 43.1513C32.9768 43.2347 32.3213 43.3207 31.6815 43.5201C30.659 43.8407 30.086 44.5391 29.5315 45.2141C29.0281 45.8279 28.5522 46.4077 27.7511 46.6318C26.8387 46.8886 23.6961 47.6613 21.5631 46.8482C20.6375 46.495 19.0787 45.5151 18.2921 44.7919C17.5422 44.1013 16.5013 42.7969 16.4475 42.3969C16.7897 42.0998 17.2407 41.9004 17.7179 41.688C18.0837 41.5264 18.4613 41.3583 18.8008 41.1381C19.0276 40.9909 19.2924 40.7485 19.5992 40.4683C20.2049 39.9145 21.0361 39.1561 21.866 38.9085C23.3369 38.4707 26.2382 37.6563 27.7813 37.3813C29.5865 37.0582 31.7825 35.5675 32.7959 34.7374C34.1528 33.6259 35.1807 33.3106 36.0879 33.033C37.1865 32.6968 38.1344 32.4062 39.0075 30.8907C39.2107 30.5389 39.4323 30.1285 39.667 29.6945C40.5099 28.1334 41.5588 26.1906 42.6036 25.3045C43.8019 24.2868 44.8337 23.0893 45.6701 21.7458C45.8681 21.4278 46.0241 21.0734 46.1762 20.7307L46.1722 20.7333ZM43.2644 38.0589C43.8176 37.3409 44.3892 36.5982 44.7983 35.6821L44.8035 35.6691C45.13 34.9342 45.3096 34.1745 45.3555 33.347C45.3751 32.9887 45.3895 32.5795 45.404 32.1326C45.4616 30.4099 45.5416 28.0501 46.1001 26.76C46.7242 25.3214 47.1175 23.7955 47.2722 22.2214C47.3089 21.8487 47.2918 21.463 47.2748 21.0838C47.2669 20.891 47.2577 20.6916 47.2577 20.5053C47.2577 20.3867 47.2119 20.2759 47.1293 20.1899C47.044 20.1026 46.968 19.928 46.8998 19.7729C46.8657 19.6961 46.833 19.6231 46.8002 19.5566L45.2427 16.4423C45.2139 16.385 45.1654 16.2885 45.164 16.2494C45.164 16.2403 45.1654 16.1921 45.2427 16.0722C45.5665 15.5666 46.1827 15.2083 47.1843 14.9464C47.1384 16.299 47.1804 16.57 47.3285 17.5264L47.3784 17.847C47.4046 18.0229 47.4937 18.2601 47.634 18.6341C47.7258 18.8751 47.8949 19.3234 47.929 19.5136C47.9316 19.5254 47.9329 19.5345 47.9342 19.5436C47.9342 19.5527 47.9355 19.5566 47.9355 19.5553C47.9067 19.756 48.0168 19.9541 48.203 20.0362C48.279 20.07 48.3551 20.1065 48.4311 20.1443C48.9896 20.4232 49.5232 20.7932 49.6936 20.9535C50.9928 22.1823 51.7952 23.9128 52.2934 26.5646C52.3969 27.1158 52.528 27.6865 52.6565 28.2416C53.0852 30.105 53.5283 32.0322 53.0839 33.777C52.7797 34.9694 52.1754 35.9962 51.5356 37.0816C51.0138 37.9677 50.475 38.8838 50.104 39.9054C49.9322 40.381 49.7788 40.8827 49.6294 41.3792C49.1495 42.9611 48.6527 44.5965 47.4072 45.6298C47.0086 45.9608 46.5629 46.2644 46.1316 46.5602C45.5416 46.9628 44.932 47.3785 44.3905 47.8919C43.6642 48.5812 43.2264 49.4282 42.8029 50.2492C42.3755 51.0753 41.9717 51.8572 41.3005 52.4566C39.9383 53.6736 38.1055 54.4425 36.139 54.621C35.0535 54.72 34.2013 54.3734 33.2102 53.972C32.9375 53.8613 32.6556 53.7466 32.358 53.6372C32.3135 53.6215 32.244 53.5981 32.1574 53.5681C31.1099 53.2189 30.7022 52.9947 30.5449 52.8736C30.7101 52.7706 31.0326 52.6494 31.1978 52.5856C31.5085 52.4683 31.8009 52.3575 32.0054 52.196C32.5272 51.7829 32.7854 51.2421 32.9336 50.8707C33.0319 50.6271 33.1106 50.3782 33.1879 50.1371C33.2731 49.8687 33.3544 49.6159 33.4567 49.3774C34.0256 48.0431 35.3432 47.4424 36.7395 46.8052C37.5012 46.4572 38.2891 46.0989 38.9603 45.6063C40.3356 44.6004 40.877 43.0484 41.3542 41.413C41.7646 40.0044 42.5276 39.0141 43.2657 38.055L43.2644 38.0589Z" fill="#EE6262"/>
<path d="M22.9562 41.4678C22.2469 41.5291 21.5993 41.9851 21.3056 42.6302C21.202 42.8595 21.3056 43.1305 21.535 43.2335C21.5953 43.2608 21.6583 43.2739 21.7238 43.2739C21.9034 43.2739 22.0686 43.1683 22.142 43.0054C22.298 42.6614 22.6573 42.4086 23.0348 42.3774C23.2865 42.3552 23.474 42.135 23.453 41.8835C23.4426 41.761 23.3849 41.6502 23.2905 41.5721C23.1974 41.4939 23.0781 41.4574 22.9562 41.4678Z" fill="#EE6262"/>
<path d="M33.2196 37.5222C32.6559 37.7867 32.256 38.3574 32.201 38.9738C32.1905 39.095 32.2272 39.2135 32.3059 39.3074C32.3845 39.4012 32.4946 39.4585 32.6179 39.4689C32.6323 39.4689 32.6454 39.4702 32.6585 39.4702C32.8971 39.4702 33.0938 39.2917 33.1148 39.0546C33.141 38.7588 33.3416 38.4734 33.6116 38.3457C33.8397 38.2375 33.9381 37.9652 33.8306 37.7385C33.7218 37.5117 33.4478 37.414 33.2196 37.5208V37.5222Z" fill="#EE6262"/>
<path d="M42.4095 29.7048C42.3033 29.6436 42.18 29.6267 42.062 29.6579C41.9427 29.6892 41.8444 29.7635 41.7828 29.869C41.5114 30.3329 41.2689 31.1591 41.341 31.9565C41.362 32.1937 41.5586 32.3722 41.7972 32.3722C41.8103 32.3722 41.8248 32.3722 41.8392 32.3709C42.0909 32.3488 42.2784 32.1259 42.2548 31.8758C42.201 31.2803 42.3832 30.6561 42.576 30.3277C42.7031 30.1101 42.6284 29.8312 42.4108 29.7035L42.4095 29.7048Z" fill="#EE6262"/>
</svg>
