<svg width="68" height="69" viewBox="0 0 68 69" fill="none" xmlns="http://www.w3.org/2000/svg">
<circle cx="33.804" cy="34.7788" r="33.304" stroke="#EE6262"/>
<path d="M38.2375 34.0837C38.3502 34.0837 38.4636 34.0799 38.5778 34.0724C39.6773 33.9933 40.7165 33.5574 41.5258 32.8358C42.3352 32.1143 42.8668 31.1497 43.0339 30.0995L43.9927 23.8722C44.0093 23.7648 43.9975 23.6551 43.9584 23.5533C43.9194 23.4514 43.8543 23.3607 43.7693 23.2894C43.6843 23.2182 43.582 23.1687 43.472 23.1455C43.3619 23.1224 43.2475 23.1263 43.1394 23.1569L36.8717 24.9353C36.025 25.177 35.2635 25.6385 34.6707 26.2692V24.7142C35.7141 24.576 36.6817 24.1123 37.4257 23.394C38.2015 22.639 38.6889 21.6529 38.8082 20.5966C38.9275 19.5404 38.6717 18.4763 38.0826 17.5782L34.5652 12.2736C34.5045 12.182 34.4209 12.1066 34.3221 12.0544C34.2232 12.0022 34.1123 11.9749 33.9995 11.9749C33.8868 11.9749 33.7759 12.0022 33.677 12.0544C33.5781 12.1066 33.4945 12.182 33.4338 12.2736L29.9164 17.5783C29.3273 18.4764 29.0716 19.5404 29.1909 20.5967C29.3102 21.6529 29.7975 22.639 30.5733 23.394C31.3173 24.1123 32.285 24.576 33.3284 24.7142V26.2692C32.7355 25.6385 31.974 25.177 31.1273 24.9353L24.8606 23.1569C24.7525 23.1263 24.6381 23.1224 24.528 23.1455C24.418 23.1687 24.3157 23.2182 24.2307 23.2894C24.1457 23.3607 24.0806 23.4514 24.0416 23.5533C24.0025 23.6551 23.9907 23.7648 24.0073 23.8722L24.9661 30.0995C25.1332 31.1497 25.6648 32.1143 26.4742 32.8358C27.2835 33.5574 28.3227 33.9933 29.4222 34.0724C29.5363 34.08 29.6498 34.0838 29.7625 34.0837C30.4335 34.0828 31.097 33.9475 31.7109 33.6864C32.3247 33.4253 32.8755 33.0441 33.3284 32.5669V36.5173C32.7355 35.8867 31.974 35.4254 31.1273 35.1838L24.8606 33.4054C24.7525 33.3747 24.6381 33.3708 24.528 33.394C24.418 33.4171 24.3157 33.4666 24.2307 33.5379C24.1457 33.6091 24.0806 33.6999 24.0416 33.8017C24.0025 33.9036 23.9907 34.0133 24.0073 34.1207L24.9661 40.3479C25.1332 41.3981 25.6648 42.3627 26.4741 43.0843C27.2835 43.8058 28.3227 44.2417 29.4222 44.3208C29.5363 44.3285 29.6498 44.3322 29.7625 44.3322C30.4335 44.3314 31.097 44.1961 31.7108 43.9351C32.3247 43.6741 32.8755 43.2929 33.3284 42.8158V47.1286C32.7355 46.498 31.974 46.0366 31.1273 45.7949L24.8606 44.0166C24.7525 43.9859 24.6381 43.982 24.528 44.0051C24.418 44.0283 24.3157 44.0778 24.2307 44.1491C24.1457 44.2203 24.0806 44.3111 24.0416 44.4129C24.0025 44.5148 23.9907 44.6245 24.0073 44.7319L24.9661 50.9591C25.1332 52.0093 25.6648 52.9739 26.4741 53.6955C27.2835 54.417 28.3227 54.8529 29.4222 54.932C29.5363 54.9397 29.6498 54.9435 29.7625 54.9435C30.4335 54.9426 31.097 54.8073 31.7109 54.5462C32.3247 54.2851 32.8755 53.9039 33.3284 53.4267V57.3281C33.3284 57.4996 33.3991 57.6641 33.5249 57.7854C33.6508 57.9067 33.8215 57.9749 33.9995 57.9749C34.1775 57.9749 34.3482 57.9067 34.4741 57.7854C34.6 57.6641 34.6707 57.4996 34.6707 57.3281V53.4268C35.1237 53.904 35.6746 54.2852 36.2887 54.5463C36.9027 54.8073 37.5663 54.9425 38.2375 54.9432C38.3502 54.9432 38.4636 54.9394 38.5778 54.9317C39.6773 54.8526 40.7165 54.4168 41.5259 53.6952C42.3352 52.9736 42.8668 52.009 43.0339 50.9588L43.9927 44.7316C44.0093 44.6242 43.9975 44.5145 43.9584 44.4126C43.9194 44.3108 43.8543 44.22 43.7693 44.1488C43.6843 44.0775 43.582 44.028 43.472 44.0049C43.3619 43.9817 43.2475 43.9856 43.1394 44.0163L36.8727 45.7947C36.0256 46.0362 35.2638 46.4977 34.6707 47.1286V42.8159C35.1236 43.2931 35.6746 43.6744 36.2887 43.9354C36.9027 44.1964 37.5663 44.3316 38.2375 44.3323C38.3502 44.3323 38.4636 44.3285 38.5778 44.3209C39.6773 44.2418 40.7165 43.8059 41.5259 43.0844C42.3352 42.3628 42.8668 41.3982 43.0339 40.348L43.9927 34.1208C44.0093 34.0134 43.9975 33.9037 43.9584 33.8018C43.9194 33.7 43.8543 33.6092 43.7693 33.538C43.6843 33.4667 43.582 33.4172 43.472 33.3941C43.3619 33.3709 43.2475 33.3748 43.1394 33.4055L36.8727 35.1838C36.0256 35.4254 35.2638 35.8868 34.6707 36.5177V32.5674C35.1236 33.0446 35.6746 33.4258 36.2887 33.6869C36.9027 33.9479 37.5663 34.0831 38.2375 34.0837ZM37.2512 26.1763L42.5104 24.6839L41.7062 29.9096C41.614 30.5085 41.3564 31.0725 40.9603 31.5424C40.5642 32.0124 40.0443 32.3711 39.4549 32.5809C38.8656 32.7907 38.2285 32.8439 37.6105 32.735C36.9925 32.626 36.4162 32.3589 35.9421 31.9616C35.468 31.5643 35.1136 31.0515 34.9158 30.4768C34.7181 29.9022 34.6844 29.2868 34.8182 28.6953C34.9521 28.1038 35.2486 27.5578 35.6766 27.1146C36.1047 26.6715 36.6485 26.3474 37.2512 26.1763ZM33.253 29.6493C33.193 30.4793 32.817 31.2588 32.1971 31.8381C31.5772 32.4174 30.7571 32.7556 29.8942 32.7879C29.0314 32.8201 28.1865 32.5442 27.5219 32.013C26.8573 31.4818 26.4197 30.7327 26.2931 29.9096L25.4888 24.6839L30.748 26.1763C31.5116 26.397 32.175 26.8605 32.6299 27.4912C33.0849 28.122 33.3045 28.8827 33.253 29.6493ZM33.253 50.5086C33.193 51.3387 32.817 52.1182 32.1971 52.6975C31.5772 53.2767 30.7571 53.615 29.8943 53.6473C29.0314 53.6796 28.1866 53.4036 27.5219 52.8724C26.8573 52.3412 26.4197 51.5922 26.2931 50.7691L25.4888 45.5433L30.7481 47.0356C31.5117 47.2562 32.1751 47.7198 32.63 48.3505C33.085 48.9813 33.3045 49.7421 33.253 50.5086ZM37.2512 47.0358L42.5104 45.5433L41.7062 50.7691C41.614 51.3679 41.3563 51.9318 40.9602 52.4018C40.5641 52.8717 40.0442 53.2304 39.4549 53.4401C38.8655 53.6499 38.2285 53.7031 37.6105 53.5941C36.9925 53.4852 36.4163 53.2181 35.9422 52.8208C35.4681 52.4235 35.1137 51.9107 34.9159 51.3361C34.7182 50.7615 34.6844 50.1461 34.8183 49.5546C34.9521 48.9631 35.2485 48.4172 35.6765 47.974C36.1045 47.5308 36.6483 47.2067 37.2509 47.0356L37.2512 47.0358ZM37.2512 36.425L42.5101 34.9322L41.7059 40.1578C41.6137 40.7567 41.3561 41.3207 40.9601 41.7907C40.564 42.2606 40.0441 42.6193 39.4547 42.8292C38.8654 43.039 38.2283 43.0922 37.6102 42.9833C36.9922 42.8743 36.416 42.6072 35.9419 42.2099C35.4678 41.8126 35.1133 41.2998 34.9155 40.7251C34.7178 40.1504 34.6841 39.5351 34.8179 38.9436C34.9518 38.352 35.2483 37.8061 35.6763 37.3629C36.1044 36.9197 36.6483 36.5956 37.2509 36.4246L37.2512 36.425ZM31.0477 18.2748L33.9995 13.823L36.9515 18.2747C37.2898 18.7849 37.4795 19.3734 37.5006 19.9784C37.5218 20.5835 37.3737 21.183 37.0719 21.7139C36.7701 22.2449 36.3256 22.6879 35.7851 22.9965C35.2445 23.3051 34.6278 23.4679 33.9995 23.4679C33.3712 23.4679 32.7545 23.3051 32.214 22.9965C31.6734 22.6879 31.229 22.2449 30.9271 21.7139C30.6253 21.183 30.4772 20.5835 30.4984 19.9784C30.5196 19.3734 30.7092 18.7849 31.0475 18.2747L31.0477 18.2748ZM29.5151 43.0305C28.7201 42.9733 27.9688 42.6581 27.3837 42.1365C26.7986 41.6148 26.4143 40.9174 26.2934 40.1582L25.4889 34.9322L30.7481 36.4246C31.5764 36.6596 32.2855 37.1811 32.7392 37.8891C33.1929 38.597 33.3593 39.4415 33.2064 40.2604C33.0535 41.0793 32.5922 41.815 31.9108 42.3262C31.2295 42.8373 30.3763 43.088 29.5149 43.0301L29.5151 43.0305Z" fill="#EE6262"/>
</svg>
