<svg xmlns="http://www.w3.org/2000/svg" width="60" height="100" viewBox="0 0 60 100" fill="none">
  <g clip-path="url(#clip0_2137_1873)">
    <path d="M29.6435 96.609C30.4662 98.3041 32.3359 99.6279 35.8602 99.7041C38.9639 99.7708 43.4791 95.9804 45.2086 93.4853C48.2935 89.0378 50.3876 82.0095 50.6026 80.1715C54.6224 73.5527 52.0609 65.0292 50.7895 60.8388C50.6493 60.3817 50.5371 59.9912 50.4436 59.6674C49.7799 57.2675 49.0694 55.1057 48.3122 53.1629C49.7799 52.7915 51.0232 52.3534 52.921 51.6582C59.9977 49.0583 59.7546 41.3919 58.7824 36.6778C58.558 35.554 58.2682 34.4112 57.913 33.3255C57.9504 33.1922 57.9971 33.0684 58.0345 32.9351C59.5396 26.9353 57.8382 19.6498 53.4819 13.4501C53.4819 13.4405 53.4632 13.431 53.4538 13.412C54.8187 11.4692 56.2209 8.45977 54.7252 5.45036C52.5844 1.13622 45.7414 -0.63514 43.1987 1.26003C42.3199 1.8981 41.6468 2.65998 41.1327 3.41233C37.6831 2.03143 33.8503 1.31717 29.6435 1.29812C25.4368 1.31717 21.6039 2.03143 18.1638 3.41233C17.6496 2.65998 16.9765 1.90763 16.0978 1.26003C13.555 -0.63514 6.70266 1.1267 4.57124 5.45036C3.0755 8.45977 4.47775 11.4692 5.84261 13.412C5.84261 13.4215 5.82392 13.431 5.81457 13.4405C1.44888 19.6498 -0.252518 26.9258 1.25257 32.9351C1.28996 33.0684 1.3367 33.1922 1.3741 33.3255C1.00951 34.4112 0.72906 35.554 0.495351 36.6778C-0.46753 41.3919 -0.719936 49.0583 6.36612 51.6582C8.26384 52.363 9.50717 52.7915 10.9749 53.1629C10.2176 55.1152 9.49782 57.2675 8.84344 59.6674C8.74995 59.9912 8.63777 60.3817 8.49755 60.8388C7.22617 65.0292 4.66472 73.5527 8.68451 80.1715C8.90888 82.0095 10.9936 89.0473 14.0785 93.4948C15.8173 95.99 20.3232 99.7708 23.4269 99.7136C26.9606 99.6374 28.8302 98.3042 29.6529 96.6185M29.6529 91.9806C29.1013 90.7044 28.1665 89.3807 27.1849 88.3902C27.9889 88.4283 28.8022 88.4474 29.6529 88.4474C30.5036 88.4474 31.3169 88.4188 32.1115 88.3902C31.1299 89.3807 30.2044 90.6949 29.6529 91.9806Z" fill="#E60012"/>
    <path d="M47.8634 38.8684C47.6297 37.5065 47.3586 36.297 47.5268 34.9733C47.9101 31.9734 50.0789 29.2782 53.22 29.7354C54.3511 29.8973 55.2299 30.2973 55.903 30.8496C56.6134 25.8974 54.9868 19.9357 51.4625 14.9169C46.3489 7.59331 39.0105 3.86011 29.6434 3.83154C20.2951 3.86964 12.9566 7.59331 7.8337 14.9169C4.30937 19.9357 2.6734 25.8974 3.39323 30.8496C4.06631 30.2973 4.94506 29.9068 6.07621 29.7354C9.21726 29.2782 11.3861 31.9734 11.7694 34.9733C11.9376 36.297 11.6665 37.5065 11.4328 38.8684C11.1711 40.3921 12.1339 41.7254 13.6764 42.4301C18.0421 44.1253 23.3987 45.0396 29.6528 45.1253C35.9068 45.0396 41.2541 44.1253 45.6198 42.4301C47.1716 41.7349 48.1345 40.3921 47.8727 38.8684" fill="white"/>
    <path d="M29.6437 85.9143C33.0371 85.9143 36.0193 85.619 38.5901 85.0381C42.4696 82.9525 47.4056 79.8097 48.1628 79.3621C52.0517 73.6766 49.6024 65.5436 48.4152 61.6009C48.275 61.1247 48.1441 60.7057 48.0506 60.3628C46.2931 53.9535 44.1336 49.4299 41.9835 46.2205C40.0671 46.6871 38.0292 47.049 35.8603 47.2871C35.8042 48.0775 35.449 49.706 33.3924 49.706H25.9137C23.857 49.706 23.4925 48.068 23.4457 47.2871C21.2862 47.049 19.2483 46.6871 17.3319 46.2205C15.135 49.4775 12.9943 54.0107 11.2461 60.3628C11.1526 60.7057 11.0217 61.1152 10.8815 61.5913C9.68493 65.5341 7.23566 73.6766 11.1339 79.3621C11.9098 79.8288 16.8271 82.962 20.6973 85.0381C23.2681 85.619 26.2502 85.9143 29.653 85.9143" fill="white"/>
    <path d="M29.6528 23.2402C31.4103 23.2402 32.85 22.2117 32.85 20.9165C32.85 19.6213 31.4103 18.5737 29.6528 18.5737C27.8954 18.5737 26.437 19.6213 26.437 20.9165C26.437 22.2117 27.8767 23.2402 29.6528 23.2402Z" fill="#E60012"/>
    <path d="M21.4733 19.4596C22.7354 18.0501 24.3152 16.9073 25.3529 15.3073C27.0076 12.7265 26.7739 9.31706 24.1096 7.79331C23.6702 7.56475 23.1 7.45047 22.5671 7.32666C22.0903 7.37428 21.6416 7.32666 21.1648 7.44094C19.1923 7.89807 17.6499 8.91708 15.9765 10.0599C14.9388 10.7551 13.976 11.6408 13.0972 12.4503C11.1621 14.2216 10.1151 16.8977 10.6853 19.6215C10.9938 21.1357 11.9567 22.2309 13.2468 23.0309C14.4714 23.7927 16.0419 23.888 17.2759 23.3547C19.2297 22.488 20.1272 20.9452 21.464 19.4596M20.9966 14.3645C21.6229 14.3645 22.1184 14.8597 22.1184 15.4883C22.1184 16.1168 21.6229 16.6025 20.9966 16.6025C20.3702 16.6025 19.8935 16.1168 19.8935 15.4883C19.8935 14.8597 20.3796 14.3645 20.9966 14.3645Z" fill="#E60012"/>
    <path d="M46.1807 12.4598C45.3019 11.6503 44.339 10.7646 43.3107 10.0694C41.6467 8.9266 40.0949 7.90759 38.1224 7.45046C37.655 7.33618 37.1969 7.37428 36.7201 7.33618C36.1873 7.45999 35.6264 7.57427 35.1776 7.80283C32.5134 9.32659 32.2796 12.736 33.9343 15.3168C34.9626 16.9168 36.5519 18.0596 37.8139 19.4691C39.1507 20.9547 40.0481 22.4975 42.0019 23.3642C43.2359 23.8975 44.8065 23.8023 46.0311 23.0404C47.3212 22.2404 48.2934 21.1547 48.5925 19.631C49.1628 16.9168 48.1064 14.2312 46.1807 12.4693M38.2813 16.612C37.655 16.612 37.1595 16.1263 37.1595 15.4978C37.1595 14.8692 37.6456 14.374 38.2813 14.374C38.917 14.374 39.3844 14.8692 39.3844 15.4978C39.3844 16.1263 38.8983 16.612 38.2813 16.612Z" fill="#E60012"/>
    <path d="M39.9269 22.9736C39.3567 22.6784 38.6555 22.9165 38.3564 23.4974C38.2442 23.7165 35.5986 28.8782 29.6437 28.8782C23.6888 28.8782 21.0339 23.7069 20.931 23.4974C20.6412 22.907 19.9401 22.6689 19.3699 22.9641C18.7903 23.2593 18.5659 23.9736 18.8464 24.5545C18.9772 24.8307 22.2211 31.2495 29.6437 31.2495C37.0663 31.2495 40.3102 24.8212 40.4411 24.5545C40.7309 23.9736 40.4972 23.2593 39.9269 22.9641" fill="#E60012"/>
  </g>
  <defs>
    <clipPath id="clip0_2137_1873">
      <rect width="59.2873" height="99.2155" fill="white" transform="translate(0 0.498291)"/>
    </clipPath>
  </defs>
</svg>