<svg width="923" height="853" viewBox="0 0 923 853" fill="none" xmlns="http://www.w3.org/2000/svg">
<path d="M746.288 665.897C700.68 818.243 498.757 892.532 295.276 831.75C91.7946 770.967 -36.3233 598.101 9.41457 445.755C55.0225 293.409 256.815 219.119 460.296 279.772C663.777 340.554 791.766 513.421 746.288 665.897Z" fill="#E60012"/>
<path d="M872.196 285.486C913.126 297.695 933.265 351.594 917.153 405.623C901.041 459.652 854.654 493.55 813.594 481.341C772.534 469.133 752.393 415.364 768.635 361.335C784.748 307.306 831.135 273.408 872.196 285.616" fill="#E60012"/>
<path d="M727.057 124.439C767.987 136.647 788.257 190.416 772.015 244.445C755.903 298.474 709.515 332.372 668.455 320.164C627.525 307.955 607.255 254.186 623.497 200.027C639.609 145.998 685.997 112.1 727.057 124.309" fill="#E60012"/>
<path d="M535.4 28.4594C576.33 40.6678 596.47 94.4369 580.358 148.596C564.115 202.625 517.858 236.523 476.798 224.314C435.738 211.976 415.727 158.337 431.84 104.308C447.952 50.2787 494.34 16.3808 535.4 28.5893" fill="#E60012"/>
<path d="M322.432 3.52309C363.362 15.7315 383.632 69.5007 367.39 123.53C351.277 177.558 304.89 211.456 263.83 199.248C222.77 187.04 202.63 133.27 218.872 79.1116C234.984 25.0827 281.372 -8.81525 322.432 3.39321" fill="#E60012"/>
<path d="M112.715 58.591C153.645 70.7994 173.785 124.569 157.673 178.597C141.561 232.626 95.173 266.524 54.1129 254.316C13.1828 242.107 -7.08691 188.338 9.15522 134.309C25.2674 80.2805 71.6545 46.3825 112.715 58.591Z" fill="#E60012"/>
</svg>
