<svg width="870" height="1444" viewBox="0 0 870 1444" fill="none" xmlns="http://www.w3.org/2000/svg">
<path d="M794.971 225.635C790.336 219.093 785.566 212.822 780.658 206.688C800.697 185.288 845.68 128.037 816.782 70.9228C785.702 9.3104 685.783 -15.9071 648.705 11.0824C620.624 31.2564 606.72 59.4727 600.449 76.5116C554.102 60.2906 503.12 51.9757 447.64 51.703C393.523 51.9757 343.631 60.018 298.102 75.4211C291.559 58.3823 277.655 30.8475 249.71 11.0824C212.632 -16.0434 112.713 9.17409 81.6333 70.9228C53.6887 126.129 94.8559 181.607 115.712 204.507C110.26 211.323 104.943 218.411 99.7631 225.635C36.3764 314.646 11.5673 418.924 33.514 504.664C50.8261 572.274 96.628 625.708 166.013 659.104C185.915 668.645 207.452 677.097 230.353 684.185C198.728 733.393 168.466 799.231 143.657 887.833C142.43 892.468 140.658 898.056 138.613 904.463C120.619 962.531 84.9049 1078.67 136.159 1171.9C135.887 1181.58 136.159 1195.21 136.159 1214.98C136.159 1214.98 137.113 1258.6 160.696 1333.16C173.782 1374.87 202.272 1432.94 246.984 1440.85C322.23 1454.07 353.174 1418.9 359.989 1380.87C364.624 1355.38 363.806 1317.62 353.446 1293.22C382.345 1297.04 413.561 1298.95 447.367 1298.95C481.173 1298.95 512.39 1297.04 541.016 1293.22C530.792 1317.62 529.974 1355.38 534.609 1380.87C541.425 1418.9 572.369 1454.07 647.069 1440.85C691.781 1432.94 720.134 1374.87 733.357 1333.16C756.803 1258.73 757.757 1214.98 757.757 1214.98C757.757 1191.4 758.166 1176.27 757.484 1166.72C797.97 1081.53 768.526 977.525 751.759 918.639C748.351 906.78 745.489 896.421 743.853 889.06C743.171 885.925 742.49 883.062 741.808 880.063C776.023 845.304 799.878 796.777 781.748 732.439C772.343 698.906 756.667 671.781 742.354 651.879C803.968 618.21 845.135 567.639 861.221 504.664C883.167 418.924 858.494 314.646 795.108 225.635" fill="#E60012"/>
<path d="M507.347 931.998C452.957 869.431 579.73 795.278 598.132 776.74C629.621 744.707 625.259 715.264 616.535 696.725C591.317 702.314 564.462 706.676 536.381 709.675C535.564 720.989 530.384 744.298 500.531 744.298H391.479C361.353 744.298 356.309 720.443 355.628 709.266C324.411 705.858 294.967 700.678 267.432 694.135C235.261 740.89 203.772 806.047 178.145 897.375C176.782 902.282 175.01 908.143 172.829 914.822C156.607 967.166 124.573 1071.44 165.877 1151.46C166.013 1151.46 166.149 1151.46 166.286 1151.46C167.103 1151.46 235.397 1206.94 287.197 1242.79C330.682 1256.28 383.981 1263.1 447.095 1263.1C510.209 1263.1 563.509 1256.28 606.584 1242.79C651.296 1211.84 708.003 1166.32 723.134 1154.59C760.348 1081.39 733.766 986.931 716.999 928.317C714.682 920.002 712.501 912.505 710.865 905.962C697.643 915.504 684.284 923.41 672.015 929.68C615.036 959.123 548.105 979.161 507.21 931.998" fill="white"/>
<path d="M447.641 87.5528C310.78 88.2344 203.5 141.668 129.072 246.355C72.5012 325.688 49.3274 421.242 68.4116 495.803C83.2699 553.599 121.438 597.764 181.826 626.934C250.802 660.194 340.224 677.778 447.777 679.414C554.921 677.915 644.207 660.194 713.183 626.934C773.57 597.764 811.602 553.599 826.461 495.803C845.545 421.242 822.372 325.688 765.801 246.491C691.236 141.804 584.229 88.2344 447.641 87.6891" fill="white"/>
<path d="M496.305 501.256C496.305 519.794 475.312 534.652 449.412 534.652C423.512 534.652 402.792 519.658 402.792 501.256C402.792 482.854 423.785 467.723 449.412 467.723C475.039 467.723 496.305 482.854 496.305 501.256Z" fill="#E60012"/>
<path d="M448.867 614.394C366.942 614.394 330.409 556.325 328.909 553.872C324.002 545.829 326.456 535.333 334.498 530.426C342.541 525.519 352.901 527.973 357.809 535.879C359.035 537.787 386.571 580.316 448.867 580.316C511.163 580.316 538.563 542.694 539.653 541.058C544.969 533.425 555.602 531.517 563.235 536.697C571.005 542.013 572.914 552.372 567.734 560.142C566.235 562.323 530.247 614.257 448.867 614.257" fill="#E60012"/>
<path d="M367.624 257.532C361.217 254.124 352.902 252.489 345.132 250.717C338.18 251.398 331.5 250.717 324.685 252.352C296.058 259.032 272.885 273.617 248.621 289.974C233.49 299.925 219.313 312.738 206.636 324.324C178.419 349.542 163.151 387.982 171.33 426.83C175.828 448.504 190.005 464.043 208.681 475.629C226.402 486.534 249.575 488.034 267.432 480.4C296.604 467.86 309.554 445.777 329.047 424.649C347.449 404.339 370.487 387.982 385.482 365.081C409.746 328.141 406.338 279.342 367.488 257.532M322.095 383.62C313.234 383.62 306.146 376.668 306.146 367.671C306.146 358.675 313.234 351.45 322.095 351.45C330.955 351.45 338.453 358.538 338.453 367.671C338.453 376.804 331.364 383.62 322.095 383.62Z" fill="#E60012"/>
<path d="M689.736 324.324C676.65 312.874 662.609 299.925 647.751 289.974C623.351 273.617 600.586 259.032 571.96 252.352C565.144 250.717 558.737 251.262 551.512 250.717C543.879 252.489 535.564 254.124 529.02 257.532C490.307 279.342 487.035 328.141 511.163 365.081C526.158 387.982 549.195 404.339 567.734 424.649C586.954 445.777 600.313 467.86 628.803 480.4C646.66 488.034 669.971 486.671 687.555 475.629C706.367 464.179 720.68 448.504 725.042 426.83C733.221 387.982 717.953 349.542 689.872 324.324M574.55 383.62C565.689 383.62 558.601 376.668 558.601 367.671C558.601 358.675 565.689 351.45 574.55 351.45C583.41 351.45 590.771 358.538 590.771 367.671C590.771 376.804 583.683 383.62 574.55 383.62Z" fill="#E60012"/>
<path d="M346.495 812.59L306.554 738.573L260.616 653.515L245.212 625.026C243.577 621.891 239.624 620.8 236.625 622.436L178.691 653.515L3.52533 747.569C0.390077 749.205 -0.700478 753.022 0.935305 756.157L101.673 943.72C102.763 945.901 104.944 947.128 107.261 947.128C108.216 947.128 109.306 946.856 110.26 946.31L306.554 841.215L343.905 821.177C345.404 820.359 346.495 818.996 347.04 817.36C347.449 815.725 347.313 813.953 346.495 812.59Z" fill="#E60012"/>
<path d="M105.761 789.962C102.081 791.87 97.9916 793.778 97.4463 798.14C97.4463 799.504 98.4005 800.594 99.6274 801.276C100.991 801.821 102.217 801.548 103.444 800.73C106.852 798.277 109.033 793.233 108.215 789.144C107.397 789.417 106.579 789.553 105.761 789.962Z" fill="white"/>
<path d="M111.759 866.568C109.987 867.523 109.442 869.567 110.396 871.339C111.35 873.111 113.532 873.793 115.167 872.839C116.939 871.885 117.485 869.704 116.531 868.068C115.576 866.432 113.532 865.751 111.759 866.705M115.44 871.067C115.44 871.067 114.895 871.339 114.758 871.203C114.486 871.203 114.35 871.203 114.077 870.93C114.077 871.203 114.077 871.339 114.077 871.476C114.077 871.612 113.804 871.748 113.668 871.885L113.123 872.157C113.123 872.157 112.85 872.294 112.714 872.43C112.577 872.43 112.577 872.702 112.577 872.839L112.168 872.157C112.168 872.157 112.305 872.157 112.441 871.885L113.123 871.476C113.123 871.476 113.532 871.067 113.532 870.794C113.532 870.794 113.531 870.521 113.395 870.249L112.714 868.886L110.805 869.84L110.533 869.295L114.895 866.977L115.985 869.022C115.985 869.022 116.258 869.704 116.258 869.976C116.258 870.521 116.122 870.93 115.576 871.067" fill="white"/>
<path d="M134.66 820.632C138.75 814.498 136.569 806.047 131.389 801.412C127.845 797.868 121.574 797.05 117.212 798.822C115.712 799.504 114.622 800.185 113.395 801.139C111.078 802.639 111.214 805.91 110.533 808.5C109.851 809.318 109.033 810.272 109.169 811.499C109.306 812.453 110.26 812.998 111.078 813.135C116.939 813.816 122.665 811.499 128.39 810.954C129.344 810.681 129.617 811.772 130.571 811.908C131.253 811.908 131.525 811.226 131.934 810.817C132.343 811.226 132.343 811.908 132.48 812.453C132.207 815.043 130.571 816.951 128.39 818.042C122.801 821.177 115.849 817.497 111.35 814.089H111.214C111.214 814.089 111.623 815.452 112.168 815.725C114.349 820.223 117.621 823.767 122.392 824.994C127.027 826.084 132.07 824.312 134.797 820.495M116.122 807.546C116.122 807.546 115.168 807.001 115.031 806.455C115.031 804.274 117.349 803.184 119.257 802.502C122.12 801.821 125.936 802.502 128.117 804.82C124.164 806.592 120.211 807.001 116.122 807.546Z" fill="white"/>
<path d="M135.75 850.893C134.387 851.302 133.296 852.256 132.206 853.074C130.161 855.118 127.707 857.572 128.116 860.707C128.662 861.934 129.479 863.161 130.842 863.57C132.206 863.979 133.569 863.57 134.659 862.479C137.386 860.162 137.522 856.209 136.84 853.074C136.568 852.392 136.568 851.165 135.75 850.893Z" fill="white"/>
<path d="M114.623 867.659L113.123 868.477L113.804 869.84C113.804 869.84 114.214 870.385 114.35 870.385C114.486 870.385 114.759 870.385 115.032 870.385C115.304 870.249 115.441 869.976 115.441 869.704C115.441 869.567 115.44 869.431 115.304 869.158L114.623 867.795V867.659Z" fill="white"/>
<path d="M110.805 793.506C110.805 794.46 111.623 795.005 112.304 795.414C113.395 796.232 114.758 796.232 115.985 795.823C117.212 794.869 118.166 793.506 118.166 791.87C118.029 790.234 118.438 788.599 117.348 786.963C115.985 786.418 115.031 785.327 114.485 783.964L115.576 783.419C116.803 783.692 117.484 785.191 118.03 786.418C118.03 787.372 118.302 788.462 119.257 788.871C120.074 789.144 121.029 788.735 121.847 788.462C123.346 787.099 124.027 784.509 123.618 782.601C123.618 781.511 122.528 781.374 121.71 781.102C121.437 780.829 121.301 780.42 121.438 780.147C122.256 779.057 123.209 780.147 124.164 780.147C124.845 780.011 125.391 779.466 125.527 778.784C125.254 777.285 125.527 775.649 125.254 774.013C125.254 772.105 122.8 772.65 121.574 772.378C121.165 773.196 120.347 773.332 119.665 774.013C118.848 774.286 117.893 775.104 117.075 774.831C116.803 774.422 116.803 773.877 117.075 773.605C116.258 772.105 114.622 773.196 113.668 773.196C113.94 772.787 114.076 772.241 114.349 771.696C114.622 770.197 115.712 769.379 116.394 768.288C116.394 767.743 115.985 767.471 115.712 767.062C114.758 765.971 113.122 767.198 112.577 765.699C111.759 764.608 112.577 763.245 111.895 762.018C111.486 760.928 110.123 760.655 109.033 760.655C108.488 760.655 107.67 760.655 107.261 761.473C104.398 763.518 101.126 765.29 97.8549 766.516C95.8102 766.516 95.265 768.834 93.6292 769.652C92.8113 771.015 94.1744 772.241 94.856 773.332C95.5375 774.15 96.6281 773.468 97.446 773.196C97.9913 772.787 97.9912 773.741 98.2639 774.013C97.7186 774.968 97.7186 775.922 98.2639 776.876C98.9454 777.694 99.4906 778.784 100.717 778.784C102.217 778.239 103.716 777.694 105.08 777.012C104.807 777.285 104.534 777.694 104.262 777.83C103.716 778.648 103.171 779.738 103.58 780.693C104.125 781.374 105.352 780.693 105.625 781.647C103.989 782.874 101.672 784.1 100.036 785.055C98.9455 785.327 97.8548 786.145 96.9006 785.872C96.628 785.464 96.0827 784.918 96.4917 784.509C97.5822 783.555 98.9452 782.874 100.172 781.919C100.99 781.238 101.535 780.42 101.535 779.33C99.4906 779.33 98.4001 777.421 96.9006 776.467C96.4917 776.194 95.8103 775.922 95.4014 776.467C93.3566 778.239 90.3575 777.421 88.8581 779.738C88.1765 781.102 88.4492 782.601 89.4034 783.828C90.7666 784.918 92.5385 785.327 94.3106 784.918C95.1285 788.053 89.9488 788.599 91.1756 791.87C91.5846 793.37 92.8114 794.46 94.1746 794.596C97.9914 793.233 101.399 791.052 105.08 789.008C106.988 788.735 109.033 785.055 110.396 787.917C111.895 789.144 111.623 791.461 111.214 793.233M103.171 771.287L102.626 770.333C104.262 769.243 105.898 768.016 107.806 767.743C107.806 768.016 108.215 768.016 108.351 768.288C107.806 768.834 107.397 769.379 106.715 769.788C105.625 770.469 104.262 771.015 103.171 771.151M107.124 775.649C108.351 774.831 109.987 774.013 111.35 773.468L112.168 773.877C111.486 774.286 110.805 774.968 110.532 775.922C110.532 776.331 110.532 776.74 110.941 777.012C111.35 777.285 111.895 777.558 112.304 777.694C111.895 777.966 111.486 778.512 110.941 778.512C110.396 777.966 109.851 777.558 109.714 776.74C109.714 776.331 109.987 775.922 109.714 775.649C108.76 775.377 107.806 775.377 106.988 775.649" fill="white"/>
<path d="M137.659 690.046L15.1113 755.884L109.851 932.27L232.398 866.568L137.659 690.046ZM115.44 873.52C113.395 874.611 110.805 873.793 109.714 871.748C108.624 869.704 109.305 867.114 111.486 866.023C113.531 864.933 116.121 865.614 117.211 867.795C118.302 869.84 117.484 872.43 115.44 873.657M111.077 858.526L106.17 864.524L88.858 832.354L71.5461 800.185L79.1797 799.504C77.2713 774.15 89.1305 749.477 111.759 737.346L146.247 801.548L180.734 865.75C157.97 877.882 130.979 874.202 110.941 858.526M182.779 858.526L150.745 798.958L118.847 739.39C127.708 741.299 139.84 750.977 148.291 760.655L153.062 756.157L170.375 788.462L187.687 820.768L181.28 822.267C184.688 834.808 185.915 850.211 182.643 858.526" fill="white"/>
<path d="M145.156 830.174C145.838 831.537 147.746 831.809 148.155 833.445C148.155 833.854 148.291 834.535 147.61 834.672C146.11 833.854 145.429 832.082 144.474 830.583C144.066 830.037 144.474 829.219 143.657 828.81C142.975 828.401 142.294 828.402 141.612 828.674C140.521 829.765 140.112 831.4 140.658 832.9C140.658 834.536 142.43 833.445 142.839 834.672C143.248 835.353 143.93 835.762 143.93 836.58C143.521 836.716 143.248 837.125 142.839 836.853C141.067 834.399 139.295 831.673 137.795 828.947V827.447C137.523 826.084 136.296 825.403 134.933 825.266C132.752 825.675 131.934 828.265 131.661 830.31C131.661 830.855 132.206 831.4 132.615 831.809C133.297 832.355 134.251 832.218 134.933 832.082C135.887 833.309 136.977 834.399 137.523 835.899C137.25 835.899 136.841 835.899 136.432 835.899C135.75 835.353 135.069 834.399 134.933 833.581C133.569 833.581 132.751 831.946 131.388 832.763C130.979 833.036 130.434 833.718 130.57 834.263C131.388 835.626 132.343 837.125 133.297 838.488C133.706 838.897 134.251 839.715 134.251 840.397C132.615 840.124 132.07 838.216 131.116 837.125C130.571 835.899 130.298 834.263 128.798 833.854C128.389 833.854 128.117 833.854 127.844 834.127C127.435 835.353 125.663 835.353 125.254 836.58C124.845 837.943 126.481 837.807 126.754 838.625C124.709 838.897 124.164 836.444 122.528 835.899C121.983 835.762 121.437 835.899 121.028 836.171C120.21 837.807 118.029 838.352 117.62 840.261C117.348 841.078 117.893 842.033 118.439 842.851C119.529 844.214 121.574 844.214 123.073 843.941C123.755 843.941 124.436 843.396 125.118 843.668C126.208 846.803 121.165 846.94 122.391 850.075C123.073 851.711 123.755 854.028 125.799 854.028C128.662 853.483 130.98 851.302 133.706 850.211C134.115 850.211 134.251 850.484 134.524 850.62C135.342 851.029 135.069 849.939 135.478 849.53C136.023 849.666 136.432 849.939 136.705 850.348C138.886 851.847 136.977 854.437 138.341 856.345C138.749 857.027 139.431 857.436 140.249 857.708C141.339 857.708 142.566 857.299 143.384 856.482C144.747 855.255 144.611 853.074 144.611 851.438C144.611 850.348 144.066 849.393 144.066 848.303C144.611 848.303 144.747 848.848 145.156 849.121C145.838 849.666 146.247 848.848 146.656 848.712C148.428 850.62 146.111 853.21 146.111 855.391C146.247 856.073 146.792 856.618 147.201 857.027C148.973 858.117 150.609 857.027 152.245 856.209C154.562 854.573 152.108 851.983 153.062 849.802C152.926 848.712 151.699 848.712 151.018 848.439C149.655 846.667 148.291 844.759 147.201 842.578V842.305C147.201 842.305 147.746 841.896 148.019 842.169C149.655 843.668 150.609 845.713 151.427 847.894C152.108 848.439 153.062 848.712 153.88 848.303C155.516 847.212 154.971 845.168 154.562 843.532C152.926 843.123 152.108 841.487 151.29 840.261C151.699 839.988 152.108 839.988 152.517 839.715C153.608 840.806 154.289 842.305 155.107 843.668C155.652 844.759 155.516 846.94 157.288 847.076C157.833 847.076 158.379 847.076 158.788 846.667C159.742 845.713 159.606 844.214 159.197 842.987C159.742 840.806 156.743 841.487 156.334 839.852C156.334 839.17 155.516 838.761 155.652 838.08C156.334 838.08 157.424 838.897 158.106 838.08C158.242 837.807 158.379 837.534 158.379 837.262L157.425 834.536C157.425 833.581 157.288 832.491 156.334 831.946C154.835 831.128 153.199 832.082 151.972 833.036C150.609 831.537 149.109 829.628 148.973 827.447C148.428 826.629 147.337 826.357 146.52 826.357C144.202 826.902 145.701 829.083 145.429 830.583M127.571 844.35C127.571 844.35 127.026 843.259 127.026 842.714C127.435 842.033 127.981 841.351 128.253 840.669C129.48 840.942 129.753 842.441 130.57 843.396C129.616 843.805 128.662 845.168 127.571 844.35ZM139.84 848.984C139.022 848.03 138.34 847.076 137.795 846.122C139.022 846.531 140.521 846.531 141.067 847.621C140.794 848.167 140.249 848.576 139.84 848.984ZM140.249 841.487C140.249 841.487 140.113 841.215 139.976 841.078C140.93 840.942 142.021 841.078 142.294 842.033C141.749 842.033 140.658 842.033 140.249 841.487Z" fill="white"/>
<path d="M194.502 686.502C195.183 685.548 195.592 685.139 196.41 684.457C200.5 681.05 204.725 678.051 211.95 673.144L210.314 670.008C206.634 667.555 202.408 666.873 199 667.01C195.728 667.146 193.411 667.691 189.458 666.737C188.231 666.464 187.277 665.51 186.868 665.101L183.869 666.737C184.551 667.964 185.914 668.918 188.504 669.327C190.003 669.599 191.912 669.327 193.956 669.054L199 678.596C197.364 679.686 195.865 680.777 194.502 681.731C193.684 682.276 193.275 682.549 192.184 682.822L194.229 686.638L194.502 686.502ZM195.456 668.782C197.773 668.509 200.09 668.1 201.999 668.509C204.998 669.054 207.724 669.191 209.36 671.235C206.77 673.144 203.498 675.597 200.363 677.778L195.592 668.782H195.456Z" fill="white"/>
<path d="M190.822 688.138L190.141 688.547C191.776 691.546 195.866 692.772 198.729 691.273L213.723 683.231C215.086 682.413 215.904 682.276 216.722 682.14L214.678 678.323C214.678 678.323 212.088 680.504 210.724 681.186L197.229 688.41C194.503 689.91 192.867 690.319 190.822 688.138Z" fill="white"/>
<path d="M199.409 695.771C200.091 695.771 200.909 695.499 202.272 694.817L216.04 687.456C217.403 686.775 218.085 686.229 218.494 685.548L220.538 689.228C219.72 689.228 218.902 689.501 217.539 690.182L203.771 697.543C202.408 698.225 201.727 698.77 201.318 699.452L199.409 695.771Z" fill="white"/>
<path d="M209.771 700.951C210.316 701.905 211.27 702.178 212.224 701.769C213.178 701.36 213.451 700.133 212.906 699.315C212.497 698.361 211.407 698.088 210.452 698.634C209.498 699.179 209.225 700.269 209.634 701.087" fill="white"/>
<path d="M219.584 726.714C218.221 727.668 217.539 728.213 217.13 728.758L215.086 724.942C215.767 724.942 216.449 724.942 217.676 724.124C219.72 722.897 225.718 719.08 227.763 717.581C229.535 716.218 232.807 713.083 230.489 708.584C228.99 705.722 223.946 703.405 218.221 706.403L210.86 710.356C209.497 711.038 208.951 711.583 208.406 712.265L206.361 708.584C207.179 708.584 207.997 708.312 209.224 707.63L222.992 700.269C224.355 699.588 225.036 698.906 225.445 698.361L227.354 702.041C227.354 702.041 225.991 702.314 225.036 702.723C227.49 703.677 229.944 705.177 231.171 707.63C232.534 710.084 234.17 716.763 228.444 720.58C225.309 722.624 221.22 725.351 219.311 726.714" fill="white"/>
<path d="M242.759 729.031C239.623 723.17 232.807 720.716 226.81 723.987C220.948 727.123 219.176 734.074 222.311 740.072C225.447 746.07 232.262 748.387 238.124 745.116C244.122 741.98 245.894 735.029 242.622 729.031M223.402 739.391C219.721 732.711 226.537 727.804 228.309 726.85C233.353 724.124 238.942 724.805 241.532 729.712C244.122 734.483 241.532 739.663 236.624 742.253C234.852 743.207 227.082 746.07 223.538 739.391" fill="white"/>
<path d="M236.897 751.386C237.306 752.34 238.397 752.613 239.351 752.204C240.169 751.658 240.578 750.568 240.033 749.75C239.624 748.796 238.397 748.523 237.579 749.069C236.625 749.614 236.352 750.704 236.761 751.522" fill="white"/>
<path d="M239.895 771.151C240.577 771.151 241.395 770.742 242.758 770.061L251.891 765.153C255.026 763.518 256.935 762.427 257.208 760.383C257.344 759.565 257.208 758.883 256.799 757.793C254.481 753.431 250.392 755.748 248.62 756.43C246.302 757.384 238.396 761.2 236.351 762.427C236.079 762.563 235.806 762.7 235.534 762.972L233.625 759.428C234.307 759.428 235.124 759.156 236.624 758.474C238.805 757.52 243.304 755.612 246.575 753.976C252.846 751.113 256.39 754.112 257.753 756.702C258.98 759.156 258.707 761.609 257.753 763.654C259.934 764.063 262.251 765.153 263.478 767.607C264.841 770.061 265.386 774.831 259.525 778.376C256.39 780.284 252.164 783.01 250.255 784.237C248.892 785.191 248.347 785.6 247.938 786.145L246.03 782.601C246.03 782.601 246.575 782.601 246.848 782.329C248.892 781.238 256.663 776.74 258.571 775.377C260.207 774.286 264.432 772.105 261.979 767.88C261.434 766.925 260.752 766.38 260.07 766.108C258.162 765.153 256.254 766.108 252.982 767.88L243.849 772.787C242.485 773.468 241.804 774.014 241.395 774.559L239.623 771.151H239.895Z" fill="white"/>
<path d="M273.702 786.554C270.567 780.693 263.751 778.239 257.89 781.511C252.028 784.646 250.12 791.598 253.391 797.595C256.527 803.457 263.343 805.774 269.204 802.639C275.202 799.504 277.519 792.552 273.702 786.554ZM254.482 796.914C250.801 790.235 257.617 785.327 259.389 784.373C264.433 781.647 270.022 782.329 272.612 787.236C275.202 792.007 272.612 797.05 267.704 799.776C265.932 800.731 258.162 803.593 254.618 796.914" fill="white"/>
<path d="M261.433 811.09C262.251 811.09 262.932 810.817 264.295 810.136L279.835 802.093L276.972 796.914L278.881 795.959L285.969 809.045L284.061 810.136L281.335 804.956L265.795 812.998C264.432 813.68 263.886 814.225 263.341 814.907L261.433 811.226V811.09Z" fill="white"/>
<path d="M290.878 817.497C287.742 811.635 281.063 809.182 274.52 812.453C268.658 815.588 266.75 822.54 270.021 828.402C273.157 834.263 280.517 836.58 286.379 833.445C292.377 830.174 294.149 823.358 290.878 817.36M271.112 827.72C267.431 821.041 274.247 816.134 276.564 815.179C281.608 812.453 287.197 813.135 289.787 818.042C292.377 822.813 289.787 827.856 284.88 830.583C283.108 831.537 274.792 834.399 271.248 827.72" fill="white"/>
<path d="M281.335 839.306L281.744 840.261C281.744 840.261 281.744 840.533 281.881 840.533C281.881 840.669 281.881 840.806 281.608 840.942C281.608 840.942 281.335 840.942 281.199 840.942C281.199 840.942 281.063 840.806 280.927 840.669L280.518 839.852L281.472 839.306H281.335ZM279.018 840.533L280.109 839.988L280.518 840.806V841.078C280.518 841.215 280.518 841.351 280.245 841.487L279.836 841.76H279.7L279.972 842.169C279.972 842.169 279.972 842.032 279.972 841.896C279.972 841.896 280.109 841.896 280.245 841.76H280.518L280.79 841.351C280.79 841.351 280.79 841.215 280.79 841.078C280.79 841.078 281.063 841.215 281.199 841.078C281.199 841.078 281.472 841.078 281.608 841.078C281.881 840.942 282.017 840.669 282.017 840.397C282.017 840.261 282.017 839.988 281.881 839.852L281.199 838.625L278.609 839.988V840.397L279.018 840.533Z" fill="white"/>
<path d="M282.836 839.17C282.154 837.943 280.654 837.534 279.428 838.08C278.201 838.761 277.655 840.397 278.337 841.624C279.018 842.851 280.518 843.396 281.881 842.714C283.108 842.033 283.517 840.533 282.836 839.17ZM278.746 841.351C278.201 840.261 278.473 839.034 279.564 838.489C280.518 837.943 281.881 838.352 282.427 839.443C282.972 840.533 282.563 841.76 281.609 842.305C280.518 842.851 279.155 842.442 278.61 841.487" fill="white"/>
<path d="M142.839 732.03C96.083 757.111 40.0575 743.48 17.7018 701.632C-4.65389 659.921 14.9755 605.67 61.5954 580.589C108.215 555.507 164.377 569.138 186.733 610.986C209.088 652.833 189.459 706.949 142.839 732.03Z" fill="#E60012"/>
<mask id="mask0_285_2156" style="mask-type:luminance" maskUnits="userSpaceOnUse" x="145" y="694" width="597" height="569">
<path d="M178.145 897.375C176.782 902.282 175.01 908.143 172.829 914.822C156.607 967.302 124.573 1071.44 165.877 1151.32C166.013 1151.32 166.149 1151.32 166.286 1151.32C167.103 1151.32 235.397 1206.8 287.197 1242.65C330.682 1256.14 383.981 1262.96 447.095 1262.96C510.209 1262.96 563.509 1256.14 606.584 1242.65C651.296 1211.71 708.003 1166.18 723.134 1154.46C760.348 1081.12 733.766 986.794 716.999 928.181C714.682 919.866 712.501 912.505 710.865 905.826C697.643 915.368 684.284 923.274 672.015 929.68C615.036 959.123 548.105 979.161 507.21 931.998C452.82 869.431 579.594 795.278 597.996 776.74C629.485 744.707 624.987 715.264 616.399 696.725C591.181 702.314 564.463 706.676 536.245 709.675C535.428 720.852 530.247 744.298 500.394 744.298H391.342C361.217 744.298 356.173 720.443 355.491 709.402C324.275 705.994 294.831 700.815 267.295 694.135C235.125 740.89 203.636 806.047 178.009 897.375" fill="white"/>
</mask>
<g mask="url(#mask0_285_2156)">
<path d="M524.249 907.053L521.522 905.69C511.299 900.51 506.8 890.014 506.255 884.289C505.437 875.565 500.939 867.25 491.533 850.893C482.536 835.626 472.312 835.899 468.223 836.716L457.181 816.406C456.364 815.043 455.273 814.089 453.638 813.544C452.138 813.135 450.502 813.271 449.139 813.953L374.029 854.846C372.666 855.664 371.712 856.891 371.167 858.39C370.758 859.889 370.894 861.525 371.575 862.888L383.026 883.744C379.754 887.424 375.392 896.012 383.026 910.597C391.75 927.636 396.385 935.542 403.201 940.858C407.699 944.402 414.106 953.944 413.015 965.394L412.743 968.393C411.244 984.205 408.108 1017.06 441.642 1039C451.32 1045.27 461.68 1047.04 470.404 1047.04C482.127 1047.04 490.851 1043.77 491.26 1043.64C491.669 1043.5 502.438 1040.36 519.069 1030.41C536.79 1021.55 545.241 1014.33 545.241 1014.19C546.196 1013.51 568.415 996.2 568.006 969.483C567.597 929.408 538.153 914.414 523.976 907.189" fill="#E60012"/>
<path d="M460.044 846.258L458.136 842.851L412.743 867.659C412.743 867.659 411.925 868.068 411.38 868.068C410.426 868.068 409.471 867.523 408.926 866.569C408.245 865.205 408.653 863.57 410.017 862.752L455.546 837.943L454.047 835.217L408.517 860.026C408.517 860.026 407.563 860.434 407.154 860.434C406.2 860.434 405.246 859.889 404.7 858.935C404.019 857.572 404.428 855.936 405.791 855.118L451.32 830.174L449.548 826.766L384.662 862.07L395.295 881.426C404.019 876.247 417.105 868.613 427.465 862.888C438.37 857.027 451.048 850.484 459.908 846.122" fill="white"/>
<path d="M394.749 888.515C394.749 888.515 394.749 888.787 394.613 888.787L392.977 890.287C390.796 892.059 389.296 896.557 393.658 905.008C401.428 920.002 405.654 927.499 410.562 931.452C418.741 937.859 426.238 951.081 424.875 966.212L424.602 969.347C423.239 983.932 420.649 1010.92 448.184 1029.05C465.769 1040.5 487.58 1032.46 487.716 1032.46C488.261 1032.32 497.94 1029.32 513.616 1020.05C530.246 1011.74 538.017 1005.06 538.017 1005.06C538.426 1004.65 556.828 990.339 556.555 969.483C556.146 936.496 531.882 924.092 518.796 917.412L516.07 916.049C502.574 909.097 495.486 895.603 494.532 885.379C493.85 878.973 489.761 871.612 481.309 856.754C476.538 848.712 472.04 847.621 470.268 848.167L466.86 849.121C466.86 849.121 466.86 849.121 466.724 849.121C458.545 853.21 443.413 860.843 430.327 867.932C416.832 875.429 402.246 884.016 394.749 888.515Z" fill="white"/>
<path d="M492.35 980.933C496.712 978.616 498.893 974.254 497.394 971.528C495.758 968.665 490.987 968.256 486.625 970.574C482.263 972.891 480.082 977.117 481.581 980.115C483.217 982.842 487.988 983.25 492.214 980.933" fill="#E60012"/>
<path d="M515.524 970.301C513.752 970.028 511.843 971.119 511.435 972.891C511.435 973.3 509.254 982.296 496.713 989.248C484.308 996.064 475.584 992.929 475.175 992.792C473.402 992.111 471.494 992.929 470.812 994.701C470.131 996.473 470.949 998.381 472.721 999.063C472.994 999.063 476.129 1000.29 481.036 1000.29C485.943 1000.29 492.487 999.199 499.984 995.109C515.388 986.658 517.978 974.663 517.978 974.118C518.387 972.209 517.16 970.437 515.388 970.165" fill="#E60012"/>
<path d="M457.591 945.901C456.091 945.901 454.592 946.31 452.956 946.719C451.865 947.401 450.502 947.946 449.412 948.764C445.05 952.717 442.46 957.351 439.597 962.531C437.825 965.666 436.598 969.21 435.372 972.482C432.782 979.434 433.736 987.612 438.779 993.746C441.506 997.154 445.459 998.654 449.821 998.926C454.047 999.199 458.136 997.291 460.59 994.155C464.543 989.384 464.815 984.205 466.178 978.616C467.542 973.3 470.132 968.393 470.677 962.94C471.495 954.216 466.451 945.901 457.455 945.765M461.271 968.529C459.908 969.074 458.272 968.529 457.727 967.029C457.045 965.666 457.727 964.031 459.09 963.485C460.453 962.804 462.089 963.485 462.635 964.849C463.18 966.348 462.634 967.984 461.135 968.529" fill="#E60012"/>
<path d="M531.883 942.766C529.429 935.269 523.022 930.089 515.661 928.454C512.253 927.772 508.573 926.954 504.892 926.682C499.031 926.273 493.715 926 488.126 927.636C486.762 928.045 485.672 928.726 484.445 929.408C483.218 930.498 481.855 931.589 481.173 932.816C476.539 940.449 480.901 949.173 488.671 953.126C493.578 955.579 499.167 956.125 504.347 957.76C509.8 959.532 514.298 962.122 520.432 961.441C524.249 961.032 528.202 958.442 530.247 954.898C532.155 951.081 533.11 946.992 531.883 942.766ZM498.349 948.219C497.122 949.173 495.487 948.764 494.532 947.537C493.578 946.31 493.987 944.538 495.214 943.72C496.441 942.766 498.076 943.175 499.031 944.402C499.849 945.629 499.576 947.265 498.349 948.219Z" fill="#E60012"/>
<path d="M465.361 877.746C464.407 878.291 463.998 879.518 464.543 880.609C465.088 881.563 466.315 881.972 467.406 881.29C468.496 880.745 468.769 879.382 468.36 878.428C467.815 877.473 466.588 877.201 465.497 877.746M467.406 881.017C466.451 881.426 465.361 881.154 464.952 880.336C464.543 879.382 464.952 878.428 465.77 877.882C466.588 877.337 467.678 877.746 468.223 878.564C468.632 879.382 468.223 880.472 467.406 881.017Z" fill="#E60012"/>
<path d="M467.542 879.654C467.542 879.654 467.269 879.382 467.269 879.245C467.269 879.109 466.997 879.109 466.86 879.109C466.86 878.836 467.133 878.836 466.997 878.564C466.997 878.428 466.86 878.291 466.724 878.155C466.451 878.019 466.179 878.019 466.043 878.155L464.815 878.837L465.906 880.881L466.315 880.609L465.906 879.791L466.452 879.518H466.724C466.86 879.654 466.997 879.927 466.997 879.927C466.997 879.927 466.997 879.927 466.997 880.063L467.542 879.791C467.542 879.791 467.542 879.791 467.542 879.518M466.315 878.973L465.77 879.245L465.497 878.7L466.043 878.427C466.043 878.427 466.452 878.428 466.452 878.564C466.452 878.7 466.451 878.836 466.315 878.973Z" fill="#E60012"/>
<path d="M434.963 882.244C433.463 883.88 433.054 886.743 433.872 888.787C434.145 889.469 434.418 890.014 434.963 890.559C435.781 891.65 437.144 891.513 438.371 891.786C438.78 892.059 439.188 892.468 439.87 892.331C440.279 892.331 440.551 891.786 440.551 891.513C440.824 888.924 439.734 886.197 439.461 883.471C439.461 883.062 439.87 882.926 439.87 882.517C439.87 882.244 439.461 881.972 439.461 881.835C439.597 881.699 440.006 881.699 440.279 881.699C441.369 881.699 442.324 882.517 442.869 883.471C444.232 886.061 442.596 889.332 441.097 891.513C441.097 891.513 441.642 891.241 441.779 890.968C443.96 890.014 445.459 888.378 446.004 886.197C446.413 884.016 445.595 881.699 443.823 880.472C440.961 878.564 437.144 879.654 434.963 882.108M438.098 889.196C438.098 889.196 437.825 889.605 437.552 889.741C436.462 889.741 436.053 888.651 435.781 887.833C435.372 886.334 435.78 884.562 436.735 883.607C437.552 885.379 437.689 887.288 438.098 889.196Z" fill="#E60012"/>
<path d="M430.737 888.515C429.919 888.515 429.238 888.515 428.556 888.923C428.283 889.605 427.738 890.014 427.193 890.287L426.92 889.741C426.92 889.741 427.738 888.923 428.283 888.651C428.692 888.651 429.238 888.515 429.374 888.106C429.374 887.697 429.237 887.288 429.101 886.879C428.419 886.197 427.329 885.788 426.375 886.061C425.83 886.061 425.83 886.606 425.693 886.879C425.693 887.015 425.421 887.151 425.284 886.879C424.739 886.47 425.284 886.061 425.284 885.652C425.284 885.379 425.012 885.107 424.739 884.97C423.921 885.107 423.24 884.97 422.558 885.107C421.74 885.107 421.877 886.334 421.74 886.879C422.149 886.879 422.286 887.424 422.558 887.697C422.558 888.106 422.967 888.515 422.831 888.923C422.831 888.923 422.558 888.923 422.285 888.923C421.604 889.332 422.149 890.014 422.013 890.559C421.74 890.559 421.604 890.423 421.331 890.287C420.65 890.014 420.241 889.605 419.695 889.332C419.559 889.332 419.287 889.332 419.15 889.741C418.605 890.15 419.15 890.832 418.468 891.241C418.06 891.65 417.378 891.241 416.833 891.513C416.288 891.65 416.151 892.331 416.151 892.877C416.151 893.149 416.151 893.558 416.56 893.694C417.515 894.921 418.332 896.421 418.877 897.92C418.877 898.874 419.968 899.147 420.377 899.965C420.922 900.237 421.604 899.692 422.013 899.283C422.422 899.011 422.013 898.465 422.013 898.193C421.877 897.92 422.285 897.92 422.422 897.784C422.694 897.92 423.376 897.92 423.785 897.784C424.194 897.375 424.739 897.102 424.603 896.693C424.467 896.012 424.194 895.33 423.785 894.649C423.785 894.785 424.058 894.921 424.194 895.057C424.603 895.33 425.148 895.603 425.421 895.33C425.83 895.057 425.421 894.512 425.966 894.376C426.511 895.194 427.056 896.284 427.465 896.966C427.602 897.375 428.011 897.92 427.874 898.465C427.738 898.465 427.466 898.738 427.193 898.602C426.784 898.056 426.511 897.511 426.102 896.966C425.829 896.693 425.421 896.284 424.875 896.421C424.875 897.375 424.057 897.92 423.512 898.602C423.376 898.738 423.239 899.147 423.512 899.283C424.33 900.237 424.058 901.6 425.012 902.282C425.693 902.554 426.375 902.418 426.92 901.873C427.329 901.328 427.602 900.374 427.465 899.692C428.965 899.283 429.238 901.6 430.601 901.055C431.282 900.919 431.828 900.237 431.964 899.692C431.282 898.056 430.328 896.284 429.238 894.649C429.238 893.831 427.465 892.876 428.692 892.195C429.374 891.513 430.328 891.65 431.146 891.786C431.555 891.786 431.964 891.513 432.1 891.241C432.509 890.695 432.509 890.014 432.236 889.469C431.828 888.923 431.146 888.378 430.464 888.515M421.195 895.739L420.786 896.012C420.241 895.33 419.696 894.376 419.559 893.558C419.696 893.558 419.559 893.422 419.832 893.422C420.104 893.694 420.377 893.831 420.513 894.103C420.922 894.648 421.059 895.194 421.195 895.739ZM424.603 892.059C424.603 892.059 424.057 892.604 423.649 892.74C423.376 892.74 423.239 892.604 423.103 892.74C422.967 893.149 422.967 893.558 423.103 894.103C422.694 893.422 422.285 892.74 422.013 892.059L422.285 891.65C422.285 891.65 422.831 892.195 423.24 892.331C423.376 892.331 423.649 892.331 423.785 892.195C423.921 892.059 424.057 891.786 424.057 891.513C424.057 891.786 424.466 891.922 424.466 892.059" fill="#E60012"/>
<path d="M429.374 893.013C429.374 893.013 429.647 893.831 429.783 894.103C430.737 895.739 431.555 897.647 433.6 897.92C434.281 897.92 434.69 897.511 435.099 896.83C435.235 896.148 435.099 895.603 434.827 895.057C433.736 893.422 431.418 892.468 429.51 892.877" fill="#E60012"/>
<path d="M460.045 872.43C459.227 871.339 458 872.43 457.046 872.021C456.637 872.021 456.637 872.703 456.5 872.975C455.682 873.657 454.728 874.202 453.774 874.883C453.774 874.883 453.637 874.611 453.774 874.475C454.592 873.793 455.41 873.248 456.5 872.839C456.773 872.566 456.909 872.021 456.637 871.748C456.091 871.067 455.137 871.339 454.456 871.476C454.319 872.157 453.501 872.566 452.956 872.975C452.956 872.703 452.82 872.566 452.683 872.43C453.229 871.885 453.91 871.612 454.592 871.203C455.137 870.93 456.091 871.067 456.091 870.249C456.091 869.976 456.092 869.704 455.819 869.431C455.41 869.022 454.728 869.158 454.183 869.295C453.092 869.022 453.501 870.385 452.683 870.658C452.411 870.658 452.138 870.93 451.866 870.93C451.866 870.658 452.138 870.249 451.866 869.704C451.729 869.704 451.593 869.704 451.457 869.704L450.23 870.113C450.23 870.113 449.276 870.113 449.003 870.522C448.594 871.203 449.003 872.021 449.548 872.566C448.866 873.248 448.049 873.929 446.958 873.929C446.685 874.202 446.549 874.747 446.413 875.156C446.686 876.247 447.776 875.429 448.458 875.565C449.139 875.292 449.139 874.338 449.957 874.202C450.23 874.202 450.366 874.202 450.502 874.475C450.23 875.156 449.412 875.565 448.73 875.974C448.458 876.11 448.049 875.974 447.912 876.383C447.776 876.656 447.912 877.064 447.912 877.201C448.458 877.746 449.275 877.882 449.957 877.746C450.639 877.746 450.23 876.928 450.775 876.655C451.047 876.519 451.184 876.11 451.593 876.11C451.593 876.11 451.865 876.383 451.729 876.519C450.639 877.337 449.412 878.155 448.185 878.973H447.503C447.503 878.973 446.549 879.654 446.413 880.2C446.686 881.154 447.776 881.563 448.73 881.699C449.139 881.699 449.276 881.426 449.412 881.29C449.548 880.881 449.548 880.472 449.548 880.336C450.093 879.791 450.639 879.382 451.32 879.109C451.32 879.245 451.32 879.382 451.32 879.654C451.048 879.927 450.639 880.336 450.23 880.336C450.23 880.881 449.548 881.29 449.821 881.972C449.957 882.244 450.23 882.38 450.502 882.38C451.184 881.972 451.866 881.563 452.411 881.154C452.411 880.881 452.956 880.745 453.229 880.745C453.229 881.426 452.138 881.699 451.729 882.244C451.184 882.517 450.366 882.653 450.23 883.335C450.23 883.607 450.23 883.744 450.366 883.88C450.911 884.016 450.911 884.834 451.457 885.107C452.002 885.243 452.002 884.561 452.411 884.425C452.547 885.379 451.456 885.516 451.184 886.334C451.184 886.606 451.184 886.742 451.32 887.015C452.002 887.424 452.275 888.378 453.229 888.515C453.638 888.651 454.047 888.514 454.319 888.242C455.001 887.697 455.001 886.879 454.865 886.061C454.865 885.788 454.592 885.379 454.728 885.243C456.228 884.698 456.228 887.015 457.727 886.47C458.545 886.197 459.499 885.788 459.499 884.834C459.227 883.471 458.272 882.517 457.727 881.154C457.727 881.017 457.727 880.881 457.864 880.881C458 880.472 457.591 880.609 457.455 880.336C457.455 880.2 457.591 879.927 457.727 879.791C458.409 878.7 459.636 879.654 460.454 878.973C460.726 878.7 460.862 878.564 460.999 878.155C460.999 877.61 460.999 877.064 460.454 876.655C459.908 876.11 458.954 876.11 458.136 876.11C457.591 876.11 457.182 876.383 456.637 876.383C456.637 876.11 456.909 876.11 457.046 875.838C457.318 875.565 457.045 875.429 456.773 875.156C457.591 874.338 458.818 875.429 459.772 875.429C460.181 875.429 460.317 875.156 460.59 875.02C461.135 874.202 460.59 873.384 460.181 872.702M454.728 884.153C454.728 884.153 454.319 884.425 454.047 884.425C453.774 884.289 453.365 884.016 453.092 883.88C453.229 883.335 454.047 883.198 454.456 882.789C454.592 883.198 455.274 883.744 454.865 884.153M453.501 878.427C453.501 878.427 453.501 878.427 453.229 878.427C453.093 877.882 453.229 877.473 453.638 877.337C453.638 877.61 453.638 878.155 453.501 878.291M455.682 879.382C455.682 879.382 455.819 878.019 456.364 877.882C456.636 877.882 456.773 878.291 457.046 878.427C456.637 878.836 456.091 879.109 455.682 879.382Z" fill="#E60012"/>
<path d="M458.817 879.518C458.817 879.518 457.863 879.654 457.727 880.063C457.999 880.745 458.408 881.154 458.817 881.699C459.772 882.653 460.862 883.744 462.498 883.471C463.043 883.198 463.588 882.79 463.724 882.244C463.997 881.563 463.724 880.881 463.316 880.472C462.225 879.245 460.453 879.109 458.953 879.518" fill="#E60012"/>
</g>
</svg>
