<svg width="910" height="1311" viewBox="0 0 910 1311" fill="none" xmlns="http://www.w3.org/2000/svg">
<path d="M837.843 1016.96C831.845 1014.37 825.71 1012.32 819.44 1010.82C813.715 968.704 802.128 930.946 794.086 904.91C792.041 898.504 790.405 892.779 789.042 888.144C787.951 884.327 786.861 880.92 785.77 877.239C819.849 840.844 843.023 790.682 821.621 725.662C810.034 689.812 795.857 665.821 784.134 650.555C843.84 616.749 883.781 566.86 899.593 504.975C921.54 419.099 896.731 314.821 833.208 226.083C828.028 218.858 822.712 211.77 817.259 204.955C838.116 182.055 879.146 126.849 851.338 71.6429C820.258 9.75782 720.339 -15.4597 683.261 11.6662C655.725 31.2949 641.957 58.6934 635.414 75.8685C589.749 60.3291 539.721 52.2868 485.467 52.1505C431.214 52.2868 381.323 60.3291 335.657 75.8685C329.25 58.6934 315.346 31.2949 287.947 11.6662C250.869 -15.4597 150.95 9.75782 119.87 71.6429C92.0619 126.849 133.093 182.055 153.949 204.955C148.496 211.77 143.18 218.722 138 225.947C74.477 314.821 49.6677 419.099 71.6144 504.975C77.6123 528.556 87.4271 550.366 100.241 570.268C68.7519 555.001 36.1724 550.775 14.9072 581.445C-20.5347 632.698 15.4525 692.675 57.9829 740.52C82.3834 767.918 137.727 813.173 198.251 836.346C192.663 852.703 187.346 869.742 182.302 888.008C180.939 892.642 179.304 898.367 177.259 904.774C169.216 930.809 157.766 968.567 151.904 1010.55C145.634 1012.19 139.5 1014.1 133.502 1016.82C71.0693 1044.36 36.1723 1123.28 83.3374 1204.11C130.775 1285.35 197.025 1330.2 259.457 1302.66C275.133 1295.71 287.674 1285.08 297.353 1271.72C347.789 1290.4 410.631 1299.94 485.74 1299.94C560.85 1299.94 623.692 1290.4 674.128 1271.72C683.67 1285.08 696.211 1295.71 712.024 1302.66C774.456 1330.2 840.705 1285.35 888.143 1204.11C935.308 1123.28 900.411 1044.36 837.979 1016.82" fill="#E60012"/>
<path d="M485.604 88.5454C349.289 89.0907 242.281 142.388 167.581 247.211C111.01 326.271 87.6996 421.689 106.784 496.114C121.506 554.047 159.674 598.075 220.062 627.245C288.901 660.505 378.187 678.089 485.468 679.589C592.884 678.089 682.171 660.505 751.01 627.245C811.398 598.075 849.566 553.91 864.424 496.114C883.372 421.689 860.199 326.271 803.628 247.211C729.063 142.388 621.919 88.9544 485.468 88.5454" fill="white"/>
<path d="M485.467 535.236C511.367 535.236 532.36 520.514 532.36 501.976C532.36 483.438 511.367 468.443 485.467 468.443C459.567 468.443 438.848 483.438 438.848 501.976C438.848 520.514 459.84 535.236 485.467 535.236Z" fill="#E60012"/>
<path d="M600.108 531.01C592.066 525.966 581.433 528.556 576.39 536.462C575.299 538.234 547.763 580.627 485.603 580.627C423.444 580.627 396.181 538.507 394.817 536.462C389.774 528.42 379.278 525.83 371.099 530.874C362.92 535.917 360.33 546.549 365.373 554.592C366.873 557.045 403.405 615.25 485.603 615.25C567.802 615.25 604.334 557.045 605.834 554.592C610.741 546.549 608.287 535.917 600.245 531.01" fill="#E60012"/>
<path d="M726.882 324.908C714.069 313.322 700.028 300.645 684.897 290.694C660.633 274.337 638.005 259.752 609.242 253.209C602.29 251.573 595.747 252.118 588.795 251.573C581.025 253.345 572.71 254.981 566.303 258.252C527.453 280.062 524.045 328.861 548.173 365.801C563.304 388.702 586.341 405.059 604.744 425.233C624.237 446.497 637.323 468.58 665.813 480.984C683.807 488.617 706.844 487.254 724.565 476.349C743.376 464.899 757.554 449.36 761.916 427.55C770.231 388.702 754.963 350.262 726.746 325.045M611.559 384.34C602.426 384.34 595.202 377.388 595.202 368.391C595.202 359.395 602.426 352.307 611.559 352.307C620.693 352.307 627.645 359.395 627.645 368.391C627.645 377.388 620.556 384.34 611.559 384.34Z" fill="#E60012"/>
<path d="M422.899 365.665C447.164 328.725 443.62 279.926 404.77 258.116C398.227 254.845 390.048 253.209 382.278 251.437C375.326 252.118 368.646 251.437 361.831 253.072C333.068 259.615 310.576 274.201 286.175 290.558C271.181 300.509 257.14 313.185 244.19 324.772C215.973 350.126 200.706 388.429 209.021 427.278C213.519 449.087 227.56 464.627 246.371 476.077C264.092 486.982 287.13 488.345 305.123 480.711C333.613 468.307 346.699 446.225 366.192 424.96C384.595 404.786 407.632 388.429 422.763 365.529M343.291 368.119C343.291 359.259 350.38 352.034 359.377 352.034C368.373 352.034 375.735 359.122 375.735 368.119C375.735 377.115 368.646 384.067 359.377 384.067C350.107 384.067 343.291 377.115 343.291 368.119Z" fill="#E60012"/>
<path d="M555.943 936.534C498.963 876.558 622.737 796.952 640.322 777.596C670.175 744.609 664.859 715.575 655.589 697.445C630.507 703.034 604.062 707.396 576.117 710.395C575.3 721.709 570.119 745.154 540.13 745.154H431.078C400.952 745.154 395.772 721.709 395.091 710.395C363.602 706.987 334.021 701.807 306.213 695.128C274.179 741.746 242.826 806.767 217.199 897.958C215.836 902.866 214.064 908.863 211.883 915.679C204.795 938.443 194.843 971.157 189.118 1007.42C236.556 1010.82 283.04 1043.4 305.532 1106.38C322.298 1153.4 325.161 1201.52 313.165 1239.28C358.694 1255.64 416.219 1263.82 485.604 1263.82C554.988 1263.82 612.377 1255.5 657.907 1239.28C645.911 1201.39 648.91 1153.27 665.676 1106.38C688.168 1043.4 734.652 1010.82 782.09 1007.42C776.364 971.157 766.414 938.443 759.325 915.679C757.962 911.453 756.871 907.637 755.781 904.229C743.785 913.362 731.653 921.268 720.475 927.538C664.722 959.298 598.882 982.198 555.943 936.671" fill="white"/>
</svg>
