<svg width="307" height="228" viewBox="0 0 307 228" fill="none" xmlns="http://www.w3.org/2000/svg">
<path d="M97.4531 154.891H84.875V177H54.4062V154.891H8.85938V132.234L56.3594 62.7812H84.875V131.844H97.4531V154.891ZM54.4062 131.844V118.562C54.4062 117.365 54.4323 115.854 54.4844 114.031C54.5365 112.208 54.5885 110.385 54.6406 108.562C54.7448 106.688 54.8229 105.125 54.875 103.875C54.9792 102.573 55.0573 101.87 55.1094 101.766H54.25C53.2604 104.109 52.349 106.062 51.5156 107.625C50.6823 109.135 49.5885 110.932 48.2344 113.016L35.5781 131.844H54.4062Z" fill="#3C3C3C"/>
<path d="M194.75 122.047C194.75 131.214 194.021 139.417 192.562 146.656C191.104 153.844 188.76 159.964 185.531 165.016C182.354 170.068 178.135 173.922 172.875 176.578C167.615 179.234 161.156 180.562 153.5 180.562C143.969 180.562 136.156 178.245 130.062 173.609C123.969 168.922 119.464 162.229 116.547 153.531C113.682 144.781 112.25 134.286 112.25 122.047C112.25 109.703 113.552 99.1562 116.156 90.4062C118.812 81.6042 123.161 74.8594 129.203 70.1719C135.245 65.4844 143.344 63.1406 153.5 63.1406C163.031 63.1406 170.818 65.4844 176.859 70.1719C182.953 74.8073 187.458 81.526 190.375 90.3281C193.292 99.0781 194.75 109.651 194.75 122.047ZM142.953 122.047C142.953 129.495 143.214 135.745 143.734 140.797C144.307 145.849 145.349 149.651 146.859 152.203C148.422 154.703 150.635 155.953 153.5 155.953C156.365 155.953 158.552 154.703 160.062 152.203C161.573 149.651 162.615 145.875 163.188 140.875C163.76 135.823 164.047 129.547 164.047 122.047C164.047 114.495 163.76 108.193 163.188 103.141C162.615 98.0885 161.573 94.2865 160.062 91.7344C158.552 89.1302 156.365 87.8281 153.5 87.8281C150.635 87.8281 148.422 89.1302 146.859 91.7344C145.349 94.2865 144.307 98.0885 143.734 103.141C143.214 108.193 142.953 114.495 142.953 122.047Z" fill="#3C3C3C"/>
<path d="M298.453 154.891H285.875V177H255.406V154.891H209.859V132.234L257.359 62.7812H285.875V131.844H298.453V154.891ZM255.406 131.844V118.562C255.406 117.365 255.432 115.854 255.484 114.031C255.536 112.208 255.589 110.385 255.641 108.562C255.745 106.688 255.823 105.125 255.875 103.875C255.979 102.573 256.057 101.87 256.109 101.766H255.25C254.26 104.109 253.349 106.062 252.516 107.625C251.682 109.135 250.589 110.932 249.234 113.016L236.578 131.844H255.406Z" fill="#3C3C3C"/>
<path d="M124.89 32H112.175V10.584H124.89V15.2275H117.961V18.5967H124.377V23.2402H117.961V27.2832H124.89V32ZM135.656 10.584C137.6 10.584 139.216 10.8232 140.505 11.3018C141.794 11.7705 142.761 12.4736 143.405 13.4111C144.06 14.3486 144.387 15.5156 144.387 16.9121C144.387 17.7812 144.24 18.5723 143.947 19.2852C143.654 19.998 143.234 20.6377 142.688 21.2041C142.15 21.7607 141.506 22.249 140.754 22.6689L146.994 32H140.432L135.891 24.207H134.426V32H128.64V10.584H135.656ZM135.568 14.9639H134.426V19.8564H135.51C136.398 19.8564 137.126 19.6611 137.692 19.2705C138.259 18.8799 138.542 18.1816 138.542 17.1758C138.542 16.4824 138.308 15.9404 137.839 15.5498C137.37 15.1592 136.613 14.9639 135.568 14.9639ZM155.959 10.584C157.902 10.584 159.519 10.8232 160.808 11.3018C162.097 11.7705 163.063 12.4736 163.708 13.4111C164.362 14.3486 164.689 15.5156 164.689 16.9121C164.689 17.7812 164.543 18.5723 164.25 19.2852C163.957 19.998 163.537 20.6377 162.99 21.2041C162.453 21.7607 161.809 22.249 161.057 22.6689L167.297 32H160.734L156.193 24.207H154.729V32H148.942V10.584H155.959ZM155.871 14.9639H154.729V19.8564H155.812C156.701 19.8564 157.429 19.6611 157.995 19.2705C158.562 18.8799 158.845 18.1816 158.845 17.1758C158.845 16.4824 158.61 15.9404 158.142 15.5498C157.673 15.1592 156.916 14.9639 155.871 14.9639ZM189.284 21.2627C189.284 22.9131 189.084 24.417 188.684 25.7744C188.293 27.1221 187.678 28.2842 186.838 29.2607C185.998 30.2373 184.919 30.9893 183.601 31.5166C182.282 32.0342 180.705 32.293 178.869 32.293C177.072 32.293 175.515 32.0342 174.196 31.5166C172.888 30.9893 171.809 30.2422 170.959 29.2754C170.109 28.2988 169.479 27.1318 169.069 25.7744C168.659 24.417 168.454 22.9033 168.454 21.2334C168.454 19.0068 168.82 17.0732 169.553 15.4326C170.295 13.7822 171.438 12.5078 172.98 11.6094C174.523 10.7012 176.496 10.2471 178.898 10.2471C181.34 10.2471 183.322 10.7012 184.846 11.6094C186.379 12.5176 187.502 13.7969 188.215 15.4473C188.928 17.0977 189.284 19.0361 189.284 21.2627ZM174.548 21.2627C174.548 22.5518 174.694 23.6602 174.987 24.5879C175.28 25.5156 175.744 26.2285 176.379 26.7266C177.014 27.2246 177.844 27.4736 178.869 27.4736C179.934 27.4736 180.778 27.2246 181.403 26.7266C182.038 26.2285 182.492 25.5156 182.766 24.5879C183.049 23.6602 183.19 22.5518 183.19 21.2627C183.19 19.3291 182.868 17.8008 182.224 16.6777C181.579 15.5547 180.471 14.9932 178.898 14.9932C177.854 14.9932 177.009 15.2471 176.364 15.7549C175.729 16.2627 175.266 16.9854 174.973 17.9229C174.689 18.8604 174.548 19.9736 174.548 21.2627ZM200.168 10.584C202.111 10.584 203.728 10.8232 205.017 11.3018C206.306 11.7705 207.272 12.4736 207.917 13.4111C208.571 14.3486 208.898 15.5156 208.898 16.9121C208.898 17.7812 208.752 18.5723 208.459 19.2852C208.166 19.998 207.746 20.6377 207.199 21.2041C206.662 21.7607 206.018 22.249 205.266 22.6689L211.506 32H204.943L200.402 24.207H198.938V32H193.151V10.584H200.168ZM200.08 14.9639H198.938V19.8564H200.021C200.91 19.8564 201.638 19.6611 202.204 19.2705C202.771 18.8799 203.054 18.1816 203.054 17.1758C203.054 16.4824 202.819 15.9404 202.351 15.5498C201.882 15.1592 201.125 14.9639 200.08 14.9639Z" fill="#3C3C3C"/>
<path d="M196.111 136.481C196.111 136.481 196.082 136.438 196.067 136.424C198.634 132.918 201.273 127.483 198.459 122.062C194.434 114.285 181.499 111.091 176.701 114.512C175.038 115.661 173.77 117.038 172.793 118.386C166.289 115.888 159.056 114.597 151.108 114.583C143.16 114.611 135.942 115.902 129.423 118.386C128.446 117.038 127.177 115.661 125.515 114.512C120.717 111.091 107.782 114.27 103.757 122.062C100.943 127.497 103.582 132.933 106.149 136.424C106.149 136.438 106.12 136.452 106.105 136.481C97.8803 147.664 94.6721 160.805 97.5157 171.619C99.7469 180.12 105.638 186.833 114.563 191.062C112.857 194.184 110.655 199.719 111.924 206.02C114.549 218.935 127.425 219.233 135.708 218.608C139.048 218.353 141.775 217.799 143.977 216.948C146.762 216.196 148.979 214.904 150.67 213.272C149.664 217.374 151.341 221.816 154.024 223.817C158.633 227.28 163.824 228.117 171.655 225.449C179.501 222.767 189.009 213.797 189.242 202.756C189.359 197.292 187.74 193.759 186.253 191.672C186.661 191.488 187.098 191.332 187.507 191.133C196.504 186.904 202.454 180.163 204.685 171.619C207.529 160.805 204.306 147.664 196.096 136.481" fill="#E60012"/>
<path d="M95.3283 124.588C94.5263 122.431 92.0617 121.324 89.8306 122.104C87.614 122.885 86.4619 125.283 87.264 127.44C87.9056 129.129 89.5535 130.179 91.2889 130.179C91.7701 130.179 92.2659 130.094 92.7471 129.924C94.9637 129.143 96.1158 126.745 95.2992 124.574" fill="#E60012"/>
<path d="M88.9119 119.606C91.0264 118.854 90.2535 115.931 90.0056 114.966C89.8452 114.356 89.0723 110.978 88.2702 107.402C87.1619 102.505 86.0099 97.4531 85.7765 96.6442C84.9891 93.891 83.7349 92.0744 82.0871 91.2513C80.9204 90.6694 79.5934 90.6127 78.2518 91.0952C76.8956 91.5777 75.9185 92.4434 75.4081 93.6213C74.679 95.2676 74.9269 97.4389 76.1518 100.05C76.5018 100.817 78.9809 105.429 81.3579 109.871C83.0933 113.107 84.7412 116.172 85.0182 116.74C85.412 117.534 86.5057 119.748 88.1973 119.748C88.4306 119.748 88.664 119.706 88.9264 119.621" fill="#E60012"/>
<path d="M92.1785 219.758C91.566 219.758 90.9682 219.446 90.6327 218.892C90.1515 218.069 90.4578 217.019 91.3036 216.55L101.526 210.916C102.372 210.448 103.451 210.746 103.932 211.569C104.414 212.392 104.107 213.442 103.262 213.911L93.0389 219.545C92.7618 219.701 92.4702 219.772 92.1785 219.772" fill="#E60012"/>
<path d="M104.399 200.301C103.947 200.301 103.495 200.131 103.145 199.79L93.4035 190.168C92.7181 189.501 92.7327 188.408 93.4181 187.741C94.1181 187.074 95.2264 187.088 95.9118 187.755L105.639 197.377C106.324 198.059 106.309 199.137 105.624 199.804C105.274 200.131 104.837 200.301 104.384 200.301" fill="#E60012"/>
<path d="M127.527 195.546L125.048 194.894L124.275 197.562L127.527 195.546Z" fill="white"/>
<path d="M168.855 196.668C166.901 196.994 164.903 197.278 162.833 197.491C162.731 198.91 162.06 201.862 158.166 201.862H154.943C155.118 203.863 154.856 205.949 154.156 207.922C158.049 204.729 162.468 205.679 164.495 204.076C168.097 201.393 168.957 198.754 168.855 196.668Z" fill="white"/>
<path d="M192.29 139.149C182.636 125.936 168.782 119.223 151.108 119.152C133.463 119.209 119.609 125.936 109.955 139.134C102.634 149.097 99.6302 161.103 102.095 170.484C104.005 177.779 108.949 183.328 116.765 187.003C121.927 189.43 128.009 191.176 134.877 192.268C136.787 191.672 138.742 191.204 140.725 190.977C144.721 190.509 148.483 191.247 151.166 193.602C165.049 193.418 176.599 191.19 185.494 187.003C193.311 183.328 198.254 177.779 200.165 170.484C202.629 161.103 199.611 149.083 192.305 139.134" fill="white"/>
<path d="M151.137 145.733C147.783 145.733 145.071 147.621 145.071 149.948C145.071 152.276 147.783 154.135 151.137 154.135C154.491 154.135 157.175 152.276 157.175 149.948C157.175 147.621 154.448 145.733 151.137 145.733Z" fill="#E60012"/>
<path d="M140.667 126.305C139.835 125.893 138.756 125.695 137.765 125.468C136.861 125.553 136.015 125.468 135.125 125.68C131.407 126.504 128.49 128.348 125.34 130.406C123.386 131.669 121.578 133.259 119.915 134.721C116.27 137.914 114.286 142.739 115.365 147.635C115.949 150.374 117.757 152.347 120.207 153.78C122.511 155.157 125.486 155.327 127.819 154.362C131.509 152.801 133.2 150.019 135.723 147.337C138.1 144.797 141.09 142.739 143.044 139.858C146.179 135.189 145.727 129.058 140.696 126.305M134.834 142.2C133.667 142.2 132.748 141.334 132.748 140.184C132.748 139.035 133.667 138.169 134.834 138.169C136 138.169 136.948 139.063 136.948 140.184C136.948 141.306 136.015 142.2 134.834 142.2Z" fill="#E60012"/>
<path d="M182.345 134.721C180.682 133.259 178.874 131.669 176.92 130.406C173.77 128.334 170.853 126.504 167.135 125.68C166.245 125.468 165.385 125.553 164.481 125.468C163.489 125.695 162.41 125.893 161.579 126.305C156.547 129.044 156.11 135.189 159.231 139.858C161.185 142.739 164.174 144.797 166.551 147.337C169.074 150.019 170.78 152.801 174.455 154.362C176.774 155.327 179.763 155.157 182.068 153.78C184.517 152.347 186.34 150.374 186.909 147.635C187.974 142.739 185.99 137.914 182.345 134.721ZM167.441 142.2C166.26 142.2 165.326 141.334 165.326 140.184C165.326 139.035 166.26 138.169 167.441 138.169C168.622 138.169 169.526 139.063 169.526 140.184C169.526 141.306 168.608 142.2 167.441 142.2Z" fill="#E60012"/>
<path d="M151.123 161.217C149.343 161.217 147.418 164.055 147.418 166.95C147.418 169.845 148.673 171.719 151.123 171.719C153.572 171.719 154.827 169.859 154.827 166.95C154.827 164.041 152.887 161.217 151.123 161.217Z" fill="#E60012"/>
</svg>
