<svg width="151" height="293" viewBox="0 0 151 293" fill="none" xmlns="http://www.w3.org/2000/svg">
<g clip-path="url(#clip0_1307_5408)">
<path d="M150.975 2.6815C136.442 -4.10606 114.655 2.99551 110.59 12.7541C107.328 20.3146 107.912 27.7785 108.74 32.1506C97.2014 34.6869 85.6871 39.3488 74.2702 46.1605C62.9264 53.0446 53.4812 61.0158 45.8862 70.0256C42.3565 67.2719 35.9542 63.3347 27.6776 62.7066C16.4798 61.7163 -1.2663 79.591 0.0725681 96.4028C1.26538 111.379 16.8936 117.683 24.1965 119.833C23.9288 121.935 23.7097 124.06 23.5393 126.234C21.5188 152.732 29.6007 177.564 45.1316 192.66C55.8425 203.071 69.7424 208.458 85.6384 208.458C87.951 208.458 90.2879 208.337 92.6736 208.12C95.9355 207.806 99.2705 207.323 102.654 206.67C100.634 222.299 112.221 237.226 129.359 240.705C131.476 253.893 135.59 277.589 150.975 293" fill="#E60012"/>
<path d="M138.901 92.6344C136.978 93.7939 136.394 96.1852 137.514 98.0451C138.658 99.9292 141.068 100.485 142.967 99.3254C144.865 98.1901 145.45 95.847 144.306 93.963C143.161 92.1272 140.751 91.5233 138.877 92.6586" fill="white"/>
<path d="M141.287 181.476C142.285 181.67 143.234 181.911 144.184 182.153C146.448 180.969 148.712 179.713 151 178.433V159.713C149.49 160.969 147.86 162.177 145.985 163.312C138.999 167.515 132.353 168.795 126.9 168.795C118.916 168.795 113.438 166.09 113.073 165.872C111.004 164.809 110.176 162.273 111.248 160.22C112.319 158.167 114.85 157.346 116.944 158.384C117.455 158.65 128.604 163.94 141.603 156.114C146.082 153.408 149.028 150.196 151.024 147.128V110.026C149.637 109.567 148.249 109.084 146.788 108.673C140.362 106.789 133.448 106.306 127.363 103.432C117.577 98.7939 112.1 88.214 117.455 78.7694C118.404 77.2718 119.962 75.895 121.326 74.5423C122.859 73.7935 124.174 72.8273 125.829 72.32C132.694 70.0494 139.291 70.2427 146.448 70.5809C147.957 70.6292 149.49 70.7983 151 70.9915V51.0153C151 47.7302 151 42.7302 151 40.677C142.699 38.2615 137.635 38.7687 129.334 38.7687C112.44 38.7687 95.595 43.7688 78.92 53.7207C50.3899 71.064 34.7616 95.6779 32.4491 126.886C30.672 150.461 37.9262 173.24 51.4123 186.332C61.8798 196.501 75.4876 200.873 91.8705 199.303C96.3739 198.868 101.023 198.095 105.795 196.984C112.1 185.341 126.413 178.65 141.311 181.476M127.29 132.78C132.718 129.495 139.023 129.978 141.384 133.819C143.721 137.683 141.214 143.408 135.785 146.669C130.406 149.906 124.149 149.495 121.764 145.63C119.402 141.766 121.91 135.993 127.29 132.78ZM96.8121 138.795C95.4489 145.703 95.4976 151.935 91.0915 158.119C88.292 161.983 83.3017 164.616 78.1897 164.568C72.7855 164.568 67.8439 163.094 64.1437 159.133C57.4737 152.08 55.7941 142.2 58.4718 133.36C59.6889 129.326 61.0278 124.93 62.9022 120.944C65.9208 114.47 68.7932 108.552 73.9783 103.577C75.1955 102.345 76.6561 101.668 78.0193 100.654C79.8693 100.074 81.8168 99.3494 83.5938 99.2045C94.4995 98.8422 101.437 108.552 101.096 119.301C100.853 125.968 98.1023 132.273 96.8121 138.795Z" fill="white"/>
<path d="M86.0529 124.495C84.1785 125.63 83.5942 127.997 84.714 129.857C85.8825 131.765 88.2438 132.297 90.1425 131.162C92.0656 130.002 92.6742 127.659 91.5301 125.751C90.4103 123.915 87.976 123.335 86.0772 124.495" fill="white"/>
<path d="M138.536 241.381C140.191 251.453 143.186 266.599 151 278.773V238.361C147.178 240.1 142.967 241.139 138.536 241.381Z" fill="white"/>
</g>
<defs>
<clipPath id="clip0_1307_5408">
<rect width="151" height="293" fill="white"/>
</clipPath>
</defs>
</svg>
