<svg xmlns="http://www.w3.org/2000/svg" width="108" height="187" viewBox="0 0 108 187" fill="none">
  <g clip-path="url(#clip0_424_1526)">
    <path d="M99.7786 75.8013C105.226 70.0148 108.06 63.0914 107.975 55.574C107.839 44.5441 101.492 32.8014 91.0055 24.1641C90.1401 23.4514 89.2747 22.7896 88.4093 22.1448C90.174 18.717 93.3303 10.7585 88.2056 5.02294C82.4701 -1.40837 69.6414 -1.22171 66.0609 3.22421C63.3967 6.46532 62.5992 10.2155 62.3786 12.4894C56.3885 12.0991 50.1269 12.7439 43.5937 14.4748C37.0776 16.2395 31.3251 18.8189 26.3361 22.1448C25.0125 20.2952 22.4672 17.4444 18.5303 15.968C13.185 13.8808 1.9854 20.1424 0.237574 28.5931C-1.34056 36.1274 5.37923 41.4387 8.6373 43.5259C8.1961 44.5101 7.78884 45.5283 7.39855 46.5634C2.63022 59.2903 3.00354 72.645 8.4167 82.2665C9.92696 84.9646 11.8445 87.3063 14.0674 89.3087C9.82514 95.1461 6.49919 103.97 13.3208 110.673C15.6965 112.998 18.14 113.778 20.4648 114.05C20.3121 114.474 20.1254 114.932 19.9388 115.458C18.6152 118.92 16.6467 124.112 15.6286 129.899C14.7632 130.595 13.5414 132.224 11.1487 135.074C11.1487 135.074 7.77188 139.351 4.10654 148.327C2.05327 153.367 0.152728 161.207 3.8011 165.517C9.90999 172.712 15.6625 171.779 19.3448 168.673C22.0769 166.366 25.3859 162.089 25.9119 158.729C32.6147 163.447 42.3211 166.264 54.9631 167.095C57.2539 167.248 59.4599 167.333 61.5641 167.333C62.9725 167.333 64.3131 167.282 65.6367 167.214C63.9907 170.099 63.4307 174.884 63.7022 178.159C64.1094 182.961 67.5202 187.679 76.9381 186.932C82.5719 186.474 86.7633 179.602 88.9014 174.579C92.6685 165.636 93.3133 160.24 93.3133 160.24C93.517 157.898 93.7206 156.252 93.8054 155.064C102.019 143.78 98.3701 128.202 96.5545 120.549C96.3678 119.734 96.1981 119.022 96.0623 118.428C95.5024 115.781 94.9084 113.286 94.2466 110.944C96.7241 110.062 98.6417 108.331 100.695 105.82C109.264 95.3497 104.632 82.4192 100.356 76.5818C100.169 76.3273 99.9652 76.0728 99.7786 75.8013Z" fill="#E60012"/>
    <path d="M71.491 92.2444C71.491 92.2444 72.8995 97.1145 68.0972 98.0818C65.0597 98.6927 61.4453 99.4223 61.4453 99.4223C61.4453 99.4223 57.8309 100.152 54.7934 100.763C50.8565 101.56 49.7535 98.3194 49.482 97.1315C46.4615 97.4539 43.5428 97.6236 40.726 97.6236C38.0618 97.6236 35.5164 97.4539 33.0559 97.1654C30.239 101.883 27.473 107.703 24.9107 114.915C24.7071 115.509 24.4186 116.239 24.1132 117.053C22.6199 120.973 20.2103 127.269 19.5994 133.921C20.3969 137.671 21.9581 144.849 23.4683 150.194C28.7627 157.355 39.4363 161.512 55.2176 162.565C63.0404 163.091 69.7262 162.666 75.2242 161.36C81.8931 157.525 90.1571 152.01 90.2589 152.01C90.3098 152.01 90.3437 152.01 90.3777 152.01C96.9956 142.371 93.7206 128.457 92.0916 121.584C91.8879 120.719 91.7013 119.972 91.5825 119.344C88.528 104.819 84.0482 95.3158 79.4495 89.1221C76.9381 90.2251 74.257 91.2432 71.4571 92.2105V92.2444H71.491Z" fill="white"/>
    <path d="M88.1208 27.6427C79.4495 20.4817 69.6583 16.8843 58.9169 16.8843C54.3691 16.8843 49.6348 17.5291 44.7476 18.8357C28.3724 23.2816 17.2237 33.1577 11.6239 48.1584C7.38158 59.4938 7.65308 71.7116 12.3366 80.0604C13.5923 82.2834 15.1365 84.2179 16.9522 85.8808C17.071 85.7621 17.1897 85.6263 17.3085 85.5245C22.4332 80.5186 29.1869 75.9709 36.2122 78.618C38.0618 79.3138 39.063 80.3828 39.5042 81.6385C39.8436 82.5719 39.8605 83.607 39.6908 84.6591C39.4363 86.2542 38.7575 87.9171 38.0109 89.3934C37.5867 90.2419 36.7043 91.4467 35.5843 92.8721C35.6691 92.8721 35.754 92.8721 35.8219 92.8891C43.9671 93.5339 53.334 92.5497 63.7701 89.9025C68.3348 88.6129 72.5431 87.1366 76.4121 85.5075C77.1587 85.2021 77.8714 84.8627 78.5841 84.5403C79.3138 84.2179 80.0604 83.8785 80.7731 83.5391C80.9937 83.4373 81.1974 83.3355 81.401 83.2337C81.2652 82.8434 81.1295 82.47 81.0107 82.0628C79.6023 77.532 78.6011 71.5928 83.59 68.9796C88.562 66.4003 93.0249 68.6232 96.7581 72.3395C101.238 67.4693 103.478 61.8695 103.41 55.6079C103.291 46.0373 97.4199 35.3128 88.0868 27.6258" fill="white"/>
    <path d="M59.1714 72.5432C62.2598 71.7287 64.3131 69.2681 63.7192 67.0452C63.1252 64.8053 60.1047 63.6853 57.0163 64.5168C53.894 65.3483 51.8577 67.8258 52.4516 70.0487C53.0625 72.2887 56.0491 73.3747 59.1714 72.5432Z" fill="#E60012"/>
    <path d="M40.5223 41.812C39.6399 41.6254 38.5878 41.7102 37.6036 41.7272C36.7891 42.0326 35.9746 42.1684 35.194 42.5926C31.9529 44.3065 29.713 46.784 27.3203 49.55C25.827 51.2299 24.5544 53.1983 23.3835 55.014C20.8042 58.9678 20.2103 64.0755 22.4502 68.4875C23.6889 70.948 25.8779 72.3904 28.5082 73.154C31.0026 73.9007 33.8195 73.3237 35.7201 71.8135C38.7575 69.4039 39.623 66.3324 41.269 63.1422C42.8301 60.1217 45.0701 57.4067 46.1561 54.1656C47.87 48.9391 45.8846 43.1865 40.5054 41.812M43.0338 51.8578C40.166 53.928 39.1648 55.9982 39.1478 56.0152C38.9951 56.3376 38.6897 56.5243 38.3503 56.5243C38.2315 56.5243 38.0957 56.4903 37.9769 56.4394C37.5358 56.2358 37.3491 55.7098 37.5527 55.2855C37.5867 55.2007 38.4691 53.351 40.8956 51.2978C39.6739 51.0432 38.0788 51.3996 37.417 51.6032C36.9588 51.7559 36.4667 51.5014 36.314 51.0432C36.1613 50.5851 36.4158 50.093 36.874 49.9402C37.2982 49.8045 41.0993 48.5997 43.1356 50.5002C43.3222 50.6869 43.424 50.9414 43.4071 51.196C43.4071 51.4675 43.2544 51.705 43.0507 51.8578" fill="#E60012"/>
    <path d="M88.9183 50.6699C88.6638 45.7319 85.5924 41.6084 81.384 39.4702C79.4665 38.503 77.3623 37.4339 75.2412 36.7043C71.7795 35.5164 68.5893 34.4813 64.9409 34.634C64.0585 34.651 63.2949 34.9395 62.4295 35.0922C61.5641 35.5504 60.6138 36.0085 59.952 36.6025C55.9982 40.4884 57.1351 46.4615 61.2416 50.1269C63.804 52.4007 67.096 53.6225 69.9638 55.4552C72.9843 57.3897 75.2751 59.6126 79.1102 60.1896C81.5198 60.529 84.2348 59.6296 86.0336 57.746C87.9341 55.7606 89.122 53.4358 88.9523 50.6699M69.4717 48.0227C69.302 48.2603 69.0305 48.396 68.759 48.396C68.5893 48.396 68.4026 48.3451 68.2499 48.2263C68.2499 48.2263 66.3324 46.9197 62.8028 46.5633C62.5483 46.5464 62.3107 46.3936 62.158 46.173C62.0053 45.9525 61.9713 45.6809 62.0562 45.4264C62.8877 42.7792 66.7566 41.9138 67.1978 41.812C67.656 41.7102 68.1311 42.0156 68.2329 42.4907C68.3347 42.9659 68.0293 43.441 67.5542 43.5259C66.8584 43.6616 65.2973 44.1707 64.3809 45.0022C67.5033 45.5622 69.1832 46.7161 69.2681 46.7839C69.6583 47.0554 69.7602 47.6154 69.4717 48.0057" fill="#E60012"/>
    <path d="M71.9662 69.4887C70.948 68.9287 69.6583 69.302 69.0984 70.3201C68.3517 71.6777 67.1639 73.0861 65.5858 74.5285C64.1434 75.8351 62.6671 76.8872 61.6998 77.532C61.3944 77.7357 61.0211 77.9053 60.6308 78.0072C60.2574 78.109 59.8672 78.1429 59.4938 78.1259C58.323 78.0581 56.5242 77.8714 54.6067 77.4642C52.5195 77.023 50.7717 76.3781 49.4481 75.5806C48.4469 74.9867 47.1403 75.3091 46.5464 76.3102C45.9355 77.3114 46.2579 78.6011 47.2591 79.212C48.9899 80.2471 51.162 81.0616 53.7073 81.6046C55.8794 82.0628 57.8987 82.2664 59.2054 82.3513C59.375 82.3513 59.5278 82.3513 59.6975 82.3513C60.3762 82.3513 61.055 82.2494 61.6998 82.0798C62.5313 81.8592 63.2949 81.5198 64.0076 81.0446C65.1106 80.315 66.7736 79.1271 68.4026 77.6338C70.3371 75.886 71.8134 74.1043 72.7807 72.3395C73.3406 71.3213 72.9843 70.0317 71.9492 69.4717" fill="#E60012"/>
  </g>
  <defs>
    <clipPath id="clip0_424_1526">
      <rect width="107.975" height="187" fill="white"/>
    </clipPath>
  </defs>
</svg>