<svg width="1204" height="1304" viewBox="0 0 1204 1304" fill="none" xmlns="http://www.w3.org/2000/svg">
<path d="M1133.06 182.174C1149.3 152.951 1159.96 115.027 1140.86 77.2328C1106.94 10.2162 998.705 -17.058 958.034 12.2942C948.679 19.0478 940.753 26.7106 934.126 34.5032C892.676 21.3856 847.458 14.5021 798.731 14.2424C730.644 14.632 669.704 27.6197 615.78 52.9458C607.074 39.0489 595.12 24.2429 578.358 12.1644C537.558 -17.1879 429.45 10.0863 395.537 77.1029C363.053 141.132 416.327 205.551 436.857 227.111C397.486 301.011 384.362 381.145 401.774 449.071C415.547 502.84 448.551 547.128 497.278 579.078C463.884 596.482 435.688 617.002 419.575 631.938C374.877 673.759 335.506 727.268 364.612 779.089C396.316 835.586 474.279 785.063 513.65 759.348C512.22 764.153 510.791 768.959 509.362 774.024C508.062 778.44 506.503 783.765 504.554 789.999C487.402 845.586 453.229 956.761 502.345 1045.73C502.085 1054.82 502.345 1067.68 502.345 1085.99C502.345 1085.99 503.255 1127.68 525.734 1198.46C538.338 1238.33 565.235 1293.92 607.854 1301.07C679.189 1313.79 708.425 1280.41 715.052 1244.05C719.47 1219.89 718.69 1184.31 709.075 1160.93C736.492 1164.56 766.247 1166.38 798.471 1166.38C830.696 1166.38 860.452 1164.43 887.868 1160.93C878.253 1184.18 877.473 1219.76 881.891 1244.05C888.518 1280.41 917.754 1313.79 989.089 1301.07C1031.71 1293.92 1058.61 1238.33 1071.21 1198.46C1093.69 1127.81 1094.6 1085.99 1094.6 1085.99C1094.47 1067.68 1094.73 1054.82 1094.6 1045.73C1140.73 962.216 1113.44 859.223 1095.77 800.908C1130.07 743.633 1149.04 661.68 1101.48 578.299C1149.56 546.479 1182.18 502.451 1195.82 449.071C1216.87 367.119 1193.35 267.373 1133.06 182.044" fill="#E60012"/>
<path d="M130.336 858.054C131.115 858.314 132.025 858.444 132.805 858.444C133.974 858.444 135.144 858.184 136.313 857.665C138.262 856.756 139.561 855.067 140.211 852.989C141.51 848.833 139.302 844.547 135.014 843.248C130.856 841.95 126.568 844.287 125.138 848.313C123.839 852.47 126.178 856.756 130.206 858.054" fill="#E60012"/>
<path d="M137.093 893.251C132.935 892.082 128.517 894.29 127.217 898.316C125.918 902.472 128.257 906.888 132.285 908.057C133.065 908.317 133.844 908.447 134.624 908.447C138.002 908.447 141.121 906.239 142.16 902.992C142.81 901.044 142.55 898.836 141.64 897.017C140.731 895.199 139.042 893.771 137.093 893.121" fill="#E60012"/>
<path d="M97.2019 879.874C97.8516 877.925 97.5917 875.718 96.6821 873.899C95.7726 872.081 94.0834 870.652 92.1344 870.133C87.9764 868.834 83.6885 871.042 82.3891 875.198C81.0897 879.224 83.2986 883.64 87.4566 885.069C88.2362 885.328 89.0159 885.458 89.7955 885.458C91.0949 885.458 92.2643 885.199 93.4337 884.549C95.2528 883.51 96.6822 881.952 97.3319 880.004" fill="#E60012"/>
<path d="M176.854 862.34C174.905 861.691 172.826 861.821 171.007 862.86C169.058 863.769 167.759 865.457 167.109 867.405C166.459 869.354 166.719 871.562 167.629 873.38C168.538 875.198 170.227 876.627 172.176 877.146C172.956 877.406 173.736 877.536 174.645 877.536C177.894 877.536 181.012 875.458 182.052 872.081C183.351 867.925 181.012 863.639 176.854 862.21" fill="#E60012"/>
<path d="M21.8388 942.734C17.6808 941.435 13.2629 943.773 11.9635 947.799C10.6642 951.955 13.003 956.241 17.0311 957.54C17.8107 957.8 18.7203 957.93 19.4999 957.93C20.6693 957.93 21.9687 957.67 23.0082 957.021C24.8273 956.111 26.2566 954.423 26.9063 952.475C28.2057 948.319 25.8668 944.033 21.8388 942.604" fill="#E60012"/>
<path d="M128.517 944.553C124.359 943.254 120.071 945.592 118.641 949.748C117.342 953.774 119.681 958.19 123.709 959.488C124.488 959.748 125.268 959.878 126.048 959.878C129.296 959.878 132.415 957.8 133.584 954.423C134.883 950.267 132.675 945.981 128.517 944.553Z" fill="#E60012"/>
<path d="M101.491 920.265C97.3329 919.097 93.045 921.304 91.7457 925.461C91.096 927.539 91.3559 929.617 92.2654 931.435C93.175 933.253 94.8641 934.552 96.8132 935.201C97.5928 935.461 98.3725 935.591 99.282 935.591C100.451 935.591 101.621 935.331 102.66 934.812C104.479 933.903 105.909 932.214 106.688 930.136C107.988 926.11 105.649 921.694 101.491 920.265Z" fill="#E60012"/>
<path d="M59.5205 918.058C60.8199 913.901 58.481 909.486 54.453 908.187C50.295 906.758 46.0071 909.096 44.5778 913.382C43.4084 917.408 45.6173 921.824 49.6454 923.123C50.425 923.383 51.2046 923.512 51.9842 923.512C55.3626 923.512 58.3511 921.434 59.5205 918.058Z" fill="#E60012"/>
<path d="M68.7458 965.203C64.7178 963.904 60.3 966.112 58.8707 970.268C58.221 972.216 58.4809 974.424 59.3904 976.243C60.3 978.061 61.9891 979.489 63.9382 980.009C64.7178 980.269 65.4974 980.399 66.4069 980.399C69.6554 980.399 72.7739 978.32 73.9433 974.944C75.2427 970.788 72.9038 966.372 68.7458 965.073" fill="#E60012"/>
<path d="M35.3525 873.12C31.1945 871.821 26.7767 874.029 25.4773 878.185C24.178 882.341 26.5168 886.627 30.6747 888.056C31.4544 888.316 32.2341 888.446 32.8837 888.446C36.2621 888.446 39.2507 886.368 40.2901 882.991C40.9398 881.043 40.8099 878.835 39.7704 877.016C38.8608 875.198 37.1717 873.77 35.2226 873.12" fill="#E60012"/>
<path d="M10.5341 988.581C8.58509 987.931 6.37617 988.061 4.55706 989.1C2.73794 990.009 1.30862 991.698 0.788872 993.646C0.139187 995.594 0.269108 997.802 1.17867 999.62C2.08823 1001.44 3.77739 1002.87 5.72644 1003.52C6.50606 1003.78 7.28569 1003.91 8.06531 1003.91C11.4437 1003.91 14.4322 1001.83 15.4717 998.581C16.1214 996.503 15.8615 994.425 14.952 992.477C14.0424 990.529 12.3532 989.23 10.4042 988.711" fill="#E60012"/>
<path d="M419.055 715.319C419.055 715.319 414.898 705.189 403.983 690.123C393.978 674.148 386.311 666.875 386.311 666.745C385.532 665.836 367.47 646.355 341.873 648.952C303.801 652.978 292.237 682.331 286.78 696.487L285.74 698.955C281.582 709.085 272.227 714.28 266.769 715.319C258.193 717.008 250.137 722.592 236.494 732.203C228.048 738.178 225.319 744.152 224.54 748.698C219.862 751.815 211.936 757.14 203.62 762.854C190.366 771.816 175.943 781.687 171.266 785.323C171.006 785.583 170.486 786.362 170.096 787.271C169.707 788.051 169.447 788.83 169.447 788.83L169.966 789.609C168.537 789.349 166.718 789.09 165.159 789.09C162.3 788.96 157.103 789.349 156.063 789.999C155.153 790.648 154.244 790.388 153.075 789.999C152.165 789.609 137.092 792.596 122.669 797.012C108.116 801.298 99.4105 804.935 97.3315 805.584C95.2525 806.233 94.2131 806.883 94.0831 807.792C93.6933 808.571 92.7838 808.311 92.7838 808.311C92.0041 808.182 88.6258 809.091 83.8181 812.208C81.4792 813.636 80.1799 814.935 79.2703 816.104C78.4907 817.273 77.711 818.572 78.2308 820.65C78.6206 821.819 79.0104 823.377 79.4002 825.065L174.644 796.752C174.644 796.752 174.514 796.363 174.384 795.973L197.383 829.741L225.189 870.782C225.189 870.782 225.969 870.782 226.879 870.782C227.788 870.782 228.828 870.652 229.088 870.393C234.285 867.406 248.708 857.665 261.962 848.703C270.538 842.859 278.594 837.534 283.141 834.287C284.311 834.547 285.48 834.806 286.91 834.806C291.068 834.806 296.265 833.508 302.632 829.351C317.185 820 324.981 814.675 329.529 807.532C332.388 802.986 340.704 796.103 351.748 795.973H354.217C368.38 795.973 401.124 796.493 418.926 762.595C430.88 739.866 419.445 715.579 419.186 714.93" fill="#E60012"/>
<path d="M296.395 820.39C309.649 811.818 316.666 807.142 319.914 801.947C324.982 794.025 337.066 785.453 351.489 785.323H354.217C368.251 785.453 394.238 785.713 409.051 757.789C418.406 740.126 409.051 719.995 409.051 719.735C408.921 719.346 405.153 710.514 394.887 696.357C385.532 681.421 378.516 674.668 378.516 674.538C378.126 674.148 362.923 658.043 343.173 660.122C311.858 663.368 302.372 687.526 297.175 700.643L296.135 703.241C290.678 716.618 278.594 724.541 268.979 726.359C263.001 727.528 256.505 731.814 242.991 741.425C235.585 746.62 235.065 751.036 235.845 752.854L241.432 768.309C245.72 775.193 250.917 783.115 255.855 790.388C260.793 797.661 266.12 805.324 270.928 811.948L282.622 822.468C284.441 824.416 288.859 825.455 296.525 820.52" fill="white"/>
<path d="M359.805 730.255C362.404 728.567 362.274 723.891 359.675 720.125C357.077 716.228 352.789 714.41 350.32 716.228C347.721 717.917 347.721 722.463 350.45 726.359C353.048 730.385 357.336 732.073 359.935 730.385" fill="#E60012"/>
<path d="M375.527 739.217C375.527 739.217 374.878 739.217 374.618 739.087C372.928 738.567 371.889 736.749 372.409 735.061C372.409 734.671 374.748 726.099 367.081 714.93C359.415 703.76 350.709 702.591 350.319 702.591C348.5 702.331 347.201 700.773 347.461 698.955C347.721 697.266 349.15 695.967 350.969 696.097C351.489 696.097 363.053 697.526 372.409 711.293C381.764 725.19 378.776 736.359 378.516 736.879C378.126 738.307 376.827 739.217 375.397 739.217" fill="#E60012"/>
<path d="M376.567 769.608C379.556 766.621 380.595 762.725 380.465 758.568C380.335 754.672 378.126 750.776 375.138 748.828C370.2 745.581 365.392 745.711 359.935 744.931C354.867 744.022 349.8 742.074 344.602 742.074C336.286 742.074 328.88 747.659 329.4 756.101C329.4 757.4 330.049 758.958 330.569 760.387C331.349 761.296 331.999 762.595 332.908 763.504C336.936 767.27 341.614 769.478 346.811 771.556C349.93 772.855 353.438 773.764 356.686 774.803C363.573 776.621 371.24 775.063 376.697 769.738M349.67 754.023C348.371 754.672 346.811 754.282 346.162 752.984C345.512 751.555 345.902 750.126 347.201 749.477C348.501 748.828 350.06 749.217 350.709 750.516C351.359 751.815 350.839 753.373 349.54 754.023" fill="#E60012"/>
<path d="M307.7 702.591C307.31 705.968 306.791 709.475 307.05 712.852C307.05 718.436 307.31 723.502 309.389 728.697C309.909 729.866 310.689 730.905 311.338 732.074C312.378 733.113 313.547 734.281 314.847 734.801C322.513 738.567 330.439 733.632 333.428 725.969C335.377 721.034 335.377 715.709 336.546 710.644C337.716 705.319 339.665 700.773 338.495 695.059C337.716 691.422 334.987 687.915 331.349 686.357C327.58 684.798 323.552 684.279 319.654 685.837C312.768 688.824 308.35 695.448 307.57 702.462M327.84 717.138C328.88 718.177 328.62 719.865 327.58 720.774C326.411 721.813 324.852 721.554 323.812 720.514C322.903 719.475 323.033 717.787 324.202 716.878C325.241 715.969 326.931 716.099 327.84 717.138Z" fill="#E60012"/>
<path d="M263.912 754.802C264.562 755.711 265.731 755.971 266.641 755.322C267.55 754.672 267.68 753.503 267.03 752.594C266.381 751.685 265.081 751.425 264.302 751.945C263.392 752.464 263.262 753.763 263.912 754.672M266.901 752.594C267.42 753.373 267.29 754.542 266.511 754.932C265.731 755.451 264.562 755.192 264.172 754.412C263.652 753.633 263.782 752.594 264.562 752.075C265.341 751.555 266.381 751.815 266.901 752.594Z" fill="#E60012"/>
<path d="M265.6 752.464C265.6 752.464 265.34 752.724 265.211 752.854C265.081 752.854 265.211 753.113 265.081 753.373C264.951 753.373 264.821 753.243 264.561 753.373C264.431 753.373 264.301 753.373 264.171 753.633C264.041 753.763 264.171 754.153 264.171 754.282L264.951 755.321L266.9 754.023L266.51 753.633L265.86 754.152L265.6 753.633V753.373C265.6 753.243 265.86 753.114 265.99 753.114C265.99 753.114 265.99 753.114 265.99 752.984L265.73 752.594C265.73 752.594 265.73 752.594 265.73 752.724M265.34 753.893L265.73 754.412L265.211 754.802L264.821 754.282C264.821 754.282 264.821 754.023 264.821 753.893C264.821 753.763 265.081 753.893 265.211 754.023" fill="#E60012"/>
<path d="M270.929 783.245C272.618 784.674 275.476 784.674 277.296 783.765C277.945 783.375 278.465 783.115 278.985 782.596C279.894 781.687 279.634 780.388 279.894 779.219C280.154 778.829 280.544 778.31 280.284 777.79C280.284 777.401 279.764 777.141 279.374 777.141C276.776 777.141 274.437 778.31 271.838 778.829C271.448 778.959 271.318 778.57 270.929 778.57C270.669 778.57 270.539 778.959 270.279 779.089C270.149 778.959 270.019 778.569 270.019 778.31C270.019 777.271 270.669 776.232 271.578 775.712C273.917 774.154 277.166 775.452 279.245 776.751C279.245 776.751 278.985 776.232 278.725 776.102C277.685 774.154 275.996 772.855 273.917 772.465C271.838 772.206 269.759 773.245 268.72 775.063C267.16 777.92 268.59 781.557 270.929 783.375M277.425 779.868C277.425 779.868 277.815 780.128 277.945 780.388C277.945 781.297 277.166 781.816 276.386 782.206C275.087 782.726 273.397 782.596 272.358 781.687C273.917 780.777 275.736 780.518 277.555 779.868" fill="#E60012"/>
<path d="M277.165 786.752C277.295 787.531 277.165 788.18 277.815 788.83C278.464 788.96 278.984 789.479 279.244 789.999L278.724 790.258C278.724 790.258 277.945 789.609 277.555 789.089C277.555 788.7 277.425 788.18 276.905 788.05C276.515 788.05 276.126 788.31 275.736 788.31C275.086 788.96 274.826 790.128 275.216 790.908C275.216 791.427 275.736 791.297 276.126 791.427C276.256 791.427 276.386 791.687 276.256 791.817C275.996 792.336 275.476 791.817 275.086 791.817C274.826 791.817 274.566 792.077 274.437 792.466C274.696 793.116 274.696 793.895 274.826 794.544C274.956 795.323 275.996 795.064 276.515 795.064C276.515 794.674 277.035 794.544 277.295 794.284C277.685 794.284 277.945 793.765 278.465 793.765C278.465 793.895 278.465 794.155 278.465 794.284C278.854 794.934 279.504 794.284 280.024 794.284C280.024 794.544 279.894 794.674 279.764 794.934C279.764 795.583 279.244 796.103 279.114 796.492C279.114 796.622 279.244 796.882 279.504 797.012C279.894 797.531 280.544 796.752 280.933 797.531C281.323 797.921 280.933 798.44 281.323 799.09C281.583 799.48 282.233 799.609 282.752 799.609C282.882 799.609 283.402 799.609 283.532 799.22C284.572 798.181 286.001 797.272 287.3 796.622C288.21 796.492 288.34 795.453 288.989 795.064C289.249 794.544 288.6 793.895 288.21 793.505C287.95 793.116 287.43 793.505 287.17 793.635C286.91 793.765 286.91 793.375 286.78 793.245C286.78 792.856 286.78 792.336 286.78 791.947C286.391 791.687 286.131 791.167 285.611 791.297C284.961 791.557 284.312 791.947 283.662 792.206C283.662 792.206 283.922 791.947 283.922 791.817C284.182 791.427 284.312 790.908 284.052 790.518C283.792 790.258 283.272 790.518 283.012 790.128C283.792 789.609 284.701 788.959 285.351 788.44C285.741 788.18 286.261 787.791 286.65 787.921C286.65 787.921 287.04 788.31 286.91 788.57C286.391 789.089 285.871 789.349 285.351 789.739C285.091 789.999 284.831 790.518 284.831 790.908C285.741 790.908 286.261 791.557 287.04 792.077C287.17 792.077 287.56 792.336 287.69 792.077C288.47 791.167 289.899 791.427 290.419 790.388C290.549 789.739 290.419 789.089 289.899 788.7C289.379 788.31 288.47 788.18 287.82 788.31C287.3 787.011 289.509 786.492 288.86 785.193C288.6 784.544 288.08 784.154 287.43 784.024C285.871 784.803 284.312 785.972 282.882 787.011C282.103 787.141 281.323 788.83 280.544 787.661C279.894 787.141 279.894 786.232 279.894 785.323C279.894 784.933 279.504 784.674 279.244 784.544C278.724 784.284 278.075 784.284 277.555 784.544C277.035 784.933 276.645 785.583 276.775 786.362M284.442 794.544L284.701 794.934C284.701 794.934 283.272 796.103 282.493 796.233C282.493 796.233 282.363 796.233 282.233 796.103C282.363 795.843 282.493 795.583 282.882 795.324C283.402 794.934 283.922 794.674 284.442 794.544ZM280.673 791.687C280.673 791.687 281.193 792.206 281.323 792.466C281.323 792.596 281.323 792.726 281.323 792.856C281.843 792.856 282.103 792.856 282.622 792.856C282.103 793.245 281.453 793.765 280.803 794.025H280.414C280.414 794.025 280.933 793.375 280.933 792.856C280.933 792.726 280.933 792.466 280.803 792.336C280.673 792.206 280.284 792.206 280.154 792.206C280.413 792.077 280.544 791.817 280.673 791.687Z" fill="#E60012"/>
<path d="M281.583 787.531C281.583 787.531 282.363 787.271 282.623 787.141C284.182 786.232 285.871 785.193 285.871 783.115C285.871 782.466 285.351 782.076 284.702 781.816C284.052 781.816 283.532 781.816 283.142 782.336C281.713 783.505 281.063 785.713 281.583 787.531Z" fill="#E60012"/>
<path d="M259.364 760.257C258.455 761.166 259.494 762.205 259.364 763.244C259.364 763.634 260.014 763.634 260.404 763.763C261.183 764.543 261.703 765.322 262.353 766.101C262.353 766.101 262.093 766.361 261.963 766.361C261.183 765.712 260.663 764.932 260.274 764.023C260.014 763.763 259.494 763.763 259.234 764.023C258.584 764.673 258.974 765.452 259.234 766.101C259.884 766.101 260.404 766.881 260.793 767.4C260.664 767.53 260.404 767.66 260.274 767.79C259.754 767.4 259.364 766.751 258.974 766.101C258.714 765.712 258.714 764.673 257.935 764.673C257.675 764.673 257.415 764.673 257.285 764.932C256.895 765.452 257.025 766.101 257.285 766.491C257.155 767.53 258.455 767.14 258.714 767.79C258.714 768.049 258.974 768.309 259.104 768.569C258.844 768.569 258.325 768.309 257.935 768.569C257.935 768.699 257.935 768.829 257.935 768.958L258.454 770.127C258.454 770.127 258.455 771.037 258.974 771.166C259.754 771.426 260.404 770.907 260.793 770.517C261.443 771.037 262.223 771.946 262.353 772.725C262.612 772.985 263.132 773.115 263.522 773.115C264.432 772.725 263.652 771.816 263.782 771.166C263.392 770.647 262.612 770.517 262.353 769.868C262.353 769.738 262.353 769.348 262.482 769.348C263.132 769.608 263.652 770.387 264.042 770.907C264.302 771.166 264.042 771.556 264.562 771.686C264.821 771.816 265.081 771.686 265.471 771.686C265.861 771.166 265.991 770.257 265.731 769.738C265.731 769.088 264.951 769.738 264.692 769.088C264.562 768.829 264.172 768.699 264.172 768.309C264.172 768.309 264.432 768.049 264.562 768.049C265.471 769.088 266.381 770.127 267.16 771.296V771.946C267.16 771.946 267.94 772.855 268.59 772.855C269.499 772.465 269.759 771.426 269.889 770.517C269.889 770.257 269.629 769.997 269.369 769.868C268.98 769.738 268.72 769.868 268.33 769.868C267.81 769.478 267.29 768.959 267.03 768.309C267.16 768.309 267.29 768.309 267.55 768.309C267.81 768.569 268.2 768.959 268.33 769.348C268.85 769.348 269.239 769.998 269.889 769.608C270.149 769.478 270.279 769.218 270.149 768.958C269.759 768.439 269.239 767.79 268.849 767.27C268.59 767.27 268.33 766.751 268.33 766.491C268.979 766.491 269.369 767.4 269.889 767.79C270.149 768.309 270.409 769.088 271.058 769.218C271.318 769.218 271.448 769.218 271.578 768.958C271.578 768.439 272.488 768.309 272.618 767.79C272.618 767.14 272.098 767.27 271.968 766.881C272.878 766.621 273.137 767.66 273.917 767.92C274.177 767.92 274.307 767.919 274.567 767.66C274.827 767.01 275.736 766.621 275.866 765.712C275.996 765.322 275.866 764.932 275.476 764.673C274.827 764.153 274.047 764.153 273.397 764.413C273.137 764.413 272.878 764.673 272.618 764.543C271.968 763.244 274.177 762.984 273.527 761.555C273.137 760.906 272.748 759.867 271.838 759.997C270.669 760.387 269.759 761.426 268.59 762.075C268.46 762.075 268.33 761.945 268.2 761.945C267.81 761.815 267.94 762.335 267.81 762.465C267.68 762.465 267.42 762.335 267.29 762.205C266.251 761.685 266.9 760.517 266.251 759.607C265.991 759.348 265.731 759.218 265.341 759.088C264.821 759.088 264.302 759.348 264.042 759.737C263.522 760.387 263.652 761.166 263.782 761.945C263.912 762.335 264.172 762.854 264.172 763.244C263.912 763.244 263.782 763.114 263.652 762.984C263.392 762.724 263.262 763.114 263.002 763.244C262.093 762.465 263.002 761.296 263.002 760.387C263.002 760.127 262.612 759.867 262.482 759.737C261.573 759.348 260.923 759.737 260.274 760.257M271.708 764.413C271.708 764.413 271.968 764.932 272.098 765.062C271.968 765.452 271.708 765.712 271.708 766.101C271.188 766.101 270.929 765.322 270.539 764.932C270.929 764.673 271.318 764.153 271.838 764.413M266.511 766.231C266.511 766.231 266.511 766.231 266.511 766.491C265.991 766.621 265.601 766.621 265.471 766.101C265.731 766.101 266.251 766.101 266.381 766.231M267.16 764.153C267.16 764.153 265.861 764.153 265.601 763.634C265.601 763.374 265.991 763.244 266.121 762.984C266.511 763.374 266.9 763.763 267.16 764.153Z" fill="#E60012"/>
<path d="M266.25 760.906C266.25 760.906 266.509 761.815 266.769 761.815C267.289 761.556 267.679 761.166 268.199 760.647C268.978 759.607 269.888 758.439 269.628 757.01C269.368 756.62 268.978 755.971 268.329 755.971C267.679 755.841 267.029 755.971 266.769 756.49C265.73 757.659 265.73 759.348 266.25 760.776" fill="#E60012"/>
<path d="M1112.01 212.954C1100.97 226.591 1091.87 234.644 1091.87 234.644L900.733 99.3118C900.733 99.3118 903.981 83.8564 913.986 64.5047C878.384 54.2444 839.922 49.0493 798.732 48.7896C736.232 49.1792 680.36 61.1279 631.113 84.246C577.969 109.182 532.621 147.236 495.589 198.408C494.939 199.317 494.16 200.226 493.51 201.265C439.326 277.373 416.977 369.067 435.428 440.499C449.721 495.957 486.234 538.297 544.186 566.22C610.064 598.04 698.161 615.444 799.122 616.613C899.953 615.444 988.05 598.04 1053.93 566.22C1111.88 538.297 1148.52 495.957 1162.69 440.499C1180.1 372.573 1160.87 286.595 1112.4 212.954" fill="white"/>
<path d="M645.536 1112.48C686.986 1125.47 738.051 1132.1 798.342 1132.1C858.633 1132.1 909.698 1125.47 951.278 1112.48C1000.39 1078.33 1064.84 1025.86 1065.62 1025.86C1065.62 1025.86 1065.75 1025.86 1065.88 1025.86C1097.07 965.463 1084.33 890.394 1070.04 837.014C1040.28 871.302 1002.08 892.602 958.684 875.848C885.14 847.404 933.477 752.334 957.255 715.449C969.469 696.487 980.384 671.291 979.345 642.458C979.215 638.562 978.435 634.276 977.395 629.86C948.549 637.133 917.495 642.588 884.75 646.095C884.101 656.615 879.423 679.603 850.447 679.603H746.497C717.391 679.603 712.714 656.485 712.064 645.965C673.992 641.679 638.26 634.925 605.386 625.704C582.647 666.226 561.077 717.657 542.626 783.505C541.327 788.18 539.508 793.895 537.559 800.389C522.226 850.392 491.691 949.748 530.932 1025.86C530.932 1025.86 531.062 1025.86 531.192 1025.86C531.971 1025.86 596.29 1078.33 645.536 1112.48Z" fill="white"/>
<path d="M750.136 490.762C727.007 490.762 708.036 504.269 708.036 520.893C708.036 537.517 727.007 551.155 750.136 551.155C773.265 551.155 792.235 537.647 792.235 520.893C792.235 504.139 773.395 490.762 750.136 490.762Z" fill="#E60012"/>
<path d="M658.919 332.441C653.592 329.454 646.835 328.285 640.338 326.857C634.491 327.376 629.034 326.857 623.447 328.155C599.798 333.87 581.217 345.689 561.077 359.196C548.863 367.378 537.168 377.898 526.514 387.509C503.255 408.29 490.651 439.98 497.408 472.189C501.176 489.982 512.87 502.97 528.333 512.321C542.886 521.283 562.116 522.452 576.799 516.088C600.318 505.698 611.232 487.645 627.215 470.241C642.417 453.487 661.388 439.98 673.862 421.148C693.742 390.626 691.014 350.364 658.919 332.571M610.193 448.811C599.798 448.811 590.962 440.369 590.962 429.719C590.962 419.07 599.798 410.757 610.193 410.757C620.588 410.757 629.294 419.329 629.294 429.719C629.294 440.11 620.718 448.811 610.193 448.811Z" fill="#E60012"/>
<path d="M973.887 387.509C963.232 377.898 951.538 367.378 939.324 359.196C919.184 345.689 900.603 333.74 876.954 328.155C871.367 326.727 865.91 327.376 860.063 326.857C853.566 328.285 846.809 329.584 841.482 332.441C809.387 350.235 806.658 390.497 826.539 421.018C839.013 439.98 857.983 453.357 873.186 470.111C889.168 487.515 900.083 505.698 923.602 515.958C938.415 522.322 957.515 521.283 972.068 512.191C987.531 502.71 999.355 489.723 1002.99 472.059C1009.75 439.85 997.016 408.16 973.887 387.379M890.078 448.552C879.553 448.552 870.977 440.11 870.977 429.46C870.977 418.81 879.553 410.498 890.078 410.498C900.603 410.498 909.179 419.069 909.179 429.46C909.179 439.85 900.343 448.552 890.078 448.552Z" fill="#E60012"/>
</svg>
