<svg width="1319" height="1002" viewBox="0 0 1319 1002" fill="none" xmlns="http://www.w3.org/2000/svg">
<path d="M968.281 183.216C942.424 207.243 917.475 233.219 895.776 260.363C895.386 259.973 895.126 259.714 895.126 259.714C893.437 257.895 853.677 214.906 797.284 220.491C713.604 229.192 688.137 293.871 675.923 325.042L673.844 330.497C664.748 352.836 643.958 364.265 632.134 366.473C613.423 370.239 595.491 382.448 565.606 403.747C547.025 416.995 540.918 429.983 539.359 440.113C529.094 446.996 511.682 458.685 493.231 471.284C464.125 491.025 432.291 512.714 422.026 520.767C421.376 521.286 420.467 523.104 419.297 524.923C418.518 526.741 417.738 528.429 417.738 528.429L418.907 530.118C415.789 529.468 411.631 528.949 408.252 528.819C402.015 528.559 390.451 529.468 388.242 530.897C386.163 532.326 384.084 531.806 381.616 531.027C379.537 530.378 346.403 536.742 314.568 546.353C282.603 555.834 263.243 563.756 258.825 565.185C254.277 566.743 252.068 567.912 251.679 570.12C250.899 571.938 248.82 571.289 248.82 571.289C247.261 570.899 239.724 573.107 229.199 579.861C224.002 583.108 221.273 585.835 219.194 588.433C217.375 591.03 215.816 594.017 216.855 598.433C217.635 601.031 218.415 604.408 219.584 608.174L429.042 545.963C428.913 545.314 428.653 544.924 428.523 544.275L479.068 618.694L540.269 709.089C540.269 709.089 541.958 709.089 543.907 708.829C545.986 708.829 548.065 708.439 548.974 707.92C560.279 701.426 592.113 679.996 621.219 660.255C640.06 647.527 657.732 635.578 667.867 628.695C670.465 629.214 673.064 629.993 676.182 629.993C685.408 629.993 696.843 627.006 710.746 618.045C742.84 597.394 759.992 585.835 769.997 570.12C776.364 560.12 794.685 545.054 818.983 544.794H824.441C836.525 544.794 854.846 545.054 874.986 540.898C975.037 622.85 1173.06 458.166 1217.89 437.386C1251.54 421.8 1285.98 412.319 1318.98 406.864V0.608643C1174.36 29.9609 1030.39 125.291 968.411 183.216" fill="#E60012"/>
<path d="M332.239 680.256C334.058 680.905 335.878 681.165 337.697 681.165C340.295 681.165 342.894 680.516 345.363 679.347C349.521 677.269 352.51 673.632 353.939 669.087C356.797 659.995 351.86 650.514 342.634 647.527C333.539 644.799 323.923 649.735 321.065 658.696C318.336 667.788 323.274 677.399 332.239 680.256Z" fill="#E60012"/>
<path d="M346.922 757.792C337.956 755.195 328.211 760 325.222 768.962C322.493 778.053 327.561 787.794 336.527 790.521C338.216 791.041 339.905 791.301 341.724 791.301C349.131 791.301 355.887 786.625 358.096 779.222C359.525 774.936 359.136 770.26 356.927 766.104C354.848 762.078 351.21 759.091 346.922 757.662" fill="#E60012"/>
<path d="M259.084 728.31C260.514 723.895 259.994 719.219 257.915 715.063C255.706 711.037 252.198 708.05 247.78 706.621C238.684 703.634 229.199 708.569 226.21 717.66C223.352 726.622 228.29 736.363 237.255 739.48C238.944 739.999 240.763 740.259 242.453 740.259C245.181 740.259 247.91 739.61 250.509 738.311C254.537 736.233 257.526 732.596 258.955 728.18" fill="#E60012"/>
<path d="M434.369 689.737C429.951 688.308 425.404 688.698 421.376 690.776C417.218 692.854 414.229 696.491 412.8 700.906C411.37 705.322 411.89 709.998 413.969 714.154C416.048 718.18 419.686 721.167 423.974 722.466C425.793 722.985 427.612 723.375 429.302 723.375C436.578 723.375 443.205 718.699 445.674 711.426C448.402 702.205 443.465 692.724 434.369 689.737Z" fill="#E60012"/>
<path d="M93.4145 866.37C84.3189 863.513 74.5736 868.578 71.8449 877.539C69.1163 886.631 74.1838 896.242 83.0195 899.099C84.8387 899.618 86.6578 900.008 88.347 900.008C90.9457 900.008 93.6743 899.359 96.1431 898.06C100.171 895.982 103.29 892.345 104.589 887.929C107.318 878.968 102.38 869.357 93.4145 866.37Z" fill="#E60012"/>
<path d="M327.951 870.526C318.855 867.798 309.37 872.734 306.381 881.825C303.653 890.787 308.59 900.398 317.556 903.385C319.245 903.904 321.064 904.164 322.753 904.164C330.029 904.164 336.786 899.488 339.255 892.085C342.114 882.994 337.306 873.513 328.08 870.396" fill="#E60012"/>
<path d="M268.699 817.276C259.604 814.679 250.118 819.614 247.259 828.575C245.83 832.991 246.35 837.797 248.429 841.823C250.638 845.849 254.146 848.836 258.434 850.005C260.253 850.655 261.942 850.914 263.891 850.914C266.36 850.914 268.959 850.265 271.298 849.096C275.456 847.018 278.575 843.381 280.004 838.836C282.862 829.874 277.795 820.133 268.699 817.016" fill="#E60012"/>
<path d="M176.315 812.211C179.173 803.12 174.106 793.379 165.14 790.651C156.045 787.664 146.429 792.6 143.441 801.951C140.712 810.912 145.78 820.653 154.745 823.51C156.434 824.03 158.124 824.29 159.813 824.29C167.089 824.29 173.976 819.614 176.315 812.341V812.211Z" fill="#E60012"/>
<path d="M22.9887 765.065C14.153 762.078 4.40784 767.273 1.41929 776.235C-1.30939 785.326 3.62823 794.937 12.5939 797.665C14.413 798.184 16.2321 798.574 18.0512 798.574C20.65 798.574 23.3785 797.924 25.8473 796.626C30.0053 794.548 32.9939 790.911 34.4232 786.495C35.8525 782.079 35.3328 777.404 33.2538 773.378C31.1748 769.351 27.5366 766.364 23.1187 765.065" fill="#E60012"/>
<path d="M196.455 915.853C187.49 912.996 177.874 918.061 174.886 927.023C173.456 931.438 173.976 936.114 176.055 940.14C178.134 944.166 181.772 947.154 186.06 948.582C187.879 949.102 189.568 949.361 191.388 949.361C198.664 949.361 205.421 944.816 207.889 937.413C210.618 928.062 205.681 918.71 196.455 915.723" fill="#E60012"/>
<path d="M123.17 713.245C114.075 710.258 104.329 715.323 101.471 724.414C98.6121 733.506 103.68 743.116 112.905 746.104C114.594 746.623 116.283 746.883 117.843 746.883C125.119 746.883 132.006 742.207 134.215 734.934C135.644 730.518 135.254 725.843 133.175 721.817C131.096 717.791 127.588 714.673 123.17 713.375" fill="#E60012"/>
<path d="M68.4674 967.544C64.1795 966.116 59.5019 966.505 55.3439 968.583C51.3158 970.661 48.3273 974.298 46.898 978.454C45.4687 982.87 45.7286 987.545 47.9376 991.701C50.0166 995.857 53.5248 998.845 58.0726 1000.27C59.7618 1000.79 61.5809 1001.05 63.27 1001.05C70.5465 1001.05 77.3032 996.507 79.642 989.234C81.0713 984.688 80.6816 980.012 78.4726 975.856C76.2637 971.83 72.7554 968.843 68.4674 967.544Z" fill="#E60012"/>
<path d="M697.492 597.394C726.468 578.692 742.06 568.302 749.337 556.872C760.511 539.339 786.889 520.507 818.853 520.247H824.7C855.625 520.637 912.927 521.286 945.282 459.724C965.812 420.891 945.282 376.603 945.022 376.213C944.632 375.434 936.316 355.823 913.837 324.652C893.177 291.793 877.845 276.857 877.715 276.727C876.805 275.688 843.281 240.232 799.882 244.908C731.016 252.051 710.096 305.3 698.791 334.003L696.583 339.718C684.628 369.33 657.861 386.604 636.811 390.5C623.818 393.097 609.395 402.578 579.769 423.748C563.657 435.307 562.228 444.918 563.917 448.815L576.391 482.842C585.876 497.908 597.181 515.442 608.095 531.417C618.88 547.391 630.834 564.405 641.359 578.692L667.087 601.81C671.245 605.966 680.73 608.304 697.622 597.524" fill="white"/>
<path d="M836.785 399.202C842.502 395.435 842.242 385.175 836.395 376.863C830.678 368.161 821.322 364.395 815.735 368.161C810.147 371.928 810.147 382.058 816.125 390.5C821.842 399.202 831.197 403.098 836.915 399.202" fill="#E60012"/>
<path d="M871.607 418.943C871.607 418.943 870.308 418.943 869.658 418.683C865.89 417.644 863.681 413.618 864.721 409.851C864.851 409.072 869.658 390.11 853.026 365.563C836.265 341.017 816.904 338.419 816.124 338.289C812.226 337.77 809.367 334.263 809.757 330.367C810.147 326.47 813.526 323.743 817.554 324.003C818.593 324.133 844.06 327.12 864.85 357.381C885.51 387.902 878.754 412.709 878.494 413.748C877.584 416.865 874.726 418.943 871.607 418.943Z" fill="#E60012"/>
<path d="M873.687 485.83C880.313 479.336 882.522 470.764 882.262 461.673C882.003 453.101 877.195 444.529 870.438 440.113C859.653 432.97 848.868 433.1 836.914 431.541C825.74 429.593 814.695 425.177 803.13 425.177C784.939 425.177 768.438 437.515 769.737 456.088C769.737 459.075 771.166 462.322 772.335 465.569C774.155 467.647 775.454 470.244 777.533 472.322C786.499 480.635 796.764 485.31 808.068 490.116C814.825 493.103 822.621 495.051 829.638 497.129C844.71 501.155 861.732 497.648 873.557 485.96M813.915 451.412C811.057 452.971 807.549 451.932 806.249 449.204C804.82 446.217 805.599 442.84 808.588 441.412C811.317 439.983 814.825 440.892 816.384 443.749C817.684 446.607 816.774 449.984 813.915 451.542" fill="#E60012"/>
<path d="M722.309 338.159C721.53 345.432 720.36 353.355 720.75 360.758C720.75 373.096 721.53 384.136 725.948 395.695C727.118 398.292 728.937 400.63 730.366 403.098C732.705 405.436 735.303 407.903 738.162 409.072C754.924 417.254 772.465 406.605 779.092 389.72C783.38 378.941 783.38 367.252 785.849 356.082C788.578 344.263 792.865 334.393 790.267 321.795C788.577 313.742 782.471 306.08 774.544 302.703C766.228 299.196 757.393 298.157 748.947 301.664C733.744 308.287 724.129 322.704 722.309 338.289M766.878 370.499C769.087 372.707 768.697 376.343 766.228 378.421C763.759 380.499 760.251 380.239 758.042 377.772C756.093 375.304 756.353 371.797 758.822 369.719C761.161 367.641 764.669 368.031 766.748 370.369" fill="#E60012"/>
<path d="M625.897 453.36C627.196 455.309 629.925 455.828 631.874 454.529C633.693 453.231 634.213 450.633 632.784 448.555C631.354 446.477 628.626 445.957 626.807 447.256C624.987 448.555 624.598 451.153 625.897 453.36ZM632.394 448.815C633.563 450.633 633.173 452.971 631.614 454.01C629.795 455.179 627.456 454.659 626.417 452.841C625.117 451.023 625.637 448.815 627.326 447.646C628.885 446.477 631.354 446.996 632.524 448.685" fill="#E60012"/>
<path d="M629.665 448.166C629.665 448.166 629.016 448.685 628.886 448.815C628.496 449.075 628.625 449.464 628.625 449.854C628.236 449.594 627.976 449.464 627.586 449.594C627.196 449.594 626.937 449.854 626.807 450.114C626.417 450.633 626.547 451.283 626.807 451.542L628.496 453.88L632.653 451.023L632.004 450.114L630.445 451.283L629.795 450.243C629.795 450.243 629.665 449.594 629.795 449.464C630.055 449.075 630.445 448.945 630.574 448.815C630.574 448.815 630.835 448.685 630.835 448.555L630.185 447.646H630.055C630.055 447.646 630.055 447.906 629.795 448.036M629.015 450.763L629.795 451.802L628.625 452.581L627.846 451.412C627.846 451.412 627.846 450.763 628.106 450.503C628.365 450.244 628.756 450.503 628.886 450.763" fill="#E60012"/>
<path d="M641.359 515.701C645.127 518.689 651.234 518.818 655.262 516.74C656.822 515.961 657.731 515.182 658.901 514.143C660.98 512.325 660.33 509.337 660.85 506.74C661.369 505.961 662.279 504.792 661.759 503.623C661.629 502.714 660.589 502.324 659.81 502.194C654.223 502.194 648.895 504.792 643.308 506.09C642.528 506.48 642.139 505.441 641.229 505.441C640.579 505.441 640.319 506.22 639.93 506.61C639.54 506.35 639.41 505.571 639.41 504.922C639.41 502.584 640.709 500.506 642.658 499.207C647.726 495.7 654.873 498.558 659.68 501.415C659.42 500.766 659.031 500.246 658.511 499.856C656.172 495.7 652.534 492.713 647.856 491.934C643.308 491.414 638.63 493.492 636.421 497.519C633.043 503.883 636.032 511.805 641.359 515.701ZM655.652 507.909C655.652 507.909 656.562 508.428 656.822 508.948C656.822 511.026 655.002 512.195 653.313 513.104C650.454 514.143 646.686 514.013 644.477 511.805C647.986 509.727 651.884 509.078 655.782 507.909" fill="#E60012"/>
<path d="M655.132 523.494C655.522 525.053 655.262 526.611 656.432 528.17C657.861 528.429 658.901 529.598 659.55 530.637L658.381 531.417C657.211 531.287 656.562 529.988 655.912 528.819C655.652 527.91 655.522 526.871 654.483 526.611C653.573 526.481 652.794 527.131 652.014 527.261C650.585 528.689 650.195 531.287 650.844 533.105C651.104 534.144 652.014 534.014 652.794 534.274C653.184 534.404 653.313 534.923 653.184 535.053C652.534 536.222 651.494 535.313 650.585 535.313C649.935 535.573 649.545 535.962 649.285 536.612C649.805 538.17 649.805 539.729 650.065 541.287C650.455 543.106 652.664 542.326 653.833 542.586C653.833 541.807 654.872 541.547 655.392 540.898C656.172 540.768 656.822 539.729 657.861 539.859C657.861 540.118 658.121 540.508 658.121 541.028C659.031 542.456 660.46 541.028 661.499 541.157C661.239 541.547 661.11 542.067 660.98 542.586C660.72 544.015 659.94 545.054 659.42 546.093C659.42 546.482 659.68 546.872 660.2 547.132C661.109 548.171 662.539 546.742 663.319 548.171C664.228 549.08 663.449 550.379 664.228 551.548C664.748 552.587 666.177 552.717 667.217 552.587C667.606 552.327 668.516 552.327 668.906 551.548C671.245 549.34 674.363 547.262 677.352 545.833C679.301 545.573 679.561 543.236 681.25 542.326C681.9 541.157 680.34 539.729 679.69 538.95C679.041 538.17 678.131 538.95 677.352 539.339C676.832 539.729 676.832 538.82 676.442 538.56C676.702 537.781 676.702 536.612 676.182 535.833C675.403 535.183 674.623 534.014 673.713 534.274C672.154 534.793 670.855 535.573 669.555 536.222C669.815 535.962 670.075 535.703 670.335 535.443C670.855 534.534 671.245 533.495 670.725 532.715C670.075 532.066 669.036 532.715 668.516 531.676C670.075 530.508 672.284 529.079 673.713 528.04C674.623 527.65 675.663 526.741 676.702 526.871C676.962 527.131 677.482 527.65 677.222 528.17C676.182 529.209 674.883 529.988 673.974 530.897C673.324 531.547 672.804 532.456 672.934 533.495C674.883 533.495 676.182 534.923 677.741 535.962C678.131 536.222 678.781 536.482 679.041 535.833C680.73 533.884 683.849 534.404 685.148 532.066C685.538 530.637 685.148 529.209 683.979 528.17C682.809 527.131 680.73 527.001 679.301 527.39C678.261 524.403 683.069 523.364 681.64 520.507C681.12 519.078 679.82 518.169 678.521 518.039C675.013 519.858 671.764 522.325 668.386 524.663C666.697 525.053 665.008 528.819 663.319 526.092C661.759 525.053 661.889 522.845 662.019 521.027C662.019 520.117 661.239 519.598 660.59 519.208C659.29 518.559 658.121 518.689 656.951 519.208C655.912 520.247 655.003 521.546 655.263 523.234M672.024 541.287L672.674 542.196C671.245 543.365 669.556 544.664 667.736 545.184C667.736 544.924 667.347 545.054 667.347 544.794C667.736 544.145 667.996 543.625 668.646 543.106C669.686 542.196 670.855 541.677 672.024 541.287ZM663.708 534.923C663.708 534.923 664.878 535.962 665.137 536.612C665.137 537.001 664.878 537.261 665.137 537.651C666.177 537.911 666.957 537.781 667.866 537.391C666.567 538.43 665.267 539.339 663.838 539.989L663.058 539.599C663.058 539.599 664.098 538.56 664.358 537.521C664.228 537.261 664.358 536.742 663.968 536.482C663.578 536.222 662.929 536.092 662.409 536.092C662.929 535.832 663.318 535.183 663.578 535.053" fill="#E60012"/>
<path d="M665.008 525.183C665.787 525.053 666.567 524.533 667.347 524.273C670.595 522.065 674.493 519.857 674.623 515.572C674.363 514.273 673.453 513.234 672.154 512.714C670.855 512.455 669.685 512.714 668.646 513.753C665.398 516.481 663.968 521.286 665.137 525.312" fill="#E60012"/>
<path d="M616.021 465.309C613.942 467.257 616.411 469.465 615.762 471.803C616.022 472.712 617.191 472.712 617.97 472.842C619.53 474.401 620.959 476.219 622.259 478.167C622.259 478.167 621.739 478.687 621.609 478.687C619.919 477.258 618.75 475.44 617.711 473.491C617.061 472.972 616.022 472.972 615.372 473.362C613.943 474.66 614.722 476.479 615.112 478.037C616.671 478.297 617.711 479.726 618.62 480.765C618.231 481.024 617.841 481.154 617.451 481.544C616.152 480.635 615.502 479.206 614.462 477.777C613.813 476.868 613.813 474.66 612.123 474.79C611.474 474.92 610.954 474.92 610.564 475.44C609.785 476.479 610.045 477.907 610.564 479.076C610.174 481.284 613.033 480.375 613.683 481.804C613.813 482.453 614.332 482.843 614.462 483.492C613.813 483.492 612.903 482.973 611.993 483.752C611.993 484.012 611.863 484.401 611.993 484.531L613.293 487.129C613.293 488.038 613.553 489.077 614.462 489.466C616.022 490.116 617.581 489.077 618.62 488.038C620.05 489.207 621.869 491.025 621.999 492.973C622.649 493.622 623.688 493.752 624.597 493.752C626.676 492.973 624.987 490.765 625.117 489.466C624.208 488.168 622.518 488.168 621.869 486.609C621.869 486.219 621.609 485.57 622.128 485.44C623.688 485.96 624.597 487.648 625.507 488.947C626.027 489.596 625.637 490.246 626.546 490.635C627.066 490.895 627.846 490.635 628.496 490.635C629.405 489.466 629.665 487.648 629.145 486.349C629.015 484.921 627.326 486.09 626.806 484.921C626.417 484.531 625.637 484.012 625.507 483.232C625.767 483.102 626.027 482.713 626.417 482.713C628.366 484.921 630.445 487.388 632.134 489.856L632.394 491.285C632.654 492.454 633.953 493.233 635.122 493.233C637.201 492.454 637.721 490.116 637.851 488.038C637.851 487.259 637.201 486.869 636.811 486.609C636.032 486.349 635.252 486.479 634.602 486.609C633.433 485.7 632.394 484.531 631.874 483.232C632.264 483.232 632.524 483.102 632.913 483.232C633.563 483.752 634.342 484.531 634.602 485.44C635.772 485.44 636.682 486.739 638.111 485.96C638.501 485.57 639.021 485.051 638.631 484.401C637.851 483.232 636.552 481.804 635.642 480.635C635.122 480.375 634.602 479.466 634.602 478.946C636.162 478.946 636.811 480.895 637.981 481.674C638.501 482.843 639.02 484.401 640.45 484.661C640.969 484.661 641.23 484.531 641.489 484.271C641.619 483.102 643.438 482.843 643.698 481.674C643.958 480.245 642.399 480.505 642.139 479.726C644.088 479.206 644.737 481.674 646.427 481.934C646.816 481.934 647.336 481.934 647.726 481.414C648.376 479.855 650.325 479.206 650.585 477.258C650.975 476.349 650.325 475.57 649.675 474.92C648.376 473.621 646.557 473.881 644.998 474.401C644.348 474.401 643.828 474.92 643.178 474.79C641.749 471.803 646.557 471.284 645.128 468.296C644.218 466.738 643.438 464.66 641.359 464.79C638.631 465.699 636.682 467.907 634.083 469.206C633.823 469.206 633.433 468.946 633.303 468.946C632.524 468.686 632.783 469.725 632.394 469.985C632.004 469.725 631.614 469.725 631.224 469.335C628.885 468.037 630.445 465.569 628.885 463.751C628.366 463.101 627.846 462.842 626.936 462.712C625.767 462.712 624.727 463.231 623.948 464.27C622.908 465.569 623.168 467.517 623.298 469.206C623.558 470.245 624.078 471.154 624.208 472.193C623.688 472.193 623.428 471.803 622.908 471.543C622.388 471.154 622.128 471.803 621.609 472.063C619.66 470.374 621.609 467.777 621.609 465.699C621.479 465.05 620.829 464.53 620.439 464.27C618.62 463.361 617.061 464.53 615.632 465.439M640.709 474.531C640.709 474.531 641.359 475.57 641.489 476.089C641.23 476.868 640.71 477.518 640.58 478.297C639.41 478.037 638.891 476.609 638.111 475.829C638.891 475.31 639.93 473.881 640.839 474.66M629.015 478.557C629.015 478.557 629.145 478.816 629.275 478.946C628.236 479.336 627.326 479.206 626.936 478.297C627.456 478.297 628.496 478.037 628.885 478.557M630.704 474.011C629.405 473.881 627.976 473.881 627.326 472.842C627.586 472.323 628.106 471.933 628.366 471.414C629.275 472.193 629.925 473.102 630.704 474.011Z" fill="#E60012"/>
<path d="M631.094 466.478C631.354 467.127 631.614 468.426 632.393 468.686C633.563 468.166 634.472 467.127 635.512 466.218C637.331 464.01 639.41 461.413 638.63 458.296C637.981 457.387 637.201 456.218 635.772 456.088C634.342 455.698 633.043 456.218 632.263 457.257C629.924 459.854 630.054 463.621 631.094 466.608" fill="#E60012"/>
</svg>
