<svg width="1489" height="1478" viewBox="0 0 1489 1478" fill="none" xmlns="http://www.w3.org/2000/svg">
<g clip-path="url(#clip0_285_2065)">
<mask id="mask0_285_2065" style="mask-type:luminance" maskUnits="userSpaceOnUse" x="0" y="0" width="1489" height="1198">
<path d="M1488.44 0.892151H0V1197.5H1488.44V0.892151Z" fill="white"/>
</mask>
<g mask="url(#mask0_285_2065)">
<path d="M1149.68 877.585C1125.29 835.668 1052.8 751.571 974.762 732.985C986.23 728.635 997.302 724.022 1007.85 718.881C1075.07 686.455 1119.49 634.652 1136.23 569.141C1157.46 486.098 1133.47 385.261 1072.04 299.45C1067.03 292.464 1061.89 285.61 1056.62 279.019C1076.79 256.874 1116.46 203.49 1089.57 150.105C1059.52 90.2618 962.899 65.8763 927.046 92.1072C900.551 111.088 887.106 137.583 880.911 154.191C836.753 139.165 788.51 131.388 735.916 131.256C683.454 131.52 635.078 139.165 591.053 154.191C584.857 137.583 571.412 111.088 544.786 92.1072C508.933 65.8763 412.313 90.2618 382.26 150.105C355.37 203.49 395.046 256.874 415.213 279.019C409.941 285.61 404.8 292.332 399.791 299.45C338.366 385.393 314.376 486.23 335.598 569.273C341.398 592.076 350.888 613.167 363.279 632.543C332.83 617.78 301.326 613.694 280.763 643.352C246.492 692.914 281.291 750.912 322.416 797.179C346.011 823.673 399.527 867.303 458.053 889.844C452.648 905.661 447.508 922.138 442.499 939.801C441.181 944.283 439.599 949.819 437.622 956.014C420.222 1012.43 385.687 1125.26 435.381 1215.56C435.117 1224.78 435.381 1237.83 435.381 1256.42C435.381 1256.42 436.303 1298.73 459.107 1370.57C471.893 1411.03 499.179 1467.45 542.413 1474.7C614.779 1487.62 644.437 1453.74 651.16 1416.83C655.641 1392.32 654.85 1356.2 645.096 1332.47C672.909 1336.16 703.094 1338.01 735.784 1338.01C768.474 1338.01 798.527 1336.03 826.472 1332.47C816.718 1356.07 815.927 1392.32 820.408 1416.83C827.131 1453.74 856.789 1487.62 929.155 1474.7C972.39 1467.45 999.675 1411.03 1012.59 1370.57C1035.4 1298.86 1036.32 1256.42 1036.32 1256.42C1036.32 1237.83 1036.45 1224.78 1036.32 1215.56C1074.28 1146.62 1063.21 1064.63 1048.05 1004.65C1080.48 1038.53 1124.24 1071.61 1160.22 1036.95C1203.59 995.163 1181.05 931.497 1149.81 877.848" fill="#E60012"/>
<path d="M735.784 166.318C603.838 166.846 500.365 218.385 428.263 319.749C373.56 396.201 351.02 488.471 369.474 560.441C383.71 616.462 420.617 659.038 479.011 687.246C545.708 719.408 632.046 736.544 735.784 737.862C839.521 736.544 925.859 719.408 992.425 687.246C1050.82 659.038 1087.73 616.33 1101.96 560.441C1120.42 488.471 1097.88 396.201 1043.17 319.749C971.071 218.385 867.597 166.846 735.652 166.318" fill="white"/>
<path d="M976.608 889.448C975.553 886.416 974.367 883.516 973.312 880.485C971.071 874.421 968.831 868.358 966.59 862.558C965.535 859.79 964.349 857.154 963.295 854.517C960.922 848.718 958.549 842.918 956.045 837.382C954.99 835.141 954.068 832.9 953.013 830.659C950.377 824.859 947.74 819.323 945.104 813.787C944.313 812.073 943.391 810.36 942.6 808.778C939.7 802.978 936.8 797.31 933.768 791.906C933.109 790.72 932.582 789.665 931.923 788.611C928.627 782.679 925.332 777.011 922.037 771.607L920.982 770.025C917.292 764.093 913.601 758.293 909.91 752.889C882.888 759.348 854.153 764.357 823.572 767.652C822.781 778.461 817.772 801.265 788.773 801.265H683.322C654.323 801.265 649.183 778.593 648.524 767.652C618.075 764.357 589.471 759.348 562.581 752.889C547.291 775.166 532.132 801.792 517.764 833.691C517.105 835.141 516.446 836.591 515.787 838.041C513.019 844.104 510.383 850.431 507.747 856.89C506.824 859.395 505.769 861.899 504.847 864.403C502.474 870.203 500.233 876.135 497.992 882.33C496.938 885.23 495.883 888.13 494.829 891.162C492.588 897.489 490.479 903.947 488.238 910.67C487.315 913.57 486.393 916.338 485.47 919.238C482.438 928.86 479.407 938.746 476.638 949.028C475.32 953.773 473.475 959.441 471.498 966.032C470.575 969.195 469.521 972.622 468.466 976.181C467.675 978.554 467.016 981.19 466.225 983.695C465.83 985.013 465.434 986.199 465.039 987.517C464.116 990.549 463.325 993.713 462.403 996.876C462.139 997.931 461.875 998.853 461.612 999.776C460.689 1003.2 459.766 1006.76 458.844 1010.45C458.712 1011.24 458.448 1012.03 458.185 1012.83C457.262 1016.65 456.339 1020.73 455.416 1024.69C455.285 1025.35 455.153 1025.88 455.021 1026.53C454.098 1030.75 453.176 1035.1 452.253 1039.58C452.253 1039.98 452.121 1040.37 451.989 1040.77C451.067 1045.52 450.276 1050.13 449.485 1055.01C449.485 1055.01 449.485 1055.14 449.485 1055.27C442.499 1100.48 442.499 1151.36 464.907 1194.73C464.907 1194.73 465.039 1194.73 465.171 1194.73C465.962 1194.73 531.209 1247.98 581.167 1282.65C591.712 1285.94 602.784 1288.84 614.516 1291.35H614.911C620.579 1292.67 626.379 1293.72 632.442 1294.78C632.969 1294.78 633.365 1294.91 633.892 1295.04C639.56 1295.96 645.228 1296.88 651.16 1297.67C652.214 1297.67 653.269 1297.94 654.323 1298.07C659.728 1298.73 665.132 1299.39 670.8 1299.92C672.777 1300.05 674.754 1300.18 676.863 1300.44C681.741 1300.84 686.618 1301.23 691.627 1301.5C695.054 1301.76 698.613 1301.76 702.172 1302.02C705.862 1302.16 709.685 1302.42 713.508 1302.55C721.021 1302.82 728.666 1302.82 736.443 1302.82C744.22 1302.82 751.865 1302.82 759.379 1302.55C763.201 1302.55 767.024 1302.29 770.715 1302.02C774.274 1301.89 777.833 1301.76 781.26 1301.5C786.269 1301.23 791.146 1300.84 795.891 1300.44C797.868 1300.31 799.977 1300.18 801.955 1299.92C807.623 1299.39 813.027 1298.73 818.563 1298.07C819.618 1297.94 820.672 1297.81 821.727 1297.67C827.658 1296.88 833.458 1296.09 839.126 1295.04C839.653 1295.04 840.049 1294.91 840.576 1294.78C846.508 1293.72 852.439 1292.67 858.107 1291.48H858.371C870.102 1288.98 881.175 1286.08 891.72 1282.78C941.677 1248.11 1006.92 1194.86 1007.72 1194.86C1007.72 1194.86 1007.85 1194.86 1007.98 1194.86C1030.39 1151.49 1030.39 1100.61 1023.4 1055.4V1055.14C1022.61 1050.39 1021.82 1045.65 1020.9 1040.9C1020.9 1040.51 1020.77 1040.11 1020.63 1039.72C1019.84 1035.37 1018.92 1031.02 1017.87 1026.67C1017.87 1026.01 1017.6 1025.48 1017.47 1024.82C1016.55 1020.87 1015.62 1016.91 1014.7 1012.96C1014.44 1012.17 1014.31 1011.24 1014.04 1010.45C1013.12 1006.89 1012.2 1003.34 1011.27 999.908C1011.01 998.985 1010.75 998.062 1010.48 997.008C1009.56 993.844 1008.64 990.681 1007.85 987.517C1007.45 986.199 1007.06 984.881 1006.66 983.563C1005.87 981.059 1005.08 978.554 1004.42 976.181C1003.37 972.622 1002.31 969.195 1001.26 966.032C999.28 959.441 997.434 953.773 996.116 949.028C993.084 938.351 990.053 928.201 986.889 918.315C985.966 915.283 984.912 912.384 983.989 909.484C981.748 902.629 979.508 895.907 977.267 889.448" fill="white"/>
<path d="M736.047 598.272C760.828 598.272 781.128 584.036 781.128 566.109C781.128 548.182 760.828 533.683 736.047 533.683C711.267 533.683 690.704 548.182 690.704 566.109C690.704 584.036 711.003 598.272 736.047 598.272Z" fill="#E60012"/>
<path d="M846.64 594.185C838.863 589.308 828.581 591.813 823.704 599.59C822.649 601.303 796.155 642.297 735.916 642.297C675.677 642.297 649.183 601.303 648.128 599.722C643.251 591.813 632.97 589.308 625.193 594.185C617.284 599.063 614.911 609.344 619.656 617.121C621.106 619.494 656.432 675.778 735.916 675.778C815.4 675.778 850.594 619.494 852.044 617.121C856.789 609.344 854.417 599.063 846.64 594.317" fill="#E60012"/>
<path d="M675.282 434.295C698.613 398.574 695.317 351.385 657.751 330.294C651.423 327.131 643.515 325.549 636.001 323.836C629.279 324.495 622.952 323.836 616.229 325.417C588.417 331.744 566.667 345.849 543.073 361.666C528.573 371.289 514.996 383.547 502.474 394.751C475.189 419.269 460.426 456.308 468.466 493.875C472.816 514.965 486.393 529.992 504.583 541.065C521.851 551.61 543.995 552.928 561.395 545.546C588.944 533.551 601.598 512.197 620.447 491.634C638.242 472.126 660.519 456.308 675.15 434.164M598.303 436.668C598.303 428.1 605.157 421.114 613.857 421.114C622.556 421.114 629.674 427.968 629.674 436.668C629.674 445.368 622.82 452.09 613.857 452.09C604.893 452.09 598.303 445.368 598.303 436.668Z" fill="#E60012"/>
<path d="M969.094 394.883C956.704 383.679 943.127 371.42 928.628 361.798C905.165 345.98 883.284 331.876 855.471 325.549C848.749 323.967 842.422 324.495 835.699 323.967C828.317 325.681 820.277 327.263 813.95 330.426C776.383 351.517 773.087 398.706 796.418 434.427C811.05 456.572 833.326 472.39 850.989 491.898C869.839 512.593 882.493 533.815 910.042 545.81C927.441 553.191 949.718 551.873 966.854 541.328C985.044 530.256 998.752 515.229 1002.97 494.139C1011.01 456.572 996.116 419.401 968.963 395.015M857.58 452.354C848.749 452.354 841.894 445.631 841.894 436.932C841.894 428.232 848.88 421.378 857.58 421.378C866.28 421.378 873.134 428.232 873.134 436.932C873.134 445.631 866.28 452.354 857.58 452.354Z" fill="#E60012"/>
</g>
<path d="M1199.64 1181.28C1197.66 1179.17 1194.89 1177.99 1191.99 1177.99H1178.28C1174.33 1158.22 1154.56 1143.32 1131.62 1144.51C1124.5 1130.27 1108.82 1120.65 1090.76 1120.65C1085.88 1120.65 1081.14 1121.44 1076.52 1122.76C1065.85 1110.1 1049.1 1102.46 1030.91 1102.46C1012.72 1102.46 995.984 1110.1 985.307 1122.76C980.694 1121.31 975.948 1120.65 971.071 1120.65C953.145 1120.65 937.327 1130.27 930.209 1144.51C907.01 1143.32 887.37 1158.22 883.547 1177.99H869.97C867.07 1177.99 864.302 1179.17 862.325 1181.28C860.348 1183.39 859.293 1186.16 859.425 1189.06C859.425 1190.25 865.225 1288.84 960.658 1322.19V1354.35C960.658 1360.15 965.403 1364.9 971.203 1364.9H1090.49C1096.29 1364.9 1101.04 1360.15 1101.04 1354.35V1322.19C1196.47 1288.84 1202.27 1190.25 1202.27 1189.06C1202.27 1186.16 1201.35 1183.39 1199.37 1181.28" fill="#E60012"/>
<path d="M1134.26 1165.47C1132.15 1165.47 1129.91 1165.73 1127.14 1166.52C1124.37 1167.31 1121.34 1166.78 1118.83 1165.2C1116.33 1163.62 1114.62 1161.12 1114.09 1158.22C1112.24 1148.86 1102.23 1141.61 1090.76 1141.61C1086.28 1141.61 1081.79 1142.79 1077.84 1144.9C1072.7 1147.67 1066.37 1145.83 1063.6 1140.82C1057.67 1130.27 1044.75 1123.42 1030.91 1123.42C1017.07 1123.42 1004.29 1130.27 998.225 1140.82C995.457 1145.83 989.129 1147.67 983.989 1144.9C980.034 1142.79 975.553 1141.61 971.071 1141.61C959.471 1141.61 949.454 1148.73 947.74 1158.22C947.213 1161.12 945.499 1163.62 942.995 1165.2C940.49 1166.78 937.59 1167.31 934.69 1166.52C932.054 1165.86 929.813 1165.47 927.704 1165.47C917.686 1165.47 909.119 1170.61 905.56 1177.99H1156.27C1152.84 1170.74 1144.27 1165.47 1134.12 1165.47" fill="white"/>
<path d="M981.88 1328.12V1343.81H1080.08V1328.12C1065.45 1331.29 1049.24 1333.13 1030.91 1333.13C1012.59 1333.13 996.379 1331.29 981.748 1328.12" fill="white"/>
<path d="M1176.17 1199.08H881.833C885.788 1222.28 901.342 1275.66 961.054 1299.78C964.349 1301.1 967.644 1302.42 971.203 1303.47C987.416 1308.75 1006.53 1311.91 1029.07 1312.04C1029.73 1312.04 1030.26 1312.04 1030.78 1312.04C1031.31 1312.04 1031.97 1312.04 1032.5 1312.04C1055.04 1311.91 1074.15 1308.75 1090.36 1303.61C1093.92 1302.42 1097.35 1301.23 1100.51 1299.92C1160.49 1275.79 1175.91 1222.41 1179.73 1199.21H1175.78L1176.17 1199.08Z" fill="white"/>
<path d="M794.441 1054.61L792.464 1031.15C792.464 1031.15 792.2 1030.09 791.936 1029.57C786.664 986.858 646.019 973.941 574.576 971.963V971.436C574.576 959.836 596.984 971.963 596.984 945.864C596.984 932.156 581.43 920.952 554.672 920.952C527.914 920.952 512.36 932.156 512.36 945.864C512.36 971.963 534.768 959.836 534.768 971.436V972.095C478.747 973.677 323.339 982.508 317.407 1029.3C317.407 1029.7 317.144 1029.96 317.012 1030.36L312.926 1055.27C294.076 1061.33 285.772 1070.69 285.772 1093.76C285.772 1106.41 300.799 1103.38 325.316 1098.11C332.434 1173.9 355.633 1275.4 375.801 1310.07C388.191 1331.42 400.713 1341.04 420.881 1343.81V1354.22C420.881 1358.57 424.44 1362.13 428.79 1362.13H454.493C457.789 1362.13 460.689 1360.15 461.875 1357.12L466.62 1344.86H642.855L647.732 1357.12C648.919 1360.15 651.819 1362.13 655.114 1362.13H680.686C685.036 1362.13 688.595 1358.57 688.595 1354.22V1343.81C708.894 1341.04 721.284 1331.42 733.675 1310.07C753.842 1275.27 777.173 1173.77 784.159 1097.98C808.545 1103.25 823.704 1106.41 823.704 1093.63C823.704 1069.64 814.74 1060.54 794.441 1054.48" fill="#E60012"/>
<path d="M773.482 1057.25L772.823 1049.6L772.691 1046.7L772.296 1042.62H736.97H707.312H402.163H372.505H336.388L335.729 1046.7L335.202 1049.87L334.016 1057.25L333.62 1059.22V1059.75H408.358H701.117H773.746L773.482 1057.25Z" fill="white"/>
<path d="M693.603 1080.84H345.088C345.352 1085.06 345.747 1089.54 346.142 1094.02C352.733 1166.65 375.273 1267.09 394.123 1299.65C402.954 1314.94 409.94 1320.87 421.013 1322.85C423.385 1323.25 426.021 1323.64 428.921 1323.77C430.899 1323.77 433.008 1323.91 435.38 1323.91H674.358C676.731 1323.91 678.708 1323.91 680.817 1323.77C683.717 1323.64 686.353 1323.38 688.726 1322.85C699.798 1320.74 706.653 1314.94 715.616 1299.65C734.465 1267.09 757.137 1166.78 763.596 1094.02C763.992 1089.54 764.387 1085.19 764.651 1080.84H693.735H693.603ZM601.334 1288.18C596.325 1294.12 588.943 1297.41 581.166 1297.41H528.309C520.532 1297.41 513.15 1293.98 508.141 1288.18C503.132 1282.25 500.892 1274.48 502.21 1266.83L513.678 1196.18C515.655 1183.52 526.859 1173.9 539.513 1173.9H569.83C582.484 1173.9 593.688 1183.52 595.666 1196.18L607.133 1266.83C608.32 1274.48 606.211 1282.25 601.202 1288.18" fill="white"/>
<path d="M569.962 1194.86H539.645C537.272 1194.86 535.032 1196.84 534.636 1199.34L523.168 1270.13C522.773 1272.23 523.827 1273.82 524.355 1274.48C524.882 1275.13 526.332 1276.32 528.441 1276.32H581.298C583.407 1276.32 584.725 1275.13 585.384 1274.48C586.043 1273.82 586.966 1272.23 586.571 1270.13L575.103 1199.47C574.707 1196.97 572.467 1194.99 570.094 1194.99" fill="white"/>
<path d="M341.661 656.401C341.134 655.215 291.704 538.296 277.336 498.093C262.837 457.495 269.296 416.764 279.313 394.224C297.504 353.098 295.131 314.872 272.459 280.337C262.837 265.706 226.192 220.098 158.045 244.352C89.7654 268.737 90.4244 327.263 92.2698 344.662C96.6197 385.656 119.028 416.764 159.099 437.064C181.112 448.268 211.825 475.553 226.324 516.284C240.692 556.355 276.545 678.283 276.809 679.469C277.468 681.578 278.786 683.555 280.5 684.873C281.95 685.928 287.618 689.75 297.899 689.75C302.776 689.75 308.708 688.828 315.826 686.323C337.311 678.678 341.529 665.365 342.188 662.86C342.716 660.62 342.584 658.379 341.661 656.27" fill="#E60012"/>
<path d="M259.937 385.788C275.227 351.253 273.513 320.54 254.796 292.069C245.305 277.569 217.361 245.67 165.031 264.388C112.701 283.105 111.251 325.286 113.096 342.685C116.655 376.561 134.845 401.342 168.458 418.478C195.084 431.923 229.488 462.899 246.096 509.297C259.146 545.81 288.54 645.065 295.526 668.792C297.899 669.056 302.249 669.056 308.708 666.815C315.035 664.574 318.462 661.938 320.176 659.96C310.553 637.157 270.482 541.855 257.432 505.343C240.824 459.076 247.81 413.205 259.937 385.92" fill="white"/>
</g>
<defs>
<clipPath id="clip0_285_2065">
<rect width="1488.44" height="1476.44" fill="white" transform="translate(0 0.892151)"/>
</clipPath>
</defs>
</svg>
