<svg width="1563" height="1400" viewBox="0 0 1563 1400" fill="none" xmlns="http://www.w3.org/2000/svg">
<mask id="mask0_285_2154" style="mask-type:luminance" maskUnits="userSpaceOnUse" x="11" y="0" width="1541" height="1238">
<path d="M1551.14 0.44223H11.8633V1237.87H1551.14V0.44223Z" fill="white"/>
</mask>
<g mask="url(#mask0_285_2154)">
<path d="M1195.49 588.078C1217.44 502.202 1192.63 397.924 1129.1 309.186C1123.92 301.962 1118.61 294.873 1113.16 288.058C1134.01 265.158 1175.04 209.952 1147.23 154.746C1116.15 92.9972 1016.24 67.6434 979.157 94.7692C951.622 114.398 937.854 141.796 931.311 158.972C885.645 143.432 835.617 135.39 781.364 135.254C727.111 135.526 677.083 143.432 631.554 158.972C625.147 141.796 611.242 114.398 583.707 94.7692C546.629 67.6434 446.71 92.8609 415.63 154.746C387.822 209.952 428.853 265.158 449.709 288.058C444.256 294.873 438.94 301.825 433.76 309.186C370.237 398.061 345.428 502.338 367.374 588.214C382.642 647.918 420.128 696.581 476.29 730.25C455.298 746.062 414.676 783.82 408.814 841.479C401.726 911.679 434.987 952.981 476.699 975.882C475.609 979.562 474.382 983.515 473.019 988.15C455.025 1046.49 419.174 1163.17 470.701 1256.68C470.429 1266.22 470.701 1279.72 470.701 1298.94C470.701 1298.94 471.656 1342.69 495.238 1416.98C508.461 1458.83 536.814 1517.17 581.526 1524.67C656.363 1538.03 687.034 1503 693.986 1464.83C698.621 1439.47 697.803 1402.13 687.715 1377.59C716.478 1381.41 747.694 1383.31 781.5 1383.31C815.307 1383.31 846.523 1381.41 875.285 1377.59C865.198 1401.99 864.38 1439.47 869.015 1464.83C875.967 1503.13 906.638 1538.03 981.475 1524.67C1026.19 1517.17 1054.4 1458.83 1067.63 1416.98C1091.21 1342.83 1092.16 1298.94 1092.16 1298.94C1092.16 1279.72 1092.3 1266.22 1092.16 1256.68C1143.69 1163.31 1107.84 1046.63 1089.85 988.286C1088.48 983.651 1087.26 979.698 1086.17 976.018C1127.74 953.118 1161.14 911.816 1154.05 841.616C1148.32 783.956 1107.57 746.334 1086.57 730.386C1142.74 696.717 1180.22 648.054 1195.49 588.35" fill="#E60012"/>
<path d="M781.5 171.512C645.049 172.057 538.041 225.355 463.477 330.178C406.906 409.238 383.732 504.656 402.68 579.081C417.402 637.013 455.57 681.042 515.958 710.212C584.934 743.472 674.22 761.192 781.364 762.555C888.644 761.192 977.931 743.472 1046.77 710.212C1107.16 681.042 1145.33 636.877 1160.05 579.081C1179.13 504.656 1155.82 409.238 1099.25 330.178C1024.69 225.355 917.679 172.057 781.091 171.512" fill="white"/>
<path d="M781.637 618.202C807.264 618.202 828.256 603.481 828.256 584.943C828.256 566.404 807.264 551.41 781.637 551.41C756.009 551.41 734.744 566.404 734.744 584.943C734.744 603.481 755.737 618.202 781.637 618.202Z" fill="#E60012"/>
<path d="M896.005 613.977C887.962 608.933 877.33 611.523 872.286 619.429C871.195 621.201 843.66 663.594 781.5 663.594C719.34 663.594 691.804 621.201 690.714 619.565C685.67 611.387 675.038 608.797 666.995 613.84C658.816 618.884 656.226 629.516 661.27 637.559C662.769 640.012 699.302 698.217 781.5 698.217C863.698 698.217 900.094 640.012 901.73 637.559C906.637 629.516 904.184 618.884 896.141 613.977" fill="#E60012"/>
<path d="M718.796 448.632C742.924 411.692 739.516 362.892 700.666 341.083C694.123 337.811 685.944 336.175 678.174 334.403C671.222 335.085 664.679 334.403 657.727 336.039C628.964 342.582 606.472 357.167 582.072 373.525C567.077 383.475 553.037 396.152 540.087 407.739C511.869 433.092 496.602 471.396 504.917 510.244C509.416 532.054 523.456 547.593 542.268 559.044C559.989 569.948 583.026 571.311 601.02 563.678C629.509 551.274 642.596 529.191 662.089 507.927C680.491 487.753 703.529 471.396 718.66 448.496M639.188 451.085C639.188 442.089 646.276 435.001 655.273 435.001C664.27 435.001 671.631 442.089 671.631 451.085C671.631 460.082 664.542 467.034 655.273 467.034C646.004 467.034 639.188 460.082 639.188 451.085Z" fill="#E60012"/>
<path d="M1022.78 407.875C1009.97 396.289 995.925 383.612 980.794 373.661C956.53 357.304 933.901 342.718 905.139 336.175C898.187 334.54 891.643 335.085 884.691 334.54C877.058 336.312 868.743 337.948 862.199 341.219C823.35 363.029 819.942 411.828 844.069 448.768C859.2 471.668 882.238 488.026 900.64 508.2C920.133 529.464 933.22 551.546 961.71 563.951C979.703 571.584 1002.74 570.221 1020.46 559.316C1039.27 547.866 1053.45 532.327 1057.81 510.517C1066.13 471.668 1050.72 433.229 1022.64 408.011M907.456 467.306C898.323 467.306 891.098 460.355 891.098 451.358C891.098 442.362 898.323 435.273 907.456 435.273C916.589 435.273 923.541 442.362 923.541 451.358C923.541 460.355 916.453 467.306 907.456 467.306Z" fill="#E60012"/>
<path d="M1052.49 990.058C1040.09 994.011 1027.69 996.737 1016.1 998.509C992.38 1002.05 967.979 1003.28 945.76 1000.28C936.354 1018.27 921.768 1034.5 903.502 1046.9C899.822 1049.49 896.005 1051.67 892.188 1053.85C890.961 1054.53 889.598 1054.81 888.235 1054.81C886.599 1054.81 884.827 1054.26 883.464 1053.31C880.874 1051.4 879.647 1048.26 880.192 1045.13L885.645 1016.23L859.472 1011.32C857.291 1010.91 855.383 1009.69 854.156 1007.91C852.929 1006.14 852.52 1003.96 852.929 1001.78L857.836 975.609L831.664 970.702C827.166 969.884 824.303 965.522 825.121 961.16L830.028 934.988L794.586 928.309C791.587 927.764 789.134 925.447 788.179 922.448C787.361 919.449 788.179 916.178 790.633 914.133C795.54 909.771 800.311 905.954 804.946 902.819C827.302 887.552 852.657 879.646 876.784 879.783C901.457 853.611 949.304 846.25 964.844 839.435C978.748 833.437 983.519 824.304 983.383 814.49C976.022 801.268 968.525 789.136 961.027 778.231C933.083 784.91 903.366 789.954 871.877 793.498C871.059 804.812 865.879 828.257 835.89 828.257H726.837C696.848 828.257 691.532 804.812 690.85 793.498C659.361 790.09 629.781 785.047 601.973 778.367C594.339 789.409 586.842 801.54 579.344 814.762C579.344 824.441 584.115 833.573 597.883 839.571C613.968 846.523 664.132 854.156 688.124 882.236C711.979 882.645 736.243 890.551 757.781 905.273C762.552 908.544 767.323 912.225 772.094 916.587C774.412 918.631 775.366 921.903 774.548 924.901C773.73 927.9 771.276 930.218 768.141 930.763L732.699 937.442L737.606 963.614C738.424 968.112 735.562 972.338 731.063 973.155L704.891 978.063L709.798 1004.23C710.207 1006.42 709.798 1008.6 708.435 1010.37C707.208 1012.14 705.3 1013.37 703.255 1013.78L677.082 1018.68L682.535 1047.72C683.08 1050.85 681.853 1053.99 679.263 1055.9C677.9 1056.85 676.128 1057.4 674.492 1057.4C673.129 1057.4 671.766 1056.99 670.539 1056.3C666.722 1054.12 662.906 1051.94 659.225 1049.35C640.277 1036.4 625.283 1019.36 615.877 1000.42C593.93 1003.14 569.939 1001.92 546.629 998.509C535.042 996.874 522.637 994.147 510.232 990.058C509.415 992.784 508.597 995.51 507.642 998.509C491.421 1050.99 459.523 1155.27 500.69 1235.14H500.963C501.781 1235.14 569.257 1290.35 620.921 1326.06C664.405 1339.69 717.977 1346.65 781.227 1346.65C844.478 1346.65 898.049 1339.69 941.534 1326.06C993.198 1290.21 1060.67 1235.14 1061.49 1235.14C1061.49 1235.14 1061.63 1235.14 1061.76 1235.14C1102.93 1155.27 1070.9 1050.99 1054.81 998.509C1053.86 995.374 1053.04 992.648 1052.22 989.922M822.803 1105.24C812.716 1116.01 798.676 1121.46 781.091 1121.46C763.506 1121.46 749.602 1116.01 739.378 1105.24C727.655 1092.7 721.93 1073.48 723.43 1050.85C726.837 997.419 769.232 939.35 774.275 932.535C775.502 930.626 777.683 929.263 780 928.991C783.136 928.582 786.271 930.081 787.907 932.671C793.496 940.168 835.208 997.828 838.616 1050.85C840.115 1073.48 834.39 1092.7 822.667 1105.24" fill="white"/>
<path d="M633.053 997.146C640.277 1010.1 650.501 1021.95 663.178 1031.77L659.771 1013.5C658.953 1009.01 661.815 1004.78 666.314 1003.96L692.486 999.055L687.579 972.883C687.17 970.702 687.579 968.521 688.942 966.749C690.169 964.977 692.077 963.75 694.122 963.341L720.294 958.434L715.387 932.262C714.569 927.764 717.432 923.538 721.93 922.721L747.558 917.95C732.018 907.59 714.978 901.456 698.211 899.411C702.165 910.725 702.71 924.084 697.53 940.577C687.443 973.019 663.178 989.922 633.189 997.282" fill="white"/>
<path d="M928.585 996.874C899.141 989.376 875.422 972.474 865.471 940.577C859.882 922.721 860.973 908.408 865.88 896.685C848.841 898.594 831.392 905 815.443 915.496L841.071 920.267C845.569 921.085 848.432 925.447 847.614 929.809L842.706 955.98L868.879 960.888C871.06 961.296 872.832 962.523 874.059 964.295C875.286 966.067 875.695 968.248 875.422 970.429L870.515 996.601L896.687 1001.51C901.186 1002.33 904.048 1006.69 903.23 1011.05L899.823 1029.32C911.955 1020.05 921.497 1008.87 928.721 996.737" fill="white"/>
<path d="M740.197 1051.94C739.515 1062.44 740.197 1081.8 751.784 1094.06C758.736 1101.42 768.687 1105.1 781.501 1105.1C794.314 1105.1 804.265 1101.42 811.217 1094.06C822.804 1081.66 823.486 1062.3 822.804 1051.94C820.35 1013.37 793.905 969.884 781.501 951.346C769.096 969.884 742.651 1013.09 740.197 1051.94ZM812.308 1062.17C812.308 1079.21 798.54 1092.97 781.501 1092.97C764.461 1092.97 750.693 1079.21 750.693 1062.17C750.693 1045.13 764.461 1031.36 781.501 1031.36C798.54 1031.36 812.308 1045.13 812.308 1062.17Z" fill="white"/>
</g>
<path d="M1551.13 1226.97H957.617C958.572 1221.24 958.708 1217.7 958.708 1217.42C958.844 1214.43 957.754 1211.56 955.709 1209.38C953.664 1207.2 950.802 1205.97 947.803 1205.97H933.626C929.536 1185.53 909.089 1170.12 885.37 1171.35C878.009 1156.63 861.788 1146.68 843.113 1146.68C838.069 1146.68 833.162 1147.5 828.39 1148.86C817.349 1135.64 800.037 1127.87 781.225 1127.87C762.414 1127.87 745.102 1135.77 734.06 1148.86C729.289 1147.36 724.382 1146.68 719.338 1146.68C700.799 1146.68 684.442 1156.63 677.081 1171.35C653.089 1170.12 632.778 1185.53 628.825 1205.97H614.648C611.649 1205.97 608.787 1207.2 606.742 1209.38C604.697 1211.56 603.607 1214.43 603.743 1217.42C603.743 1217.7 604.016 1221.24 604.833 1226.97H11.7255C5.72766 1226.97 0.820312 1231.87 0.820312 1237.87C0.820312 1243.87 5.72766 1248.78 11.7255 1248.78H610.286C619.964 1282.04 644.774 1332.74 708.978 1355.1V1388.36C708.978 1394.36 713.886 1399.26 719.884 1399.26H843.249C849.247 1399.26 854.154 1394.36 854.154 1388.36V1355.1C918.222 1332.74 943.168 1281.9 952.846 1248.78H1551.27C1557.27 1248.78 1562.18 1243.87 1562.18 1237.87C1562.18 1231.87 1557.27 1226.97 1551.27 1226.97" fill="#E60012"/>
<path d="M888.233 1193.16C886.052 1193.16 883.734 1193.43 880.872 1194.25C878.009 1195.07 874.874 1194.52 872.284 1192.89C869.694 1191.25 867.922 1188.66 867.376 1185.66C865.604 1175.99 855.108 1168.49 843.249 1168.49C838.614 1168.49 833.979 1169.72 829.89 1171.9C824.573 1174.76 818.03 1172.85 815.168 1167.67C809.033 1156.77 795.675 1149.68 781.361 1149.68C767.048 1149.68 753.826 1156.77 747.555 1167.67C744.693 1172.85 738.013 1174.76 732.833 1171.9C728.744 1169.72 724.109 1168.49 719.474 1168.49C707.479 1168.49 697.119 1175.85 695.346 1185.66C694.801 1188.66 693.029 1191.25 690.439 1192.89C687.849 1194.52 684.85 1195.07 681.851 1194.25C679.125 1193.57 676.808 1193.16 674.627 1193.16C664.267 1193.16 655.406 1198.48 651.726 1206.11H910.997C907.453 1198.61 898.593 1193.16 888.096 1193.16" fill="white"/>
<path d="M730.652 1361.37V1377.59H832.207V1361.37C817.076 1364.64 800.309 1366.55 781.361 1366.55C762.413 1366.55 745.647 1364.64 730.516 1361.37" fill="white"/>
<path d="M931.58 1227.92H627.188C631.278 1251.91 647.363 1307.12 709.114 1332.06C712.522 1333.42 715.93 1334.79 719.61 1335.88C736.377 1341.33 756.143 1344.6 779.453 1344.74C780.134 1344.74 780.679 1344.74 781.225 1344.74C781.77 1344.74 782.452 1344.74 782.997 1344.74C806.307 1344.6 826.072 1341.33 842.839 1336.01C846.52 1334.79 850.064 1333.56 853.336 1332.2C915.359 1307.25 931.308 1252.05 935.261 1228.06H931.172L931.58 1227.92Z" fill="white"/>
</svg>
