<svg width="1151" height="968" viewBox="0 0 1151 968" fill="none" xmlns="http://www.w3.org/2000/svg">
<path d="M953.665 279.496C947.298 270.534 940.671 261.833 933.915 253.391C959.772 224.948 1010.58 156.502 976.144 88.1869C937.553 11.6893 813.722 -19.6111 767.855 13.8972C733.811 38.3141 716.66 72.212 708.603 93.382C652.081 74.1602 590.101 64.2895 522.794 64.0298C455.616 64.2895 393.637 74.1602 337.114 93.382C329.058 72.212 311.906 38.1842 277.863 13.8972C231.995 -19.741 108.165 11.5594 69.5734 88.1869C35.0102 156.372 85.9455 224.818 111.803 253.261C105.046 261.703 98.42 270.405 92.0531 279.366C13.3113 389.372 -17.484 518.6 9.80274 624.969C31.2423 708.87 88.1544 775.237 174.303 816.798C265.648 860.956 382.721 884.334 522.534 886.152H523.184C662.996 884.204 780.199 860.956 871.415 816.798C957.563 775.237 1014.48 708.87 1035.91 624.969C1063.07 518.6 1032.41 389.372 953.665 279.496Z" fill="#E60012"/>
<path d="M522.793 109.097C353.875 109.747 221.21 175.854 128.824 305.601C58.7883 403.529 29.9426 521.587 53.5911 613.93C71.9122 685.622 119.209 740.3 194.053 776.406C279.292 817.577 389.998 839.396 523.054 841.345C656.109 839.526 766.815 817.707 852.054 776.406C927.028 740.3 974.195 685.622 992.516 613.93C1016.03 521.587 987.318 403.529 917.282 305.731C824.897 175.984 692.232 109.747 523.054 109.097" fill="white"/>
<path d="M523.054 662.504C554.889 662.504 580.876 644.191 580.876 621.333C580.876 598.344 554.759 579.772 523.054 579.902C490.96 579.902 464.972 598.474 464.842 621.333C464.842 644.321 490.83 662.634 522.924 662.504" fill="#E60012"/>
<path d="M664.814 657.308C654.809 651.074 641.686 654.191 635.319 664.062C633.89 666.27 599.976 718.74 522.793 718.74C445.741 718.74 411.828 666.27 410.398 664.062C404.291 654.062 391.037 650.815 380.902 656.919C370.767 663.153 367.649 676.271 373.756 686.401C375.705 689.518 420.923 761.47 522.663 761.47C624.404 761.47 669.752 689.518 671.571 686.401C677.678 676.4 674.56 663.283 664.555 657.049" fill="#E60012"/>
<path d="M445.222 452.362C475.108 406.516 470.949 346.123 422.873 319.109C414.817 315.082 404.552 313.134 394.937 310.796C386.361 311.576 378.175 310.796 369.599 312.874C333.996 321.057 305.929 339.11 275.914 359.37C257.333 371.709 239.921 387.424 223.939 401.71C188.986 433.141 170.015 480.546 180.28 528.73C185.868 555.745 203.279 575.096 226.668 589.123C248.757 602.63 277.213 604.319 299.563 594.838C334.905 579.512 351.148 552.238 375.316 525.743C398.055 500.677 426.641 480.416 445.351 452.103M346.86 455.35C346.86 444.31 355.695 435.478 366.74 435.478C377.784 435.478 387.01 444.31 387.01 455.35C387.01 466.389 378.174 475.221 366.74 475.221C355.695 475.221 346.86 466.649 346.86 455.35Z" fill="#E60012"/>
<path d="M821.78 401.84C805.927 387.424 788.516 371.839 769.805 359.5C739.66 339.24 711.723 321.057 676.12 313.004C667.544 310.926 659.489 311.706 650.783 310.926C641.298 313.264 630.902 315.212 622.976 319.238C574.9 346.253 570.611 406.646 600.497 452.492C619.208 480.806 647.794 501.066 670.533 526.133C694.701 552.498 710.943 579.772 746.286 595.227C768.636 604.708 797.091 603.02 819.051 589.513C842.309 575.356 859.851 556.005 865.438 529.12C875.573 480.936 856.733 433.53 821.78 402.1M679.109 475.611C667.805 475.611 658.839 467.039 658.839 455.739C658.839 444.44 667.675 435.868 679.109 435.868C690.154 435.868 698.989 444.7 698.989 455.739C698.989 467.039 690.154 475.611 679.109 475.611Z" fill="#E60012"/>
<path d="M942.23 668.998C936.772 666.14 930.795 666.66 928.976 670.426C927.157 673.933 930.145 679.128 935.473 681.985C940.93 684.843 946.907 684.193 948.726 680.687C950.546 677.05 947.687 671.855 942.23 668.998Z" fill="#E60012"/>
<path d="M943.661 617.826C942.232 617.177 940.802 616.268 939.113 615.748C932.096 613.93 925.47 614.449 918.323 615.099C913.905 615.488 909.358 616.657 905.2 617.566C896.234 619.774 888.308 626.398 885.45 635.619C883.76 640.814 885.19 645.88 887.788 650.685C890.387 655.101 895.195 658.218 900.003 658.608C907.539 659.257 913.126 656.14 919.752 653.672C926.249 651.464 933.006 650.685 939.113 647.438C948.728 642.243 953.666 631.333 947.819 621.982C946.91 620.424 945.35 619.125 943.661 617.826ZM931.707 640.684C930.668 642.243 928.588 642.762 927.029 641.594C925.47 640.555 925.08 638.477 926.119 636.918C927.029 635.359 929.238 634.84 930.668 635.879C932.227 636.918 932.747 638.996 931.707 640.555" fill="#E60012"/>
<path d="M1126.74 736.014C1105.04 704.714 1071.52 686.011 1034.88 680.686C1034.62 674.193 1033.97 668.348 1033.45 663.802L1033.06 660.296C1031.5 646.139 1039.16 634.32 1044.62 629.775C1052.94 622.891 1058.39 612.891 1068.79 591.721C1074.77 579.642 1074.25 571.2 1072.17 565.485C1075.55 558.992 1081.26 548.082 1087.37 536.263C1096.99 517.82 1107.38 497.56 1110.37 490.546C1110.63 490.027 1110.63 488.728 1110.63 487.689C1110.63 486.52 1110.5 485.481 1110.5 485.481L1053.33 455.609L996.154 425.867C996.154 425.867 995.245 426.387 994.206 427.036C993.166 427.686 992.126 428.465 991.996 428.855C987.968 435.478 977.443 455.609 967.828 474.052C961.591 485.741 955.874 496.91 952.626 503.274C946.778 504.833 939.502 509.508 933.135 520.938C922.22 540.549 916.503 551.329 915.723 562.628C915.203 569.641 909.876 582.629 897.272 589.513L894.154 591.201C876.742 600.422 840.49 619.644 841.009 669.387C841.399 702.636 869.336 723.416 870.245 724.065C870.635 724.325 877.132 729.65 890.256 736.793C847.117 787.056 839.32 857.969 875.963 910.439C920.141 973.689 1012.01 986.158 1081.26 937.843C1150.52 889.659 1170.92 799.264 1126.74 735.884M973.415 665.621C971.726 664.971 970.947 663.023 971.467 661.205C972.116 659.387 974.195 658.607 975.884 659.257C977.573 659.906 978.483 661.854 977.703 663.673C977.054 665.361 975.104 666.27 973.285 665.621M1018.63 661.724L1019.02 665.491C1019.54 669.387 1020.06 674.063 1020.32 679.258C1016.03 678.998 1011.75 679.128 1007.33 679.258C1007.33 676.011 1006.81 672.764 1005.51 669.777C1003.82 665.751 1002.13 661.335 999.923 657.568C996.285 651.204 992.906 645.62 987.449 640.944C986.149 639.905 984.59 639.256 983.161 638.346C981.211 637.827 979.262 637.307 977.443 637.437C966.399 637.957 960.292 648.347 961.461 659.127C962.371 666.01 965.62 671.985 967.439 678.479C968.088 681.076 968.607 683.414 969.257 685.752C959.902 688.479 950.806 692.116 941.841 696.531C938.332 695.882 934.305 694.583 929.887 692.245C914.294 684.063 911.436 672.894 911.306 672.374C910.786 670.166 908.577 668.608 906.238 669.127C903.899 669.647 902.6 671.855 902.99 674.193C903.12 674.842 906.628 689.518 925.859 699.648C927.678 700.688 929.497 701.337 931.316 701.986C927.937 704.064 924.559 706.012 921.181 708.35C913.515 713.675 906.628 719.52 900.261 725.754C886.227 718.221 879.211 712.636 878.822 712.377C878.562 712.247 855.433 695.103 855.173 668.997C854.783 628.086 884.539 612.241 900.651 603.799L903.899 601.981C920.531 592.889 928.977 575.746 929.757 563.407C930.276 555.745 934.954 546.653 945.349 527.821C951.066 517.561 956.654 516.132 959.902 517.171L979.912 521.977C989.398 526.522 1000.31 531.847 1010.45 537.172C1020.71 542.497 1031.63 548.601 1040.72 553.667L1056.58 567.693C1058.52 569.252 1060.47 574.577 1055.28 585.227C1046.05 604.059 1041.11 613.41 1034.88 618.475C1025.13 626.528 1016.16 643.022 1018.11 661.594" fill="#E60012"/>
<path d="M1035.4 618.735C1041.5 613.67 1046.57 604.319 1055.8 585.487C1060.99 574.967 1059.04 569.512 1056.97 567.953L1041.11 553.927C1031.89 548.731 1021.1 542.757 1010.84 537.302C1000.83 532.107 989.788 526.652 980.303 522.107L960.292 517.301C957.044 516.262 951.456 517.691 945.739 527.951C935.344 546.783 930.667 555.875 930.147 563.537C929.238 575.746 920.792 593.02 904.16 601.981L900.911 603.799C884.929 612.241 855.044 628.086 855.433 669.128C855.693 695.233 878.821 712.377 879.081 712.506C879.471 712.766 886.358 718.351 900.521 725.884C906.888 719.65 913.905 713.805 921.441 708.48C924.689 706.143 928.068 704.194 931.576 702.116C929.757 701.467 928.067 700.688 926.118 699.649C906.888 689.518 903.38 674.842 903.25 674.193C902.73 671.855 904.16 669.647 906.499 669.128C908.837 668.608 911.046 670.037 911.566 672.374C911.566 672.764 914.555 683.934 930.147 692.116C934.565 694.454 938.593 695.622 942.101 696.402C951.067 691.856 960.162 688.349 969.518 685.622C968.868 683.284 968.348 680.816 967.698 678.349C965.879 671.855 962.631 665.881 961.722 658.997C960.552 648.217 966.659 637.827 977.574 637.308C979.393 637.308 981.342 637.827 983.291 638.347C984.72 639.126 986.28 639.775 987.579 640.944C993.037 645.62 996.414 651.334 1000.05 657.568C1002.26 661.465 1003.95 665.881 1005.64 669.777C1006.81 672.894 1007.33 676.011 1007.46 679.258C1011.75 679.128 1016.16 678.998 1020.45 679.258C1020.19 674.193 1019.67 669.387 1019.15 665.491L1018.76 661.725C1016.81 643.022 1025.78 626.528 1035.53 618.605M948.857 680.557C947.038 684.063 941.062 684.713 935.604 681.855C930.277 679.128 927.288 673.803 929.108 670.296C931.057 666.53 936.903 666.01 942.361 668.868C947.688 671.725 950.677 676.92 948.857 680.557ZM939.372 647.308C933.395 650.555 926.509 651.334 920.012 653.542C913.385 655.88 907.797 659.127 900.261 658.478C895.453 658.088 890.646 654.971 888.047 650.555C885.448 645.88 884.149 640.814 885.708 635.619C888.567 626.268 896.363 619.644 905.459 617.436C909.747 616.527 914.165 615.358 918.583 614.969C925.859 614.319 932.356 613.8 939.502 615.618C941.192 616.138 942.62 617.047 944.05 617.696C945.609 618.995 947.298 620.294 948.208 621.852C954.185 631.074 949.118 642.113 939.502 647.308" fill="white"/>
<path d="M926.25 636.918C925.08 638.346 925.6 640.554 927.029 641.593C928.588 642.762 930.668 642.243 931.708 640.684C932.877 639.126 932.357 637.048 930.798 636.009C929.239 634.97 927.159 635.359 926.25 637.048" fill="white"/>
<path d="M975.884 659.387C974.065 658.737 972.116 659.516 971.467 661.335C970.817 663.153 971.596 665.101 973.415 665.751C975.234 666.4 977.184 665.491 977.833 663.802C978.483 661.984 977.703 660.036 976.014 659.387" fill="white"/>
<path d="M1019.93 584.188C1019.41 585.357 1019.8 586.915 1021.1 587.565C1022.4 588.214 1023.96 587.695 1024.61 586.526C1025.26 585.357 1024.61 583.798 1023.44 583.149C1022.14 582.499 1020.58 583.019 1019.93 584.188ZM1024.35 586.396C1023.83 587.435 1022.4 587.824 1021.36 587.305C1020.32 586.656 1019.8 585.357 1020.32 584.318C1020.84 583.149 1022.27 582.759 1023.44 583.409C1024.61 584.058 1025 585.227 1024.48 586.396" fill="#E60012"/>
<path d="M1020.58 586.006L1021.1 586.266L1021.62 585.227L1022.27 585.616C1022.27 585.616 1022.53 585.876 1022.4 586.006C1022.4 586.266 1022.14 586.396 1022.14 586.526V586.655L1022.79 587.045C1022.79 587.045 1022.79 586.915 1022.79 586.785C1022.79 586.785 1022.92 586.266 1023.05 586.266C1023.05 586.006 1023.05 585.876 1022.92 585.616C1023.18 585.616 1023.44 585.616 1023.44 585.357C1023.57 585.357 1023.7 585.097 1023.7 584.967C1023.7 584.577 1023.57 584.318 1023.31 584.188L1021.75 583.408L1020.32 586.006H1020.58ZM1023.05 584.577C1023.05 584.577 1023.31 584.967 1023.05 585.227C1023.05 585.487 1022.66 585.487 1022.53 585.227L1021.75 584.837L1022.14 584.188L1022.92 584.577H1023.05Z" fill="#E60012"/>
<path d="M1005.51 563.018C1005.51 558.732 1001.74 555.485 997.712 554.965C994.984 554.446 991.735 556.134 990.306 558.342C989.656 559.122 989.397 559.771 989.137 560.68C988.487 562.239 989.657 563.537 990.177 565.096C990.177 565.615 990.046 566.525 990.566 566.914C990.826 567.304 991.476 567.304 991.866 567.044C994.854 565.486 996.803 562.628 999.402 560.42C999.791 560.031 1000.31 560.42 1000.7 560.161C1000.96 559.901 1000.96 559.511 1001.09 559.251C1001.35 559.251 1001.61 559.641 1001.87 559.901C1002.65 561.07 1002.52 562.628 1001.87 563.797C1000.18 567.044 995.634 567.564 992.385 567.434C992.385 567.434 993.035 567.823 993.425 567.953C995.894 569.512 998.622 570.031 1001.22 569.122C1003.82 568.083 1005.64 565.615 1005.64 563.018M992.645 563.018C992.645 563.018 991.996 563.018 991.736 562.758C991.086 561.719 991.736 560.55 992.385 559.641C993.685 558.342 995.634 557.303 997.453 557.823C996.154 559.901 994.335 561.2 992.645 563.018Z" fill="#E60012"/>
<path d="M986.54 552.238C986.54 552.238 987.32 553.147 987.969 553.017C988.489 552.887 988.749 552.368 989.139 551.978C989.399 550.809 989.009 549.381 988.099 548.601C987.709 548.082 987.19 548.601 986.8 548.601C986.54 548.601 986.41 548.601 986.41 548.212C986.41 547.432 987.19 547.692 987.71 547.432C987.97 547.173 988.099 546.783 987.969 546.393C987.32 545.614 986.8 544.835 986.28 544.186C985.63 543.276 984.721 544.186 983.941 544.575C984.201 545.095 983.682 545.484 983.682 545.874C983.292 546.264 983.292 546.913 982.642 547.043C982.512 547.043 982.253 546.783 982.123 546.523C981.213 546.134 980.953 547.173 980.303 547.432C980.303 547.173 980.303 546.783 980.173 546.523C979.913 545.744 980.173 544.965 980.043 544.186C980.043 543.926 979.653 543.926 979.264 543.926C978.484 543.666 978.094 544.835 977.314 544.186C976.535 544.056 976.535 543.147 975.885 542.627C975.365 542.237 974.586 542.627 974.066 542.887C973.936 543.147 973.416 543.406 973.416 543.926C972.767 545.744 971.858 547.692 970.688 549.251C969.649 550.03 970.298 551.199 969.648 552.238C969.648 553.017 970.818 553.277 971.468 553.537C971.987 553.796 972.377 553.147 972.507 552.628C972.637 552.368 972.897 552.757 973.157 552.887C973.157 553.277 973.546 553.926 974.066 554.186C974.716 554.316 975.365 554.576 975.885 554.186C976.405 553.407 976.925 552.628 977.444 551.978C977.444 552.108 977.444 552.498 977.444 552.628C977.444 553.277 977.444 553.926 978.094 554.186C978.614 554.446 979.004 553.667 979.524 554.186C979.004 555.225 978.224 556.654 977.835 557.563C977.445 558.082 977.184 558.732 976.535 558.992C976.405 558.992 975.885 558.732 975.885 558.342C976.145 557.563 976.535 556.784 976.925 556.004C976.925 555.485 976.925 554.835 976.665 554.316C975.625 554.965 974.586 554.316 973.416 554.316C973.156 554.316 972.767 554.316 972.767 554.835C972.377 556.394 970.688 556.913 970.688 558.472C970.948 559.251 971.468 559.901 972.377 560.16C973.287 560.29 974.326 559.901 975.106 559.251C976.535 560.55 974.196 562.368 975.755 563.537C976.405 564.187 977.314 564.316 978.094 563.927C979.393 561.979 980.433 559.901 981.472 557.693C982.252 557.043 981.993 554.576 983.682 555.485C984.851 555.485 985.371 556.784 985.76 557.693C986.02 558.212 986.67 558.212 986.93 558.212C987.71 558.212 988.489 557.823 988.879 557.303C989.139 556.524 989.269 555.485 988.749 554.706C988.099 553.926 987.71 553.147 986.8 552.757C985.891 553.017 985.11 552.757 984.591 552.368L984.981 551.718C984.981 551.718 986.281 551.978 986.93 552.368M976.275 548.342C976.015 549.121 975.495 549.77 974.976 550.29L974.456 550.03C974.846 548.991 975.366 547.822 976.145 547.043H976.405C976.405 547.562 976.405 547.822 976.145 548.342M981.083 551.199C981.083 551.199 980.173 550.939 979.783 550.679C979.783 550.42 979.784 550.29 979.524 550.16C978.874 550.29 978.484 550.55 978.094 551.069C978.484 550.29 978.874 549.251 979.394 548.601H979.913C979.913 548.601 979.653 549.51 979.913 550.03C980.173 550.03 980.174 550.42 980.433 550.55C980.693 550.55 981.082 550.55 981.342 550.29C981.212 550.55 981.213 550.939 981.083 551.199Z" fill="#E60012"/>
<path d="M981.991 557.823C980.952 559.901 979.522 562.109 980.692 564.446C981.211 565.096 981.991 565.356 982.771 565.226C983.551 564.966 984.07 564.446 984.33 563.667C985.24 561.329 984.59 558.472 982.901 556.654C982.511 557.043 982.251 557.433 981.991 557.823Z" fill="#E60012"/>
<path d="M1022.14 570.81C1020.97 570.421 1019.67 569.901 1018.37 569.252C1018.37 569.252 1018.5 568.732 1018.63 568.732C1019.93 568.992 1021.1 569.641 1022.14 570.291C1022.66 570.291 1023.18 570.161 1023.31 569.641C1023.7 568.602 1022.79 567.823 1022.14 567.174C1021.36 567.434 1020.32 566.914 1019.54 566.654C1019.67 566.395 1019.8 566.135 1019.93 566.005C1020.84 566.005 1021.62 566.654 1022.53 567.044C1023.18 567.434 1023.7 568.473 1024.61 567.953C1024.87 567.693 1025.13 567.563 1025.13 567.174C1025.26 566.395 1024.74 565.745 1024.22 565.356C1023.7 564.057 1022.53 565.356 1021.75 564.706C1021.49 564.446 1021.1 564.446 1020.84 564.057C1021.1 563.797 1021.75 563.927 1022.01 563.277C1022.01 563.148 1022.01 562.888 1021.88 562.888L1020.45 561.849C1020.45 561.849 1019.67 560.94 1019.15 560.94C1018.11 561.07 1017.72 561.979 1017.46 562.888C1016.42 562.758 1015 562.239 1014.35 561.329C1013.83 561.199 1013.18 561.329 1012.79 561.589C1011.88 562.628 1013.44 563.148 1013.7 563.927C1014.48 564.446 1015.39 563.927 1016.17 564.446C1016.3 564.706 1016.55 564.966 1016.29 565.096C1015.38 565.226 1014.35 564.706 1013.57 564.317C1013.18 564.187 1013.18 563.667 1012.66 563.667C1012.27 563.667 1011.88 563.927 1011.75 564.187C1011.62 565.096 1012.01 566.005 1012.53 566.654C1013.05 567.304 1013.57 566.265 1014.22 566.654C1014.61 566.654 1015.13 566.784 1015.39 567.174C1015.39 567.304 1015.39 567.563 1015.13 567.693C1013.44 567.044 1011.75 566.524 1010.19 565.615L1009.67 564.966C1009.67 564.966 1008.37 564.446 1007.59 564.706C1006.68 565.615 1007.2 567.044 1007.59 568.213C1007.85 568.602 1008.24 568.602 1008.5 568.602C1009.02 568.602 1009.41 568.213 1009.67 568.083C1010.58 568.213 1011.49 568.473 1012.01 568.992C1012.01 568.992 1011.75 569.252 1011.62 569.252C1011.1 569.252 1010.58 568.992 1010.19 568.602C1009.54 568.992 1008.76 568.602 1008.24 569.252C1008.24 569.641 1007.98 570.031 1008.24 570.291C1009.02 570.681 1010.06 571.07 1010.84 571.46C1011.1 571.46 1011.75 571.72 1011.88 571.979C1011.1 572.369 1010.19 571.59 1009.28 571.46C1008.76 571.07 1007.98 570.291 1007.2 570.551C1006.94 570.551 1006.81 570.81 1006.81 571.07C1007.07 571.72 1006.29 572.369 1006.42 573.018C1006.68 573.798 1007.33 573.278 1007.72 573.538C1006.81 574.317 1005.9 573.278 1004.86 573.538C1004.6 573.538 1004.34 573.927 1004.34 574.187C1004.34 575.226 1003.56 576.135 1003.95 577.174C1003.95 577.694 1004.6 577.954 1005.12 578.213C1006.16 578.473 1007.07 577.954 1007.72 577.174C1008.11 576.915 1008.24 576.525 1008.5 576.395C1010.06 577.564 1007.72 579.252 1009.28 580.291C1010.19 580.811 1011.23 581.72 1012.14 581.071C1013.31 579.772 1013.7 578.213 1014.61 576.655C1014.87 576.655 1015 576.655 1015.13 576.655C1015.65 576.655 1015.13 576.135 1015.26 575.876C1015.52 575.876 1015.78 575.876 1016.04 575.876C1017.59 575.876 1017.46 577.564 1018.76 578.213C1019.15 578.343 1019.54 578.213 1020.06 578.213C1020.58 577.954 1021.1 577.304 1021.23 576.655C1021.49 575.616 1020.71 574.707 1020.19 573.927C1019.8 573.408 1019.28 573.148 1018.89 572.629C1019.15 572.499 1019.41 572.629 1019.67 572.629C1020.06 572.629 1020.06 572.239 1020.19 571.979C1021.62 572.369 1021.36 574.317 1022.14 575.226C1022.4 575.486 1022.79 575.616 1023.18 575.616C1024.35 575.616 1024.87 574.577 1025.39 573.668C1025.91 572.109 1023.96 571.59 1023.7 570.291C1023.31 569.901 1022.66 570.291 1022.27 570.421M1009.8 576.005C1009.8 576.005 1009.15 575.746 1009.02 575.486C1009.02 574.966 1009.02 574.447 1009.02 574.057C1009.67 573.798 1010.45 574.447 1010.97 574.707C1010.71 575.226 1010.58 576.265 1009.93 576.135M1014.74 570.68C1014.74 570.68 1015.65 570.031 1016.17 570.421C1015.91 570.68 1015.39 570.94 1015 570.94C1015 570.94 1014.87 570.94 1014.74 570.81M1017.33 574.577C1016.55 574.447 1016.04 574.187 1015.39 573.927C1016.04 573.668 1016.81 573.278 1017.46 573.668C1017.46 573.927 1017.46 574.447 1017.46 574.707" fill="#E60012"/>
<path d="M1015.77 576.915C1015.25 577.564 1015.12 578.343 1014.86 579.122C1014.47 580.681 1014.21 582.759 1015.51 584.188C1016.03 584.447 1016.94 584.837 1017.59 584.577C1018.37 584.318 1018.89 583.798 1019.02 583.019C1019.54 580.941 1018.37 579.123 1017.07 577.824C1016.81 577.564 1016.29 576.915 1015.77 577.044" fill="#E60012"/>
</svg>
