<svg width="987" height="1708" viewBox="0 0 987 1708" fill="none" xmlns="http://www.w3.org/2000/svg">
<path d="M696.384 1093.16C677.475 1090.92 659.227 1085.23 642.565 1077.96C692.549 1061.57 731.425 1030.77 755.756 987.156C792.649 921.067 794.897 829.468 761.971 742.231C759.326 735.093 756.549 728.22 753.508 721.347C775.723 706.939 821.74 670.194 810.897 618.512C798.864 560.486 721.905 517.661 685.144 531.672C658.169 542.114 640.582 561.808 631.458 574.497C597.077 551.763 557.54 534.183 512.713 522.155C467.886 509.995 424.778 505.501 383.654 508.408C382.2 492.944 376.778 467.433 358.266 445.095C333.803 414.695 245.34 413.637 206.331 457.652C170.893 497.306 193.108 552.159 205.273 575.555C199.323 580.049 193.372 584.675 187.422 589.566C115.355 648.913 71.8506 729.542 71.0572 805.28C71.0572 814.268 71.7185 823.123 72.7763 831.847C59.0242 826.164 44.4783 826.428 29.5361 837.134C-13.5717 868.46 -1.67045 926.751 19.09 977.507C34.8257 1016.24 85.6027 1095.54 149.471 1123.43C136.38 1152.25 123.95 1185.29 112.71 1223.36C111.52 1227.32 109.933 1232.08 108.214 1237.5C90.7598 1290.9 54.5282 1401.93 114.033 1485.07C120.909 1494.72 129.107 1503.71 138.231 1511.9C142.595 1519.57 147.487 1530.27 151.851 1546C151.851 1546 162.959 1582.09 199.851 1638C220.612 1669.59 257.769 1711.36 296.646 1707.13C361.836 1700.65 379.158 1664.43 375.853 1631.26C374.398 1615.53 369.109 1595.57 361.307 1578.78C363.026 1578.78 364.745 1578.92 366.464 1578.92C370.431 1578.92 374.398 1578.92 378.233 1578.92C416.052 1578.92 450.035 1575.88 480.184 1570.06C472.647 1597.02 479.126 1644.21 488.647 1667.21C501.209 1698.27 533.341 1722.33 594.036 1697.88C630.4 1683.73 644.02 1629.54 647.722 1592C654.466 1525.25 647.722 1488.11 647.722 1488.11C644.02 1471.19 642.697 1458.77 641.904 1449.91C665.177 1381.71 644.284 1303.72 631.987 1257.72C629.21 1247.55 626.962 1238.69 625.64 1232.35C625.64 1232.35 625.375 1231.29 625.375 1230.76C659.888 1242.26 697.706 1240.14 726.004 1235.12C779.955 1225.47 835.889 1204.46 839.195 1151.32C843.558 1083.12 730.632 1097 697.045 1093.03" fill="#E60012"/>
<path d="M985.311 294.941C982.402 289.258 975.923 286.35 969.708 288.068C863.393 318.072 781.806 303.269 720.186 242.599C570.366 95.6174 455.589 65.3487 300.877 75.7908C303.918 70.2393 306.034 64.1591 306.96 57.5502C308.811 44.2003 305.241 30.8504 297.042 20.0118C288.844 9.17321 276.679 2.03562 263.323 0.449487C235.422 -3.25149 209.505 16.3108 205.802 44.0681C203.951 57.6824 207.521 71.1645 215.852 82.0031C219.422 86.6293 223.786 90.5947 228.546 93.6347L7.71789 868.725C5.7344 875.862 9.83377 883.264 16.9743 885.247C17.5032 885.379 18.0321 885.511 18.561 885.643C25.1727 886.701 31.6518 882.735 33.6353 876.127L160.182 431.877C227.885 395.661 279.323 384.426 342.398 392.488C367.258 395.529 399.655 409.936 433.903 425.004C486.399 448.135 545.771 474.306 608.185 476.289C704.979 479.461 801.244 452.894 981.741 311.464C986.766 307.498 988.353 300.493 985.444 294.809" fill="#E60012"/>
<path d="M701.408 261.765C527.787 91.5197 405.605 89.9335 252.744 107.249L170.231 396.718C232.248 367.11 284.877 358.254 345.836 365.921C374.795 369.622 407.192 383.897 444.746 400.551C494.994 422.625 551.854 447.739 608.978 449.589C693.342 452.233 773.608 432.009 917.741 326.399C830.071 338.295 757.475 316.75 701.541 261.632M366.597 199.112L348.084 262.293C345.572 271.149 338.034 270.885 336.712 271.017C329.042 270.753 326.398 262.69 325.869 259.782L318.067 213.652L306.299 258.989C304.976 264.144 301.009 269.431 293.736 269.034C287.125 268.77 284.216 263.483 283.422 259.65L270.992 195.147C270.992 194.09 270.86 193.164 270.992 192.239C271.257 187.216 274.034 183.78 278.926 184.044C282.497 184.044 284.745 186.555 285.538 191.314L295.72 244.714L308.546 194.354C309.208 191.314 312.249 185.762 319.654 186.027C324.679 186.291 328.778 190.124 329.571 195.279L337.902 246.564L352.183 194.354C352.844 191.843 354.167 187.481 359.853 187.745C365.671 188.009 367.39 192.371 367.258 196.601C367.258 197.658 366.993 198.848 366.861 199.377M407.324 257.006L381.274 251.058C380.877 254.495 379.687 264.937 390.002 267.316C393.307 268.109 395.82 267.58 399.787 263.879C402.96 260.971 404.415 260.443 407.324 261.104C410.762 261.897 412.216 265.598 411.423 268.902C409.836 276.172 398.993 282.649 386.828 279.873C378.233 277.89 363.29 269.431 368.844 244.449C374.001 221.318 388.679 215.899 399.787 218.41C412.216 221.186 420.547 233.611 417.241 247.621C415.655 254.759 412.613 258.196 407.324 257.006ZM435.225 287.275C434.432 289.522 431.258 292.826 427.291 291.505C423.721 290.315 421.869 286.614 423.06 282.781L445.275 216.031C446.465 212.727 450.035 210.48 453.473 211.669C457.043 212.859 458.763 216.692 457.572 219.996L435.093 287.407L435.225 287.275ZM506.498 273.132C504.647 277.361 500.68 278.155 497.639 276.701C495.655 275.775 494.597 274.982 493.54 269.96C492.614 265.333 491.027 263.086 487.325 261.5C478.994 257.931 472.118 266.391 469.077 273.264C465.903 280.534 465.11 291.24 473.572 295.073C476.482 296.395 478.862 296.924 484.019 293.884C487.325 291.901 489.176 291.505 491.556 292.562C495.523 294.412 496.052 298.378 494.73 301.418C493.011 305.515 480.713 312.785 467.622 307.234C455.324 301.814 448.713 286.614 456.911 267.713C461.671 257.138 473.44 241.013 493.936 249.869C502.135 253.437 510.201 265.069 506.498 273.132ZM557.408 318.733C550.664 330.1 536.647 342.657 517.474 331.554C498.697 320.451 502.796 302.079 509.54 290.315C516.416 278.815 530.565 266.391 549.606 277.494C568.251 288.597 564.152 307.234 557.408 318.733ZM643.226 338.692L625.904 375.702C624.317 379.27 620.35 380.724 617.177 379.138C613.077 377.156 613.342 372.265 614.4 370.15L629.078 338.824C632.251 331.819 626.433 329.043 625.243 328.514C616.78 324.549 612.284 332.48 611.226 334.594L598.135 362.616C596.548 365.921 592.582 367.507 588.879 365.788C584.912 363.938 585.044 359.047 585.97 357.065L601.044 325.871C604.35 318.865 598.135 316.09 596.813 315.561C588.482 311.463 583.854 319.526 582.928 321.641L569.838 349.663C568.251 353.099 564.416 354.553 561.11 352.967C557.143 351.117 557.143 346.358 558.201 344.111L575.656 306.705C576.185 305.515 577.11 301.682 577.904 298.774C578.829 295.073 583.061 293.884 586.763 295.602C591.391 297.849 591.127 301.814 591.127 303.797C594.433 302.607 598.4 301.153 607.391 305.119C611.226 306.969 615.854 310.142 617.045 316.222C619.028 315.296 623.788 312.785 633.177 317.411C643.888 322.698 646.929 330.893 643.226 338.824M694.797 366.317C692.946 373.322 690.037 376.759 684.747 375.437L658.83 368.564C658.301 372.001 656.714 382.311 667.028 385.086C670.202 386.012 672.714 385.615 676.946 382.046C680.252 379.27 681.706 378.874 684.483 379.535C687.921 380.46 689.243 384.293 688.318 387.465C686.334 395.132 675.359 400.683 663.326 397.511C654.731 395.264 639.656 386.54 646.268 361.294C652.35 338.428 667.557 333.669 678.665 336.577C690.962 339.882 698.367 352.438 694.665 366.317M720.45 322.566C727.987 323.491 728.648 329.704 727.194 336.181L717.276 379.006C716.615 381.914 715.293 383.5 712.913 383.236C710.401 382.839 709.343 380.989 709.475 377.949L710.797 334.066C710.929 328.779 712.648 321.641 720.45 322.566ZM709.872 406.103C704.714 405.442 701.144 400.815 701.806 395.661C702.467 389.977 707.227 386.54 712.252 387.069C717.541 387.73 721.508 392.356 720.715 398.04C720.054 403.195 715.161 406.631 709.739 405.97" fill="white"/>
<path d="M732.748 753.201C694.136 650.103 617.309 582.56 504.515 552.291C392.514 522.155 292.414 542.642 207.124 613.622C142.992 666.361 102.793 739.983 102 805.676C101.471 856.829 123.289 901.637 166.793 939.175C215.587 981.208 285.538 1015.44 374.663 1040.95C463.787 1063.16 541.54 1068.18 605.805 1055.76C662.268 1044.92 703.525 1016.63 728.516 972.087C760.517 914.722 762.104 830.922 732.748 753.333" fill="white"/>
<path d="M601.309 1265.92C598.4 1255.21 595.887 1245.83 594.432 1238.56C582.532 1177.49 566.267 1130.04 547.887 1093.03C542.73 1093.16 537.44 1093.29 532.151 1093.29C508.085 1093.29 482.828 1091.44 456.514 1088.01C454.134 1097.39 446.068 1115.9 421.076 1111.27C400.183 1107.44 375.324 1102.81 375.324 1102.81C375.324 1102.81 350.332 1098.19 329.439 1094.35C296.381 1088.27 305.505 1054.83 305.505 1054.83L306.166 1051C285.406 1043.46 265.967 1035.14 247.719 1026.41C212.149 1064.88 173.008 1128.06 142.066 1232.21C140.876 1236.31 139.157 1241.33 137.306 1247.15C121.438 1295.66 88.5117 1396.64 138.76 1467.09C147.62 1479.39 158.727 1490.36 172.082 1499.87C218.496 1515.6 302.596 1543.62 327.852 1545.87C328.249 1545.87 328.646 1546.14 329.042 1546.14C340.943 1546.93 353.373 1547.59 366.332 1547.72C444.349 1548.78 504.647 1537.68 546.961 1514.54C571.821 1487.45 597.606 1457.84 610.697 1442.77C632.648 1383.42 613.474 1311.78 601.176 1265.65" fill="white"/>
<path d="M375.059 883.661C371.092 898.861 385.241 915.515 406.663 921.596C427.688 927.147 448.183 919.613 452.679 904.016C456.779 888.815 442.366 872.029 421.208 866.345C399.919 860.662 379.026 868.46 374.927 883.661" fill="#E60012"/>
<path d="M481.242 942.48C479.919 943.67 448.184 972.881 396.877 958.87C345.307 945.256 331.687 904.148 331.158 902.43C328.778 894.632 320.579 890.138 312.646 892.649C304.844 895.028 300.48 903.223 302.86 911.022C303.522 913.401 321.373 969.444 389.208 987.42C401.77 990.857 413.539 992.179 424.25 992.179C471.589 992.179 500.283 965.215 501.738 963.761C507.556 958.077 507.688 948.824 502.135 943.009C496.581 937.193 487.192 936.928 481.242 942.48Z" fill="#E60012"/>
<path d="M392.25 767.344C420.151 742.231 427.953 700.991 400.845 674.688C396.217 670.59 389.737 667.55 383.39 664.246C377.572 663.056 372.283 660.809 366.2 660.809C341.208 659.884 318.993 667.418 295.456 675.481C280.91 680.371 266.629 687.773 253.141 694.382C224.447 709.054 203.554 737.604 201.835 771.31C200.777 790.343 208.843 806.469 221.802 820.083C234.1 832.905 252.613 838.985 269.538 836.605C295.588 832.64 311.191 817.44 332.216 804.09C351.787 791.401 374.266 782.677 392.118 767.212M325.869 752.012C327.852 744.61 335.258 740.38 342.53 742.363C350.068 744.345 354.431 751.747 352.448 759.017C350.464 766.551 343.059 770.517 335.654 768.666C328.249 766.683 323.886 759.414 325.869 752.012Z" fill="#E60012"/>
<path d="M652.351 800.653C644.285 787.964 635.161 774.482 624.979 762.982C608.582 744.213 593.243 727.03 570.631 715.134C565.342 712.226 559.788 711.301 554.235 709.318C547.491 709.054 540.35 708.657 534.268 709.847C497.242 719.231 483.755 759.017 495.524 795.101C502.929 817.175 518.796 835.548 529.375 856.696C540.747 878.373 546.697 899.39 567.326 915.78C580.813 926.486 600.119 930.319 617.045 925.296C635.029 920.009 650.5 909.832 658.831 892.913C674.037 862.776 669.938 827.485 652.219 800.653M560.45 814.532C558.466 821.934 551.193 826.163 543.788 824.181C536.251 822.198 531.887 814.928 533.871 807.526C535.854 800.124 543.259 795.895 550.797 797.877C558.202 799.86 562.433 807.262 560.45 814.532Z" fill="#E60012"/>
<path d="M832.187 1017.42L830.864 1015.57C825.443 1007.38 826.236 997.73 828.22 993.236C831.261 986.099 831.261 977.243 830.864 962.174C830.6 952.79 827.691 947.767 824.517 944.991C824.517 939.969 824.517 931.377 824.517 922.389C824.517 908.114 824.517 892.385 824.121 887.098C824.121 886.701 823.724 885.908 823.327 885.247C822.93 884.586 822.533 883.925 822.533 883.925H733.541C733.541 883.925 733.145 884.454 732.748 885.247C732.351 885.908 731.955 886.701 731.955 887.098C731.69 892.385 731.558 908.114 731.558 922.389C731.558 931.641 731.558 940.233 731.558 945.256C728.517 948.164 725.607 953.186 725.343 962.307C724.946 977.904 724.946 986.231 727.987 993.368C729.971 997.862 730.765 1007.38 725.343 1015.57L724.021 1017.56C716.88 1027.87 700.219 1052.06 716.351 1082.32C727.194 1102.55 750.864 1106.38 751.657 1106.38C752.054 1106.38 761.31 1108.23 777.971 1107.83C780.087 1107.83 782.071 1107.83 783.922 1107.83C797.013 1107.83 804.153 1106.38 804.286 1106.38C805.344 1106.25 829.013 1102.55 839.856 1082.32C856.12 1052.06 839.327 1027.87 832.187 1017.42Z" fill="#E60012"/>
<path d="M823.989 1023.11L822.666 1021.13C815.393 1010.29 815.658 997.334 819.096 989.271C821.212 984.248 821.344 977.243 820.947 962.439C820.683 954.376 817.774 951.732 816.055 951.336L801.906 947.767C794.633 947.503 786.038 947.238 778.104 947.238C770.17 947.238 761.707 947.503 754.434 947.767L740.814 951.204C738.434 951.6 735.525 954.244 735.261 962.439C734.864 977.639 734.996 984.248 737.112 989.271C740.55 996.937 740.814 1010.29 733.542 1021.13L732.087 1023.11C724.946 1033.42 711.723 1052.58 725.079 1077.57C733.541 1093.43 753.112 1096.6 753.377 1096.6C753.773 1096.6 762.104 1098.32 777.84 1097.92C793.707 1098.45 802.302 1096.73 802.302 1096.73C802.831 1096.73 822.402 1093.43 830.864 1077.7C844.22 1052.72 830.865 1033.55 823.856 1023.24" fill="white"/>
<path d="M770.434 1054.83C770.434 1057.61 773.872 1059.85 778.103 1059.85C782.335 1059.85 785.773 1057.61 785.773 1054.83C785.773 1052.06 782.335 1049.81 778.103 1049.81C773.872 1049.81 770.434 1052.06 770.434 1054.96" fill="#E60012"/>
<path d="M778.104 1073.73C763.029 1073.73 756.285 1065.8 756.021 1065.4C754.963 1064.22 755.095 1062.36 756.417 1061.31C757.607 1060.25 759.459 1060.38 760.517 1061.7C760.781 1061.97 766.071 1067.92 778.236 1067.92C790.401 1067.92 795.558 1061.97 795.823 1061.7C796.881 1060.51 798.732 1060.38 799.922 1061.31C801.112 1062.36 801.244 1064.22 800.319 1065.4C800.054 1065.67 793.178 1073.6 778.236 1073.73" fill="#E60012"/>
<path d="M732.748 1047.43C733.409 1051.13 735.789 1053.77 738.963 1055.89C742.004 1057.74 745.971 1058.14 749.012 1056.81C753.905 1054.83 756.285 1051.13 759.591 1047.56C762.765 1044.12 766.732 1041.48 769.376 1037.65C773.608 1031.44 773.211 1023.11 766.6 1019.41C765.542 1018.75 764.087 1018.48 762.765 1018.22C761.707 1018.22 760.517 1018.22 759.326 1018.35C754.434 1019.54 750.599 1021.92 746.368 1024.56C743.856 1026.15 741.343 1028.4 739.095 1030.25C734.202 1034.48 731.558 1040.95 732.88 1047.69M758.269 1035.53C758.269 1034.21 759.459 1033.29 760.781 1033.42C762.104 1033.55 763.029 1034.74 762.897 1035.93C762.765 1037.25 761.575 1038.18 760.385 1038.04C759.062 1037.91 758.137 1036.72 758.401 1035.4" fill="#E60012"/>
<path d="M817.244 1030.11C814.996 1028.26 812.484 1026.02 809.971 1024.43C805.74 1021.65 801.905 1019.41 797.012 1018.22C795.954 1017.95 794.764 1018.22 793.574 1018.09C792.252 1018.35 790.798 1018.61 789.74 1019.27C783.128 1023.11 782.731 1031.44 786.963 1037.65C789.739 1041.48 793.574 1044.12 796.88 1047.56C800.186 1051.13 802.566 1054.83 807.459 1056.95C810.5 1058.27 814.467 1057.87 817.509 1056.02C820.682 1054.04 823.062 1051.26 823.723 1047.56C825.045 1040.95 822.269 1034.34 817.509 1030.25M796.483 1038.04C795.161 1038.18 794.103 1037.25 793.839 1035.93C793.707 1034.61 794.632 1033.42 795.955 1033.29C797.277 1033.15 798.335 1034.08 798.467 1035.4C798.599 1036.59 797.674 1037.78 796.351 1038.04" fill="#E60012"/>
<path d="M800.451 971.294C799.525 971.294 798.6 972.087 798.6 973.013C798.6 973.938 799.393 974.731 800.451 974.731C801.509 974.731 802.302 973.938 802.302 973.013C802.302 972.087 801.509 971.294 800.451 971.294ZM800.451 974.467C799.525 974.467 798.864 973.806 798.864 973.013C798.864 972.087 799.658 971.427 800.451 971.427C801.244 971.427 802.038 972.087 802.038 972.881C802.038 973.674 801.377 974.334 800.451 974.334" fill="#E60012"/>
<path d="M801.245 973.674C801.245 973.674 801.245 973.41 801.245 973.277C801.245 973.145 801.113 973.013 800.981 973.013C801.113 973.013 801.245 972.881 801.245 972.749C801.245 972.749 801.245 972.484 801.245 972.352C801.245 972.088 800.98 971.956 800.848 971.956H799.658V973.938H800.055V973.145H800.584C800.584 973.145 800.848 973.145 800.848 973.41C800.848 973.542 800.848 973.674 800.848 973.806C800.848 973.806 800.848 973.806 800.848 973.938H801.377C801.377 973.938 801.377 973.938 801.377 973.674M800.716 972.749H800.187V972.22H800.848C800.848 972.22 801.113 972.22 801.113 972.484C801.113 972.616 801.113 972.749 800.848 972.749" fill="#E60012"/>
<path d="M775.723 962.174C773.872 962.703 772.417 964.818 772.152 966.668C772.152 967.329 772.152 967.858 772.152 968.518C772.285 969.708 773.475 970.105 774.136 970.898C774.268 971.294 774.533 971.823 774.93 971.955C775.326 972.087 775.59 971.955 775.855 971.691C777.177 969.84 777.442 967.461 778.367 965.214C778.367 964.818 778.896 964.95 779.029 964.685C779.029 964.421 779.029 964.157 779.029 964.024C779.293 964.024 779.425 964.024 779.69 964.157C780.615 964.685 780.88 965.611 780.88 966.536C780.88 969.047 778.235 970.766 776.252 971.823C776.252 971.823 776.78 971.823 777.045 971.823C779.028 971.955 780.88 971.426 782.202 969.972C783.392 968.519 783.789 966.536 782.995 964.818C781.673 962.174 778.235 961.513 775.723 962.306M775.061 968.915C775.061 968.915 774.665 969.047 774.4 969.047C773.607 968.651 773.739 967.593 773.871 966.932C774.136 965.743 775.062 964.421 776.384 964.157C776.384 965.875 775.591 967.329 775.194 968.915" fill="#E60012"/>
<path d="M770.038 965.082C770.038 965.082 768.98 964.421 768.187 964.421C767.79 964.818 767.129 964.95 766.6 964.95V964.421C766.6 964.421 767.525 964.157 768.054 964.157C768.451 964.289 768.848 964.421 769.112 964.157C769.377 963.892 769.377 963.496 769.509 963.231C769.377 962.438 768.583 961.645 767.79 961.513C767.393 961.381 767.129 961.778 766.997 961.91C766.864 961.91 766.732 961.91 766.6 961.91C766.335 961.381 766.864 961.249 767.129 960.984C767.129 960.72 767.129 960.456 766.997 960.191C766.335 960.059 765.806 959.663 765.277 959.398C764.616 959.134 764.352 960.059 763.955 960.456C764.22 960.72 763.955 960.984 764.219 961.381C764.219 961.778 764.22 962.174 763.955 962.438C763.955 962.438 763.691 962.438 763.558 962.438C762.897 962.438 763.029 963.099 762.765 963.496C762.765 963.364 762.501 963.099 762.368 962.967C761.972 962.571 761.839 962.042 761.575 961.645C761.575 961.645 761.31 961.645 761.046 961.645C760.517 961.645 760.649 962.571 759.988 962.438C759.459 962.438 759.195 962.042 758.666 961.91C758.269 961.91 757.872 962.306 757.608 962.703C757.608 962.967 757.343 963.231 757.608 963.496C757.872 964.818 757.872 966.272 757.608 967.725C757.211 968.519 758.005 969.047 757.872 969.84C758.137 970.237 758.93 970.105 759.327 970.105C759.724 970.105 759.724 969.576 759.724 969.179C759.724 968.915 759.988 969.179 760.253 969.179C760.385 969.444 760.782 969.708 761.178 969.708C761.575 969.708 762.104 969.576 762.236 969.179C762.368 968.519 762.368 967.99 762.501 967.329C762.501 967.329 762.501 967.593 762.501 967.725C762.633 968.122 762.897 968.519 763.294 968.519C763.691 968.519 763.691 967.99 764.087 967.99C764.087 968.783 764.087 969.84 764.087 970.501C764.087 970.898 764.087 971.427 763.823 971.823C763.823 971.823 763.426 971.823 763.294 971.691C763.294 971.162 763.294 970.501 763.162 969.973C763.162 969.576 762.897 969.18 762.501 969.047C762.104 969.708 761.31 969.708 760.517 970.105C760.385 970.105 760.12 970.369 760.253 970.633C760.517 971.691 759.591 972.616 760.12 973.541C760.517 973.938 761.046 974.202 761.707 974.07C762.236 973.938 762.765 973.277 763.029 972.616C764.352 973.013 763.558 974.731 764.881 974.995C765.542 975.127 766.071 974.995 766.468 974.467C766.6 972.88 766.468 971.294 766.468 969.576C766.732 968.915 765.806 967.461 767.129 967.593C767.922 967.329 768.583 967.858 769.112 968.254C769.377 968.519 769.773 968.254 770.038 968.254C770.567 967.99 770.831 967.593 770.963 967.065C770.963 966.536 770.567 965.875 770.038 965.478M760.12 967.065H759.724C759.724 966.272 759.591 965.479 759.724 964.685C759.724 964.685 759.856 964.685 759.988 964.685C759.988 964.95 760.253 965.214 760.253 965.478C760.253 966.007 760.252 966.536 760.12 967.065ZM764.219 965.743C764.219 965.743 763.559 965.875 763.294 965.743C763.162 965.743 763.162 965.478 762.897 965.478C762.501 965.743 762.368 966.139 762.368 966.404C762.368 965.743 762.368 965.082 762.368 964.421H762.765C762.765 964.421 762.765 964.818 763.162 965.214C763.294 965.214 763.426 965.346 763.558 965.214C763.823 965.214 763.955 964.95 764.087 964.818C764.087 965.082 764.087 965.346 764.087 965.478" fill="#E60012"/>
<path d="M767.128 967.99C767.128 967.99 766.996 968.651 766.996 969.048C766.996 970.634 766.996 972.484 768.318 973.542C768.847 973.806 769.376 973.542 769.773 973.409C770.17 973.013 770.302 972.616 770.302 971.956C770.17 970.237 768.847 968.651 767.26 968.122" fill="#E60012"/>
<path d="M798.6 965.215C798.467 964.025 797.013 964.421 796.484 963.628C796.087 963.628 795.823 963.893 795.691 964.157C794.765 964.157 793.839 964.289 792.914 964.421C792.914 964.421 792.914 964.157 792.914 964.025C793.839 963.76 794.765 963.76 795.559 964.025C795.955 963.893 796.087 963.628 796.087 963.232C796.087 962.439 795.162 962.307 794.633 962.174C794.236 962.571 793.443 962.703 792.914 962.703C792.914 962.439 792.914 962.307 792.914 962.174C793.443 961.91 794.236 962.042 794.897 962.042C795.426 962.042 796.087 962.571 796.484 962.042C796.484 961.778 796.748 961.646 796.484 961.381C796.352 960.853 795.823 960.588 795.294 960.588C794.633 959.927 794.236 961.117 793.707 960.985C793.443 960.985 793.178 960.985 792.914 960.853C792.914 960.588 793.443 960.456 793.443 959.927C793.443 959.927 793.31 959.795 793.178 959.795H791.988C791.988 959.795 791.195 959.266 790.93 959.399C790.401 959.795 790.401 960.588 790.401 961.117C789.74 961.381 788.682 961.513 787.889 961.117C787.492 961.117 787.228 961.514 786.963 961.778C786.699 962.703 787.889 962.571 788.286 962.967C788.947 962.967 789.344 962.307 790.005 962.571C790.269 962.571 790.401 962.703 790.269 962.967C789.74 963.364 788.947 963.364 788.286 963.364C788.021 963.364 787.757 963.1 787.492 963.364C787.228 963.364 787.228 963.76 787.096 964.025C787.36 964.554 787.889 965.082 788.418 965.215C788.947 965.479 788.947 964.686 789.476 964.686C789.74 964.686 790.005 964.554 790.269 964.686C790.269 964.818 790.269 965.082 790.269 965.215C789.079 965.215 787.889 965.479 786.567 965.479L786.038 965.215C786.038 965.215 784.98 965.215 784.715 965.743C784.451 966.536 785.112 967.329 785.906 967.858C786.17 967.858 786.434 967.858 786.567 967.858C786.831 967.726 786.963 967.329 787.096 967.065C787.624 966.933 788.286 966.801 788.947 966.933C788.947 966.933 788.947 967.197 788.682 967.329C788.418 967.329 787.889 967.461 787.492 967.329C787.228 967.726 786.567 967.726 786.567 968.387C786.567 968.651 786.567 968.915 786.963 968.915C787.624 968.915 788.286 968.915 788.947 968.783C789.211 968.783 789.608 968.783 789.74 968.783C789.344 969.312 788.55 969.048 788.021 969.312C787.492 969.312 786.831 969.048 786.435 969.444C786.435 969.576 786.435 969.709 786.435 969.973C786.831 970.237 786.435 970.898 786.831 971.295C787.228 971.691 787.493 971.162 787.757 971.295C787.493 972.088 786.567 971.823 786.038 972.22C786.038 972.22 785.906 972.484 786.038 972.749C786.435 973.277 786.17 974.07 786.831 974.599C787.096 974.996 787.493 974.863 787.757 974.863C788.55 974.731 788.815 974.07 789.079 973.409C789.211 973.145 789.079 972.881 789.344 972.749C790.666 973.013 789.74 974.731 791.195 974.863C791.856 974.863 792.781 975.128 793.178 974.335C793.443 973.277 793.178 972.088 793.311 970.898L793.575 970.766C793.839 970.502 793.443 970.369 793.311 970.237C793.443 970.237 793.575 970.105 793.84 969.973C794.765 969.444 795.294 970.634 796.22 970.502C796.616 970.502 796.749 970.369 797.013 970.105C797.277 969.708 797.41 969.18 797.145 968.783C797.013 968.122 796.22 967.726 795.691 967.462C795.294 967.329 794.897 967.329 794.501 967.065C794.501 966.933 794.765 966.933 795.03 966.801C795.294 966.801 795.03 966.404 795.03 966.272C796.087 966.007 796.484 967.329 797.277 967.726C797.542 967.726 797.807 967.726 798.071 967.726C798.732 967.329 798.732 966.536 798.732 965.875M789.872 972.22C789.872 972.22 789.344 972.22 789.211 972.22C789.079 971.956 788.947 971.559 788.682 971.427C789.079 971.03 789.608 971.162 790.137 971.162C790.137 971.559 790.401 972.22 789.872 972.352M791.195 967.462C791.195 967.462 791.195 967.462 790.93 967.462C790.93 967.065 791.327 966.801 791.724 966.801C791.724 966.933 791.459 967.329 791.195 967.462ZM792.385 969.18C792.385 969.18 793.046 968.255 793.575 968.387C793.707 968.519 793.707 968.915 793.84 969.048C793.311 969.18 792.914 969.18 792.385 969.18Z" fill="#E60012"/>
<path d="M794.765 969.973C794.765 969.973 793.971 969.709 793.707 969.973C793.707 970.502 793.707 971.03 793.839 971.559C794.104 972.616 794.633 973.938 795.823 974.467C796.219 974.467 796.88 974.467 797.277 974.07C797.806 973.674 797.806 973.145 797.674 972.616C797.278 971.295 796.087 970.502 794.765 970.105" fill="#E60012"/>
</svg>
