<svg width="180" height="156" viewBox="0 0 180 156" fill="none" xmlns="http://www.w3.org/2000/svg">
<path d="M32.181 99.0837C20.5351 92.1114 12.4009 81.1849 9.2861 68.31C6.17128 55.4351 8.45284 42.1782 15.6943 30.9652C22.9357 19.7522 34.284 11.9203 47.6558 8.94031C51.5642 8.06161 55.4528 7.64136 59.3017 7.64136C80.7086 7.64136 100.27 20.6691 107.611 40.4208C108.206 42.0254 108.742 43.6682 109.178 45.3874C109.218 45.5593 109.278 45.7121 109.317 45.884C111.103 53.2957 111.063 60.7265 109.456 67.7179C108.246 72.9519 106.163 77.9567 103.326 82.503C102.988 83.057 102.631 83.6109 102.254 84.1458C98.8023 89.227 94.3979 93.716 89.1801 97.3072C83.8631 100.994 77.7128 103.745 70.9475 105.254C69.3008 105.617 67.6541 105.903 66.0075 106.113C64.0632 106.362 62.1189 106.495 60.1945 106.534C50.3739 106.706 40.712 104.184 32.181 99.0646" fill="white"/>
<path d="M171.931 70.5833C171.316 69.4945 170.661 68.4057 170.007 67.3741C173.419 64.547 180.343 57.5556 177.288 49.418C173.895 40.2872 159.908 35.0723 154.075 38.205C149.77 40.4591 147.27 44.0503 146.04 46.3235C139.731 43.3817 132.649 41.4142 124.792 40.4591C121.737 40.1153 118.781 39.9815 115.864 39.9815C106.679 11.7867 76.2448 -5.30984 45.8704 1.49055C30.4551 4.94806 17.3411 13.9834 8.96879 26.9347C0.596493 39.886 -2.02233 55.1869 1.56863 70.0485C7.93714 96.3713 32.3795 114.194 59.3216 114.194C60.512 114.194 61.7222 114.156 62.9126 114.079C64.8569 114.003 67.1583 114.958 67.6543 116.868L69.5985 124.91C64.837 124.433 60.6906 125.502 58.4884 128.482C54.0642 134.423 54.2229 143.439 63.5871 149.896C72.9316 156.352 84.1013 156.753 88.5255 150.813C92.9497 144.872 93.7433 137.097 84.3989 130.641C83.9426 130.316 83.4664 130.029 82.9903 129.724L81.7404 124.547C90.4301 128.406 100.905 131.156 112.988 132.742H113.067C118.225 133.296 123.146 133.563 127.808 133.563C137.926 133.563 146.933 132.303 154.651 129.762C165.285 126.285 172.864 119.619 176.574 110.488C181.276 98.9119 179.53 83.9931 171.931 70.5451M32.1811 99.0456C20.5353 92.0733 12.401 81.1469 9.28623 68.2719C6.17141 55.397 8.45296 42.1401 15.6944 30.9271C22.9359 19.7141 34.2841 11.8822 47.656 8.90222C51.5644 8.02352 55.4529 7.60327 59.3018 7.60327C80.7087 7.60327 100.271 20.631 107.611 40.3827C108.206 41.9873 108.742 43.6301 109.178 45.3493C109.218 45.5212 109.278 45.674 109.317 45.8459C111.103 53.2576 111.063 60.6884 109.456 67.6798C108.246 72.9138 106.163 77.9186 103.326 82.4649C102.989 83.0189 102.631 83.5728 102.254 84.1077C98.8024 89.1889 94.398 93.6779 89.1802 97.2691C83.8632 100.956 77.7129 103.707 70.9476 105.216C69.3009 105.579 67.6543 105.865 66.0076 106.075C64.0633 106.324 62.119 106.457 60.1946 106.496C50.374 106.667 40.7121 104.146 32.1811 99.0265" fill="#E60012"/>
<path d="M82.3554 109.686C80.5103 110.431 78.8041 112.265 79.2406 114.232L80.1929 118.129C89.0413 122.733 100.271 125.961 113.682 127.718C129.197 129.342 142.41 128.425 152.964 124.967C162.21 121.949 168.499 116.467 171.653 108.654C175.72 98.6064 174.054 84.9483 167.289 72.9903C158.381 57.1355 143.858 47.89 124.157 45.4831C121.816 45.2157 119.515 45.0629 117.273 45.0247C123.364 72.1689 108.187 99.1986 82.3554 109.686Z" fill="white"/>
<path d="M135.406 94.3466C137.847 97.6513 139.355 100.937 143.243 103.134C145.703 104.509 149.056 104.719 151.814 103.497C154.73 102.236 157.051 100.306 158.083 97.3457C159.968 92.0734 158.44 86.4765 154.81 82.4841C153.163 80.6503 151.357 78.6446 149.354 77.0018C146.14 74.3084 143.124 71.8824 139.097 70.4879C138.124 70.125 137.152 70.1059 136.18 69.8958C135.029 70.0104 133.799 70.1059 132.807 70.4306C126.816 72.7993 125.447 79.5233 128.284 85.082C130.05 88.5204 133.105 91.1947 135.387 94.3084M137.668 84.2797C138.958 84.4325 139.87 85.5405 139.712 86.7821C139.553 88.0429 138.402 88.8834 137.113 88.7306C135.783 88.5777 134.871 87.4889 135.029 86.2282C135.188 84.9865 136.359 84.1269 137.668 84.2797ZM129.316 109.323C130.189 108.291 131.776 108.119 132.847 108.96C133.918 109.8 134.097 111.309 133.244 112.341C133.006 112.627 127.709 118.893 117.729 118.893C116.797 118.893 115.825 118.836 114.793 118.721C102.929 117.327 98.6834 108.616 98.5048 108.234C97.9295 107.011 98.5048 105.579 99.7547 105.025C101.024 104.471 102.512 105.025 103.088 106.228C103.207 106.477 106.421 112.857 115.408 113.907C124.395 114.977 129.117 109.533 129.316 109.304M117.432 98.2817C121.142 98.721 123.9 101.166 123.582 103.745C123.245 106.324 119.951 108.024 116.261 107.584C112.512 107.145 109.754 104.738 110.071 102.159C110.409 99.5806 113.702 97.8614 117.432 98.3008" fill="#E60012"/>
<path d="M10.9726 67.9283C10.794 67.1642 10.6154 66.4001 10.4766 65.636C13.8096 49.3609 22.1026 32.7802 34.5816 18.167C35.9307 16.5815 37.3195 15.0724 38.7281 13.5633C41.6842 12.2644 44.8189 11.252 48.0527 10.5261C51.5246 9.74288 55.0164 9.34173 58.4883 9.28442C52.8737 13.7543 47.5964 18.8164 42.696 24.5662C26.745 43.21 18.2338 65.9607 19.4639 85.5978C15.4365 80.402 12.5399 74.4039 10.9527 67.9092M107.433 68.7497C103.822 71.7678 99.9332 74.5185 96.501 77.7086C90.4697 83.2483 86.2439 89.1317 77.8121 92.0162C72.4752 93.8118 65.8687 92.9904 60.9683 89.6284C55.7505 86.0945 52.0008 81.51 51.1477 75.3781C49.5208 64.4326 54.6791 54.0792 63.3094 47.5844C67.2376 44.6235 71.5428 41.3762 76.0662 38.8929C83.387 34.805 90.192 31.1756 98.5841 29.8957C99.0801 29.8193 99.5761 29.762 100.052 29.7429C103.604 34.6522 106.203 40.2109 107.651 46.2281C109.476 53.7735 109.377 61.4526 107.452 68.7497M100.35 62.1021C100.528 59.6379 98.604 57.5176 95.9653 57.3456C93.3663 57.1737 91.184 59.0075 91.0252 61.4908C90.8467 64.0123 92.7513 66.0562 95.3503 66.2282C97.9889 66.4001 100.171 64.6045 100.37 62.1021" fill="#E60012"/>
</svg>
