<svg xmlns="http://www.w3.org/2000/svg" width="126" height="181" viewBox="0 0 126 181" fill="none">
  <path d="M115.697 140.401C114.868 140.043 114.02 139.76 113.154 139.553C112.363 133.733 110.762 128.516 109.651 124.919C109.368 124.034 109.142 123.243 108.954 122.602C108.803 122.075 108.653 121.604 108.502 121.095C113.211 116.067 116.413 109.136 113.455 100.152C111.854 95.1981 109.896 91.8832 108.276 89.7738C116.526 85.1028 122.044 78.2094 124.229 69.6586C127.262 57.7929 123.834 43.3846 115.056 31.1234C114.341 30.1251 113.606 29.1458 112.853 28.204C115.735 25.0398 121.404 17.4119 117.562 9.78397C113.267 1.23314 99.461 -2.25123 94.3379 1.49682C90.5332 4.20898 88.6308 7.9947 87.7268 10.3678C81.417 8.22071 74.5045 7.10948 67.0082 7.09064C59.5118 7.10948 52.6182 8.22071 46.3085 10.3678C45.4232 7.9947 43.5021 4.20898 39.7162 1.49682C34.5931 -2.25123 20.787 1.23314 16.4926 9.78397C12.6503 17.4119 18.3196 25.0398 21.2014 28.204C20.448 29.1458 19.7134 30.1063 18.9977 31.1045C10.2205 43.3846 6.79255 57.7929 9.825 69.6586C10.6537 72.9169 12.0099 75.9305 13.7804 78.6803C9.42947 76.5708 4.92788 75.987 1.98961 80.2247C-2.90751 87.3064 2.06495 95.5936 7.94149 102.204C11.313 105.99 18.96 112.243 27.3228 115.445C26.5505 117.705 25.8159 120.059 25.1191 122.583C24.9307 123.224 24.7047 124.015 24.4222 124.9C23.3109 128.497 21.7288 133.714 20.9189 139.515C20.0525 139.741 19.2049 140.005 18.3761 140.382C9.74967 144.186 4.92786 155.092 11.4448 166.26C17.9994 177.486 27.1532 183.682 35.7797 179.878C37.9457 178.917 39.6786 177.448 41.0158 175.602C47.9848 178.183 56.6678 179.501 67.0459 179.501C77.424 179.501 86.107 178.183 93.076 175.602C94.3944 177.448 96.1272 178.917 98.3121 179.878C106.939 183.682 116.092 177.486 122.647 166.26C129.164 155.092 124.342 144.186 115.716 140.382" fill="#E60012"/>
  <path d="M67.0271 12.1194C48.1921 12.1947 33.4066 19.559 23.085 34.0427C15.2684 44.9666 12.0476 58.1507 14.6845 68.4343C16.7187 76.4389 21.9926 82.5225 30.3365 86.553C39.8482 91.1486 52.1851 93.5783 67.0083 93.7854C81.8503 93.5783 94.1873 91.1486 103.699 86.553C112.043 82.5225 117.317 76.4201 119.37 68.4343C121.988 58.1507 118.786 44.9666 110.969 34.0427C100.667 19.559 85.8622 12.1759 67.0083 12.1194" fill="white"/>
  <path d="M67.0082 73.84C70.5869 73.84 73.4875 71.8058 73.4875 69.2444C73.4875 66.6829 70.5869 64.6111 67.0082 64.6111C63.4295 64.6111 60.5667 66.6829 60.5667 69.2444C60.5667 71.8058 63.4672 73.84 67.0082 73.84Z" fill="#E60012"/>
  <path d="M82.8483 73.2555C81.7371 72.5586 80.2679 72.9165 79.571 74.0089C79.4204 74.2537 75.6157 80.1112 67.0269 80.1112C58.4381 80.1112 54.6711 74.2914 54.4827 74.0089C53.7858 72.8977 52.3356 72.5398 51.2055 73.2367C50.0754 73.9336 49.7175 75.4026 50.4144 76.5139C50.6216 76.8529 55.6694 84.8952 67.0269 84.8952C78.3844 84.8952 83.4322 76.8529 83.6394 76.5139C84.3175 75.4026 83.9785 73.9336 82.8672 73.2555" fill="#E60012"/>
  <path d="M100.365 44.7779C98.5945 43.177 96.6544 41.4254 94.5637 40.0505C91.2111 37.7904 88.0845 35.7751 84.1103 34.871C83.1497 34.645 82.2456 34.7204 81.285 34.645C80.2114 34.8899 79.0625 35.1159 78.1773 35.5679C72.8093 38.5814 72.3384 45.3241 75.6722 50.4283C77.7629 53.5925 80.946 55.8526 83.4887 58.6401C86.1821 61.5782 87.9903 64.6294 91.9268 66.3433C94.4131 67.3981 97.5962 67.2097 100.045 65.703C102.644 64.1209 104.603 61.9738 105.206 58.9603C106.355 53.5924 104.245 48.2811 100.346 44.7968M84.4305 52.9897C83.1685 52.9897 82.1703 52.0292 82.1703 50.7861C82.1703 49.543 83.1685 48.5637 84.4305 48.5637C85.6924 48.5637 86.653 49.543 86.653 50.7861C86.653 52.0292 85.6736 52.9897 84.4305 52.9897Z" fill="#E60012"/>
  <path d="M58.3629 50.41C61.7155 45.3058 61.2259 38.5631 55.8579 35.5496C54.9538 35.0976 53.8237 34.8716 52.7501 34.6267C51.7895 34.7209 50.8666 34.6267 49.9248 34.8527C45.9506 35.7568 42.8428 37.7721 39.4713 40.0322C37.3995 41.4071 35.4595 43.1587 33.6702 44.7596C29.7713 48.2628 27.6618 53.5553 28.8107 58.9231C29.4323 61.9366 31.3723 64.0837 33.9715 65.6658C36.4201 67.1726 39.6032 67.3609 42.0894 66.3062C46.026 64.5923 47.8341 61.5411 50.5275 58.6029C53.0702 55.8154 56.2534 53.5553 58.3441 50.3911M47.3632 50.749C47.3632 49.5247 48.3426 48.5265 49.5858 48.5265C50.8289 48.5265 51.846 49.5059 51.846 50.749C51.846 51.992 50.8665 52.9526 49.5858 52.9526C48.305 52.9526 47.3632 51.992 47.3632 50.749Z" fill="#E60012"/>
  <path d="M76.7459 129.288C68.8729 121.001 85.9751 110.002 88.4048 107.327C92.5297 102.769 91.7951 98.7575 90.5143 96.2526C87.0487 97.0248 83.3947 97.6275 79.5335 98.0418C79.4205 99.6051 78.7048 102.845 74.5611 102.845H59.493C55.3305 102.845 54.6148 99.6051 54.5206 98.0418C50.1697 97.571 46.0824 96.8553 42.2401 95.9324C37.8139 102.374 33.4818 111.358 29.9408 123.958C29.7525 124.636 29.5076 125.465 29.2063 126.406C28.2268 129.552 26.8519 134.072 26.0608 139.082C32.6154 139.553 39.0382 144.054 42.1459 152.756C44.4627 159.254 44.8582 165.902 43.2007 171.119C49.4916 173.38 57.44 174.51 67.027 174.51C76.6141 174.51 84.5437 173.361 90.8346 171.119C89.1771 165.883 89.5914 159.235 91.9081 152.756C95.0159 144.054 101.439 139.553 107.993 139.082C107.202 134.072 105.827 129.552 104.848 126.406C104.659 125.823 104.509 125.295 104.358 124.824C102.701 126.086 101.024 127.179 99.4798 128.045C91.7763 132.433 82.679 135.598 76.7459 129.307" fill="white"/>
</svg>