<svg width="988" height="1709" viewBox="0 0 988 1709" fill="none" xmlns="http://www.w3.org/2000/svg">
<path d="M696.554 1093.16C677.645 1090.92 659.396 1085.23 642.735 1077.96C692.719 1061.57 731.595 1030.77 755.926 987.156C792.819 921.067 795.199 829.468 762.141 742.231C759.497 735.093 756.719 728.22 753.678 721.347C775.893 706.939 821.91 670.194 811.067 618.512C799.034 560.486 722.075 517.661 685.314 531.672C658.339 542.114 640.752 561.808 631.628 574.497C597.247 551.763 557.71 534.183 512.883 522.155C468.056 509.995 424.949 505.501 383.824 508.408C382.37 492.944 376.948 467.301 358.436 445.095C333.973 414.695 245.509 413.637 206.501 457.652C171.063 497.306 193.278 552.159 205.443 575.555C199.493 580.049 193.542 584.675 187.592 589.566C115.525 648.913 72.0206 729.542 71.2273 805.28C71.2273 814.268 71.8883 823.124 72.9461 831.847C59.194 826.164 44.6484 826.428 29.7061 837.267C-13.4016 868.593 -1.50063 926.883 19.2598 977.639C34.9955 1016.37 85.7727 1095.67 149.641 1123.56C136.55 1152.38 124.12 1185.42 112.88 1223.49C111.69 1227.46 110.104 1232.21 108.385 1237.63C90.9298 1291.03 54.6982 1402.06 114.203 1485.2C121.079 1494.85 129.277 1503.84 138.401 1512.03C142.765 1519.7 147.657 1530.54 152.021 1546.14C152.021 1546.14 163.129 1582.22 200.021 1638.13C220.782 1669.72 257.939 1711.49 296.816 1707.26C362.006 1700.78 379.328 1664.57 376.023 1631.39C374.568 1615.66 369.279 1595.7 361.477 1578.92C363.196 1578.92 364.915 1579.05 366.634 1579.05C370.601 1579.05 374.568 1579.05 378.403 1579.05C416.221 1579.05 450.205 1576.01 480.354 1570.19C472.817 1597.16 479.428 1644.34 488.817 1667.34C501.379 1698.4 533.511 1722.46 594.206 1698.01C630.57 1683.86 644.19 1629.67 647.892 1592.13C654.636 1525.38 647.892 1488.24 647.892 1488.24C644.19 1471.32 642.868 1458.9 642.074 1450.04C665.347 1381.84 644.454 1303.85 632.157 1257.86C629.38 1247.68 627.132 1238.82 625.809 1232.48C625.809 1232.48 625.545 1231.42 625.545 1230.89C660.058 1242.39 697.876 1240.28 726.174 1235.25C780.125 1225.6 836.059 1204.59 839.365 1151.45C843.728 1083.25 730.802 1097.13 697.215 1093.16" fill="#E60012"/>
<path d="M985.481 294.941C982.572 289.258 976.093 286.35 969.878 288.068C863.563 318.072 781.976 303.269 720.355 242.599C570.536 95.6174 455.758 65.3487 301.046 75.7908C304.088 70.2393 306.204 64.1591 307.129 57.5502C308.981 44.2003 305.41 30.8504 297.212 20.0118C289.013 9.17321 276.848 2.03562 263.625 0.449487C235.591 -3.25149 209.806 16.3108 206.104 44.0681C204.253 57.6824 207.823 71.1645 216.153 82.0031C219.724 86.6293 224.087 90.5947 228.848 93.6347L8.01965 868.725C6.03616 875.862 10.1355 883.264 17.2761 885.247C17.805 885.379 18.3339 885.511 18.8628 885.643C25.4744 886.701 31.9538 882.735 33.9373 876.127L160.484 431.877C228.187 395.661 279.625 384.426 342.7 392.488C367.559 395.529 399.956 409.936 434.205 425.004C486.701 448.135 546.073 474.306 608.487 476.289C705.281 479.461 801.546 452.894 982.043 311.464C987.068 307.498 988.655 300.493 985.745 294.809" fill="#E60012"/>
<path d="M701.579 261.765C527.958 91.5197 405.775 89.9335 252.914 107.249L170.401 396.718C232.418 367.11 285.047 358.254 346.006 365.921C374.965 369.622 407.362 383.897 444.916 400.551C495.164 422.625 552.024 447.739 609.148 449.589C693.512 452.233 773.777 432.009 917.778 326.399C830.108 338.295 757.513 316.75 701.579 261.632M366.766 199.112L348.254 262.293C345.741 271.149 338.204 271.017 336.882 271.017C329.212 270.753 326.568 262.69 326.039 259.782L318.237 213.652L306.468 258.989C305.146 264.144 301.179 269.431 293.906 269.034C287.295 268.77 284.386 263.483 283.592 259.65L271.162 195.147C271.162 194.09 271.03 193.164 271.162 192.239C271.427 187.216 274.204 183.78 279.096 184.044C282.666 184.044 284.914 186.555 285.708 191.314L295.89 244.714L308.716 194.354C309.51 191.314 312.419 185.762 319.824 186.027C324.849 186.291 328.948 190.124 329.741 195.279L338.072 246.564L352.353 194.354C353.014 191.843 354.336 187.481 360.022 187.745C365.841 188.009 367.56 192.371 367.427 196.601C367.427 197.658 367.163 198.848 367.031 199.377M407.494 257.006L381.444 251.19C381.047 254.627 379.857 265.069 390.171 267.448C393.477 268.241 395.989 267.712 399.956 264.012C403.13 261.104 404.585 260.575 407.494 261.236C410.932 262.029 412.386 265.73 411.593 269.034C410.006 276.304 399.163 282.781 386.998 280.005C378.403 278.022 363.46 269.563 369.014 244.581C374.171 221.45 388.849 216.031 399.956 218.542C412.386 221.318 420.717 233.743 417.411 247.754C415.824 254.891 412.783 258.328 407.494 257.138M435.395 287.407C434.601 289.654 431.428 292.958 427.461 291.637C423.891 290.447 422.039 286.746 423.229 282.913L445.444 216.163C446.502 212.859 450.205 210.612 453.643 211.801C457.213 212.991 458.932 216.824 457.742 220.129L435.263 287.539L435.395 287.407ZM506.668 273.264C504.817 277.494 500.85 278.287 497.809 276.833C495.825 275.908 494.767 275.114 493.709 270.092C492.784 265.465 491.197 263.218 487.494 261.632C479.164 258.064 472.288 266.523 469.246 273.396C466.073 280.666 465.279 291.372 473.742 295.205C476.651 296.395 479.032 297.056 484.189 294.016C487.494 292.033 489.346 291.637 491.726 292.694C495.693 294.545 496.222 298.51 494.899 301.55C493.18 305.647 480.883 312.917 467.792 307.234C455.494 301.947 448.883 286.614 457.081 267.713C461.709 257.138 473.61 241.013 493.974 249.869C502.172 253.437 510.106 265.069 506.536 273.132M557.445 318.733C550.701 330.1 536.685 342.657 517.511 331.554C498.734 320.451 502.833 302.079 509.577 290.315C516.453 278.815 530.602 266.391 549.644 277.494C568.288 288.597 564.189 307.234 557.445 318.733ZM643.264 338.692L625.942 375.702C624.355 379.27 620.388 380.724 617.214 379.138C613.115 377.156 613.379 372.265 614.437 370.15L629.115 338.824C632.289 331.819 626.471 329.043 625.28 328.514C616.818 324.549 612.322 332.48 611.264 334.594L598.173 362.616C596.586 365.921 592.619 367.507 588.917 365.788C584.95 363.938 585.082 359.047 586.007 357.065L601.082 325.871C604.388 318.865 598.173 316.09 596.851 315.561C588.52 311.463 583.892 319.526 582.966 321.641L569.875 349.663C568.288 353.099 564.453 354.553 561.148 352.967C557.181 351.117 557.181 346.358 558.239 344.111L575.693 306.705C576.222 305.515 577.148 301.682 577.941 298.774C578.867 295.073 583.098 293.884 586.801 295.602C591.429 297.849 591.297 301.814 591.164 303.797C594.47 302.607 598.437 301.153 607.429 305.119C611.264 306.969 615.892 310.142 617.082 316.222C619.066 315.296 623.826 312.785 633.214 317.411C643.925 322.698 646.967 330.893 643.264 338.824M694.835 366.317C692.983 373.322 690.074 376.759 684.785 375.437L658.867 368.564C658.338 372.001 656.752 382.311 667.066 385.086C670.239 386.012 672.752 385.615 676.983 382.046C680.289 379.27 681.876 378.874 684.52 379.535C687.959 380.46 689.281 384.293 688.355 387.465C686.372 395.132 675.397 400.683 663.363 397.511C654.768 395.264 639.694 386.54 646.305 361.294C652.388 338.428 667.595 333.669 678.702 336.577C691 339.882 698.405 352.438 694.702 366.317M720.62 322.566C728.157 323.491 728.818 329.704 727.364 336.181L717.446 379.006C716.785 381.914 715.463 383.5 713.083 383.236C710.57 382.839 709.512 380.989 709.645 377.949L710.967 334.066C711.099 328.779 712.818 321.641 720.62 322.566ZM710.041 406.103C704.884 405.442 701.314 400.815 701.975 395.661C702.636 389.977 707.397 386.54 712.421 387.069C717.711 387.73 721.678 392.356 720.884 398.04C720.223 403.195 715.331 406.631 709.909 405.97" fill="white"/>
<path d="M732.918 753.201C694.306 650.103 617.479 582.56 504.685 552.291C392.684 522.155 292.584 542.642 207.294 613.622C143.162 666.361 102.963 739.983 102.17 805.676C101.641 856.829 123.459 901.637 166.963 939.175C215.757 981.208 285.708 1015.44 374.833 1040.95C463.957 1063.16 541.71 1068.18 605.975 1055.76C662.438 1044.92 703.694 1016.63 728.686 972.087C760.686 914.722 762.273 830.922 732.918 753.333" fill="white"/>
<path d="M601.479 1265.92C598.569 1255.21 596.057 1245.83 594.602 1238.56C582.702 1177.49 566.437 1130.04 548.057 1093.03C542.9 1093.16 537.61 1093.29 532.321 1093.29C508.255 1093.29 482.998 1091.44 456.684 1088.01C454.304 1097.39 446.238 1115.9 421.246 1111.27C400.353 1107.44 375.494 1102.81 375.494 1102.81C375.494 1102.81 350.502 1098.19 329.609 1094.35C296.551 1088.27 305.675 1054.83 305.675 1054.83L306.336 1051C285.576 1043.33 266.27 1035.14 247.889 1026.41C212.319 1064.88 173.178 1128.06 142.236 1232.21C141.046 1236.31 139.327 1241.33 137.475 1247.15C121.608 1295.66 88.6817 1396.64 138.93 1467.09C147.79 1479.39 158.897 1490.36 172.253 1499.87C218.666 1515.6 302.766 1543.62 328.022 1545.87C328.419 1545.87 328.816 1546.14 329.212 1546.14C341.113 1546.93 353.543 1547.59 366.502 1547.72C444.519 1548.78 504.817 1537.68 547.131 1514.54C571.991 1487.45 597.776 1457.84 610.867 1442.77C632.818 1383.42 613.776 1311.78 601.346 1265.65" fill="white"/>
<path d="M375.229 883.661C371.262 898.861 385.411 915.515 406.833 921.596C427.857 927.147 448.353 919.613 452.849 904.016C456.949 888.815 442.535 872.029 421.378 866.345C400.089 860.662 379.196 868.46 375.097 883.661" fill="#E60012"/>
<path d="M481.412 942.48C480.089 943.67 448.354 972.881 397.048 958.87C345.477 945.256 331.857 904.148 331.328 902.43C328.948 894.632 320.749 890.138 312.815 892.649C305.014 895.028 300.65 903.223 303.03 911.022C303.824 913.401 321.543 969.444 389.378 987.42C401.94 990.857 413.709 992.179 424.42 992.179C471.759 992.179 500.453 965.215 501.908 963.761C507.726 958.077 507.858 948.824 502.304 943.009C496.751 937.193 487.362 936.928 481.412 942.48Z" fill="#E60012"/>
<path d="M392.419 767.344C420.32 742.231 428.122 700.991 401.014 674.688C396.386 670.59 389.907 667.55 383.56 664.246C377.742 663.056 372.452 660.809 366.37 660.809C341.378 659.884 319.163 667.418 295.625 675.481C281.08 680.371 266.799 687.773 253.311 694.382C224.617 709.054 203.724 737.604 202.005 771.31C200.947 790.343 209.013 806.469 221.972 820.083C234.27 832.905 252.782 839.117 269.708 836.605C295.758 832.64 311.361 817.44 332.386 804.09C351.956 791.401 374.436 782.677 392.287 767.212M326.039 752.012C328.022 744.61 335.427 740.38 342.7 742.363C350.237 744.346 354.601 751.747 352.618 759.017C350.634 766.551 343.229 770.517 335.824 768.666C328.419 766.684 324.055 759.414 326.039 752.012Z" fill="#E60012"/>
<path d="M652.653 800.653C644.719 787.964 635.463 774.482 625.281 762.982C608.884 744.213 593.545 727.03 570.933 715.134C565.644 712.226 560.09 711.301 554.536 709.318C547.793 709.054 540.652 708.657 534.569 709.847C497.544 719.231 484.057 759.017 495.825 795.101C503.23 817.175 519.098 835.548 529.677 856.696C541.049 878.373 546.999 899.39 567.628 915.78C581.247 926.486 600.421 930.319 617.347 925.296C635.33 920.009 650.802 909.832 659.132 892.913C674.339 862.776 670.24 827.485 652.521 800.653M560.751 814.532C558.768 821.934 551.495 826.163 544.09 824.181C536.553 822.198 532.189 814.928 534.173 807.526C536.156 800.256 543.561 795.895 551.099 797.877C558.504 799.86 562.735 807.262 560.751 814.532Z" fill="#E60012"/>
</svg>
