<svg width="806" height="1304" viewBox="0 0 806 1304" fill="none" xmlns="http://www.w3.org/2000/svg">
<path d="M754.635 206.461C777.374 176.849 804.401 126.586 779.193 76.7133C745.409 10.0864 637.821 -16.9281 597.411 12.1644C585.457 20.8662 575.842 30.8667 568.175 40.9971C518.929 20.7363 463.836 10.3461 403.155 9.95648C342.475 10.2162 287.511 20.7363 238.265 40.9971C230.599 30.8667 221.113 20.8662 209.029 12.2943C168.619 -16.7982 61.0311 10.2162 27.2475 76.8432C1.90975 126.846 29.0666 176.979 51.8056 206.591C6.19768 283.997 -10.0445 369.976 8.53654 442.188C22.3099 495.697 54.924 539.725 103.52 571.416C96.5039 584.143 89.3574 599.859 83.1204 619.21C62.7203 681.032 84.8096 728.957 117.294 763.634C116.254 767.14 115.215 770.517 114.175 774.154C112.876 778.57 111.317 783.895 109.368 790.129C92.216 845.716 58.1725 956.891 107.289 1045.86C107.029 1055.08 107.289 1067.81 107.289 1086.12C107.289 1086.12 108.198 1127.81 130.677 1198.59C143.281 1238.46 170.178 1294.05 212.797 1301.2C284.133 1313.92 313.499 1280.67 319.996 1244.18C324.413 1220.02 323.634 1184.44 314.018 1161.06C341.435 1164.69 371.191 1166.51 403.415 1166.51C435.639 1166.51 465.265 1164.56 492.812 1161.06C483.196 1184.31 482.417 1220.02 486.835 1244.18C493.461 1280.67 522.697 1313.92 594.033 1301.2C636.652 1294.05 663.549 1238.46 676.153 1198.59C698.632 1127.94 699.541 1086.12 699.541 1086.12C699.541 1067.81 699.671 1054.95 699.541 1045.86C748.658 956.761 714.484 845.586 697.333 790.129C695.384 783.895 693.824 778.57 692.525 774.154C691.485 770.517 690.446 767.27 689.406 763.764C721.891 729.086 743.98 681.162 723.58 619.34C717.213 599.859 710.066 584.143 703.18 571.416C751.646 539.725 784.39 495.697 798.164 442.188C816.745 370.106 800.503 284.127 754.895 206.461" fill="#E60012"/>
<path d="M256.196 70.9986C263.473 86.8436 265.942 98.6624 265.942 98.6624L76.7535 232.696C39.9813 299.712 26.5978 373.742 41.9304 433.486C56.0935 488.554 92.4759 530.634 150.038 558.428C215.266 589.988 302.844 607.261 403.415 608.56C503.856 607.261 591.434 589.988 656.662 558.428C714.224 530.634 750.607 488.684 764.77 433.616C780.102 373.742 766.719 299.712 729.947 232.696L540.629 98.6624C540.629 98.6624 543.097 86.8436 550.374 70.9986C506.195 53.595 457.209 44.5037 403.155 44.2439C349.231 44.5037 300.245 53.595 256.196 70.9986Z" fill="white"/>
<path d="M250.349 1112.48C291.799 1125.47 342.864 1132.1 403.285 1132.1C463.706 1132.1 514.641 1125.47 556.091 1112.48C605.207 1078.33 669.656 1025.86 670.435 1025.86C670.435 1025.86 670.565 1025.86 670.695 1025.86C709.936 949.748 679.401 850.392 664.068 800.389C662.769 796.363 661.73 792.726 660.69 789.349C649.256 798.051 637.691 805.584 627.166 811.558C574.022 841.82 511.262 863.639 470.332 820.26C416.019 763.114 534.001 687.266 550.763 668.693C565.576 652.329 571.293 637.003 572.073 623.496C521.398 635.445 464.745 642.198 403.415 642.848H403.025C341.695 642.198 285.042 635.445 234.367 623.496C235.146 636.873 240.864 652.329 255.806 668.693C272.568 687.136 390.421 762.984 336.237 820.26C295.177 863.509 232.418 841.82 179.403 811.558C168.749 805.454 157.184 798.051 145.75 789.219C144.71 792.596 143.671 796.233 142.371 800.259C126.909 850.262 96.5036 949.618 135.745 1025.73C135.745 1025.73 135.874 1025.73 136.004 1025.73C136.784 1025.73 201.103 1078.2 250.349 1112.35" fill="white"/>
<path d="M403.155 483.618C380.156 483.618 361.315 496.996 361.315 513.62C361.315 530.244 380.156 543.622 403.155 543.622C426.154 543.622 445.125 530.114 445.125 513.62C445.125 497.126 426.414 483.618 403.155 483.618Z" fill="#E60012"/>
<path d="M312.589 326.337C307.262 323.48 300.505 322.181 294.138 320.752C288.291 321.272 282.834 320.623 277.246 322.051C253.858 327.766 235.277 339.585 215.266 352.962C203.052 361.014 191.488 371.534 180.833 381.145C157.704 401.796 145.23 433.226 151.857 465.306C155.495 482.969 167.32 495.827 182.652 505.308C197.205 514.14 216.176 515.308 230.859 508.944C254.377 498.684 265.162 480.631 281.014 463.358C296.217 446.603 315.058 433.356 327.402 414.524C347.152 384.133 344.554 344.13 312.589 326.467M264.123 442.058C253.858 442.058 245.022 433.616 245.022 423.096C245.022 412.576 253.728 404.263 264.123 404.263C274.518 404.263 283.093 412.705 283.093 423.096C283.093 433.486 274.648 442.058 264.123 442.058Z" fill="#E60012"/>
<path d="M625.607 381.015C614.953 371.405 603.388 360.884 591.174 352.832C571.164 339.455 552.583 327.636 529.194 321.921C523.607 320.493 518.149 321.142 512.302 320.623C505.935 322.051 499.179 323.35 493.851 326.207C462.017 343.871 459.288 384.003 479.038 414.264C491.382 432.966 510.353 446.344 525.426 463.098C541.278 480.371 552.063 498.424 575.582 508.685C590.265 515.049 609.235 513.88 623.788 505.048C639.121 495.567 650.815 482.709 654.583 465.046C661.21 432.966 648.736 401.536 625.607 380.886M542.318 441.668C531.793 441.668 523.347 433.226 523.347 422.706C523.347 412.186 531.793 403.874 542.318 403.874C552.843 403.874 561.418 412.316 561.418 422.706C561.418 433.096 552.713 441.668 542.318 441.668Z" fill="#E60012"/>
<path d="M463.576 807.662L462.146 805.584C456.039 796.492 457.079 785.713 459.158 780.648C462.536 772.725 462.536 762.854 462.146 746.1C461.886 735.71 458.508 729.995 455.13 726.878C455.13 721.294 455.13 711.683 455.13 701.682C455.13 685.707 455 668.174 454.61 662.329C454.61 661.81 454.09 661.031 453.7 660.251C453.311 659.472 452.791 658.823 452.791 658.823H403.155H353.519C353.519 658.823 353.129 659.602 352.609 660.381C352.09 661.161 351.7 661.94 351.7 662.459C351.31 668.304 351.18 685.837 351.18 701.812C351.18 712.072 351.18 721.683 351.18 727.268C347.672 730.515 344.423 736.1 344.164 746.23C343.774 763.504 343.644 772.855 347.152 780.777C349.361 785.713 350.271 796.363 344.164 805.584L342.734 807.792C334.808 819.351 316.097 846.235 334.288 880.004C346.372 902.602 372.88 906.758 373.659 906.888C374.049 906.888 384.314 908.966 402.895 908.447C405.234 908.447 407.443 908.447 409.522 908.447C424.205 908.447 432.131 906.888 432.261 906.758C433.43 906.628 459.807 902.472 472.022 879.874C490.083 846.106 471.502 819.091 463.446 807.532" fill="#E60012"/>
<path d="M454.48 814.026L452.921 811.818C444.865 799.739 445.124 785.323 449.023 776.361C451.361 770.777 451.491 762.984 451.102 746.49C450.842 737.398 447.593 734.411 445.774 734.151L429.922 730.255C421.736 729.995 412.25 729.736 403.415 729.736C394.579 729.736 385.224 729.995 377.038 730.255L361.835 734.022C359.236 734.411 355.988 737.398 355.728 746.49C355.338 763.504 355.338 770.907 357.807 776.361C361.575 784.933 361.965 799.739 353.779 811.818L352.22 814.156C344.293 825.715 329.481 847.015 344.293 874.808C353.779 892.472 375.608 895.978 375.868 895.978C376.258 895.978 385.613 897.927 403.155 897.407C420.826 898.056 430.312 895.978 430.442 895.978C430.961 895.978 452.791 892.342 462.276 874.808C477.219 847.015 462.276 825.585 454.35 814.026" fill="white"/>
<path d="M394.709 849.482C394.709 852.47 398.607 855.067 403.155 855.067C407.833 855.067 411.731 852.47 411.731 849.482C411.731 846.495 407.833 843.898 403.155 843.898C398.477 843.898 394.579 846.365 394.579 849.612" fill="#E60012"/>
<path d="M403.285 870.523C386.523 870.523 378.987 861.561 378.597 861.301C377.428 859.873 377.557 857.795 378.987 856.756C380.416 855.587 382.365 855.717 383.535 857.145C383.794 857.405 389.642 864.029 403.285 864.029C416.798 864.029 422.646 857.405 422.906 857.145C424.075 855.717 426.154 855.587 427.453 856.756C428.883 857.924 429.013 860.002 427.843 861.301C427.583 861.691 419.917 870.523 403.285 870.523Z" fill="#E60012"/>
<path d="M352.739 841.3C353.519 845.326 356.118 848.443 359.626 850.651C363.004 852.729 367.422 853.119 370.8 851.69C376.258 849.482 378.857 845.326 382.625 841.3C386.133 837.534 390.551 834.547 393.539 830.131C398.217 823.247 397.697 814.026 390.421 809.74C389.252 808.961 387.692 808.701 386.133 808.441C384.834 808.441 383.534 808.441 382.235 808.571C376.778 809.87 372.49 812.467 367.812 815.455C364.953 817.273 362.225 819.74 359.626 821.818C354.298 826.494 351.18 833.767 352.609 841.17M380.806 827.533C380.806 826.104 382.235 825.065 383.534 825.195C384.964 825.455 386.003 826.624 385.873 828.053C385.743 829.481 384.444 830.65 383.015 830.39C381.585 830.261 380.546 828.832 380.676 827.533" fill="#E60012"/>
<path d="M446.814 821.818C444.215 819.74 441.487 817.273 438.628 815.454C433.95 812.467 429.662 809.74 424.205 808.441C422.906 808.181 421.606 808.441 420.307 808.311C418.748 808.571 417.189 808.961 416.019 809.61C408.613 813.896 408.223 823.117 412.901 830.001C415.889 834.287 420.307 837.274 423.945 841.04C427.583 845.066 430.312 849.223 435.769 851.43C439.148 852.859 443.566 852.469 446.944 850.391C450.452 848.054 453.051 845.066 453.831 841.04C455.26 833.637 452.272 826.364 446.814 821.689M423.296 830.26C421.866 830.52 420.697 829.351 420.437 827.923C420.307 826.494 421.346 825.195 422.776 825.065C424.205 824.935 425.504 825.974 425.634 827.403C425.764 828.832 424.855 830.131 423.296 830.26Z" fill="#E60012"/>
<path d="M428.103 756.361C427.063 756.361 426.154 757.27 426.154 758.309C426.154 759.348 427.063 760.127 428.103 760.127C429.142 760.127 430.182 759.218 430.182 758.179C430.182 757.14 429.272 756.361 428.103 756.231M428.103 759.867C427.193 759.867 426.284 759.088 426.284 758.179C426.284 757.14 427.063 756.49 428.103 756.49C429.012 756.49 429.792 757.27 429.792 758.179C429.792 759.088 429.012 759.867 428.103 759.867Z" fill="#E60012"/>
<path d="M429.142 758.958C429.142 758.958 429.142 758.568 429.142 758.438C429.142 758.309 429.012 758.179 428.753 758.049C428.882 758.049 429.142 757.919 429.142 757.659C429.142 757.659 429.142 757.399 429.142 757.27C429.142 757.01 428.753 756.88 428.623 756.88H427.323V759.218H427.843V758.309H428.493C428.493 758.309 428.753 758.438 428.753 758.568C428.753 758.698 428.753 758.958 428.753 758.958V759.088H429.272C429.272 759.088 429.272 759.088 429.272 758.828M428.493 757.789H427.843V757.14H428.493C428.493 757.14 428.753 757.27 428.753 757.399C428.753 757.659 428.623 757.659 428.493 757.659" fill="#E60012"/>
<path d="M400.686 746.23C398.607 746.879 397.048 749.087 396.788 751.165C396.788 751.945 396.788 752.464 396.788 753.243C396.918 754.542 398.217 755.062 398.997 755.841C399.127 756.231 399.387 756.88 399.907 757.01C400.296 757.14 400.686 757.01 400.946 756.62C402.375 754.542 402.765 751.815 403.675 749.477C403.675 749.087 404.194 749.217 404.454 748.828C404.454 748.568 404.454 748.308 404.454 748.048C404.714 748.048 404.974 748.048 405.234 748.308C406.144 748.957 406.663 749.996 406.663 751.036C406.663 753.893 403.805 755.841 401.466 756.88C401.466 756.88 401.986 756.88 402.245 756.88C404.454 757.01 406.533 756.49 407.963 754.932C409.392 753.373 409.782 751.036 408.872 749.217C407.313 746.36 403.545 745.451 400.686 746.49M400.037 753.893C400.037 753.893 399.517 754.153 399.387 754.023C398.477 753.503 398.607 752.464 398.737 751.685C399.127 750.386 400.166 748.957 401.466 748.698C401.466 750.516 400.556 752.204 400.037 753.893Z" fill="#E60012"/>
<path d="M394.189 749.347C393.41 749.087 392.89 748.698 392.11 748.698C391.59 749.217 390.941 749.217 390.421 749.217V748.568C390.421 748.568 391.461 748.308 391.98 748.308C392.37 748.438 392.76 748.698 393.15 748.308C393.41 748.048 393.41 747.529 393.54 747.269C393.28 746.36 392.5 745.581 391.72 745.321C391.201 745.191 391.071 745.581 390.811 745.71C390.681 745.71 390.421 745.71 390.421 745.71C390.161 745.191 390.811 745.061 390.941 744.671C390.941 744.412 390.941 744.022 390.811 743.892C390.161 743.632 389.511 743.243 388.862 742.983C388.082 742.723 387.822 743.632 387.432 744.152C387.692 744.412 387.562 744.801 387.692 745.191C387.562 745.581 387.692 746.1 387.432 746.36C387.432 746.36 387.043 746.36 386.913 746.23C386.133 746.23 386.263 747.139 386.003 747.399C385.873 747.269 385.743 747.009 385.613 746.879C385.094 746.36 384.964 745.84 384.704 745.451C384.574 745.321 384.314 745.451 384.054 745.451C383.404 745.451 383.664 746.49 382.885 746.36C382.365 746.49 381.975 745.84 381.325 745.84C380.806 745.84 380.416 746.23 380.156 746.749C380.156 747.009 379.896 747.269 380.156 747.659C380.416 749.087 380.416 750.776 380.156 752.334C379.766 753.243 380.546 753.893 380.546 754.672C380.936 755.191 381.715 754.932 382.235 754.932C382.625 754.932 382.625 754.282 382.625 753.893C382.625 753.633 383.015 753.893 383.145 753.893C383.404 754.152 383.794 754.542 384.184 754.542C384.704 754.542 385.224 754.412 385.483 754.023C385.613 753.373 385.743 752.594 385.743 751.945C385.743 752.074 385.743 752.334 385.743 752.464C386.003 752.854 386.263 753.373 386.653 753.373C387.043 753.373 387.043 752.724 387.562 752.854C387.562 753.763 387.562 754.932 387.562 755.711C387.562 756.23 387.562 756.75 387.173 757.14C387.043 757.14 386.653 757.14 386.523 757.01C386.523 756.36 386.523 755.711 386.393 755.062C386.393 754.672 386.133 754.152 385.613 754.023C385.094 754.802 384.314 754.802 383.404 755.191C383.275 755.191 383.015 755.451 383.145 755.711C383.404 756.88 382.495 757.919 383.015 758.958C383.404 759.477 384.054 759.737 384.834 759.607C385.483 759.348 386.133 758.698 386.263 758.049C387.692 758.438 386.783 760.516 388.212 760.646C388.992 760.776 389.641 760.646 389.901 760.127C390.031 758.308 390.031 756.49 389.901 754.672C390.161 753.893 389.122 752.334 390.551 752.464C391.331 752.204 392.11 752.724 392.89 753.243C393.28 753.373 393.669 753.243 393.929 753.243C394.449 752.984 394.839 752.464 394.839 751.815C394.839 751.165 394.449 750.516 393.799 750.126M382.755 751.815H382.235C382.235 751.035 382.105 749.996 382.235 749.217C382.365 749.217 382.365 749.217 382.495 749.217C382.495 749.477 382.755 749.737 382.755 750.126C382.755 750.776 382.755 751.295 382.625 751.815M387.173 750.256C387.173 750.256 386.393 750.386 386.133 750.256C386.003 750.256 385.873 749.996 385.743 749.996C385.354 750.256 385.224 750.646 385.094 751.035C385.094 750.386 385.094 749.607 385.094 748.827H385.483C385.483 748.827 385.613 749.347 385.873 749.737C386.003 749.737 386.263 749.867 386.393 749.737C386.653 749.737 386.783 749.477 386.913 749.217C386.913 749.477 387.043 749.737 386.913 749.996" fill="#E60012"/>
<path d="M391.071 752.594C391.071 752.594 390.941 753.373 390.811 753.763C390.811 755.581 390.811 757.529 392.24 758.698C392.76 758.958 393.41 758.828 393.93 758.568C394.319 758.179 394.579 757.659 394.449 757.01C394.319 755.191 392.76 753.373 390.941 752.724" fill="#E60012"/>
<path d="M426.154 749.477C425.894 748.178 424.465 748.568 423.815 747.788C423.425 747.788 423.165 748.048 422.906 748.308C421.866 748.438 420.827 748.568 419.787 748.568V748.178C420.827 747.918 421.736 747.918 422.776 748.048C423.165 747.918 423.425 747.529 423.425 747.139C423.425 746.23 422.386 746.1 421.736 745.84C421.216 746.36 420.437 746.36 419.787 746.49C419.787 746.23 419.787 746.1 419.787 745.84C420.437 745.58 421.216 745.581 421.996 745.581C422.516 745.581 423.295 746.1 423.685 745.581C423.685 745.321 423.945 745.061 423.815 744.801C423.685 744.282 423.035 744.022 422.516 743.892C421.736 743.243 421.346 744.412 420.697 744.412C420.437 744.412 420.177 744.412 419.917 744.282C420.047 744.022 420.567 743.762 420.437 743.243C420.307 743.243 420.307 742.983 420.177 742.983H418.878C418.878 742.983 417.968 742.334 417.708 742.593C417.058 742.983 417.058 743.892 417.188 744.541C416.409 744.801 415.239 745.061 414.46 744.541C414.07 744.541 413.68 745.061 413.55 745.321C413.29 746.36 414.59 746.23 414.979 746.62C415.629 746.62 416.149 745.97 416.928 746.1C417.188 746.1 417.318 746.23 417.318 746.49C416.799 747.009 415.889 746.879 415.109 746.879C414.72 746.879 414.59 746.62 414.2 746.879C413.94 747.009 413.81 747.269 413.68 747.659C413.94 748.308 414.46 748.827 415.109 748.957C415.629 749.217 415.629 748.308 416.279 748.438C416.539 748.438 416.928 748.308 417.188 748.438C417.188 748.568 417.188 748.827 417.188 748.957C415.889 749.087 414.46 749.347 413.03 749.347L412.381 749.087C412.381 749.087 411.211 749.217 410.951 749.607C410.691 750.646 411.471 751.425 412.251 751.944C412.511 752.074 412.77 751.944 413.03 751.944C413.29 751.685 413.55 751.425 413.68 751.165C414.33 751.035 414.979 750.776 415.629 751.035C415.629 751.035 415.629 751.295 415.369 751.425C414.979 751.425 414.59 751.685 414.07 751.425C413.81 751.944 413.03 751.945 413.03 752.594C413.03 752.854 413.16 753.113 413.42 753.243C414.07 753.243 414.849 753.113 415.629 753.113C415.889 752.984 416.409 753.113 416.539 753.113C416.149 753.633 415.239 753.503 414.59 753.633C414.07 753.633 413.29 753.373 412.9 753.763C412.771 753.893 412.771 754.152 412.9 754.282C413.29 754.672 412.9 755.321 413.29 755.711C413.81 756.101 414.07 755.451 414.33 755.711C414.07 756.62 413.03 756.23 412.381 756.75C412.251 756.88 412.121 757.14 412.251 757.399C412.641 758.049 412.381 758.958 413.16 759.607C413.42 759.997 413.81 759.867 414.2 759.867C414.979 759.737 415.369 758.958 415.629 758.308C415.759 758.049 415.629 757.659 415.889 757.529C417.448 757.789 416.409 759.737 417.838 759.867C418.618 759.867 419.657 760.127 420.047 759.347C420.437 758.049 420.047 756.88 420.177 755.451C420.177 755.451 420.437 755.321 420.567 755.191C420.827 754.932 420.437 754.802 420.307 754.542C420.437 754.542 420.697 754.282 420.827 754.282C421.866 753.763 422.386 754.932 423.425 754.802C423.815 754.802 424.075 754.672 424.335 754.282C424.595 753.893 424.725 753.373 424.595 752.724C424.335 752.074 423.555 751.555 422.906 751.295C422.516 751.165 421.996 751.165 421.606 750.905C421.736 750.646 421.996 750.776 422.126 750.646C422.386 750.646 422.126 750.256 422.126 749.996C423.295 749.737 423.815 751.165 424.595 751.555C424.855 751.555 425.244 751.555 425.374 751.555C426.154 751.035 426.154 750.256 426.154 749.477ZM416.279 756.62C416.279 756.62 415.759 756.62 415.499 756.62C415.239 756.36 415.109 755.971 414.979 755.711C415.369 755.321 416.019 755.451 416.539 755.451C416.539 755.841 416.799 756.62 416.279 756.75M417.838 751.295C417.838 751.295 417.838 751.295 417.578 751.295C417.578 750.776 417.968 750.516 418.488 750.646C418.488 750.905 418.098 751.295 417.838 751.295ZM419.137 753.243C419.137 753.243 419.917 752.204 420.437 752.334C420.437 752.464 420.567 752.854 420.697 753.113C420.177 753.243 419.657 753.373 419.137 753.373" fill="#E60012"/>
<path d="M421.866 754.932C421.866 754.932 421.086 754.672 420.696 754.932C420.696 755.581 420.696 756.101 420.826 756.75C421.216 757.919 421.736 759.478 423.035 759.997C423.555 759.997 424.205 759.997 424.594 759.478C425.114 758.958 425.244 758.439 425.114 757.789C424.724 756.231 423.295 755.321 421.866 754.932Z" fill="#E60012"/>
</svg>
