<svg width="1316" height="1439" viewBox="0 0 1316 1439" fill="none" xmlns="http://www.w3.org/2000/svg">
<path d="M188.155 528.393C183.737 529.562 180.489 533.328 179.84 537.874C177.891 553.719 182.958 563.33 187.636 568.525C195.822 577.746 207.126 579.435 211.414 579.694L224.928 583.071C225.837 583.331 226.747 583.461 227.656 583.461C229.735 583.461 231.814 582.811 233.633 581.643C236.232 579.954 238.051 577.357 238.571 574.369C238.571 574.24 242.079 557.226 248.576 544.108C251.435 538.393 250.915 532.289 247.277 527.744C244.158 523.977 237.012 515.145 187.896 528.263" fill="#E60012"/>
<path d="M58.2177 464.104C53.2801 460.597 46.5234 461.376 42.7552 466.052L28.0722 484.364C26.9028 485.923 26.1233 487.611 25.7335 489.559L22.6151 508.651C21.7056 513.717 24.4344 518.652 29.242 520.73L56.6585 532.679C58.0879 533.328 59.6472 533.588 61.2064 533.588C64.195 533.588 67.1835 532.419 69.2625 530.081L93.0408 505.405C95.2497 503.067 96.4194 499.95 96.1595 496.703C95.8996 493.456 94.2104 490.599 91.6116 488.65L58.3478 463.974L58.2177 464.104Z" fill="#E60012"/>
<path d="M102.916 671.518H139.689C143.197 671.518 146.576 669.829 148.655 666.972L159.699 652.296C161.128 650.348 162.038 648.01 162.038 645.542V630.866C162.038 624.632 156.97 619.697 150.863 619.697H143.197L135.011 614.242C132.672 612.683 129.814 612.034 126.955 612.553L104.865 616.19C99.9278 617.099 96.1597 620.995 95.51 626.061L91.8718 659.049C91.4819 662.166 92.5217 665.413 94.6007 667.751C96.8096 670.089 99.7981 671.518 103.047 671.518" fill="#E60012"/>
<path d="M210.245 753.08C211.545 755.937 214.013 758.015 216.872 759.054L227.916 762.691C229.086 763.081 230.255 763.211 231.425 763.211C232.075 763.211 232.724 763.211 233.244 763.081L255.333 759.444C258.582 758.925 261.31 757.106 263 754.379C264.689 751.652 265.208 748.275 264.169 745.288L253.124 708.532C252.345 705.805 250.525 703.597 248.187 702.168C226.097 688.921 206.867 707.104 199.85 718.663C197.901 721.91 197.641 725.806 199.2 729.183L210.245 753.21V753.08Z" fill="#E60012"/>
<path d="M316.923 737.235C302.5 737.885 292.885 751.652 291.846 753.21C291.066 754.379 290.416 755.808 290.156 757.236L286.518 775.549C286.128 777.497 286.258 779.445 286.908 781.394L290.546 792.433C292.105 797.109 296.393 800.096 301.201 800.096C301.591 800.096 301.981 800.096 302.37 800.096L339.013 796.459C340.832 796.329 342.521 795.68 344.08 794.641C345.639 793.602 350.707 789.706 351.876 781.523C353.436 772.042 349.278 761.393 339.272 748.924C331.346 738.924 322.77 737.235 316.923 737.365" fill="#E60012"/>
<path d="M200.889 866.463C94.8606 844.644 49.5125 827.76 28.9824 814.252Z" fill="white"/>
<path d="M200.889 866.463C306.917 888.282 355.124 890.62 379.292 886.334Z" fill="white"/>
<path d="M1244.93 271.626C1191.92 197.206 1123.31 147.723 1040.15 123.306C1040.93 87.3299 1034.3 43.6912 1001.56 21.4822C940.62 -19.8188 832.383 3.68899 815.491 47.5875C806.785 70.1861 804.317 97.4603 803.927 118.63C712.841 140.969 638.257 192.011 581.604 271.626C529.5 344.617 504.942 428.517 512.348 502.677C491.298 507.482 475.836 521.379 475.836 538.133C475.836 558.654 499.225 575.408 527.811 575.408C529.24 575.408 530.669 575.148 531.969 575.148C553.798 622.164 591.999 659.958 644.884 685.414C677.498 701.129 715.18 713.468 756.63 722.299C737.529 756.717 716.999 797.888 695.949 852.566C685.684 858.021 675.549 862.177 665.674 863.995C613.309 873.866 582.774 892.179 569.52 915.037C555.487 911.79 540.414 908.413 525.082 905.296C476.745 895.296 418.014 883.347 395.275 878.671C391.377 871.658 385.27 865.164 376.694 859.579C352.136 843.475 317.313 824.383 213.883 803.083C110.453 781.783 70.952 785.42 41.9761 790.615C17.418 795.03 3.90458 808.797 1.43578 831.656C-3.11202 876.853 11.3112 902.049 52.3713 919.323C92.7817 936.337 119.549 947.506 181.529 960.234C243.509 972.962 272.354 973.222 316.143 973.612H317.573H319.002C355.644 973.612 377.733 960.364 391.767 929.194L515.077 954.65C532.488 958.286 549.64 961.403 565.233 964.26C566.402 968.027 567.701 971.923 569.39 975.69C580.825 1001.54 614.998 1009.33 653.33 1008.16C646.833 1066.47 650.731 1139.85 693.091 1199.34C715.31 1230.64 745.975 1254.54 784.436 1271.16C784.176 1279.73 784.046 1287.39 783.657 1293.5C780.668 1338.96 807.695 1439.48 881.369 1438.05C910.735 1437.53 931.135 1424.55 945.558 1406.23C960.111 1421.82 978.692 1431.95 1001.82 1431.95C1074.85 1431.69 1092.91 1351.16 1099.79 1304.28C1101.48 1292.46 1104.21 1277.13 1105.51 1260.38C1126.04 1248.04 1143.97 1232.98 1158.91 1214.79C1235.45 1122.45 1216.09 979.976 1204.13 922.83C1191.27 860.878 1162.29 761.522 1135.01 703.987C1151.38 698.272 1166.97 692.168 1181.39 685.154C1247.66 653.205 1291.32 602.293 1307.95 537.874C1329 456.051 1305.35 356.565 1244.8 271.496" fill="#E60012"/>
<path d="M1023.13 730.612C988.568 735.547 951.926 738.404 913.464 738.794H913.074C884.618 738.404 857.202 736.716 830.824 733.988C820.04 744.379 800.939 758.535 773.782 763.73C765.596 779.445 757.28 796.589 748.704 815.811C773.782 795.81 798.34 774.77 820.819 763.081C860.32 742.301 897.352 753.86 921.39 791.524C949.327 834.903 935.164 874.386 900.73 907.894C853.043 954.26 763.257 985.95 763.257 985.95C743.896 993.353 716.739 1000.76 688.803 1004.91C682.046 1057.64 683.606 1126.35 721.287 1179.34C737.529 1202.2 759.489 1220.38 786.776 1234.15C792.883 1182.06 814.972 1125.05 905.148 1146.35C977.653 1163.36 988.568 1216.35 986.229 1262.07C1050.81 1255.06 1099.92 1231.94 1132.28 1192.84C1199.33 1112.06 1181.13 982.184 1170.22 930.103C1166.58 912.44 1161.38 891.14 1155.28 868.541C1137.74 855.034 1056.26 790.225 1023 730.741" fill="white"/>
<path d="M399.953 902.439C399.693 904.257 399.433 905.946 399.043 907.894L519.494 932.83C534.177 935.818 548.471 938.545 561.984 941.013C561.984 939.454 562.244 938.025 562.504 936.467C549.25 933.48 535.087 930.233 520.534 927.246C477.655 918.414 426.72 908.024 399.823 902.439" fill="white"/>
<path d="M366.689 912.569L369.547 898.932C365.129 899.322 360.322 899.452 355.254 899.452C321.34 899.452 270.405 892.309 198.68 877.503C108.633 858.93 53.5403 842.436 25.9937 825.552C24.9542 828.019 24.3042 830.877 24.0443 833.864C20.4061 869.061 29.6316 885.295 60.1668 898.153C100.447 915.037 126.305 925.947 186.206 938.285C245.977 950.623 274.043 950.753 316.533 951.143H317.832C317.832 951.143 318.742 951.143 319.132 951.143C345.379 951.143 359.932 943.35 369.937 922.57C367.338 919.972 365.909 916.336 366.689 912.569Z" fill="white"/>
<path d="M203.228 855.553C278.721 871.139 331.086 878.152 362.401 876.853C344.469 865.164 313.284 846.332 209.465 825.032C105.645 803.732 69.5225 808.668 48.4727 812.304C76.7989 825.811 127.604 840.098 203.228 855.553Z" fill="white"/>
<path d="M1216.87 291.497C1145.79 191.621 1043.53 140.709 913.204 139.93C783.007 140.58 680.876 191.621 609.671 291.497C562.114 358.254 539.245 436.959 547.171 503.456C566.402 508.911 579.915 522.288 579.915 538.004C579.915 548.264 574.198 557.485 564.843 564.239C576.017 586.967 591.869 606.839 612.399 623.852C671.781 621.125 697.379 584.5 697.639 584.11C702.836 576.447 713.361 574.369 721.027 579.564C728.693 584.759 730.772 595.279 725.575 602.942C724.405 604.631 702.056 636.58 653.849 650.867C655.928 652.036 657.878 653.205 660.087 654.244C725.315 685.804 812.892 703.078 913.464 704.376C1013.9 703.078 1101.48 685.804 1166.71 654.244C1224.27 626.45 1260.66 584.5 1274.82 529.302C1293.01 458.259 1270.92 367.085 1217 291.497" fill="white"/>
<path d="M857.071 420.075C845.117 409.425 832.253 397.736 818.739 388.645C796.39 373.709 775.73 360.591 749.613 354.227C743.506 352.669 737.399 353.318 731.032 352.799C723.755 354.487 716.349 355.786 710.372 359.033C675.029 378.774 671.78 423.322 694 457.09C707.773 478 728.823 492.936 745.715 511.509C763.386 530.86 775.341 550.862 801.588 562.291C817.83 569.434 839.01 568.135 855.122 558.265C872.273 547.744 885.267 533.328 889.425 513.717C896.831 478.13 882.798 443.063 857.201 419.945M765.725 483.845C755.85 483.845 747.404 475.663 747.404 465.662C747.404 455.662 755.72 447.609 765.725 447.609C775.73 447.609 783.916 455.662 783.916 465.662C783.916 475.663 775.86 483.845 765.725 483.845Z" fill="#E60012"/>
<path d="M232.334 740.482L239.091 739.313L233.244 720.092C228.956 719.572 225.058 722.819 222.459 725.806L228.696 739.183L232.464 740.482H232.334Z" fill="white"/>
<path d="M139.169 642.165C137.09 642.165 135.011 641.386 133.322 640.217L126.046 635.282L116.69 636.84L115.391 648.919H133.972L139.169 642.035V642.165Z" fill="white"/>
<path d="M204.528 553.589C207.517 557.096 213.104 557.355 213.104 557.355C214.014 557.355 214.923 557.355 215.833 557.745L219.601 558.654C220.77 554.368 222.46 549.303 224.409 544.238C218.431 544.757 210.505 546.186 202.189 548.134C202.579 550.472 203.359 552.42 204.658 553.719" fill="white"/>
<path d="M47.4342 496.183L46.1348 503.716L58.4789 509.041L67.8344 499.17L53.5413 488.521L47.4342 496.183Z" fill="white"/>
<path d="M321.731 762.691C320.042 760.613 318.613 759.574 317.963 759.574C316.404 759.574 313.675 761.782 311.726 763.99L309.127 776.588L329.137 774.64C328.358 772.172 326.409 768.276 321.861 762.691H321.731Z" fill="white"/>
</svg>
