<svg width="845" height="1444" viewBox="0 0 845 1444" fill="none" xmlns="http://www.w3.org/2000/svg">
<path d="M836.717 504.525C858.664 418.649 833.854 314.371 770.331 225.497C765.151 218.272 759.835 211.184 754.383 204.368C775.239 181.468 816.27 126.262 788.461 71.0565C757.381 9.1714 657.462 -16.0461 620.385 11.0798C592.985 30.7085 579.081 58.1069 572.674 75.2821C527.009 59.7427 476.981 51.7004 422.727 51.564C368.474 51.7004 318.446 59.7427 272.917 75.2821C266.51 58.1069 252.606 30.7085 225.07 11.0798C187.992 -16.0461 88.0733 9.1714 56.9934 71.0565C29.1851 126.262 70.216 181.468 91.0722 204.368C85.6196 211.184 80.3034 218.272 75.1234 225.497C11.6005 314.371 -13.2091 418.649 8.73768 504.525C24.6866 566.819 65.0361 616.981 125.424 650.65C110.293 662.372 88.346 684.046 66.3992 722.213C17.462 806.453 63.4001 880.197 107.975 925.452C89.5726 987.882 65.9901 1089.43 112.065 1172.86C111.792 1182.4 112.065 1195.89 112.065 1215.11C112.065 1215.11 113.155 1258.87 136.601 1333.16C149.824 1375 178.041 1433.35 222.889 1440.84C297.726 1454.2 328.397 1419.31 335.349 1381C339.984 1355.65 339.166 1318.3 329.079 1293.76C357.841 1297.58 389.057 1299.49 422.864 1299.49C456.67 1299.49 487.75 1297.44 516.649 1293.76C506.561 1318.16 505.743 1355.51 510.378 1381C517.33 1419.17 548.001 1454.2 622.838 1440.84C667.55 1433.35 695.767 1375 708.99 1333.16C732.436 1259 733.526 1215.11 733.526 1215.11C733.39 1195.89 733.662 1182.4 733.526 1172.86C779.601 1089.43 756.018 987.882 737.616 925.452C782.191 880.333 828.129 806.589 779.192 722.349C760.789 690.316 742.796 668.643 719.895 651.059C780.555 617.254 821.041 567.091 836.99 504.661" fill="#E60012"/>
<path d="M233.248 826.081C285.048 856.07 285.048 898.326 265.282 932.54C246.061 965.527 191.263 969.889 140.69 943.036C124.605 999.469 107.156 1084.25 142.053 1151.86C142.053 1151.86 142.189 1151.86 142.325 1151.86C143.143 1151.86 210.756 1207.07 262.283 1242.78C305.768 1256.41 359.339 1263.37 422.59 1263.37C485.84 1263.37 539.412 1256.41 582.897 1242.78C634.56 1206.93 702.036 1151.86 702.854 1151.86C702.854 1151.86 702.99 1151.86 703.127 1151.86C738.023 1084.39 720.575 999.469 704.49 943.036C653.917 969.889 599.118 965.664 579.898 932.54C560.132 898.326 560.132 856.07 611.932 826.081C626.245 817.766 643.148 811.36 660.46 806.998C641.921 760.516 622.019 723.848 602.117 694.678C574.309 701.357 544.592 706.537 513.103 709.945C512.285 721.258 507.105 744.704 476.98 744.704H367.927C337.938 744.704 332.622 721.258 331.94 709.945C300.451 706.537 270.871 701.357 243.062 694.678C222.888 724.121 202.986 760.925 184.583 806.998C201.895 811.36 218.662 817.766 233.112 826.081" fill="white"/>
<path d="M422.59 87.959C286.275 88.5043 179.267 141.802 104.567 246.625C47.9957 325.685 24.6859 421.102 43.7701 495.528C58.4921 553.324 96.6604 597.488 157.048 626.659C225.887 659.919 315.174 677.639 422.454 679.002C529.734 677.503 619.157 659.919 687.86 626.659C748.248 597.488 786.416 553.324 801.138 495.528C820.086 420.966 796.912 325.685 740.341 246.625C665.777 141.802 558.769 88.3679 422.181 87.959" fill="white"/>
<path d="M422.862 534.786C448.489 534.786 469.482 520.064 469.482 501.526C469.482 482.988 448.489 468.13 422.862 468.13C397.235 468.13 375.97 483.124 375.97 501.526C375.97 519.928 396.962 534.786 422.862 534.786Z" fill="#E60012"/>
<path d="M537.231 530.56C529.189 525.516 518.556 527.97 513.512 536.012C512.422 537.784 484.886 580.177 422.727 580.177C360.567 580.177 333.031 537.784 331.941 536.012C326.897 527.834 316.264 525.38 308.222 530.287C300.043 535.194 297.453 545.963 302.496 554.005C303.996 556.459 340.528 614.664 422.727 614.664C504.925 614.664 541.457 556.459 542.957 554.005C547.864 545.963 545.41 535.331 537.368 530.424" fill="#E60012"/>
<path d="M360.023 365.079C384.151 328.138 380.743 279.339 341.893 257.53C335.35 254.258 327.171 252.622 319.401 250.85C312.449 251.532 305.906 250.85 298.954 252.622C270.328 259.165 247.699 273.75 223.299 290.108C208.304 300.058 194.264 312.735 181.314 324.322C153.233 349.676 137.829 387.979 146.144 426.827C150.643 448.637 164.683 464.177 183.631 475.627C201.352 486.531 224.389 487.895 242.383 480.261C270.873 467.857 283.959 445.775 303.452 424.51C321.855 404.336 344.892 387.979 360.023 365.079ZM280.551 367.669C280.551 358.808 287.64 351.584 296.636 351.584C305.633 351.584 312.994 358.672 312.994 367.669C312.994 376.665 305.77 383.753 296.636 383.753C287.503 383.753 280.551 376.801 280.551 367.669Z" fill="#E60012"/>
<path d="M663.868 324.322C651.055 312.735 637.014 300.058 621.883 290.108C597.483 273.75 574.991 259.165 546.228 252.622C539.412 250.85 532.733 251.532 525.781 250.85C518.011 252.759 509.696 254.258 503.289 257.53C464.439 279.339 460.895 328.138 485.159 365.079C500.29 387.979 523.327 404.336 541.73 424.51C561.223 445.775 574.309 467.857 602.799 480.261C620.793 487.895 643.693 486.531 661.551 475.627C680.362 464.177 694.539 448.637 698.901 426.827C707.217 387.979 691.813 349.539 663.732 324.322M548.546 383.617C539.412 383.617 532.188 376.665 532.188 367.532C532.188 358.399 539.276 351.448 548.546 351.448C557.815 351.448 564.631 358.536 564.631 367.532C564.631 376.529 557.542 383.617 548.546 383.617Z" fill="#E60012"/>
<path d="M767.877 823.901C748.112 789.687 664.005 796.093 612.069 826.082C584.261 842.166 571.447 861.795 568.584 881.833H495.247V859.478C593.939 824.991 599.937 723.031 599.937 721.804C599.937 718.805 598.983 715.943 596.938 713.762C594.893 711.581 592.031 710.354 589.032 710.354H585.351C584.942 707.219 584.397 704.22 583.443 701.085C575.4 676.821 562.723 660.737 547.864 649.696C547.046 646.424 545.547 643.289 543.502 640.154C536.141 629.249 522.101 620.798 505.879 617.526C489.658 614.391 473.3 616.708 462.395 624.069C462.122 624.205 461.849 624.478 461.577 624.751C424.09 622.706 402.416 630.203 394.237 634.02C385.104 638.245 374.471 644.107 367.247 651.468C365.066 651.195 362.885 650.922 360.704 650.922C342.165 650.922 325.807 660.873 318.446 675.595C294.591 674.095 274.143 689.771 270.19 710.217H256.15C253.151 710.217 250.288 711.444 248.243 713.625C246.199 715.806 245.108 718.669 245.244 721.668C245.244 722.894 251.242 824.855 349.934 859.341V881.696H276.597C273.734 861.659 260.921 842.166 233.112 825.945C181.176 795.957 97.2059 789.55 77.3039 823.764C57.5382 857.978 83.5745 910.049 135.374 940.037C177.768 964.573 224.388 966.618 250.697 947.943H594.348C620.793 966.754 667.277 964.573 709.807 940.037C761.607 910.049 787.643 857.978 767.877 823.764" fill="#E60012"/>
<path d="M637.832 905.005C637.832 905.005 636.605 903.642 634.833 903.642H210.484C208.712 903.642 207.757 904.596 207.621 905.005C207.076 905.823 207.212 906.505 207.348 906.777L210.62 915.092C213.346 921.772 220.298 926.27 228.205 926.27H617.248C625.155 926.27 632.107 921.772 634.833 915.092L638.241 906.777C638.241 906.505 638.65 905.823 637.968 905.005" fill="white"/>
<path d="M427.907 697.404C421.773 696.586 415.094 696.177 408.823 695.768C399.826 695.223 391.238 694.678 384.968 693.042C371.064 689.362 362.34 682.001 360.022 672.732C348.435 673.004 338.348 680.229 336.576 689.771C336.031 692.77 334.259 695.359 331.669 696.995C329.079 698.631 326.08 699.176 323.081 698.358C320.355 697.677 318.037 697.268 315.856 697.268C305.496 697.268 296.636 702.584 292.955 710.217H450.944C444.538 703.947 437.858 698.767 427.771 697.404" fill="white"/>
<path d="M390.557 672.05C394.782 673.141 402.552 673.686 410.05 674.095C416.865 674.504 424.09 674.913 430.77 675.867C450.944 678.593 462.94 691.134 471.664 700.13C476.844 705.583 480.525 709.127 483.933 710.354H563.95C563.405 708.173 562.45 706.128 561.496 704.22C557.815 694.269 553.181 685.954 547.183 678.866C545.683 677.094 544.32 675.322 542.548 673.686C541.73 674.777 540.776 675.731 539.686 676.821C538.459 677.912 537.232 678.866 535.869 679.82C531.098 682.955 525.372 685.136 519.102 686.363C515.558 687.045 512.013 687.454 508.197 687.59C507.651 687.59 507.242 687.59 506.697 687.59C502.062 687.59 497.292 687.181 492.52 686.227C483.796 684.455 475.754 681.183 469.074 676.821C463.213 673.141 458.169 668.643 454.898 663.599C452.035 659.374 450.399 654.875 449.854 650.377C449.717 649.014 449.581 647.651 449.581 646.151C446.719 646.151 443.856 646.151 441.266 646.288C424.227 647.106 411.413 650.104 403.643 653.649C387.967 661.009 383.196 666.053 381.969 667.961C383.059 668.915 385.649 670.278 389.466 671.505C390.011 671.642 390.284 671.778 390.829 671.914" fill="white"/>
<path d="M485.16 651.059C486.659 651.604 488.295 652.013 489.931 652.149C491.43 652.285 492.793 652.149 494.157 652.149C495.383 652.149 496.474 651.876 497.428 651.604C502.199 650.377 505.88 647.651 506.152 643.97C506.152 643.425 505.88 643.016 505.88 642.607C505.334 637.7 499.473 633.474 491.703 632.657C490.885 632.657 490.067 632.657 489.249 632.657C487.75 632.657 486.114 632.929 484.615 633.065C481.343 633.747 478.617 635.11 476.981 637.155C476.027 638.245 475.482 639.472 475.345 640.972C475.073 643.698 476.572 646.288 479.298 648.469C480.798 649.559 482.706 650.513 484.887 651.195" fill="white"/>
<path d="M371.88 865.475V881.696H473.435V865.475C458.304 868.747 441.538 870.655 422.59 870.655C403.642 870.655 386.875 868.747 371.744 865.475" fill="white"/>
<path d="M350.48 836.169C353.888 837.532 357.296 838.895 360.976 839.985C377.743 845.438 397.509 848.709 420.955 848.845C421.636 848.845 422.182 848.845 422.727 848.845C423.272 848.845 423.954 848.845 424.499 848.845C447.809 848.709 467.575 845.438 484.341 840.121C488.022 838.895 491.566 837.668 494.974 836.305C542.275 817.221 562.859 780.69 571.583 753.564C574.31 745.249 575.945 737.752 576.9 732.027H268.418C272.507 756.018 288.593 811.087 350.344 836.032" fill="white"/>
</svg>
