<svg width="886" height="1683" viewBox="0 0 886 1683" fill="none" xmlns="http://www.w3.org/2000/svg">
<path d="M263.746 374.287C288.738 373.362 323.118 382.35 359.217 391.734C414.623 406.142 477.433 422.532 539.45 414.601C635.583 402.176 726.427 360.672 881.932 192.278C886.295 187.652 886.692 180.514 882.857 175.227C879.023 170.072 872.147 168.354 866.328 170.998C766.229 217.524 683.187 215.938 612.707 165.975C441.334 44.9 323.25 33.1362 172.241 68.2955C174.357 62.3475 175.415 56.0029 175.282 49.3941C174.886 35.9119 169.332 23.2229 159.414 13.9704C149.497 4.58582 136.406 -0.569112 123.05 0.0917763C94.885 0.884842 72.5378 24.2803 73.1989 52.302C73.5956 66.0484 79.2816 78.8697 89.0668 88.1221C93.2982 92.2196 98.1908 95.2597 103.48 97.6389L12.1076 874.051C-11.4298 910.003 6.0249 958.909 29.2978 1001.47C47.1492 1033.85 96.0751 1094.92 153.332 1122.68C144.604 1148.98 136.67 1178.46 129.662 1211.24C128.869 1215.33 127.679 1220.36 126.224 1226.04C113.794 1278.51 88.8023 1385.45 145.133 1462.77C145.794 1470.96 146.985 1482.2 148.439 1498.19C148.439 1498.19 152.803 1535.47 178.456 1596.93C193.398 1631.16 222.093 1678.62 260.969 1681.66C325.63 1686.68 349.036 1654.03 351.812 1621.38C353.664 1598.65 349.697 1565.74 338.457 1545.78C347.449 1546.17 356.573 1546.7 366.094 1546.7C380.771 1546.7 396.11 1546.17 411.978 1545.12C498.855 1539.3 565.5 1520.14 611.649 1487.75C615.219 1510.88 637.963 1540.49 656.872 1556.22C681.996 1577.37 721.666 1583.71 763.848 1534.67C788.84 1504.8 775.749 1451.01 761.6 1416.51C736.344 1354.78 713.336 1325.17 713.336 1325.17C696.939 1305.88 688.476 1294.77 682.525 1289.88C676.311 1254.06 664.674 1221.81 655.815 1198.28C694.294 1198.94 730.394 1193.13 751.418 1186.92C804.179 1171.45 865.932 1131.66 854.692 1090.95C833.402 1012.44 731.187 1066.5 677.897 1043.5C673.798 1041.78 670.625 1039.93 668.244 1038.08C702.096 1020.37 729.071 994.464 747.716 961.156C784.609 895.067 786.857 803.6 753.799 716.363C751.154 709.225 748.245 702.352 745.336 695.479C767.551 681.071 813.568 644.326 802.725 592.644C790.692 534.751 713.732 491.793 676.972 505.936C649.996 516.378 632.409 536.072 623.285 548.761C588.905 525.895 549.368 508.447 504.541 496.419C459.714 484.391 416.606 479.765 375.482 482.673C374.027 467.208 368.606 441.697 350.093 419.359C325.63 389.091 237.167 387.901 198.158 431.916C162.72 471.57 184.935 526.423 197.101 549.819C191.15 554.313 185.2 558.939 179.249 563.83C107.183 623.045 63.6782 703.674 62.8848 779.411C62.6203 805.979 67.9096 831.357 77.9593 855.281C66.0584 849.201 53.893 846.69 41.8599 850.126L89.8602 442.358C150.819 395.7 200.01 376.534 263.481 374.419" fill="#E60012"/>
<path d="M597.235 187.916C398.623 47.5434 277.762 65.3874 129.662 106.891L94.356 405.745C150.819 366.62 201.332 349.437 262.82 347.322C291.911 346.397 326.159 355.385 365.961 365.695C419.119 379.574 479.284 395.171 536.012 387.901C619.715 377.195 695.616 344.282 821.105 217.127C736.476 242.902 661.368 233.121 597.235 187.652M256.605 179.325L248.407 244.62C247.349 253.873 239.812 254.798 238.489 255.062C230.82 255.988 226.985 248.454 226.059 245.678L210.985 201.398L206.621 248.057C206.092 253.476 203.051 259.16 195.91 260.085C189.299 260.878 185.596 256.12 184.142 252.419L161.53 190.824C161.266 189.767 161.001 188.841 161.001 187.916C160.472 182.893 162.72 179.06 167.48 178.532C171.051 178.135 173.563 180.118 175.15 184.612L193.662 235.632L198.291 183.819C198.555 180.779 200.539 174.698 207.811 173.773C212.836 173.112 217.464 176.284 219.051 181.307L235.448 230.61L241.134 176.813C241.398 174.17 241.927 169.676 247.613 169.015C253.299 168.354 255.812 172.319 256.341 176.549C256.341 177.606 256.341 178.796 256.341 179.325M305.399 229.816L278.688 228.23C278.688 231.667 279.217 242.109 289.928 242.902C293.366 243.034 295.746 242.241 299.052 237.879C301.696 234.443 303.151 233.782 306.06 233.914C309.498 234.046 311.614 237.615 311.349 240.919C310.82 248.454 301.3 256.516 288.87 255.723C280.01 255.195 263.878 249.114 265.332 223.604C266.787 199.944 280.407 192.278 291.779 192.939C304.473 193.732 314.787 204.703 313.597 218.978C313.2 226.248 310.82 230.213 305.267 229.816M337.663 255.195C337.267 257.574 334.622 261.407 330.523 260.614C326.82 260.085 324.308 256.649 324.969 252.683L336.341 183.29C336.87 179.853 340.176 177.078 343.746 177.606C347.449 178.267 349.697 181.704 349.168 185.14L337.796 255.195H337.663ZM405.763 229.949C404.573 234.443 400.87 235.764 397.697 234.971C395.581 234.443 394.391 233.782 392.54 228.891C390.953 224.529 388.97 222.547 385.135 221.489C376.407 219.242 370.854 228.627 369.002 235.897C367.019 243.695 367.945 254.269 376.936 256.649C379.978 257.442 382.49 257.706 387.118 253.873C390.027 251.361 391.879 250.701 394.259 251.361C398.49 252.551 399.548 256.384 398.755 259.556C397.697 263.786 386.722 273.039 372.969 269.602C360.011 266.298 351.019 252.287 356.044 232.328C358.953 221.225 368.077 203.381 389.631 208.8C398.226 211.047 408.011 221.357 405.763 229.816M463.284 266.694C458.524 278.987 446.623 293.526 425.862 285.728C405.631 277.797 406.689 259.028 411.449 246.206C416.342 233.782 428.375 219.242 449.003 227.173C469.235 235.104 468.044 254.137 463.284 266.694ZM551.219 272.642L540.111 311.899C539.053 315.732 535.483 317.715 531.913 316.657C527.681 315.335 527.02 310.445 527.681 308.198L537.202 275.021C539.185 267.619 532.971 265.901 531.78 265.504C522.789 262.993 519.615 271.452 518.954 273.699L510.491 303.439C509.433 307.008 505.863 309.123 501.896 308.066C497.665 306.876 497.003 301.985 497.665 299.871L507.582 266.562C509.698 259.16 503.218 257.442 501.764 257.045C492.904 254.269 489.731 263.125 489.069 265.24L480.607 294.98C479.549 298.549 475.978 300.532 472.408 299.606C468.177 298.417 467.516 293.79 468.045 291.279L479.284 251.494C479.681 250.304 479.945 246.339 480.21 243.431C480.607 239.598 484.574 237.747 488.541 238.805C493.565 240.258 493.83 244.224 494.094 246.206C497.136 244.488 500.838 242.373 510.227 244.885C514.326 246.074 519.483 248.454 521.599 254.269C523.45 252.948 527.681 249.775 537.731 252.948C549.103 256.384 553.467 264.05 551.086 272.378M606.359 291.279C605.698 298.549 603.318 302.382 597.897 301.853L571.318 299.21C571.318 302.646 571.318 313.088 582.029 314.146C585.335 314.542 587.715 313.749 591.285 309.52C594.062 306.215 595.516 305.554 598.426 305.819C601.864 306.215 603.847 309.652 603.45 312.956C602.789 320.887 592.74 328.157 580.442 326.835C571.582 325.91 555.318 319.697 557.83 293.79C560.21 270.263 574.491 263.125 585.863 264.183C598.558 265.372 607.946 276.74 606.492 291.015M625.004 243.695C632.674 243.431 634.261 249.511 633.864 255.988L630.955 299.738C630.69 302.646 629.632 304.497 627.252 304.629C624.74 304.629 623.417 303.043 623.021 300.003L617.335 256.516C616.674 251.361 617.203 243.959 625.004 243.695ZM627.913 327.892C622.756 328.024 618.525 324.059 618.26 318.904C618.128 313.221 622.095 308.991 627.252 308.859C632.674 308.727 637.302 312.56 637.434 318.243C637.699 323.398 633.335 327.628 627.913 327.892Z" fill="white"/>
<path d="M724.84 727.201C686.228 623.971 609.401 556.428 496.607 526.291C384.606 496.023 284.506 516.642 199.216 587.622C135.083 640.361 94.7526 713.984 94.0914 779.676C93.5625 830.829 115.381 875.637 159.017 913.175C207.811 955.208 277.762 989.442 366.887 1014.95C456.011 1037.16 533.764 1042.18 598.029 1029.76C654.492 1018.92 695.748 990.632 720.74 946.088C752.741 888.723 754.327 804.922 724.972 727.334" fill="white"/>
<path d="M450.193 1062.27C449.532 1066.5 443.978 1095.98 413.036 1089.76C392.275 1085.67 367.151 1080.25 367.151 1080.25C367.151 1080.25 342.424 1075.23 321.663 1071.13C288.605 1064.52 298.126 1031.34 298.126 1031.34L299.316 1025.53C281.2 1018.92 264.01 1011.78 247.745 1004.38C215.613 1045.75 182.158 1111.97 159.943 1217.71C159.018 1222.07 157.827 1227.23 156.373 1233.31C145.265 1280.5 122.786 1375.8 168.009 1441.75C168.274 1441.75 168.538 1441.75 168.803 1441.75C169.464 1441.75 226.456 1479.82 272.605 1505.99C310.424 1514.98 356.044 1517.76 409.73 1514.06C518.161 1506.92 591.417 1478.37 627.913 1429.46C638.36 1392.72 649.071 1343.28 654.757 1317.51C650.525 1271.77 633.996 1228.55 623.682 1201.72C621.566 1196.04 619.583 1191.01 618.128 1186.92C600.806 1137.75 582.029 1098.09 562.855 1065.84C550.293 1066.9 537.334 1067.43 523.979 1067.43C500.441 1067.43 475.582 1065.58 449.796 1062.27" fill="white"/>
<path d="M367.151 857.661C363.052 872.861 377.333 889.515 398.755 895.596C419.78 901.147 440.276 893.613 444.772 878.016C448.871 862.815 434.458 846.029 413.3 840.345C392.011 834.662 371.118 842.46 367.019 857.661" fill="#E60012"/>
<path d="M473.201 916.612C473.201 916.612 440.937 947.145 388.837 932.87C337.267 919.256 323.647 878.148 323.118 876.43C320.738 868.632 312.539 864.138 304.737 866.649C296.936 869.028 292.572 877.223 294.952 885.022C295.613 887.401 313.465 943.576 381.3 961.42C393.862 964.857 405.631 966.179 416.474 966.179C463.813 966.179 492.507 939.215 493.962 937.761C499.78 932.077 500.045 922.824 494.359 916.876C488.673 911.061 479.284 910.796 473.466 916.48" fill="#E60012"/>
<path d="M384.341 741.344C412.11 716.231 419.912 674.991 392.936 648.688C388.308 644.59 381.829 641.55 375.482 638.246C369.664 637.056 364.374 634.809 358.292 634.809C333.3 633.884 311.085 641.418 287.547 649.481C273.002 654.371 258.721 661.773 245.233 668.382C216.539 683.054 195.646 711.604 193.927 745.31C192.869 764.343 200.935 780.469 213.894 794.083C226.192 806.905 244.704 813.117 261.63 810.605C287.68 806.64 303.283 791.44 324.44 778.09C343.878 765.401 366.358 756.677 384.341 741.212M318.093 726.012C320.076 718.61 327.481 714.38 334.754 716.363C342.291 718.346 346.655 725.747 344.672 733.017C342.688 740.419 335.283 744.517 327.878 742.666C320.473 740.684 316.109 733.414 318.093 726.012Z" fill="#E60012"/>
<path d="M644.574 774.653C636.508 761.964 627.252 748.482 617.202 736.982C600.805 718.213 585.467 701.03 562.855 689.134C557.566 686.226 552.012 685.301 546.326 683.318C539.582 683.054 532.441 682.657 526.491 683.847C489.334 693.231 475.846 733.017 487.615 769.101C495.02 791.175 510.888 809.548 521.466 830.696C532.706 852.373 538.789 873.39 559.417 889.78C573.037 900.486 592.21 904.319 609.136 899.164C627.12 893.877 642.591 883.7 650.922 866.781C666.128 836.644 662.029 801.353 644.31 774.521M552.541 788.399C550.557 795.801 543.284 800.031 535.879 798.048C528.342 796.066 523.979 788.796 525.962 781.394C527.945 774.124 535.35 769.762 542.888 771.745C550.293 773.728 554.524 781.13 552.541 788.399Z" fill="#E60012"/>
</svg>
