<svg width="930" height="1382" viewBox="0 0 930 1382" fill="none" xmlns="http://www.w3.org/2000/svg">
<path d="M874.251 813.878C894.351 787.972 918.285 744.089 895.938 700.338C877.425 663.857 833.392 640.858 794.251 634.91C805.623 606.624 816.466 575.298 826.251 540.138C827.573 535.644 829.16 530.225 831.144 523.881C848.598 467.308 883.243 354.164 833.391 263.623C833.656 254.37 833.391 241.285 833.391 222.648C833.391 222.648 832.466 180.219 809.59 108.182C796.763 67.6032 769.391 11.0311 726.019 3.76135C653.423 -9.19206 623.671 24.7776 616.927 61.7873C612.431 86.3724 613.225 122.589 623.01 146.249C595.109 142.548 564.828 140.697 532.034 140.697C419.769 140.697 335.669 162.507 280.66 205.332C271.801 197.005 257.917 187.885 239.008 175.725C183.338 140.037 100.824 124.836 49.2537 178.897C15.799 214.056 29.9477 255.692 58.2454 287.811C119.733 357.469 188.098 389.059 188.098 389.059C195.106 393.289 200.792 396.329 205.685 398.576C209.52 448.407 223.536 494.141 232.792 524.013C234.776 530.225 236.362 535.776 237.685 540.271C247.338 574.901 258.049 605.831 269.156 633.852C227.503 636.76 176.461 660.552 156.098 700.602C133.75 744.485 157.684 788.236 177.916 814.143C148.824 860.801 130.709 910.897 124.759 959.538C96.461 976.193 73.1882 994.962 59.5683 1009.24C16.1961 1054.57 -20.4329 1113.53 15.1376 1173.01C58.2453 1245.04 148.825 1171.29 182.147 1148.95C202.379 1170.23 227.239 1188.34 256.991 1202.61C327.471 1236.45 417.918 1254.29 525.82 1255.75H526.083H526.348C580.563 1255.09 630.415 1250.2 675.638 1241.21C665.589 1290.11 653.82 1370.88 723.771 1380.52C792.532 1389.91 832.466 1333.2 857.325 1275.58C869.491 1247.02 882.582 1192.7 880.334 1137.85C900.301 1113.79 914.583 1086.03 922.516 1055.23C941.426 981.215 923.31 892.921 874.384 814.275" fill="#E60012"/>
<path d="M687.673 195.816C645.358 182.598 593.523 175.857 532.035 175.857C407.604 175.857 322.05 203.218 277.488 257.014C258.314 299.179 241.917 381.79 240.463 386.152C242.711 435.85 257.256 483.434 266.512 513.307C268.496 519.915 270.347 525.731 271.67 530.49C274.711 541.328 277.753 551.77 281.058 561.816C330.513 595.257 402.712 619.842 445.423 632.399C471.076 628.037 497.919 625.658 526.084 625.525C556.895 625.525 586.118 628.433 614.019 633.72C655.937 621.56 731.706 596.314 783.012 561.816C786.185 551.77 789.359 541.328 792.4 530.49C793.723 525.731 795.442 519.915 797.558 513.307C813.293 462.418 844.236 361.302 804.302 283.846H804.037C803.244 283.846 737.789 230.446 687.673 195.684M532.167 608.739C532.167 608.739 482.58 593.803 458.646 563.931H605.821C581.887 593.803 532.3 608.739 532.3 608.739" fill="white"/>
<path d="M358.942 695.051C365.422 708.929 367.538 719.371 367.538 719.371L208.066 831.326C164.164 901.644 147.107 982.141 163.503 1046.25C177.52 1101.36 214.149 1143.27 272.066 1171.02C338.05 1202.61 423.472 1219.4 526.216 1220.72C628.829 1219.4 714.383 1202.61 780.235 1171.02C838.285 1143.27 874.781 1101.36 888.797 1046.25C905.194 982.141 888.136 901.644 844.235 831.326L684.763 719.371C684.763 719.371 686.879 709.061 693.358 695.051C644.168 672.184 588.366 660.42 526.084 660.156C463.803 660.42 408.133 672.184 358.942 695.051Z" fill="white"/>
</svg>
