<svg width="942" height="1377" viewBox="0 0 942 1377" fill="none" xmlns="http://www.w3.org/2000/svg">
<path d="M471.385 1268.86C463.451 1251.14 450.493 1232.64 436.476 1219.03C447.848 1219.55 459.351 1219.82 471.385 1219.82C483.418 1219.82 494.922 1219.42 506.162 1219.03C492.277 1232.64 479.186 1251.01 471.385 1268.86ZM471.385 1333.23C483.021 1356.75 509.468 1375.13 559.319 1376.19C603.221 1376.98 667.089 1324.5 691.552 1289.87C735.188 1228.15 764.676 1130.6 767.85 1105.09C824.71 1013.23 788.345 894.926 770.494 836.636C768.511 830.423 766.924 824.872 765.601 820.378C760.577 802.666 755.42 786.144 749.998 770.283C808.709 747.68 862.396 703.929 886.066 677.362C927.322 630.835 962.231 572.809 927.851 522.978C908.148 494.428 878.132 497.071 848.776 510.421C860.677 491.52 869.801 470.9 875.619 448.694C896.776 365.687 872.578 264.835 810.561 179.184C810.561 179.184 810.428 178.92 810.296 178.92C829.734 152.087 849.701 110.319 828.412 68.5512C797.998 8.8069 700.411 -15.646 664.18 10.5252C651.617 19.3811 642.097 29.9553 634.692 40.2652C585.502 21.0994 531.022 11.1861 470.988 11.0539C411.087 11.1861 356.608 21.0994 307.549 40.2652C300.144 29.8231 290.623 19.3811 278.061 10.5252C241.962 -15.646 144.374 8.8069 113.961 68.5512C92.6717 110.319 112.639 152.087 132.077 178.92C132.077 178.92 131.944 179.052 131.812 179.184C69.9274 264.835 45.5969 365.687 66.754 448.694C72.44 470.9 81.5643 491.52 93.4652 510.421C64.1096 497.071 34.2246 494.428 14.3897 522.978C-19.8584 572.677 14.9191 630.835 56.1756 677.362C79.8452 703.929 133.531 747.68 192.242 770.283C186.821 786.144 181.664 802.666 176.771 820.378C175.449 824.872 173.862 830.291 171.879 836.636C153.895 894.794 117.664 1013.09 174.391 1104.96C177.565 1130.47 207.185 1228.15 250.821 1289.87C275.284 1324.5 339.02 1376.98 383.054 1376.19C432.905 1375.13 459.352 1356.62 470.988 1333.23" fill="#E60012"/>
<path d="M471.385 46.3452C338.095 46.7417 233.632 98.4232 160.772 199.936C105.763 276.202 83.0193 368.198 101.4 440.235C115.813 496.41 152.97 539.236 212.21 567.654C279.384 599.905 366.658 616.956 471.518 618.41C576.378 616.956 663.651 599.905 730.825 567.654C790.065 539.368 827.355 496.542 841.636 440.235C860.016 368.33 837.272 276.202 782.131 200.068C709.271 98.5554 604.676 46.8739 471.385 46.4774" fill="white"/>
<path d="M471.384 1184.66C519.385 1184.66 561.699 1180.56 597.931 1172.5C652.807 1143.55 722.493 1099.93 733.337 1093.72C788.477 1014.81 753.7 901.799 736.775 847.078C734.791 840.469 732.94 834.785 731.617 830.027C706.89 741.864 676.741 678.816 645.931 633.611C618.691 639.955 589.865 644.978 559.187 648.283C558.526 659.121 553.633 682.252 524.277 682.252H418.491C389.136 682.252 384.244 659.121 383.583 648.283C353.037 644.978 324.21 640.088 297.235 633.743C266.16 678.948 235.879 741.864 211.151 830.027C209.829 834.785 208.11 840.469 205.994 847.078C189.068 901.799 154.424 1014.68 209.432 1093.72C220.143 1100.07 289.962 1143.55 344.706 1172.63C381.07 1180.69 423.252 1184.79 471.252 1184.79" fill="white"/>
<path d="M471.518 315.195C496.51 315.195 517.139 300.92 517.139 282.944C517.139 264.967 496.642 250.56 471.518 250.56C446.394 250.56 425.766 265.1 425.766 282.944C425.766 300.788 446.262 315.195 471.518 315.195Z" fill="#E60012"/>
<path d="M355.02 262.853C373.004 243.29 395.483 227.561 410.161 205.355C433.83 169.535 430.393 122.348 392.442 101.199C386.095 98.0271 378.028 96.5731 370.491 94.7227C363.615 95.3835 357.269 94.7226 350.525 96.3088C322.492 102.653 300.409 116.796 276.739 132.658C262.061 142.307 248.308 154.467 235.746 165.834C208.242 190.287 193.3 227.429 201.366 265.1C205.73 286.116 219.482 301.316 237.863 312.287C255.317 322.861 277.664 324.183 295.251 316.781C323.02 304.753 335.846 283.472 354.888 262.853M374.59 128.692C383.45 128.692 390.458 135.566 390.458 144.157C390.458 152.749 383.45 159.622 374.59 159.622C365.731 159.622 358.855 152.881 358.855 144.157C358.855 135.433 365.731 128.692 374.59 128.692Z" fill="#E60012"/>
<path d="M707.024 165.834C694.462 154.599 680.71 142.307 666.032 132.658C642.362 116.796 620.279 102.653 592.114 96.3088C585.37 94.7226 578.89 95.2514 572.147 94.7227C564.609 96.441 556.543 98.0271 550.196 101.199C512.246 122.348 508.94 169.535 532.477 205.355C547.155 227.561 569.766 243.29 587.75 262.853C606.791 283.472 619.618 304.753 647.387 316.781C664.974 324.183 687.454 322.861 704.776 312.287C723.156 301.316 736.909 286.116 741.272 265.1C749.338 227.429 734.396 190.287 706.891 165.834M567.915 159.754C558.923 159.754 551.915 153.013 551.915 144.289C551.915 135.566 558.923 128.824 567.915 128.824C576.907 128.824 583.651 135.698 583.651 144.289C583.651 152.881 576.775 159.754 567.915 159.754Z" fill="#E60012"/>
<path d="M617.766 311.362C609.7 307.264 599.782 310.436 595.551 318.631C593.964 321.672 556.278 393.312 471.252 393.312C386.227 393.312 348.674 321.672 347.087 318.764C342.988 310.569 333.07 307.396 324.872 311.494C316.806 315.591 313.499 325.505 317.598 333.7C319.45 337.533 365.599 426.488 471.252 426.488C576.906 426.488 623.056 337.533 624.907 333.7C629.006 325.637 625.7 315.724 617.634 311.626" fill="#E60012"/>
</svg>
