<svg width="1170" height="1536" viewBox="0 0 1170 1536" fill="none" xmlns="http://www.w3.org/2000/svg">
<path d="M1169.12 839.08L1144.92 680.731C1143.99 674.519 1140.16 669.099 1134.6 666.059C1129.18 663.019 1122.44 662.887 1116.89 665.399L1049.58 695.006C1062.8 675.048 1072.72 652.974 1078.8 629.05C1100.09 545.646 1076.03 444.397 1014.27 358.085C1009.25 351.08 1004.09 344.207 998.802 337.598C1019.03 315.392 1058.97 261.728 1031.86 208.196C1001.58 148.187 904.521 123.602 868.553 149.906C841.842 168.939 828.355 195.639 822.14 212.293C777.842 197.225 729.181 189.427 676.42 189.162C623.659 189.427 575.13 197.225 530.832 212.161C524.617 195.507 511.129 168.939 484.418 149.773C448.451 123.47 351.392 147.923 321.111 208.064C294.004 261.596 333.938 315.26 354.169 337.466C348.88 344.075 343.723 350.816 338.698 357.953C276.946 444.265 252.88 545.646 274.169 629.05C286.995 679.277 316.219 721.442 359.194 753.032C328.252 757.923 301.144 765.721 283.69 772.727C225.64 796.387 168.515 833.396 177.507 893.405C189.408 973.24 324.814 926.317 350.203 924.467C374.004 922.748 390.533 928.564 401.905 937.156C394.897 956.983 388.021 978.131 381.674 1001C380.352 1005.49 378.633 1011.04 376.781 1017.26C370.831 1036.42 363.029 1061.93 357.078 1090.88C352.186 1092.07 347.558 1093.65 342.93 1095.9C291.492 1121.28 280.913 1204.55 319.128 1281.88C357.343 1359.07 430.071 1400.97 481.377 1375.59C483.757 1374.4 485.873 1373.08 488.121 1371.62C537.972 1391.05 600.783 1400.97 676.42 1400.97C697.841 1400.97 718.073 1400.17 737.379 1398.59C730.238 1418.41 726.668 1441.94 726.8 1459.92C727.065 1497.72 750.602 1536.19 824.52 1535.92C868.553 1536.19 905.314 1485.03 925.016 1447.23C959.794 1380.22 968.124 1338.45 968.124 1338.45C973.678 1305.67 977.38 1290.2 975.794 1282.4C1014.8 1215.92 1006.6 1136.61 992.455 1075.94L1042.44 1052.68C1069.55 1070.79 1098.9 1078.45 1123.23 1053.21C1165.28 1009.32 1140.16 946.144 1106.57 893.273C1100.62 883.888 1092.03 872.257 1081.32 859.964L1147.96 862.211C1147.96 862.211 1148.62 862.211 1148.89 862.211C1154.7 862.211 1160.13 859.7 1164.09 855.338C1168.19 850.712 1169.91 844.631 1168.99 838.816" fill="#E60012"/>
<path d="M676.551 224.454C544.054 224.982 439.988 276.796 367.657 378.573C312.648 455.368 290.036 548.025 308.549 620.458C322.962 676.633 359.987 719.459 418.698 747.745C485.608 780.129 572.484 797.312 676.684 798.633C780.883 797.312 867.627 780.129 934.669 747.745C993.38 719.459 1030.4 676.633 1044.82 620.458C1063.33 548.157 1040.72 455.5 985.843 378.705C913.379 276.928 809.445 225.115 676.684 224.586" fill="white"/>
<path d="M676.816 658.393C701.676 658.393 722.172 644.118 722.172 626.142C722.172 608.166 701.808 593.626 676.816 593.626C651.824 593.626 631.328 608.166 631.328 626.142C631.328 644.118 651.692 658.393 676.816 658.393Z" fill="#E60012"/>
<path d="M787.89 654.296C780.089 649.405 769.775 651.784 764.75 659.583C763.692 661.301 736.981 702.541 676.551 702.541C616.12 702.541 589.41 661.433 588.352 659.715C583.459 651.784 573.145 649.405 565.211 654.164C557.277 659.054 554.897 669.364 559.657 677.295C561.112 679.674 596.683 736.114 676.419 736.114C756.155 736.114 791.725 679.674 793.18 677.295C797.94 669.496 795.56 659.186 787.626 654.296" fill="#E60012"/>
<path d="M615.724 493.7C639.129 457.747 635.824 410.428 598.137 389.147C591.79 386.107 583.856 384.521 576.319 382.67C569.575 383.331 563.096 382.67 556.484 384.389C528.583 390.733 506.633 404.876 482.963 420.87C468.418 430.519 454.665 442.811 442.235 454.046C414.863 478.631 399.921 515.905 407.987 553.708C412.351 574.857 425.971 590.057 444.351 601.16C461.674 611.734 484.021 613.056 501.476 605.654C529.112 593.626 541.939 572.213 560.848 551.593C578.699 531.899 601.046 516.038 615.724 493.832M538.5 496.343C538.5 487.752 545.377 480.746 554.104 480.746C562.832 480.746 569.972 487.619 569.972 496.343C569.972 505.067 562.964 511.94 554.104 511.94C545.245 511.94 538.5 505.199 538.5 496.343Z" fill="#E60012"/>
<path d="M910.999 454.046C898.569 442.811 884.817 430.519 870.271 420.87C846.601 404.876 824.651 390.733 796.75 384.389C790.006 382.67 783.659 383.331 776.915 382.67C769.378 384.389 761.312 385.975 755.097 389.147C717.411 410.428 713.973 457.747 737.51 493.7C752.188 515.905 774.535 531.767 792.386 551.461C811.296 572.213 824.122 593.494 851.759 605.654C869.213 613.188 891.561 611.734 908.883 601.16C927.131 590.057 940.883 574.857 945.247 553.708C953.181 515.905 938.371 478.631 910.999 454.046ZM798.998 511.676C790.138 511.676 783.13 504.935 783.13 496.079C783.13 487.223 790.138 480.482 798.998 480.482C807.858 480.482 814.601 487.355 814.601 496.079C814.601 504.803 807.725 511.676 798.998 511.676Z" fill="#E60012"/>
<path d="M951.727 938.874L935.462 945.747L919.198 952.885L895.793 963.062L889.313 965.838L876.486 971.39L877.412 973.24L917.743 1072.24L951.198 1056.78L967.462 1049.24L983.595 1041.71L1012.42 1028.36L1025.25 1022.28L967.066 932.133L951.727 938.874Z" fill="white"/>
<path d="M1113.18 705.448L1030.14 742.061L1039.79 817.931C1042.04 819.914 1044.16 821.897 1046.4 823.879L1131.69 826.787L1113.18 705.448Z" fill="white"/>
<path d="M918.933 1110.44C916.289 1111.76 913.247 1112.42 910.206 1112.42C907.694 1112.42 905.181 1112.03 902.801 1111.1C897.512 1109.12 893.148 1104.89 891.032 1099.73L826.371 941.253C790.668 968.614 742.271 987.912 676.684 987.912C616.65 987.912 571.295 971.787 536.65 948.127C505.84 927.11 483.625 900.278 467.624 873.05C453.079 902.129 439.195 936.231 426.368 976.016C422.798 987.251 419.227 998.619 415.922 1010.78C414.599 1015.54 412.748 1021.35 410.764 1027.96C405.739 1044.48 398.996 1066.29 393.574 1090.75C434.963 1099.21 478.732 1135.95 505.443 1190.01C533.476 1246.45 535.195 1306.06 514.038 1344C557.542 1358.67 611.758 1366.07 676.684 1366.07C709.345 1366.07 739.362 1364.22 766.601 1360.39C767.792 1359.99 768.982 1359.46 770.172 1359.2C801.776 1352.99 897.115 1301.31 934.404 1281.08C935.198 1280.16 935.991 1279.23 936.784 1278.17C977.776 1222.66 972.487 1149.43 959.793 1091.41L918.801 1110.44H918.933Z" fill="white"/>
<path d="M786.304 928.828L791.858 854.28C776.651 856.395 760.915 858.246 744.783 859.567C729.18 860.889 713.179 861.814 696.783 862.343C690.171 862.475 683.956 863.004 677.212 863.136C674.436 863.136 671.791 862.872 669.014 862.872V955C671.526 955 673.906 955.264 676.551 955.264C718.733 955.264 755.362 946.408 786.304 928.961" fill="white"/>
<path d="M541.542 911.249L535.063 850.183C518.269 847.143 501.872 843.838 486.137 839.873C498.302 864.722 515.889 890.497 541.542 911.249Z" fill="white"/>
<path d="M361.045 221.149C339.888 319.49 242.83 382.01 144.581 360.861C46.2002 339.713 -16.3458 242.827 4.81136 144.486C25.9685 46.1461 122.895 -16.3739 221.276 4.7745C319.656 25.9229 382.202 122.809 361.045 221.149Z" fill="white"/>
<path d="M354.433 161.669C352.186 143.957 347.293 126.907 339.755 110.781C339.755 110.517 339.756 110.384 339.624 110.252L338.83 108.534L337.772 106.287C337.64 105.89 337.243 105.626 336.979 105.229C324.152 79.7191 305.375 57.7776 282.102 41.5198C281.97 41.5198 281.838 41.2554 281.706 41.2554C281.573 41.2554 281.441 41.1232 281.309 40.9911L278.4 39.0084C278.4 39.0084 277.871 38.8762 277.607 38.744C259.755 27.1124 240.185 18.653 219.292 14.159C196.68 9.26841 173.672 9.00406 151.192 13.2337L146.432 14.0268C146.432 14.0268 145.506 14.5555 144.978 14.8199C118.928 20.6357 94.3322 32.5317 73.5718 49.4504C73.3073 49.5826 73.0429 49.7148 72.7784 49.847L71.4564 50.9044L69.2083 52.8871C69.2083 52.8871 68.944 53.1514 68.944 53.2836C55.7207 64.9152 44.4809 78.133 35.3568 93.0691C25.3072 109.459 18.1664 127.435 14.0672 146.469C12.6127 153.21 11.5551 160.215 11.0261 167.221C11.0261 167.485 10.8938 167.617 10.8938 167.882V169.864H10.7614V172.111C10.7614 172.111 10.7614 172.64 10.7614 173.037C9.43909 195.507 12.6127 217.713 20.2822 239.654C20.2822 240.051 20.2822 240.447 20.2822 240.844L22.0012 245.338C22.0012 245.338 22.0012 245.338 22.0012 245.602C22.0012 245.734 22.0014 245.999 22.1336 246.131C22.1336 246.131 22.2657 246.395 22.3979 246.527C30.7286 267.279 42.6296 286.049 58.1008 302.174C74.1009 318.829 92.8778 332.046 114.167 341.299L118.531 343.149C118.531 343.149 119.457 343.281 119.985 343.414C128.581 346.718 137.44 349.626 146.432 351.609C157.275 353.988 168.382 355.177 179.754 355.442H187.292L187.424 355.574C188.35 355.574 189.275 355.442 190.068 355.177C209.771 354.384 228.945 350.419 247.325 343.017C268.615 334.426 287.524 322.001 303.921 306.007L307.359 302.571C307.359 302.571 307.623 301.91 307.887 301.513C324.416 284.198 336.979 264.239 345.177 241.769L346.499 238.2C346.499 238.2 346.499 237.804 346.499 237.539C348.483 231.459 350.334 225.379 351.656 219.034C355.756 200.001 356.681 180.571 354.301 161.405M89.0431 63.5934C107.027 49.4504 128.052 39.5371 150.267 34.6465L191.92 67.1622L196.151 70.4667L185.573 119.637L127.523 145.279L87.7207 122.413L88.1174 105.758L89.1755 63.5934H89.0431ZM31.3896 176.077L77.8033 141.182L116.68 163.388L123.159 226.701L119.589 229.873L93.9357 253.004L71.4564 244.677L39.7203 233.045C33.2409 214.673 30.332 195.507 31.2577 176.077M292.152 287.37L233.97 283.141V282.612L218.631 247.585L250.763 192.334L254.995 191.938L295.458 188.237L323.226 238.993C316.086 256.969 305.508 273.227 292.02 287.238M294.003 166.956L248.383 171.186L206.069 123.866L216.647 74.6964L273.111 60.9499C291.359 74.5642 306.433 92.276 317.012 112.499L294.003 166.824V166.956ZM126.597 323.323L108.614 268.469L119.721 258.291L137.175 242.562L198.928 255.78L214.135 291.071L174.862 333.897C158.465 332.972 141.804 329.403 126.597 323.323Z" fill="#E60012"/>
</svg>
