<svg width="1593" height="1581" viewBox="0 0 1593 1581" fill="none" xmlns="http://www.w3.org/2000/svg">
<mask id="mask0_285_2025" style="mask-type:luminance" maskUnits="userSpaceOnUse" x="0" y="0" width="1593" height="1282">
<path d="M1593 0H0V1281.34H1593V0Z" fill="white"/>
</mask>
<g mask="url(#mask0_285_2025)">
<path d="M1224.94 608.489C1247.65 519.566 1221.98 411.588 1156.24 319.7C1150.88 312.22 1145.37 304.88 1139.73 297.822C1161.32 274.11 1203.78 216.945 1175 159.78C1142.84 95.8396 1039.43 69.586 1001.06 97.6745C972.56 118 958.311 146.371 951.54 164.155C904.28 148.064 852.506 139.737 796.359 139.595C740.212 139.878 688.438 148.064 641.319 164.155C634.689 146.371 620.3 118 591.803 97.6745C553.431 69.586 450.024 95.6984 417.859 159.78C389.08 216.945 431.543 274.11 453.128 297.822C447.485 304.88 441.983 312.078 436.622 319.7C370.882 411.729 345.207 519.707 367.919 608.631C383.72 670.453 422.515 720.843 480.637 755.707C458.912 772.08 416.872 811.178 410.806 870.884C403.47 943.575 437.892 986.343 481.06 1010.06C479.932 1013.87 478.662 1017.96 477.251 1022.76C458.63 1083.17 421.527 1203.99 474.853 1300.82C474.571 1310.7 474.853 1324.67 474.853 1344.58C474.853 1344.58 475.84 1389.89 500.246 1466.81C513.93 1510.14 543.273 1570.55 589.546 1578.32C666.995 1592.15 698.736 1555.88 705.931 1516.35C710.728 1490.1 709.881 1451.43 699.442 1426.02C729.208 1429.97 761.514 1431.95 796.5 1431.95C831.486 1431.95 863.792 1429.97 893.559 1426.02C883.119 1451.28 882.273 1490.1 887.069 1516.35C894.264 1556.02 926.005 1592.15 1003.45 1578.32C1049.73 1570.55 1078.93 1510.14 1092.61 1466.81C1117.02 1390.03 1118.01 1344.58 1118.01 1344.58C1118.01 1324.67 1118.15 1310.7 1118.01 1300.82C1171.33 1204.13 1134.23 1083.31 1115.61 1022.9C1114.2 1018.1 1112.93 1014.01 1111.8 1010.2C1154.83 986.484 1189.39 943.716 1182.05 871.025C1176.13 811.319 1133.95 772.362 1112.22 755.848C1170.34 720.985 1209.14 670.595 1224.94 608.772" fill="#E60012"/>
<path d="M796.5 177.141C655.286 177.705 544.543 232.894 467.376 341.437C408.831 423.303 384.848 522.107 404.458 599.174C419.835 659.162 459.194 704.752 521.689 734.958C593.073 769.398 685.476 787.748 796.359 789.159C907.384 787.748 999.787 769.398 1071.03 734.958C1133.52 704.752 1173.03 659.021 1188.26 599.174C1208.01 522.107 1183.89 423.303 1125.34 341.437C1048.18 232.894 937.433 177.705 796.077 177.141" fill="white"/>
<path d="M796.642 639.683C823.163 639.683 844.889 624.439 844.889 605.243C844.889 586.047 823.163 570.521 796.642 570.521C770.12 570.521 748.112 586.047 748.112 605.243C748.112 624.439 769.838 639.683 796.642 639.683Z" fill="#E60012"/>
<path d="M915.002 635.308C906.679 630.085 895.675 632.767 890.455 640.954C889.326 642.789 860.83 686.686 796.5 686.686C732.171 686.686 703.674 642.788 702.545 641.095C697.326 632.626 686.322 629.944 677.999 635.167C669.534 640.389 666.995 651.399 672.074 659.726C673.625 662.267 711.433 722.537 796.5 722.537C881.567 722.537 919.234 662.267 920.927 659.726C926.006 651.399 923.466 640.389 915.143 635.308" fill="#E60012"/>
<path d="M731.747 464.095C756.717 425.844 753.19 375.313 712.984 352.729C706.213 349.342 697.748 347.648 689.707 345.813C682.512 346.519 675.741 345.813 668.546 347.507C638.78 354.282 615.503 369.385 590.392 386.322C574.873 396.626 560.343 409.753 546.941 421.751C517.739 448.004 501.939 487.667 510.544 527.894C515.199 550.478 529.73 566.569 549.198 578.425C567.538 589.717 591.379 591.128 610.001 583.224C639.485 570.38 653.028 547.514 673.202 525.494C692.247 504.604 716.088 487.667 731.747 463.954M649.501 466.636C649.501 457.32 656.837 449.98 666.148 449.98C675.459 449.98 683.077 457.32 683.077 466.636C683.077 475.951 675.741 483.15 666.148 483.15C656.555 483.15 649.501 475.951 649.501 466.636Z" fill="#E60012"/>
<path d="M1046.2 421.892C1032.94 409.894 1018.41 396.767 1002.75 386.464C977.639 369.526 954.22 354.423 924.454 347.648C917.259 345.954 910.488 346.519 903.293 345.954C895.393 347.789 886.787 349.483 880.016 352.87C839.81 375.454 836.283 425.985 861.253 464.236C876.912 487.949 900.754 504.887 919.798 525.777C939.972 547.796 953.515 570.662 982.999 583.506C1001.62 591.411 1025.46 589.999 1043.8 578.707C1063.27 566.851 1077.94 550.76 1082.46 528.176C1091.06 487.949 1075.12 448.145 1046.06 422.033M926.852 483.432C917.4 483.432 909.923 476.234 909.923 466.918C909.923 457.602 917.4 450.262 926.852 450.262C936.304 450.262 943.499 457.602 943.499 466.918C943.499 476.234 936.163 483.432 926.852 483.432Z" fill="#E60012"/>
<path d="M1077.1 1024.74C1064.26 1028.83 1051.42 1031.65 1039.43 1033.49C1014.88 1037.16 989.63 1038.43 966.635 1035.32C956.901 1053.95 941.806 1070.75 922.902 1083.59C919.093 1086.28 915.143 1088.53 911.193 1090.79C909.923 1091.5 908.513 1091.78 907.102 1091.78C905.409 1091.78 903.575 1091.22 902.164 1090.23C899.484 1088.25 898.214 1085.01 898.779 1081.76L904.422 1051.84L877.335 1046.75C875.078 1046.33 873.244 1045.06 871.975 1043.23C870.705 1041.39 870.282 1039.13 870.705 1036.87L875.784 1009.77L848.698 1004.69C844.042 1003.85 841.08 999.329 841.926 994.812L847.005 967.711L810.326 960.795C807.222 960.231 804.683 957.831 803.695 954.726C802.849 951.621 803.695 948.233 806.235 946.116C811.313 941.599 816.251 937.647 821.047 934.4C844.183 918.592 870.423 910.405 895.393 910.546C920.927 883.446 970.444 875.824 986.526 868.767C1000.92 862.556 1005.85 853.099 1005.71 842.937C998.094 829.245 990.335 816.683 982.576 805.391C953.656 812.307 922.902 817.53 890.314 821.2C889.468 832.915 884.107 857.192 853.071 857.192H740.212C709.176 857.192 703.674 832.915 702.969 821.2C670.381 817.671 639.768 812.449 610.989 805.532C603.089 816.965 595.33 829.527 587.571 843.219C587.571 853.24 592.508 862.697 606.757 868.908C623.403 876.106 675.318 884.011 700.147 913.087C724.835 913.511 749.946 921.697 772.236 936.941C777.173 940.329 782.111 944.14 787.049 948.656C789.447 950.774 790.434 954.161 789.588 957.266C788.741 960.372 786.202 962.771 782.957 963.336L746.278 970.252L751.357 997.353C752.203 1002.01 749.241 1006.39 744.585 1007.23L717.499 1012.31L722.578 1039.41C723.001 1041.67 722.578 1043.93 721.167 1045.77C719.898 1047.6 717.923 1048.87 715.807 1049.3L688.72 1054.38L694.363 1084.44C694.928 1087.69 693.658 1090.93 690.978 1092.91C689.567 1093.9 687.733 1094.46 686.04 1094.46C684.629 1094.46 683.219 1094.04 681.949 1093.33C677.999 1091.07 674.049 1088.82 670.24 1086.13C650.631 1072.73 635.113 1055.08 625.379 1035.46C602.666 1038.29 577.837 1037.02 553.713 1033.49C541.722 1031.79 528.884 1028.97 516.047 1024.74C515.2 1027.56 514.354 1030.38 513.366 1033.49C496.579 1087.83 463.567 1195.81 506.172 1278.52C506.172 1278.52 506.313 1278.52 506.454 1278.52C507.3 1278.52 577.131 1335.68 630.598 1372.67C675.601 1386.78 731.042 1393.98 796.5 1393.98C861.958 1393.98 917.4 1386.78 962.403 1372.67C1015.87 1335.54 1085.7 1278.52 1086.55 1278.52C1086.55 1278.52 1086.69 1278.52 1086.83 1278.52C1129.43 1195.81 1096.28 1087.83 1079.63 1033.49C1078.65 1030.24 1077.8 1027.42 1076.95 1024.59M839.528 1144.01C829.088 1155.16 814.558 1160.8 796.359 1160.8C778.161 1160.8 763.771 1155.16 753.191 1144.01C741.059 1131.02 735.134 1111.12 736.685 1087.69C740.212 1032.36 784.086 972.228 789.306 965.171C790.575 963.195 792.833 961.783 795.231 961.501C798.475 961.078 801.72 962.63 803.413 965.312C809.197 973.075 852.366 1032.78 855.892 1087.69C857.444 1111.12 851.519 1131.02 839.387 1144.01" fill="white"/>
<path d="M642.871 1032.07C650.348 1045.48 660.928 1057.76 674.048 1067.93L670.521 1049.01C669.675 1044.35 672.638 1039.98 677.293 1039.13L704.379 1034.05L699.3 1006.95C698.877 1004.69 699.3 1002.43 700.711 1000.6C701.981 998.764 703.956 997.494 706.072 997.07L733.158 991.989L728.079 964.888C727.233 960.231 730.195 955.855 734.851 955.008L761.373 950.068C745.29 939.341 727.656 932.989 710.304 930.872C714.395 942.587 714.96 956.42 709.599 973.498C699.159 1007.09 674.048 1024.59 643.012 1032.22" fill="white"/>
<path d="M948.859 1031.79C918.388 1024.03 893.841 1006.53 883.542 973.499C877.758 955.008 878.887 940.188 883.966 928.049C866.332 930.025 848.274 936.659 831.769 947.527L858.29 952.467C862.946 953.314 865.908 957.831 865.062 962.348L859.983 989.448L887.069 994.53C889.327 994.953 891.16 996.223 892.43 998.058C893.7 999.893 894.123 1002.15 893.841 1004.41L888.762 1031.51L915.848 1036.59C920.363 1037.44 923.466 1041.96 922.62 1046.47L919.093 1065.39C931.649 1055.79 941.524 1044.21 949 1031.65" fill="white"/>
<path d="M753.755 1088.82C753.05 1099.68 753.755 1119.73 765.746 1132.43C772.941 1140.05 783.24 1143.86 796.5 1143.86C809.761 1143.86 820.06 1140.05 827.254 1132.43C839.246 1119.59 839.951 1099.54 839.246 1088.82C836.706 1048.87 809.338 1003.85 796.5 984.649C783.663 1003.85 756.295 1048.59 753.755 1088.82ZM828.383 1099.4C828.383 1117.05 814.135 1131.3 796.5 1131.3C778.866 1131.3 764.618 1117.05 764.618 1099.4C764.618 1081.76 778.866 1067.5 796.5 1067.5C814.135 1067.5 828.383 1081.76 828.383 1099.4Z" fill="white"/>
</g>
<path d="M976.933 1251.98C974.817 1249.73 971.854 1248.45 968.751 1248.45H954.079C949.847 1227.28 928.686 1211.33 904.139 1212.6C896.521 1197.36 879.734 1187.06 860.407 1187.06C855.187 1187.06 850.108 1187.9 845.171 1189.31C833.744 1175.76 815.827 1167.58 796.359 1167.58C776.891 1167.58 758.975 1175.76 747.548 1189.31C742.61 1187.76 737.532 1187.06 732.312 1187.06C713.126 1187.06 696.197 1197.36 688.579 1212.6C663.75 1211.33 642.73 1227.28 638.639 1248.45H623.968C620.864 1248.45 617.901 1249.73 615.785 1251.98C613.669 1254.24 612.541 1257.21 612.682 1260.31C612.682 1261.58 618.889 1367.16 721.026 1402.87V1437.31C721.026 1443.52 726.105 1448.6 732.312 1448.6H859.983C866.19 1448.6 871.269 1443.52 871.269 1437.31V1402.87C973.406 1367.16 979.613 1261.58 979.613 1260.31C979.613 1257.21 978.626 1254.24 976.51 1251.98" fill="#E60012"/>
<path d="M906.96 1235.05C904.703 1235.05 902.305 1235.33 899.343 1236.18C896.38 1237.02 893.135 1236.46 890.455 1234.76C887.774 1233.07 885.941 1230.39 885.376 1227.28C883.542 1217.26 872.68 1209.5 860.406 1209.5C855.61 1209.5 850.813 1210.77 846.581 1213.03C841.079 1215.99 834.308 1214.01 831.345 1208.65C824.997 1197.36 811.172 1190.02 796.359 1190.02C781.546 1190.02 767.862 1197.36 761.373 1208.65C758.41 1214.01 751.498 1215.99 746.137 1213.03C741.905 1210.77 737.108 1209.5 732.312 1209.5C719.897 1209.5 709.176 1217.12 707.342 1227.28C706.777 1230.39 704.943 1233.07 702.263 1234.76C699.583 1236.46 696.479 1237.02 693.375 1236.18C690.554 1235.47 688.156 1235.05 685.899 1235.05C675.177 1235.05 666.007 1240.55 662.198 1248.45H930.52C926.852 1240.69 917.682 1235.05 906.819 1235.05" fill="white"/>
<path d="M951.963 1271.04H636.946C641.178 1295.88 657.825 1353.05 721.731 1378.88C725.258 1380.29 728.785 1381.7 732.594 1382.83C749.946 1388.47 770.402 1391.86 794.666 1392C795.231 1392 795.795 1392 796.5 1392C797.206 1392 797.77 1392 798.334 1392C822.458 1391.86 842.913 1388.47 860.265 1382.97C864.074 1381.7 867.742 1380.43 871.128 1379.02C935.316 1353.19 951.822 1296.02 955.913 1271.18H951.681L951.963 1271.04Z" fill="white"/>
</svg>
